<?xml version="1.0" encoding="utf-8"?>
<!-- Generator: Adobe Illustrator 16.0.4, SVG Export Plug-In . SVG Version: 6.00 Build 0)  -->
<!DOCTYPE svg PUBLIC "-//W3C//DTD SVG 1.1//EN" "http://www.w3.org/Graphics/SVG/1.1/DTD/svg11.dtd">
<svg version="1.1" id="Layer_1" xmlns="http://www.w3.org/2000/svg" xmlns:xlink="http://www.w3.org/1999/xlink" x="0px" y="0px"
	 width="49.074px" height="40px" viewBox="0 0 49.074 40" enable-background="new 0 0 49.074 40" xml:space="preserve">
<g>
	<g>
		<g>
			<ellipse fill="#1C69D4" cx="29.058" cy="19.718" rx="0.996" ry="0.507"/>
			<path fill="#1C69D4" d="M29.058,20.429c-0.686,0-1.201-0.306-1.201-0.71c0-0.406,0.516-0.712,1.201-0.712
				s1.201,0.306,1.201,0.712C30.259,20.124,29.744,20.429,29.058,20.429z M29.058,19.416c-0.492,0-0.793,0.195-0.793,0.303
				c0,0.105,0.301,0.301,0.793,0.301s0.793-0.195,0.793-0.301C29.851,19.611,29.55,19.416,29.058,19.416z"/>
		</g>
		<g>
			<path fill="#1C69D4" d="M16.201,22.948c1.561-0.058,4.041-0.104,4.9-0.105c-0.021,1.567,2.709,2.065,3.537,2.065
				c0.826,0,1.568,0,2.502,0c0.93,0,1.549-0.466,1.549-1.612c0-1.145-0.238-2.125-0.238-2.125c-0.217-0.485-0.73-0.55-1.914-0.55
				c-1.178,0-3.053,0-3.676,0c-1.527,0-1.699,0.499-1.803,1.017c-0.113-0.213-0.312-0.245-0.582-0.314
				c-0.268-0.075-3.418-0.914-4.145-1.132c-0.727-0.215-2.113-0.668-2.328,0.062c-0.209,0.732-0.541,2.023,0.547,2.023
				C14.507,22.925,14.968,22.992,16.201,22.948z M21.582,21.51c0.209-0.337,0.549-0.562,1.178-0.553
				c0.84,0.012,3.732,0.088,4.238,0.132c0.514,0.044,0.939,0.21,1,0.967c0.064,0.755,0.229,1.724-0.316,2.081
				c-0.545,0.355-2.568,0.277-3.365,0.19c-0.799-0.085-2.607-0.462-2.734-1.177C21.455,22.434,21.369,21.846,21.582,21.51z"/>
			<path fill="#1C69D4" d="M27.14,25.113h-2.502c-0.668,0-2.414-0.29-3.262-1.148c-0.27-0.273-0.426-0.581-0.469-0.918
				c-1.002,0.008-3.27,0.052-4.699,0.105c-0.205,0.007-0.367,0.01-0.51,0.01l0,0c-0.545,0-0.953-0.048-1.178-0.289
				c-0.098-0.104-0.154-0.24-0.172-0.407c-0.244-0.035-0.436-0.143-0.568-0.318c-0.34-0.451-0.186-1.205,0.027-1.951
				c0.072-0.25,0.293-0.547,0.922-0.547c0.5,0,1.109,0.182,1.551,0.314l0.109,0.032c0.545,0.164,2.461,0.68,3.49,0.956
				c0.34,0.091,0.584,0.156,0.65,0.176l0.066,0.017c0.121,0.029,0.242,0.06,0.354,0.117c0.174-0.463,0.594-0.844,1.91-0.844h3.676
				c1.119,0,1.818,0.033,2.102,0.673l0.008,0.017l0.004,0.017c0.01,0.042,0.242,1.018,0.242,2.173
				C28.892,24.468,28.269,25.113,27.14,25.113z M21.306,22.738l-0.002,0.106c-0.004,0.308,0.115,0.581,0.363,0.833
				c0.771,0.782,2.447,1.026,2.971,1.026h2.502c0.904,0,1.344-0.461,1.344-1.408c0-1.022-0.193-1.92-0.227-2.059
				c-0.156-0.326-0.52-0.411-1.721-0.411h-0.922c0.648,0.02,1.199,0.042,1.402,0.059c0.512,0.043,1.109,0.212,1.184,1.154
				c0.008,0.085,0.016,0.173,0.025,0.262c0.072,0.761,0.154,1.622-0.434,2.006c-0.303,0.198-0.965,0.298-1.969,0.298
				c-0.621,0-1.197-0.039-1.529-0.074c-0.111-0.013-2.729-0.304-2.914-1.345C21.353,23.03,21.328,22.88,21.306,22.738z
				 M22.72,21.161c-0.604,0-0.834,0.243-0.965,0.457c-0.172,0.271-0.09,0.837,0.025,1.496c0.088,0.489,1.541,0.9,2.557,1.009
				c0.307,0.033,0.881,0.074,1.486,0.074c1.256,0,1.639-0.162,1.744-0.23c0.383-0.251,0.312-0.982,0.252-1.627
				c-0.01-0.091-0.018-0.18-0.025-0.267c-0.047-0.601-0.334-0.741-0.812-0.78c-0.49-0.043-3.334-0.118-4.227-0.132H22.72z
				 M14.73,20.058c-0.457,0-0.51,0.183-0.529,0.252c-0.107,0.371-0.357,1.241-0.092,1.592c0.086,0.113,0.229,0.171,0.441,0.171
				h0.219l-0.014,0.217c-0.014,0.195,0.029,0.267,0.064,0.304c0.133,0.143,0.539,0.16,0.879,0.16l0,0
				c0.137,0,0.295-0.004,0.496-0.009c1.533-0.059,4.033-0.104,4.904-0.106l0.191-0.002c-0.07-0.526-0.07-0.937,0.117-1.236
				c0.131-0.209,0.299-0.365,0.506-0.474c-0.535,0.152-0.598,0.454-0.656,0.752l-0.113,0.562l-0.268-0.508
				c-0.055-0.104-0.137-0.133-0.377-0.193l-0.074-0.02c-0.07-0.019-0.311-0.084-0.652-0.174c-1.029-0.279-2.949-0.796-3.498-0.96
				l-0.109-0.032C15.744,20.229,15.171,20.058,14.73,20.058z"/>
		</g>
		<g>
			<path fill="#1C69D4" d="M41.785,20.191c-0.729,0.219-3.877,1.057-4.145,1.132c-0.268,0.069-0.467,0.102-0.58,0.314
				c-0.104-0.518-0.279-1.016-1.805-1.016c-0.621,0-2.498,0-3.678,0s-1.695,0.063-1.912,0.549c0,0-0.236,0.98-0.236,2.125
				c0,1.146,0.619,1.616,1.547,1.616c0.934,0,1.676,0,2.504,0c0.826,0,3.559-0.502,3.537-2.069c0.857,0.002,3.338,0.048,4.898,0.105
				c1.234,0.046,1.695-0.023,1.65-0.671c1.09,0,0.758-1.292,0.547-2.025C43.9,19.522,42.511,19.976,41.785,20.191z M36.535,23.15
				c-0.127,0.715-1.934,1.092-2.732,1.177c-0.799,0.087-2.82,0.165-3.365-0.19c-0.547-0.357-0.381-1.326-0.32-2.081
				c0.062-0.757,0.49-0.923,1.002-0.967c0.508-0.044,3.4-0.121,4.24-0.132c0.627-0.009,0.967,0.214,1.176,0.553
				C36.748,21.846,36.662,22.434,36.535,23.15z"/>
			<path fill="#1C69D4" d="M33.48,25.116h-2.504c-1.131,0-1.752-0.647-1.752-1.82c0-1.155,0.234-2.131,0.242-2.173l0.004-0.017
				l0.01-0.018c0.283-0.638,0.982-0.67,2.098-0.67h3.678c1.318,0,1.738,0.38,1.912,0.842c0.109-0.058,0.232-0.088,0.352-0.117
				l0.07-0.019c0.062-0.018,0.312-0.084,0.658-0.178c1.025-0.275,2.936-0.789,3.479-0.952l0.107-0.032
				c0.445-0.132,1.053-0.314,1.555-0.314c0.629,0,0.848,0.297,0.922,0.546c0.213,0.748,0.365,1.502,0.025,1.952
				c-0.133,0.176-0.324,0.283-0.568,0.32c-0.018,0.167-0.074,0.301-0.17,0.407c-0.225,0.239-0.631,0.287-1.17,0.287l0,0
				c-0.143,0-0.309-0.003-0.52-0.01c-1.459-0.054-3.715-0.098-4.697-0.105c-0.043,0.337-0.201,0.646-0.469,0.918
				C35.892,24.824,34.146,25.116,33.48,25.116z M29.859,21.237c-0.031,0.139-0.227,1.038-0.227,2.059
				c0,0.949,0.439,1.412,1.344,1.412h2.504c0.521,0,2.197-0.246,2.969-1.03c0.248-0.25,0.369-0.523,0.363-0.833l-0.002-0.116
				c-0.02,0.145-0.047,0.298-0.074,0.457c-0.186,1.041-2.801,1.332-2.912,1.345c-0.332,0.035-0.908,0.074-1.529,0.074
				c-1.004,0-1.666-0.1-1.969-0.296c-0.586-0.384-0.508-1.242-0.436-2.001c0.008-0.091,0.016-0.182,0.023-0.269
				c0.078-0.942,0.674-1.111,1.188-1.154c0.191-0.017,0.725-0.038,1.359-0.058h-0.883C30.363,20.827,30.017,20.908,29.859,21.237z
				 M35.394,21.161h-0.031c-0.857,0.012-3.729,0.089-4.227,0.132c-0.48,0.039-0.768,0.18-0.816,0.78
				c-0.008,0.087-0.016,0.18-0.023,0.273c-0.061,0.642-0.129,1.371,0.252,1.62c0.105,0.068,0.49,0.23,1.746,0.23
				c0.605,0,1.178-0.041,1.484-0.074c1.016-0.108,2.467-0.52,2.555-1.009c0.115-0.657,0.199-1.225,0.027-1.494
				C36.23,21.404,36.001,21.161,35.394,21.161z M36.824,22.637l0.193,0.002c0.848,0.002,3.336,0.048,4.904,0.106
				c0.207,0.007,0.369,0.01,0.506,0.01c0.336,0,0.736-0.017,0.869-0.159c0.035-0.037,0.078-0.108,0.066-0.304l-0.016-0.219h0.219
				c0.213,0,0.357-0.056,0.443-0.171c0.264-0.35,0.014-1.222-0.092-1.593c-0.021-0.069-0.074-0.252-0.529-0.252
				c-0.441,0-1.016,0.171-1.438,0.298l-0.109,0.031c-0.547,0.164-2.459,0.679-3.486,0.956c-0.346,0.092-0.592,0.159-0.66,0.178
				l-0.076,0.02c-0.24,0.061-0.322,0.089-0.379,0.193l-0.268,0.508l-0.113-0.562c-0.059-0.296-0.117-0.596-0.646-0.749
				c0.203,0.107,0.367,0.266,0.496,0.473C36.896,21.7,36.896,22.11,36.824,22.637z"/>
		</g>
		<g>
			<path fill="#1C69D4" d="M42.31,25.305c-0.51,0.021-1.58,0.147-3.391,0.314c-1.811,0.171-3.105,0.361-3.404,0.928l-6.447,0.03
				l-6.447-0.03c-0.299-0.566-1.596-0.757-3.408-0.928c-1.809-0.167-2.877-0.294-3.389-0.314c-0.512-0.021-1.145-0.153-1.107,0.841
				c0.041,0.995,0.123,1.672,1.238,1.802c1.115,0.132,3.098,0.248,4.281,0.337c1.182,0.089,2.814,0.295,2.684-0.219
				c1.143-0.05,0.463,0.382,1.355,0.407c0.734,0.02,3.766,0.008,4.791,0.004c1.027,0.004,4.059,0.016,4.793-0.004
				c0.893-0.025,0.213-0.457,1.357-0.407c-0.135,0.514,1.502,0.308,2.684,0.219c1.18-0.089,3.166-0.205,4.281-0.337
				c1.113-0.13,1.195-0.807,1.236-1.802C43.457,25.151,42.824,25.283,42.31,25.305z"/>
			<path fill="#1C69D4" d="M32.041,28.688c-1,0-2.229-0.004-2.975-0.007c-0.742,0.003-1.969,0.007-2.973,0.007
				c-0.938,0-1.549-0.004-1.824-0.011c-0.473-0.013-0.605-0.137-0.721-0.286c-0.053-0.069-0.096-0.124-0.445-0.124
				c-0.012,0.028-0.029,0.057-0.049,0.083c-0.139,0.178-0.439,0.255-1,0.255c-0.414,0-0.91-0.04-1.389-0.08
				c-0.152-0.015-0.303-0.027-0.445-0.038c-0.336-0.024-0.74-0.054-1.17-0.082c-1.086-0.074-2.318-0.159-3.119-0.254
				c-1.344-0.154-1.383-1.092-1.418-1.998c-0.014-0.384,0.062-0.657,0.232-0.837c0.203-0.208,0.486-0.232,0.684-0.232
				c0.094,0,0.184,0.007,0.273,0.012c0.043,0.002,0.086,0.005,0.131,0.007c0.318,0.015,0.838,0.064,1.627,0.144
				c0.479,0.048,1.074,0.105,1.771,0.172c1.982,0.185,3.102,0.386,3.502,0.926l6.336,0.03l6.332-0.03
				c0.402-0.54,1.52-0.741,3.5-0.926c0.697-0.066,1.293-0.124,1.771-0.172c0.789-0.079,1.311-0.129,1.629-0.144
				c0.043-0.002,0.086-0.005,0.129-0.007c0.09-0.005,0.182-0.012,0.273-0.012c0.197,0,0.482,0.024,0.684,0.232
				c0.17,0.18,0.248,0.453,0.232,0.837c-0.035,0.906-0.072,1.842-1.416,1.998c-0.797,0.095-2.027,0.178-3.111,0.253
				c-0.432,0.029-0.838,0.059-1.178,0.083c-0.145,0.011-0.295,0.023-0.447,0.038c-0.479,0.04-0.975,0.08-1.387,0.08l0,0
				c-0.562,0-0.861-0.077-1-0.255c-0.02-0.026-0.035-0.055-0.049-0.083c-0.35,0-0.395,0.055-0.447,0.124
				c-0.115,0.149-0.25,0.273-0.719,0.286C33.591,28.684,32.978,28.688,32.041,28.688z M29.066,28.271
				c0.748,0.004,1.975,0.009,2.975,0.009c0.934,0,1.543-0.004,1.814-0.011c0.316-0.009,0.355-0.064,0.408-0.13
				c0.121-0.154,0.262-0.282,0.781-0.282c0.057,0,0.117,0,0.18,0.004l0.252,0.01l-0.061,0.236c0.037,0.025,0.184,0.09,0.666,0.09
				c0.395,0,0.883-0.042,1.354-0.08c0.152-0.013,0.305-0.026,0.449-0.038c0.34-0.024,0.748-0.054,1.182-0.083
				c1.078-0.073,2.303-0.156,3.092-0.249c0.904-0.107,1.012-0.549,1.055-1.609c0.01-0.264-0.029-0.445-0.119-0.537
				c-0.072-0.075-0.191-0.109-0.389-0.109c-0.078,0-0.166,0.006-0.248,0.011c-0.047,0.003-0.092,0.005-0.137,0.007
				c-0.309,0.013-0.824,0.066-1.605,0.143c-0.479,0.047-1.076,0.106-1.775,0.171c-1.496,0.14-2.98,0.319-3.244,0.821l-0.057,0.105
				l-6.568,0.032l-6.572-0.032l-0.059-0.107c-0.262-0.5-1.746-0.68-3.246-0.819c-0.697-0.064-1.293-0.124-1.773-0.171
				c-0.781-0.076-1.297-0.13-1.605-0.143c-0.045-0.002-0.09-0.004-0.135-0.007c-0.084-0.005-0.17-0.011-0.25-0.011
				c-0.197,0-0.316,0.034-0.387,0.109c-0.092,0.094-0.131,0.273-0.121,0.537c0.043,1.061,0.15,1.502,1.057,1.607
				c0.791,0.095,2.02,0.178,3.102,0.251c0.428,0.029,0.834,0.059,1.172,0.083c0.145,0.012,0.295,0.025,0.449,0.038
				c0.469,0.038,0.957,0.08,1.354,0.08c0.484,0,0.629-0.066,0.666-0.091l-0.059-0.235l0.25-0.01c0.062-0.004,0.125-0.004,0.18-0.004
				c0.518,0,0.66,0.128,0.779,0.282c0.053,0.065,0.094,0.121,0.408,0.13c0.271,0.007,0.881,0.011,1.814,0.011
				C27.095,28.28,28.322,28.275,29.066,28.271z"/>
		</g>
		<g>
			<path fill="#1C69D4" stroke="#1C69D4" stroke-width="0.3" stroke-miterlimit="10" d="M45.841,19.593
				c-0.686-1.109-2.314-2.204-3.33-2.812h0.422c0.361,0,1.473,0,1.473-1.011c0-0.769-0.865-0.996-1.326-1.009
				c0,0-0.496-0.001-0.908,0c-0.266,0.003-0.818,0.009-0.824,0.577c-0.904-1.733-2.521-3.906-3.785-4.744
				c-0.426-0.285-0.938-0.301-0.994-0.302c-2.393-0.177-5.371-0.223-6.736-0.234c-0.529-0.644-1.078-1.199-1.566-1.524
				c-0.389-0.258-0.848-0.272-0.9-0.272c-2.893-0.214-6.729-0.217-6.766-0.217h-0.023H20.55c-0.039,0-3.871,0.002-6.766,0.217
				c-0.051,0-0.514,0.014-0.898,0.272c-1.143,0.757-2.602,2.722-3.422,4.288c-0.006-0.512-0.506-0.518-0.744-0.52
				c-0.377-0.003-0.816,0-0.816,0c-0.418,0.01-1.203,0.216-1.203,0.911c0,0.913,1.002,0.913,1.332,0.913h0.379
				c-0.916,0.55-2.393,1.54-3.01,2.542c-0.541,0.882-0.732,4.363-0.719,5.348c0.006,0.717,0.072,1.826,0.133,2.899l0.098,1.78
				c0.035,0.956,0.473,1.402,1.385,1.402h3.594c1.551,0,1.568-1.449,1.568-1.478c0.016,0,0.035,0,0.053,0
				c0.031,0.646,0.072,1.371,0.113,2.094l0.107,1.97c0.037,1.058,0.523,1.552,1.529,1.552h3.979c1.715,0,1.73-1.604,1.734-1.636
				c0.045,0,0.09,0,0.133,0c1.021,0,1.676,0.132,2.162,0.229c0.068,0.013,0.133,0.028,0.195,0.04c0.596,0.113,3.564,0.229,3.6,0.232
				l3.941,0.023h0.051h0.049l3.941-0.023c0.035-0.004,3.006-0.119,3.6-0.232c0.062-0.012,0.129-0.027,0.197-0.04
				c0.484-0.098,1.137-0.229,2.16-0.229c0.045,0,0.09,0,0.135,0c0,0.032,0.02,1.636,1.732,1.636h3.977
				c1.01,0,1.496-0.494,1.533-1.552l0.107-1.97c0.07-1.188,0.139-2.412,0.15-3.207C46.654,24.418,46.439,20.566,45.841,19.593z
				 M29.058,10.794h0.025c0.043,0,4.258,0.003,7.455,0.239c0.043,0.001,0.373,0.017,0.615,0.176c1.234,0.822,2.859,3.072,3.68,4.751
				H29.058H17.281c0.82-1.68,2.447-3.93,3.68-4.751c0.244-0.16,0.574-0.175,0.619-0.176c3.193-0.238,7.408-0.239,7.451-0.239H29.058
				z M13.255,9.091c0.221-0.146,0.52-0.159,0.559-0.16c2.887-0.215,6.699-0.218,6.736-0.218h0.025h0.023
				c0.037,0,3.848,0.004,6.738,0.218c0.039,0.001,0.336,0.014,0.557,0.16c0.328,0.216,0.689,0.563,1.055,0.962
				c-0.592,0.002-4.438,0.021-7.4,0.239c-0.059,0.001-0.568,0.018-0.996,0.302c-0.809,0.538-1.764,1.624-2.584,2.792H9.929
				C10.669,11.867,12.14,9.833,13.255,9.091z M11.689,22.117c-0.006,0-0.01,0-0.01,0c-1.641-0.151-2.607-0.267-3.068-0.284
				c-0.463-0.021-1.033-0.139-0.998,0.761c0.031,0.897,0.105,1.509,1.115,1.629c0.711,0.083,1.811,0.159,2.775,0.226
				c-0.021,0.443-0.029,0.821-0.027,1.059c0.004,0.134,0.008,0.292,0.012,0.445c-0.121,0-0.242,0-0.363,0.005
				c-2.283-0.041-4.885-0.106-5.344-0.167c-0.221-0.027-0.244-0.03-0.273-0.505l-0.023-0.409c-0.061-1.062-0.123-2.165-0.133-2.868
				c-0.02-1.316,0.252-4.39,0.621-4.988c0.76-1.235,3.189-2.56,3.479-2.716h7.916c-0.219,0.353-0.426,0.702-0.598,1.034
				c-0.008-0.568-0.559-0.574-0.826-0.577c-0.412-0.001-0.9,0-0.908,0C14.578,14.773,13.71,15,13.71,15.77
				c0,1.011,1.109,1.011,1.473,1.011h0.422c-0.623,0.374-1.479,0.932-2.205,1.563c-1.18-0.312-3.982-1.03-4.33-1.134
				c-0.658-0.196-1.91-0.604-2.105,0.057c-0.189,0.661-0.49,1.829,0.496,1.829c-0.041,0.584,0.379,0.646,1.494,0.607
				c0.623-0.024,2.311-0.072,3.314-0.096C12.003,20.048,11.814,21.047,11.689,22.117z M45.75,28.67l-0.025,0.455
				c-0.031,0.524-0.057,0.527-0.301,0.56c-0.51,0.064-3.387,0.137-5.912,0.184c-0.166-0.006-0.338-0.01-0.506-0.01
				c-1.098,0-1.791,0.143-2.297,0.244c-0.072,0.014-0.139,0.028-0.199,0.039c-0.387,0.076-2.291,0.171-3.477,0.219l-3.975,0.023
				l-3.975-0.023c-1.186-0.048-3.092-0.143-3.477-0.219c-0.062-0.011-0.127-0.025-0.201-0.039c-0.508-0.102-1.199-0.244-2.297-0.244
				c-0.166,0-0.34,0.004-0.506,0.01c-2.521-0.047-5.4-0.119-5.908-0.184c-0.246-0.032-0.27-0.035-0.303-0.56l-0.027-0.455
				c-0.066-1.176-0.141-2.395-0.146-3.171c-0.02-1.456,0.281-4.855,0.686-5.517c0.842-1.367,3.529-2.831,3.852-3.006h12.303h12.301
				c0.326,0.175,3.01,1.639,3.852,3.006c0.408,0.662,0.707,4.061,0.688,5.517C45.888,26.275,45.818,27.494,45.75,28.67z"/>
			<path fill="#1C69D4" stroke="#1C69D4" stroke-width="0.3" stroke-miterlimit="10" d="M44.849,32.439h-3.977
				c-0.973,0-1.449-0.485-1.678-0.89c-0.152-0.277-0.217-0.557-0.242-0.745c-0.992,0.005-1.637,0.137-2.066,0.226l-0.068,0.013
				c-0.045,0.009-0.09,0.018-0.135,0.026c-0.455,0.087-2.168,0.174-3.525,0.231c-0.055,0.002-0.088,0.004-0.096,0.006H33.05
				l-4.043,0.021l-3.955-0.021c-0.006-0.002-0.039-0.004-0.094-0.006c-1.359-0.058-3.078-0.146-3.531-0.233
				c-0.035-0.005-0.078-0.015-0.123-0.022c-0.023-0.004-0.047-0.01-0.07-0.015c-0.461-0.094-1.084-0.221-2.07-0.226
				c-0.104,0.794-0.65,1.635-1.922,1.635h-3.979c-1.109,0-1.693-0.588-1.734-1.748l-0.113-2.107c-0.02-0.329-0.037-0.663-0.057-0.99
				c-0.242,0.374-0.68,0.708-1.467,0.708H6.298c-1.016,0-1.551-0.538-1.59-1.601l-0.096-1.775c-0.059-1.017-0.127-2.171-0.135-2.908
				c-0.012-0.845,0.156-4.486,0.748-5.457c0.508-0.822,1.545-1.627,2.49-2.242c-0.166-0.014-0.363-0.045-0.547-0.118
				c-0.441-0.172-0.674-0.513-0.674-0.989c0-0.38,0.191-0.688,0.551-0.89c0.352-0.198,0.74-0.222,0.852-0.225
				c0.006-0.001,0.447-0.003,0.824,0c0.127,0.001,0.344,0.002,0.537,0.084c0.094,0.04,0.172,0.093,0.234,0.16
				c0.83-1.465,2.178-3.25,3.277-3.979c0.43-0.286,0.93-0.305,1.006-0.307c2.904-0.214,6.734-0.216,6.773-0.216h0.049
				c0.039,0,3.871,0.002,6.773,0.216c0.074,0.001,0.576,0.021,1.004,0.308c0.451,0.299,0.986,0.814,1.551,1.49
				c1.273,0.012,4.266,0.058,6.652,0.234c0.117,0.002,0.645,0.033,1.098,0.335c1.225,0.814,2.721,2.798,3.633,4.418
				c0.242-0.277,0.678-0.283,0.855-0.285c0.143,0,0.289,0,0.426,0c0.268,0,0.488,0,0.488,0c0.533,0.014,1.531,0.287,1.531,1.213
				c0,0.516-0.252,0.888-0.732,1.074c-0.227,0.089-0.469,0.121-0.664,0.133c1.057,0.682,2.23,1.584,2.801,2.509
				c0.658,1.069,0.842,5.092,0.828,6.025c-0.01,0.791-0.08,2.009-0.146,3.186l-0.004,0.028l-0.105,1.97
				C46.544,31.852,45.96,32.439,44.849,32.439z M39.005,30.396h0.33l0.01,0.202c0.004,0.239,0.111,1.434,1.527,1.434h3.977
				c0.898,0,1.295-0.405,1.33-1.354l0.109-2.004c0.066-1.173,0.137-2.385,0.146-3.168c0.018-1.294-0.23-4.931-0.768-5.805
				c-0.672-1.09-2.332-2.187-3.262-2.745l-0.631-0.38h1.158c0.877,0,1.27-0.248,1.27-0.806c0-0.766-1.117-0.804-1.129-0.805
				c0.004,0.001-0.215,0-0.482,0c-0.135,0-0.281,0-0.42,0c-0.461,0.005-0.617,0.101-0.619,0.375l-0.01,0.813l-0.377-0.722
				c-0.85-1.631-2.443-3.822-3.715-4.667c-0.375-0.251-0.834-0.267-0.885-0.269h-0.014c-2.436-0.179-5.512-0.224-6.723-0.234
				l-0.096-0.001l-0.059-0.073c-0.562-0.683-1.09-1.196-1.523-1.484c-0.354-0.236-0.783-0.238-0.787-0.238l-0.016-0.001
				c-2.889-0.213-6.711-0.216-6.75-0.216H20.55c-0.039,0-3.861,0.002-6.75,0.216l-0.016,0.001c-0.004,0-0.434,0.002-0.785,0.238
				c-1.143,0.757-2.582,2.735-3.354,4.212l-0.375,0.717l-0.01-0.809c-0.004-0.234-0.141-0.315-0.543-0.318
				c-0.373-0.002-0.812,0-0.814,0c-0.006,0-1,0.033-1,0.707c0,0.491,0.35,0.709,1.129,0.709h1.115l-0.631,0.379
				c-0.84,0.504-2.34,1.497-2.941,2.474c-0.482,0.786-0.705,4.069-0.689,5.239c0.008,0.728,0.074,1.876,0.135,2.89l0.098,1.779
				c0.029,0.85,0.383,1.211,1.18,1.211h3.594c1.254,0,1.357-1.064,1.365-1.276v-0.012l0.014-0.189h0.439l0.008,0.195
				c0.027,0.601,0.066,1.286,0.105,1.947l0.008,0.144l0.105,1.971c0.033,0.953,0.432,1.358,1.326,1.358h3.979
				c0.246,0,1.477-0.069,1.529-1.434c0-0.006,0.002-0.012,0.002-0.016l0.016-0.187h0.32c1.061,0,1.748,0.143,2.203,0.234
				c0.023,0.004,0.049,0.01,0.074,0.015c0.039,0.009,0.078,0.017,0.113,0.021c0.199,0.039,0.908,0.117,3.477,0.226
				c0.047,0.004,0.08,0.006,0.096,0.006l4.035,0.022l3.938-0.022c0.016,0,0.049-0.002,0.094-0.006
				c2.57-0.108,3.277-0.187,3.471-0.224l0.006-0.002c0.039-0.005,0.082-0.015,0.125-0.022l0.068-0.015
				C37.257,30.538,37.943,30.396,39.005,30.396z M29.06,30.588l-3.986-0.023c-1.107-0.045-3.094-0.143-3.506-0.223l-0.049-0.008
				c-0.049-0.01-0.1-0.021-0.154-0.032l-0.025-0.006c-0.496-0.098-1.174-0.233-2.23-0.233c-0.172,0-0.34,0.002-0.498,0.008h-0.004
				h-0.008c-2.404-0.04-5.402-0.115-5.932-0.184c-0.418-0.053-0.447-0.222-0.479-0.749L12.16,28.65
				c-0.068-1.168-0.139-2.375-0.145-3.15c-0.02-1.453,0.275-4.908,0.715-5.625c0.842-1.366,3.418-2.804,3.926-3.079l0.047-0.024
				h24.709l0.045,0.024c0.506,0.271,3.076,1.694,3.928,3.079c0.443,0.717,0.738,4.171,0.717,5.625
				c-0.008,0.795-0.082,2.062-0.148,3.183l-0.023,0.453c-0.031,0.517-0.064,0.696-0.48,0.751c-0.531,0.068-3.529,0.144-5.934,0.184
				h-0.006h-0.004c-0.16-0.006-0.326-0.008-0.5-0.008c-1.057,0-1.734,0.136-2.23,0.233l-0.027,0.006
				c-0.051,0.012-0.104,0.022-0.152,0.032l-0.045,0.008c-0.418,0.08-2.402,0.178-3.51,0.223h-0.008L29.06,30.588z M25.087,30.158
				l3.973,0.022l3.969-0.022c1.42-0.06,3.102-0.15,3.441-0.216l0.045-0.009c0.047-0.011,0.098-0.02,0.15-0.032l0.031-0.005
				c0.51-0.102,1.211-0.242,2.309-0.242c0.176,0,0.346,0.004,0.508,0.009c2.582-0.046,5.402-0.12,5.883-0.182
				c0.031-0.003,0.064-0.007,0.088-0.012c0.02-0.071,0.031-0.269,0.037-0.357l0.023-0.454c0.066-1.114,0.141-2.378,0.148-3.161
				c0.023-1.562-0.293-4.819-0.654-5.407c-0.783-1.271-3.273-2.661-3.73-2.909H16.806c-0.584,0.317-2.965,1.667-3.729,2.909
				c-0.359,0.586-0.676,3.846-0.656,5.407c0.008,0.767,0.078,1.967,0.146,3.128l0.027,0.487c0.006,0.089,0.018,0.286,0.039,0.357
				c0.021,0.005,0.055,0.009,0.086,0.012c0.48,0.062,3.299,0.136,5.883,0.182c0.16-0.005,0.33-0.009,0.506-0.009
				c1.098,0,1.799,0.141,2.309,0.242l0.027,0.005c0.059,0.013,0.107,0.021,0.152,0.032l0.049,0.009
				C21.984,30.008,23.666,30.099,25.087,30.158z M11.126,26.162h-0.006c-1.111-0.021-4.777-0.093-5.365-0.17
				c-0.393-0.048-0.424-0.216-0.453-0.695l-0.021-0.409c-0.061-1.067-0.125-2.167-0.133-2.876c-0.02-1.319,0.25-4.449,0.65-5.099
				c0.771-1.254,3.1-2.544,3.559-2.789L9.402,14.1h8.332l-0.193,0.312c-0.25,0.402-0.438,0.727-0.59,1.02L16.58,16.15l-0.014-0.81
				c-0.004-0.274-0.162-0.37-0.623-0.375c-0.383-0.001-0.828,0-0.898,0h-0.006c-0.051,0.001-1.125,0.054-1.125,0.805
				c0,0.558,0.393,0.806,1.27,0.806h1.16l-0.633,0.38c-0.592,0.354-1.449,0.91-2.176,1.542l-0.082,0.071l-0.104-0.027
				c-0.461-0.122-1.182-0.309-1.879-0.489c-1.154-0.299-2.244-0.583-2.459-0.646l-0.094-0.028c-0.379-0.113-0.898-0.269-1.295-0.269
				c-0.398,0-0.443,0.157-0.463,0.214c-0.094,0.333-0.318,1.114-0.084,1.422c0.072,0.098,0.199,0.146,0.385,0.146h0.217
				l-0.014,0.218c-0.012,0.169,0.025,0.229,0.055,0.26c0.117,0.125,0.502,0.139,0.783,0.139c0.123,0,0.264-0.002,0.445-0.009
				c0.654-0.024,2.357-0.074,3.316-0.096l0.371-0.008l-0.191,0.317c-0.215,0.357-0.41,1.22-0.551,2.429l-0.021,0.181l-0.211-0.002
				c-0.643-0.058-1.188-0.113-1.627-0.155c-0.695-0.07-1.156-0.116-1.432-0.127C8.56,22.036,8.519,22.032,8.48,22.03
				c-0.076-0.005-0.152-0.009-0.225-0.009c-0.172,0-0.275,0.028-0.336,0.091c-0.076,0.079-0.113,0.241-0.104,0.473
				c0.035,0.946,0.129,1.34,0.938,1.435c0.729,0.087,1.904,0.167,2.762,0.226l0.199,0.013l-0.008,0.2
				c-0.02,0.432-0.029,0.806-0.025,1.045c0.004,0.132,0.006,0.291,0.01,0.443l0.006,0.208h-0.209c-0.098,0-0.229,0.002-0.354,0.008
				H11.126z M5.742,25.58c0.018,0.004,0.043,0.005,0.062,0.009c0.453,0.058,3.041,0.123,5.318,0.164
				c0.053-0.002,0.105-0.004,0.156-0.004c-0.002-0.084-0.004-0.164-0.006-0.238c-0.004-0.21,0.004-0.516,0.016-0.873
				c-0.838-0.056-1.9-0.131-2.584-0.213c-1.236-0.145-1.268-1.037-1.295-1.824c-0.016-0.354,0.055-0.605,0.215-0.771
				c0.188-0.194,0.449-0.218,0.631-0.218c0.084,0,0.168,0.006,0.248,0.01c0.039,0.003,0.078,0.005,0.115,0.008
				c0.287,0.011,0.752,0.056,1.455,0.127c0.395,0.039,0.877,0.087,1.438,0.141c0.115-0.935,0.26-1.63,0.434-2.079
				c-0.98,0.024-2.4,0.067-2.984,0.087c-0.186,0.008-0.33,0.01-0.459,0.01c-0.5,0-0.873-0.045-1.082-0.268
				c-0.088-0.096-0.141-0.216-0.16-0.365c-0.219-0.035-0.391-0.134-0.51-0.292c-0.312-0.414-0.176-1.102,0.02-1.781
				c0.066-0.233,0.271-0.509,0.854-0.509c0.457,0,1.01,0.165,1.412,0.286l0.092,0.027c0.209,0.063,1.348,0.357,2.447,0.643
				c0.646,0.167,1.314,0.341,1.775,0.462c0.506-0.432,1.064-0.825,1.553-1.142c-0.195-0.012-0.438-0.044-0.666-0.133
				c-0.477-0.187-0.73-0.558-0.73-1.074c0-0.926,0.998-1.199,1.523-1.213h0.016c0.07,0,0.518-0.001,0.9,0
				c0.182,0.002,0.619,0.008,0.863,0.287c0.059-0.107,0.123-0.217,0.195-0.336h-7.5c-0.422,0.23-2.656,1.479-3.357,2.619
				c-0.326,0.528-0.611,3.471-0.59,4.879c0.008,0.7,0.07,1.795,0.133,2.857l0.021,0.411C5.716,25.348,5.726,25.511,5.742,25.58z
				 M41.16,16.166H16.955l0.143-0.294c0.811-1.661,2.475-3.981,3.752-4.832c0.279-0.185,0.639-0.208,0.719-0.211
				c3.189-0.236,7.42-0.239,7.463-0.239h0.053c0.045,0,4.254,0.003,7.465,0.239c0.082,0.003,0.441,0.026,0.717,0.21
				c0.758,0.502,1.531,1.42,2.047,2.101c0.666,0.877,1.287,1.873,1.705,2.731L41.16,16.166z M17.613,15.758h22.889
				c-0.828-1.583-2.316-3.616-3.461-4.379c-0.158-0.104-0.395-0.138-0.51-0.141l-0.008-0.001c-3.197-0.236-7.395-0.239-7.439-0.239
				h-0.053c-0.041,0-4.262,0.003-7.436,0.239l-0.01,0.001c-0.115,0.003-0.352,0.037-0.512,0.142
				C19.927,12.144,18.441,14.175,17.613,15.758z M18.076,13.591H9.601l0.145-0.294c0.377-0.776,0.941-1.678,1.543-2.472
				c0.467-0.617,1.168-1.447,1.854-1.904c0.25-0.165,0.562-0.19,0.66-0.194c2.895-0.215,6.709-0.218,6.748-0.218h0.049
				c0.039,0,3.834,0.003,6.75,0.218c0.096,0.004,0.408,0.029,0.658,0.193c0.312,0.208,0.67,0.533,1.092,0.995l0.311,0.341
				l-0.461,0.001c-0.439,0.001-4.389,0.017-7.385,0.238H21.55c-0.051,0.001-0.508,0.017-0.885,0.268
				c-0.723,0.48-1.645,1.479-2.529,2.74L18.076,13.591z M10.261,13.183h7.602c0.895-1.261,1.83-2.263,2.576-2.759
				c0.455-0.303,0.982-0.333,1.1-0.335c2.523-0.186,5.709-0.227,6.936-0.236c-0.26-0.261-0.49-0.458-0.691-0.591
				c-0.172-0.113-0.426-0.125-0.453-0.126l-0.008-0.001c-2.9-0.215-6.684-0.217-6.723-0.217H20.55c-0.039,0-3.842,0.002-6.723,0.217
				L13.82,9.135c-0.027,0.001-0.281,0.013-0.451,0.126C12.341,9.946,11.009,11.759,10.261,13.183z"/>
		</g>
	</g>
	<rect x="0" fill="none" width="49.074" height="40"/>
</g>
</svg>
