<?xml version="1.0" encoding="utf-8"?>
<!-- Generator: Adobe Illustrator 16.0.4, SVG Export Plug-In . SVG Version: 6.00 Build 0)  -->
<!DOCTYPE svg PUBLIC "-//W3C//DTD SVG 1.1//EN" "http://www.w3.org/Graphics/SVG/1.1/DTD/svg11.dtd">
<svg version="1.1" id="Layer_1" xmlns="http://www.w3.org/2000/svg" xmlns:xlink="http://www.w3.org/1999/xlink" x="0px" y="0px"
	 width="49.074px" height="40px" viewBox="0 0 49.074 40" enable-background="new 0 0 49.074 40" xml:space="preserve">
<g>
	<g>
		<g>
			<ellipse fill="#1C69D4" cx="25.673" cy="18.396" rx="0.914" ry="0.464"/>
			<path fill="#1C69D4" d="M25.673,19.209c-0.73,0-1.262-0.342-1.262-0.813s0.531-0.813,1.262-0.813
				c0.732,0,1.262,0.342,1.262,0.813S26.406,19.209,25.673,19.209z M25.154,18.396c0.084,0.051,0.26,0.116,0.52,0.116
				c0.262,0,0.438-0.065,0.521-0.116c-0.086-0.051-0.26-0.115-0.521-0.115C25.414,18.281,25.238,18.345,25.154,18.396z"/>
		</g>
		<g>
			<path fill="#1C69D4" d="M13.884,21.358c1.43-0.052,3.705-0.097,4.492-0.099c-0.02,1.44,2.484,1.896,3.244,1.896
				c0.758,0,1.439,0,2.293,0s1.42-0.429,1.42-1.479c0-1.051-0.217-1.949-0.217-1.949c-0.199-0.446-0.672-0.504-1.754-0.504
				s-2.801,0-3.371,0c-1.402,0-1.561,0.455-1.656,0.932c-0.102-0.196-0.285-0.225-0.531-0.288c-0.246-0.069-3.135-0.839-3.801-1.039
				c-0.666-0.197-1.939-0.615-2.135,0.057c-0.193,0.671-0.5,1.854,0.502,1.854C12.33,21.338,12.753,21.398,13.884,21.358z
				 M18.818,20.041c0.191-0.309,0.502-0.515,1.078-0.508c0.77,0.013,3.422,0.08,3.891,0.121c0.467,0.04,0.859,0.191,0.914,0.886
				c0.059,0.693,0.211,1.581-0.291,1.91c-0.5,0.324-2.354,0.253-3.086,0.171c-0.732-0.077-2.391-0.422-2.506-1.077
				C18.701,20.888,18.623,20.347,18.818,20.041z"/>
			<path fill="#1C69D4" d="M23.914,23.505h-2.293c-0.635,0-2.295-0.277-3.105-1.103c-0.236-0.237-0.387-0.502-0.451-0.791
				c-0.947,0.009-2.875,0.05-4.168,0.096c-0.191,0.005-0.342,0.009-0.473,0.009l0,0c-0.541,0-0.951-0.054-1.197-0.315
				c-0.09-0.098-0.152-0.212-0.182-0.349c-0.26-0.066-0.416-0.207-0.51-0.33c-0.354-0.471-0.209-1.206-0.002-1.931
				c0.068-0.232,0.287-0.619,1-0.619c0.482,0,1.053,0.17,1.469,0.295l0.102,0.029c0.49,0.147,2.227,0.614,3.158,0.865
				c0.326,0.088,0.562,0.151,0.633,0.171l0.061,0.015c0.062,0.016,0.129,0.032,0.197,0.054c0.068-0.13,0.166-0.255,0.311-0.366
				c0.32-0.246,0.807-0.359,1.529-0.359h3.371c1.094,0,1.777,0.048,2.072,0.711l0.014,0.029l0.006,0.03
				c0.01,0.039,0.229,0.951,0.229,2.031C25.683,22.838,25.039,23.505,23.914,23.505z M19.869,19.881
				c-0.477,0-0.65,0.174-0.756,0.344c-0.137,0.216-0.027,0.843,0.047,1.256c0.016,0.087,0.199,0.284,0.793,0.487
				c0.488,0.168,1.064,0.27,1.408,0.307c0.279,0.029,0.799,0.066,1.346,0.066c1.17,0,1.465-0.155,1.512-0.187
				c0.27-0.175,0.207-0.821,0.158-1.34c-0.008-0.085-0.016-0.168-0.023-0.248c-0.035-0.448-0.205-0.534-0.598-0.567
				c-0.453-0.039-3.121-0.107-3.865-0.119H19.869z M12.533,18.869c-0.297,0-0.322,0.087-0.33,0.116
				c-0.074,0.261-0.305,1.061-0.111,1.317c0.018,0.023,0.07,0.092,0.279,0.092h0.371l-0.023,0.372
				c-0.008,0.104,0.008,0.149,0.018,0.158c0.025,0.028,0.146,0.097,0.688,0.097l0,0c0.123,0,0.266-0.004,0.447-0.012
				c1.441-0.052,3.668-0.094,4.467-0.096l-0.311-0.595c-0.016-0.033-0.057-0.049-0.242-0.095l-0.074-0.018
				c-0.062-0.018-0.301-0.083-0.629-0.171c-0.936-0.251-2.68-0.721-3.178-0.87l-0.102-0.03
				C13.427,19.022,12.914,18.869,12.533,18.869z"/>
		</g>
		<g>
			<path fill="#1C69D4" d="M29.187,28.158l-3.514,0.018l-3.646-0.02c-1.084-0.045-2.832-0.132-3.188-0.199
				c-0.057-0.014-0.115-0.022-0.184-0.037c-0.465-0.095-1.1-0.224-2.105-0.224c-0.152,0-0.312,0.002-0.465,0.008
				c-2.312-0.043-4.953-0.109-5.42-0.168c-0.225-0.028-0.248-0.032-0.275-0.514l-0.023-0.417c-0.064-1.078-0.129-2.194-0.137-2.909
				c-0.02-1.334,0.258-4.451,0.631-5.058c0.771-1.253,3.234-2.597,3.529-2.755h11.283h11.281c0.215,0.115,1.561,0.852,2.584,1.727
				h0.988c-0.732-0.77-1.791-1.473-2.514-1.907h0.385c0.334,0,1.352,0,1.352-0.928c0-0.705-0.795-0.915-1.217-0.924
				c0,0-0.453-0.001-0.832,0c-0.244,0.002-0.75,0.007-0.756,0.528c-0.83-1.587-2.312-3.581-3.471-4.348
				c-0.391-0.263-0.859-0.277-0.91-0.277c-2.197-0.164-4.926-0.206-6.18-0.215c-0.484-0.591-0.99-1.1-1.438-1.399
				c-0.355-0.236-0.779-0.25-0.826-0.25c-2.652-0.196-6.168-0.198-6.205-0.198h-0.021h-0.021c-0.037,0-3.551,0.002-6.205,0.198
				c-0.047,0-0.471,0.013-0.824,0.25c-1.047,0.694-2.387,2.497-3.139,3.931c-0.004-0.468-0.463-0.474-0.682-0.476
				c-0.344-0.002-0.748,0-0.748,0c-0.385,0.009-1.104,0.199-1.104,0.834c0,0.838,0.92,0.838,1.221,0.838h0.35
				C5.9,13.772,4.546,14.681,3.98,15.6c-0.496,0.809-0.672,4.001-0.66,4.904c0.008,0.658,0.066,1.674,0.125,2.657l0.086,1.634
				c0.033,0.877,0.434,1.286,1.27,1.286h3.299c1.422,0,1.436-1.329,1.438-1.356c0.014,0,0.031,0,0.049,0
				c0.027,0.593,0.066,1.257,0.104,1.922l0.098,1.809c0.033,0.967,0.48,1.421,1.404,1.421h3.646c1.572,0,1.588-1.471,1.59-1.499
				c0.041,0,0.082,0,0.123,0c0.938,0,1.537,0.12,1.982,0.211c0.062,0.011,0.121,0.024,0.18,0.035c0.545,0.104,3.27,0.21,3.301,0.212
				l3.615,0.021h0.047h0.045l3.469-0.019v-0.679H29.187z M25.673,10.213h0.025c0.037,0,3.902,0.003,6.834,0.22
				c0.039,0.001,0.344,0.015,0.564,0.162c1.131,0.754,2.623,2.818,3.375,4.359H25.673H14.873c0.754-1.541,2.246-3.605,3.375-4.359
				c0.225-0.147,0.527-0.161,0.568-0.162c2.928-0.218,6.793-0.22,6.834-0.22H25.673z M11.181,8.65
				c0.203-0.134,0.477-0.144,0.512-0.146c2.648-0.197,6.143-0.199,6.178-0.199h0.021h0.021c0.035,0,3.529,0.004,6.18,0.199
				c0.035,0.002,0.309,0.014,0.512,0.146c0.301,0.198,0.631,0.517,0.965,0.883c-0.541,0-4.068,0.018-6.785,0.22
				c-0.055,0-0.521,0.016-0.914,0.276c-0.742,0.493-1.617,1.489-2.369,2.561H8.13C8.81,11.197,10.16,9.333,11.181,8.65z
				 M9.746,20.596c-0.006,0-0.01,0-0.01,0c-1.504-0.139-2.391-0.243-2.814-0.261c-0.424-0.02-0.947-0.129-0.914,0.698
				c0.029,0.823,0.1,1.386,1.023,1.493c0.652,0.077,1.66,0.146,2.543,0.207c-0.02,0.407-0.025,0.753-0.023,0.971
				c0.004,0.122,0.006,0.266,0.012,0.408c-0.111,0-0.225,0-0.334,0.007c-2.094-0.039-4.479-0.1-4.902-0.153
				c-0.201-0.027-0.225-0.029-0.25-0.465l-0.02-0.377c-0.059-0.975-0.113-1.985-0.123-2.63c-0.018-1.205,0.23-4.024,0.568-4.572
				c0.699-1.133,2.926-2.348,3.193-2.492h7.258c-0.201,0.324-0.391,0.644-0.549,0.95c-0.008-0.521-0.512-0.527-0.756-0.529
				c-0.381-0.002-0.828,0-0.834,0c-0.42,0.011-1.215,0.219-1.215,0.923c0,0.928,1.016,0.928,1.352,0.928h0.387
				c-0.572,0.341-1.355,0.854-2.021,1.432c-1.082-0.286-3.652-0.944-3.971-1.039c-0.602-0.178-1.754-0.553-1.93,0.053
				c-0.176,0.607-0.451,1.677,0.453,1.677c-0.037,0.537,0.346,0.593,1.367,0.557c0.574-0.021,2.121-0.065,3.039-0.088
				C10.035,18.699,9.861,19.614,9.746,20.596z"/>
			<path fill="#1C69D4" d="M14.837,30.225h-3.646c-1.105,0-1.711-0.606-1.754-1.755l-0.096-1.806
				c-0.014-0.219-0.025-0.434-0.037-0.64c-0.258,0.227-0.643,0.405-1.205,0.405H4.8c-1.285,0-1.59-0.88-1.617-1.618l-0.086-1.63
				c-0.061-0.989-0.117-2.014-0.125-2.673c-0.012-0.814,0.139-4.158,0.711-5.092c0.42-0.681,1.215-1.343,1.996-1.882
				c-0.045-0.014-0.092-0.029-0.139-0.047c-0.463-0.182-0.717-0.558-0.717-1.058c0-0.404,0.207-0.744,0.584-0.956
				c0.24-0.135,0.561-0.219,0.857-0.227h0.008c0,0,0.406-0.002,0.752,0c0.121,0.001,0.348,0.002,0.555,0.09
				c0.037,0.016,0.072,0.033,0.105,0.053C8.47,10.044,9.65,8.514,10.65,7.85c0.422-0.281,0.9-0.305,1.002-0.307
				c2.662-0.197,6.186-0.198,6.221-0.198h0.043c0.037,0,3.559,0.001,6.219,0.198c0.104,0.002,0.582,0.026,1.006,0.308
				c0.51,0.341,1.031,0.896,1.41,1.342c1.197,0.01,3.855,0.052,6.027,0.214c0.109,0.001,0.631,0.027,1.092,0.335
				c1.098,0.73,2.432,2.466,3.285,3.935c0.045-0.028,0.092-0.054,0.145-0.076c0.221-0.094,0.457-0.096,0.598-0.097
				c0.385-0.003,0.838,0,0.838,0h0.006c0.627,0.014,1.559,0.364,1.559,1.271c0,0.538-0.275,0.941-0.773,1.136
				c-0.076,0.029-0.152,0.053-0.229,0.071c0.58,0.398,1.195,0.875,1.684,1.386l0.561,0.589H39.41l-0.098-0.084
				c-0.926-0.791-2.131-1.47-2.445-1.643H14.478c-0.998,0.542-2.744,1.653-3.322,2.589c-0.285,0.467-0.598,3.388-0.578,4.87
				c0.01,0.722,0.076,1.877,0.137,2.894l0.023,0.419c0.002,0.037,0.006,0.12,0.014,0.19c0.471,0.048,2.535,0.11,5.33,0.16
				c0.15-0.005,0.307-0.007,0.469-0.007c1.025,0,1.676,0.131,2.152,0.225l0.021,0.006c0.045,0.01,0.082,0.017,0.119,0.024
				c0.021,0.003,0.043,0.007,0.064,0.011c0.285,0.056,1.789,0.141,3.129,0.193l3.639,0.021l3.859-0.021l0.002,0.352v1.025
				l-3.908,0.021l-3.637-0.021l-0.051-0.001c-1.033-0.045-2.836-0.132-3.293-0.218c-0.025-0.004-0.051-0.01-0.078-0.016
				c-0.031-0.005-0.064-0.013-0.1-0.019l-0.008-0.001c-0.367-0.076-0.908-0.187-1.729-0.201c-0.035,0.177-0.102,0.393-0.225,0.608
				C16.281,29.741,15.802,30.225,14.837,30.225z M10.08,27.404l0.055,1.038c0.027,0.78,0.324,1.085,1.057,1.085h3.646
				c1.111,0,1.23-0.886,1.242-1.157v-0.017l0.021-0.301c0,0-0.002,0-0.004,0h-0.008h-0.01c-0.803-0.015-4.834-0.093-5.457-0.17
				C10.253,27.835,10.13,27.676,10.08,27.404z M3.843,24.077l0.037,0.705c0.025,0.693,0.275,0.95,0.92,0.95h3.299
				c0.975,0,1.08-0.777,1.088-1.017L9.189,24.7l0.016-0.234c-0.76-0.015-4.35-0.083-4.922-0.154
				C4.048,24.28,3.917,24.2,3.843,24.077z M4.433,23.626c0.473,0.043,2.346,0.099,4.771,0.143c0-0.019-0.002-0.039-0.002-0.059
				c-0.004-0.172,0-0.401,0.01-0.652c-0.783-0.055-1.645-0.116-2.223-0.187c-1.271-0.146-1.307-1.116-1.332-1.825
				c-0.014-0.371,0.066-0.642,0.244-0.827c0.215-0.222,0.498-0.248,0.693-0.248c0.082,0,0.162,0.005,0.24,0.01
				c0.035,0.002,0.07,0.004,0.104,0.006c0.264,0.011,0.688,0.052,1.33,0.117c0.328,0.032,0.721,0.071,1.172,0.114
				c0.088-0.652,0.191-1.175,0.311-1.563C8.869,18.678,7.73,18.712,7.25,18.73c-0.174,0.006-0.309,0.009-0.428,0.009
				c-0.498,0-0.877-0.051-1.107-0.297c-0.082-0.088-0.139-0.19-0.168-0.31c-0.232-0.065-0.375-0.194-0.461-0.307
				c-0.328-0.438-0.197-1.111-0.006-1.775c0.064-0.219,0.271-0.583,0.938-0.583c0.445,0,0.965,0.155,1.344,0.269l0.082,0.025
				c0.186,0.055,1.197,0.317,2.174,0.57c0.58,0.15,1.178,0.306,1.613,0.42c0.334-0.281,0.688-0.541,1.021-0.77
				c-0.076-0.019-0.152-0.042-0.229-0.072c-0.498-0.194-0.771-0.597-0.771-1.135c0-0.415,0.203-0.767,0.576-0.996H7.783
				c-1.098,0.6-2.508,1.551-2.982,2.326c-0.26,0.418-0.537,3.047-0.518,4.385c0.008,0.647,0.064,1.685,0.121,2.615l0.02,0.378
				C4.425,23.51,4.429,23.571,4.433,23.626z M6.595,20.668c-0.146,0-0.184,0.025-0.191,0.033c-0.006,0.007-0.059,0.07-0.049,0.317
				c0.031,0.865,0.119,1.093,0.715,1.161c0.592,0.071,1.502,0.135,2.305,0.191l0.547,0.037c0.027-0.46,0.068-0.967,0.121-1.464
				l-0.338-0.002c-0.596-0.055-1.1-0.104-1.504-0.146c-0.631-0.062-1.047-0.104-1.293-0.112c-0.039-0.002-0.076-0.006-0.115-0.008
				C6.722,20.673,6.656,20.668,6.595,20.668z M10.9,17.93l-0.17,0.282c0.18-0.237,0.404-0.473,0.652-0.7l-0.154-0.042
				c-0.436-0.114-1.123-0.292-1.787-0.465c-1.029-0.267-2-0.519-2.197-0.577l-0.082-0.025c-0.34-0.102-0.801-0.24-1.145-0.24
				c-0.092,0-0.246,0.011-0.268,0.081c-0.18,0.624-0.215,1.015-0.107,1.161c0.035,0.046,0.113,0.07,0.227,0.07h0.373l-0.025,0.372
				c-0.006,0.091,0.008,0.119,0.008,0.119c0.012,0.01,0.102,0.074,0.598,0.074c0.109,0,0.238-0.002,0.402-0.008
				c0.588-0.021,2.152-0.066,3.043-0.088L10.9,17.93z M14.304,15.535h22.736l0.076,0.041c0.006,0.003,0.021,0.011,0.047,0.025
				l-0.41-0.246h0.307l-0.078-0.153l0.047,0.1H14.318l-0.025,0.052h0.307l-0.391,0.233c0.006-0.004,0.012-0.007,0.02-0.01
				L14.304,15.535z M37.283,15.355h1.115c0.883,0,1.002-0.278,1.002-0.579c0-0.529-0.83-0.573-0.873-0.575
				c-0.049,0-0.469-0.002-0.824,0c-0.408,0.003-0.408,0.078-0.408,0.183L37.283,15.355z M12.822,14.199
				c-0.053,0.003-0.873,0.054-0.873,0.576c0,0.301,0.121,0.579,1.002,0.579h1.119l-0.014-0.969
				c-0.002-0.109-0.004-0.182-0.412-0.186c-0.348-0.001-0.756,0-0.82,0H12.822z M15.445,14.605h20.453
				c-0.768-1.394-2.021-3.073-2.994-3.72c-0.111-0.075-0.295-0.101-0.385-0.104l-0.012-0.001c-2.922-0.216-6.771-0.218-6.809-0.218
				H25.65c-0.039,0-3.906,0.002-6.809,0.218L18.83,10.78c-0.092,0.004-0.275,0.03-0.391,0.105
				C17.667,11.4,16.365,12.919,15.445,14.605z M7.73,13.082h7.83c0.033-0.048,0.064-0.095,0.098-0.143H7.968L7.73,13.082z
				 M6.281,11.945c-0.043,0.001-0.76,0.042-0.76,0.485c0,0.254,0.104,0.489,0.871,0.489h0.975l-0.01-0.844
				c0-0.078-0.002-0.129-0.336-0.131C6.701,11.943,6.328,11.944,6.281,11.945z M8.705,12.242h6.617
				c0.816-1.142,1.67-2.049,2.355-2.503c0.463-0.307,0.984-0.333,1.092-0.334c2.086-0.155,4.66-0.201,5.965-0.215
				c-0.115-0.101-0.223-0.183-0.322-0.249c-0.072-0.048-0.201-0.083-0.334-0.089l-0.01-0.001c-2.619-0.193-6.119-0.197-6.154-0.197
				h-0.043c-0.035,0-3.52,0.001-6.152,0.197l-0.012,0.001c-0.133,0.007-0.26,0.042-0.332,0.088
				C10.683,9.402,9.529,10.745,8.705,12.242z"/>
		</g>
		<g>
			<path fill="#1C69D4" d="M29.429,22.667c-0.863,0.048-2.098,0.038-2.492-0.218c-0.5-0.329-0.348-1.217-0.293-1.91
				c0.057-0.695,0.449-0.846,0.918-0.886c0.236-0.02,1.035-0.048,1.867-0.073v-0.354c-0.508,0-1.025,0-1.445,0
				c-1.082,0-1.555,0.057-1.754,0.502c0,0-0.217,0.898-0.217,1.949c0,1.05,0.568,1.479,1.42,1.479c0.74,0,1.354,0,1.996,0V22.667
				L29.429,22.667z"/>
			<path fill="#1C69D4" d="M29.779,23.507h-2.346c-1.125,0-1.768-0.667-1.768-1.829c0-1.08,0.217-1.993,0.227-2.031l0.008-0.03
				l0.012-0.03c0.295-0.661,0.98-0.708,2.072-0.708h1.795v1.041l-0.338,0.009c-1.287,0.039-1.717,0.061-1.85,0.072
				c-0.393,0.033-0.562,0.12-0.6,0.567c-0.006,0.082-0.016,0.167-0.023,0.254c-0.047,0.517-0.107,1.16,0.16,1.334
				c0.047,0.031,0.342,0.187,1.506,0.187c0.248,0,0.518-0.009,0.777-0.022l0.367-0.02V23.507z"/>
		</g>
		<g>
			<path fill="#1C69D4" d="M29.429,24.667l-3.746,0.017l-5.912-0.025c-0.275-0.521-1.465-0.694-3.127-0.851
				c-1.658-0.153-2.639-0.266-3.107-0.286s-1.049-0.143-1.014,0.77c0.035,0.913,0.111,1.534,1.135,1.651
				c1.021,0.12,2.84,0.226,3.924,0.309c1.084,0.081,2.582,0.271,2.461-0.201c1.047-0.046,0.424,0.351,1.242,0.373
				c0.674,0.021,3.455,0.009,4.395,0.004c0.754,0.005,2.662,0.013,3.748,0.005v-1.765H29.429z"/>
			<path fill="#1C69D4" d="M28.232,26.782c-0.953,0-2.01-0.003-2.555-0.007h-0.039c-0.551,0.004-1.693,0.007-2.682,0.007
				c-0.865,0-1.432-0.003-1.684-0.011c-0.451-0.013-0.633-0.133-0.781-0.325c-0.006-0.007-0.014-0.018-0.02-0.023
				c-0.012-0.006-0.057-0.021-0.17-0.026c-0.004,0.004-0.006,0.01-0.01,0.014c-0.164,0.21-0.465,0.297-1.041,0.297
				c-0.387,0-0.844-0.039-1.287-0.076c-0.139-0.013-0.277-0.023-0.408-0.033c-0.303-0.023-0.668-0.048-1.053-0.073
				c-1.004-0.07-2.145-0.147-2.887-0.236c-1.371-0.157-1.41-1.17-1.443-1.984c-0.014-0.398,0.07-0.688,0.262-0.886
				c0.225-0.234,0.531-0.262,0.74-0.262c0.088,0,0.176,0.005,0.258,0.009c0.041,0.004,0.08,0.006,0.119,0.008
				c0.295,0.013,0.766,0.059,1.477,0.129c0.445,0.044,0.998,0.1,1.648,0.16c1.592,0.149,2.787,0.305,3.271,0.85l5.736,0.025
				l4.092-0.021v2.461l-0.346,0.002C29.121,26.782,28.718,26.782,28.232,26.782z M25.677,26.079
				c0.549,0.002,1.604,0.008,2.555,0.008c0.32,0,0.604,0,0.848-0.002v-1.066l-3.395,0.015l-6.125-0.026l-0.098-0.185
				c-0.221-0.419-1.932-0.581-2.85-0.666c-0.652-0.061-1.207-0.116-1.652-0.161c-0.701-0.067-1.162-0.114-1.438-0.127
				c-0.043-0.002-0.088-0.004-0.131-0.007c-0.078-0.004-0.148-0.008-0.217-0.008c-0.127,0-0.209,0.015-0.24,0.048
				c-0.018,0.019-0.076,0.102-0.064,0.377c0.037,0.928,0.109,1.234,0.826,1.317c0.727,0.087,1.857,0.164,2.855,0.232
				c0.385,0.026,0.75,0.052,1.057,0.074c0.133,0.011,0.271,0.022,0.414,0.035c0.428,0.035,0.871,0.072,1.229,0.072
				c0.207,0,0.338-0.014,0.414-0.026l-0.066-0.264l0.428-0.019c0.629-0.026,0.84,0.092,1.016,0.319
				c0.006,0.007,0.016,0.019,0.02,0.023c0.014,0.006,0.07,0.026,0.232,0.032c0.244,0.007,0.803,0.011,1.662,0.011
				c0.986,0,2.129-0.006,2.678-0.008H25.677z"/>
		</g>
		<g>
			<path fill="#1C69D4" d="M40.947,22.804c0.164,0,0.299-0.134,0.299-0.298v-0.22c0-0.164-0.135-0.297-0.299-0.297h-4.824
				c-0.166,0-0.299,0.133-0.299,0.297v0.222c0,0.164,0.133,0.297,0.299,0.297L40.947,22.804L40.947,22.804z"/>
			<path fill="#1C69D4" d="M40.947,23.152h-4.824c-0.357,0-0.648-0.288-0.648-0.645v-0.222c0-0.355,0.291-0.646,0.648-0.646h4.824
				c0.357,0,0.648,0.29,0.648,0.646v0.22c0,0.229-0.119,0.429-0.299,0.545v0.1L40.947,23.152z M36.171,22.456h4.428v-0.002h0.299
				v-0.118h-4.727V22.456z"/>
		</g>
		<g>
			<path fill="#1C69D4" d="M33.457,24.101v0.149c0,0.163,0.133,0.298,0.297,0.298h9.799c0.164,0,0.295-0.135,0.295-0.298v-0.149
				c0-0.164-0.131-0.297-0.295-0.297H38.38h-4.627C33.589,23.804,33.457,23.937,33.457,24.101z"/>
			<path fill="#1C69D4" d="M43.552,24.896h-9.799c-0.357,0-0.646-0.29-0.646-0.646v-0.149c0-0.356,0.289-0.646,0.646-0.646h9.799
				c0.355,0,0.645,0.289,0.645,0.646v0.149C44.197,24.606,43.908,24.896,43.552,24.896z M33.804,24.198H43.5v-0.046h-9.695V24.198z"
				/>
		</g>
		<g>
			<path fill="#1C69D4" d="M44.13,29.976c0.006-0.057-0.008-0.116-0.041-0.16l-0.275-0.354l0.275-0.354
				c0.033-0.046,0.047-0.104,0.041-0.162c-0.008-0.058-0.041-0.107-0.09-0.143l-0.371-0.253l0.15-0.423
				c0.02-0.055,0.018-0.114-0.01-0.168c-0.025-0.05-0.07-0.086-0.129-0.104l-0.43-0.126l0.014-0.45c0-0.056-0.021-0.112-0.062-0.155
				c-0.041-0.038-0.098-0.057-0.154-0.059l-0.447,0.015l-0.129-0.432c-0.016-0.056-0.053-0.102-0.104-0.128
				c-0.053-0.025-0.111-0.029-0.166-0.011l-0.426,0.151l-0.252-0.371c-0.029-0.048-0.084-0.081-0.141-0.091
				c-0.057-0.009-0.115,0.006-0.162,0.043l-0.354,0.273l-0.354-0.273c-0.047-0.037-0.104-0.052-0.162-0.043
				c-0.061,0.01-0.107,0.043-0.143,0.091l-0.254,0.371l-0.422-0.151c-0.053-0.021-0.113-0.017-0.166,0.011
				c-0.053,0.026-0.092,0.072-0.105,0.128l-0.127,0.432l-0.449-0.015c-0.057,0.002-0.111,0.021-0.154,0.059
				c-0.039,0.043-0.064,0.102-0.062,0.155l0.018,0.45l-0.432,0.126c-0.055,0.019-0.104,0.057-0.127,0.104
				c-0.027,0.054-0.031,0.113-0.012,0.168l0.148,0.423l-0.369,0.253c-0.049,0.031-0.08,0.085-0.09,0.143
				c-0.008,0.059,0.006,0.116,0.041,0.162l0.275,0.354l-0.275,0.354c-0.035,0.044-0.049,0.104-0.041,0.16
				c0.01,0.062,0.041,0.109,0.09,0.143l0.369,0.255l-0.148,0.421c-0.021,0.055-0.018,0.114,0.012,0.168
				c0.023,0.05,0.072,0.09,0.127,0.104l0.432,0.126l-0.018,0.45c-0.002,0.058,0.023,0.112,0.062,0.155
				c0.043,0.038,0.096,0.062,0.154,0.059l0.449-0.013l-0.156,0.004v4.112l1.773-1.29l1.775,1.29v-3.878l0.072-0.238l0.447,0.013
				c0.059,0.006,0.113-0.021,0.152-0.059c0.043-0.043,0.064-0.1,0.061-0.155l-0.01-0.45l0.43-0.126
				c0.055-0.017,0.102-0.055,0.129-0.104c0.025-0.054,0.029-0.113,0.008-0.168l-0.15-0.421l0.373-0.255
				C44.089,30.085,44.123,30.035,44.13,29.976z M42.111,35.131l-1.139-0.825v-1.819l-0.104-0.081l-0.332,0.256v1.646L39.4,35.133
				V32.41c0.045,0.017,0.092,0.021,0.137,0.002l0.426-0.149l0.25,0.371c0.033,0.048,0.084,0.079,0.143,0.091
				c0.057,0.009,0.115-0.006,0.16-0.043l0.354-0.275l0.357,0.275c0.037,0.029,0.082,0.044,0.127,0.044c0.012,0,0.021,0,0.033-0.001
				c0.057-0.012,0.109-0.043,0.141-0.091l0.254-0.371l0.332,0.12v2.748H42.111z M43.382,29.586l0.238,0.309l-0.322,0.218
				c-0.078,0.054-0.111,0.155-0.08,0.245l0.133,0.366l-0.375,0.11c-0.09,0.026-0.152,0.111-0.15,0.209l0.014,0.386l-0.387-0.012
				c-0.098-0.005-0.182,0.06-0.211,0.149l-0.105,0.375l-0.367-0.133c-0.092-0.033-0.191,0-0.244,0.079l-0.219,0.321l-0.309-0.238
				c-0.037-0.027-0.082-0.044-0.129-0.044c-0.045,0-0.09,0.017-0.127,0.044l-0.307,0.238l-0.219-0.321
				c-0.053-0.079-0.154-0.11-0.246-0.079l-0.365,0.133l-0.107-0.375c-0.027-0.092-0.115-0.156-0.207-0.149l-0.389,0.012l0.012-0.386
				c0.002-0.098-0.061-0.183-0.152-0.209l-0.373-0.11l0.131-0.366c0.033-0.09,0-0.191-0.076-0.245l-0.32-0.218l0.236-0.309
				c0.061-0.073,0.061-0.181,0-0.254l-0.236-0.307l0.32-0.22c0.076-0.054,0.111-0.155,0.076-0.244l-0.131-0.367l0.373-0.108
				c0.094-0.026,0.154-0.112,0.152-0.207l-0.012-0.388l0.389,0.012c0.092,0.005,0.18-0.062,0.207-0.151l0.107-0.373l0.365,0.133
				c0.092,0.029,0.193-0.002,0.246-0.079l0.219-0.321l0.307,0.236c0.076,0.057,0.182,0.057,0.256,0l0.309-0.236l0.219,0.321
				c0.053,0.077,0.154,0.11,0.244,0.079l0.367-0.133l0.105,0.373c0.029,0.092,0.113,0.156,0.211,0.151l0.387-0.012l-0.014,0.388
				c-0.002,0.095,0.061,0.181,0.15,0.207l0.375,0.108l-0.133,0.367c-0.031,0.089,0.002,0.19,0.08,0.244l0.322,0.22l-0.238,0.307
				C43.324,29.407,43.324,29.513,43.382,29.586z"/>
			<path fill="#1C69D4" d="M38.63,36.645v-4.44c-0.123-0.01-0.242-0.065-0.338-0.155l-0.012-0.012
				c-0.107-0.11-0.164-0.26-0.158-0.407l0.006-0.18l-0.168-0.048c-0.148-0.042-0.275-0.147-0.342-0.284
				c-0.072-0.139-0.082-0.299-0.029-0.444l0.059-0.166L37.5,30.404c-0.129-0.089-0.213-0.22-0.236-0.369l-0.002-0.013
				c-0.021-0.155,0.021-0.305,0.113-0.425l0.107-0.137l-0.109-0.141c-0.092-0.12-0.131-0.268-0.111-0.419l0.002-0.015
				c0.025-0.153,0.113-0.29,0.238-0.375l0.146-0.1l-0.061-0.17c-0.051-0.147-0.039-0.302,0.031-0.44
				c0.064-0.13,0.186-0.232,0.33-0.279l0.01-0.003l0.17-0.05l-0.006-0.18c-0.006-0.146,0.051-0.295,0.156-0.406l0.016-0.015
				c0.1-0.094,0.234-0.149,0.381-0.154h0.012l0.191,0.005l0.049-0.166c0.039-0.146,0.141-0.271,0.279-0.343
				c0.143-0.074,0.305-0.084,0.447-0.03l0.168,0.06l0.105-0.157c0.09-0.124,0.223-0.205,0.369-0.229l0.006-0.002
				c0.154-0.022,0.307,0.019,0.426,0.112l0.141,0.107l0.139-0.107c0.125-0.096,0.277-0.135,0.428-0.112l0.006,0.002
				c0.156,0.025,0.291,0.112,0.375,0.239l0.098,0.146l0.176-0.062c0.145-0.051,0.305-0.037,0.438,0.031
				c0.137,0.071,0.238,0.195,0.281,0.341l0.049,0.17l0.188-0.005h0.01c0.152,0.001,0.291,0.059,0.393,0.16
				c0.107,0.107,0.166,0.253,0.166,0.402v0.013l-0.004,0.18l0.17,0.05c0.15,0.044,0.271,0.144,0.34,0.278
				c0.072,0.137,0.082,0.294,0.031,0.441l-0.061,0.175l0.152,0.105c0.131,0.093,0.213,0.227,0.232,0.38
				c0.02,0.145-0.016,0.288-0.1,0.406l-0.01,0.015l-0.109,0.141l0.117,0.151c0.084,0.118,0.121,0.264,0.102,0.41
				c-0.02,0.154-0.105,0.295-0.238,0.384l-0.148,0.102l0.059,0.166c0.055,0.146,0.045,0.303-0.023,0.442l-0.008,0.014
				c-0.072,0.133-0.195,0.23-0.338,0.271l-0.17,0.052l0.004,0.178c0.006,0.155-0.053,0.306-0.166,0.415
				c-0.104,0.104-0.238,0.16-0.381,0.16l0,0c-0.012,0-0.021,0-0.035,0l-0.15-0.005v4.444L40.753,35.1L38.63,36.645z M41.32,34.129
				l0.443,0.321v-1.555c-0.082,0.089-0.195,0.151-0.32,0.172c-0.039,0.008-0.07,0.008-0.09,0.008c-0.01,0-0.021-0.002-0.033-0.002
				V34.129z M39.75,32.708v1.742l0.439-0.319v-1.093c-0.105-0.041-0.199-0.112-0.264-0.209l-0.102-0.149L39.75,32.708z
				 M39.136,31.848h0.078l-0.021-0.08l-0.059,0.002L39.136,31.848z M40.869,31.578c0.121,0,0.242,0.04,0.342,0.116l0.016,0.013
				l0.012-0.017c0.104-0.151,0.275-0.243,0.459-0.243c0.066,0,0.133,0.013,0.195,0.036l0.01,0.004l0.008-0.023
				c0.076-0.244,0.299-0.404,0.557-0.396h0.012l-0.002-0.015c-0.004-0.257,0.16-0.483,0.402-0.554l0.02-0.006l-0.008-0.023
				c-0.082-0.238,0.004-0.504,0.213-0.646l0.016-0.009l-0.012-0.015c-0.158-0.198-0.158-0.48,0-0.684l0.01-0.015l-0.014-0.009
				c-0.209-0.141-0.295-0.406-0.213-0.646l0.006-0.021l-0.018-0.004c-0.242-0.074-0.406-0.299-0.402-0.55l0.002-0.022h-0.012
				c-0.258,0.013-0.482-0.149-0.559-0.396l-0.006-0.019l-0.014,0.005c-0.246,0.087-0.512-0.007-0.65-0.212l-0.012-0.015
				l-0.014,0.011c-0.102,0.076-0.221,0.116-0.342,0.116s-0.242-0.04-0.338-0.114l-0.018-0.013l-0.01,0.015
				c-0.105,0.153-0.279,0.243-0.465,0.243c-0.061,0-0.121-0.009-0.176-0.027l-0.027-0.009l-0.004,0.013
				c-0.074,0.247-0.305,0.415-0.557,0.402h-0.016v0.019c0.01,0.253-0.156,0.481-0.402,0.554l-0.018,0.004l0.006,0.015
				c0.09,0.239,0.004,0.507-0.209,0.653l-0.016,0.011l0.008,0.011c0.162,0.202,0.162,0.487,0,0.688l-0.008,0.013l0.016,0.011
				c0.211,0.143,0.297,0.41,0.209,0.649l-0.006,0.019l0.02,0.006c0.244,0.07,0.408,0.299,0.4,0.554v0.015h0.014
				c0.254-0.013,0.486,0.157,0.559,0.402l0.004,0.017l0.016-0.005c0.062-0.022,0.125-0.033,0.189-0.033
				c0.186,0,0.357,0.09,0.463,0.241l0.01,0.015l0.014-0.009C40.63,31.618,40.748,31.578,40.869,31.578z"/>
		</g>
		<g>
			<path fill="#1C69D4" d="M46.146,18.782H31.244c-0.396,0-0.719,0.322-0.719,0.721V30.84c0,0.396,0.322,0.72,0.719,0.72h6.193
				v-0.842h-3.775h-2.295V19.626h14.656v11.091H44.3v0.842h1.846c0.395,0,0.717-0.323,0.717-0.72V19.502
				C46.863,19.104,46.541,18.782,46.146,18.782z"/>
			<path fill="#1C69D4" d="M46.146,31.906h-2.195v-1.537h1.725V19.975H31.716v10.394h6.068v1.537h-6.541
				c-0.59,0-1.068-0.478-1.068-1.066V19.502c0-0.589,0.479-1.068,1.068-1.068h14.902c0.588,0,1.064,0.479,1.064,1.068V30.84
				C47.21,31.429,46.734,31.906,46.146,31.906z M44.648,31.211h1.498c0.203,0,0.367-0.166,0.367-0.371V19.502
				c0-0.205-0.164-0.372-0.367-0.372H31.244c-0.205,0-0.371,0.167-0.371,0.372V30.84c0,0.205,0.166,0.371,0.371,0.371h5.844v-0.145
				h-6.068V19.278h15.352v11.788h-1.723V31.211z"/>
		</g>
	</g>
	<rect x="0" fill="none" width="49.074" height="40"/>
</g>
</svg>
