<?xml version="1.0" standalone="no"?>
<!DOCTYPE svg PUBLIC "-//W3C//DTD SVG 1.1//EN" "http://www.w3.org/Graphics/SVG/1.1/DTD/svg11.dtd" >
<svg xmlns="http://www.w3.org/2000/svg" xmlns:xlink="http://www.w3.org/1999/xlink" version="1.1">
<metadata>
Created by FontForge 20170731 at Fri Feb 26 13:50:22 2016
 By Aleksey,,,
Copyright (c) by Binnenland, 2007/2015. All rights reserved. This software may not be reproduced, used, displayed, modified, disclosed or transferred without the express written approval of Binnenland.
</metadata>
<defs>
<font id="MINISansSerif-Regular" horiz-adv-x="1090" >
  <font-face 
    font-family="MINI Sans Serif"
    font-weight="400"
    font-stretch="normal"
    units-per-em="2048"
    panose-1="0 0 5 0 0 0 0 0 0 0"
    ascent="1536"
    descent="-512"
    x-height="991"
    cap-height="1380"
    bbox="-811 -481 2212 2031"
    underline-thickness="50"
    underline-position="-150"
    unicode-range="U+0020-FB02"
  />
<missing-glyph horiz-adv-x="1249" 
d="M297.5 -18q-141.5 78 -219.5 220t-78 328t78 327.5t219.5 219.5t327.5 78q185 0 326.5 -78t219.5 -219.5t78 -327.5t-78 -328t-219.5 -220t-326.5 -78q-186 0 -327.5 78zM690 326q0 39 24 71t74 78q42 39 68 67.5t44 68t18 87.5q0 81 -36.5 143t-102.5 96t-152 34
q-81 0 -145.5 -36.5t-103.5 -102t-46 -150.5h190q3 57 30.5 89t72.5 32q46 0 72 -26t26 -72q0 -37 -12.5 -65t-31 -48t-50.5 -46q-37 -33 -60 -58.5t-39 -65.5t-16 -96h176zM692 90v168h-180v-168h180z" />
    <glyph glyph-name="fi" unicode="fi" horiz-adv-x="1106" 
d="M409 1198q-24 -27 -24 -92v-115h211v-172h-211v-819h-188v819h-150v172h150v96q0 168 76 240t223 72q52 0 100 -10v-164h-109q-54 0 -78 -27zM780 991h189v-991h-189v991zM780 1380h190v-235h-190v235z" />
    <glyph glyph-name="fl" unicode="fl" horiz-adv-x="1145" 
d="M409 1198q-24 -27 -24 -92v-115h211v-172h-211v-819h-188v819h-150v172h150v96q0 168 76 240t223 72q52 0 100 -10v-164h-109q-54 0 -78 -27zM832.5 50q-60.5 58 -60.5 210v1120h188v-1124q0 -38 9.5 -58t29 -27t52.5 -7h43v-154q-49 -18 -113 -18q-88 0 -148.5 58z" />
    <glyph glyph-name="uni04100300.rlig" unicode="&#x410;&#x300;" horiz-adv-x="1225" 
d="M896 344h-570l-127 -344h-207l524 1380h195l522 -1380h-207zM824 532l-218 575l-211 -575h429zM325 1769h221l201 -264h-195z" />
    <glyph glyph-name="uni04150300.rlig" unicode="&#x415;&#x300;" horiz-adv-x="1157" 
d="M1096 190v-190h-942v1380h936v-190h-734v-391h609v-191h-609v-418h740zM325 1769h221l201 -264h-195z" />
    <glyph glyph-name="uni04180300.rlig" unicode="&#x418;&#x300;" horiz-adv-x="1325" 
d="M1171 1380v-1380h-202v1023l-613 -1023h-202v1380h202v-1018l613 1018h202zM415 1769h221l201 -264h-195z" />
    <glyph glyph-name="uni041E0300.rlig" unicode="&#x41e;&#x300;" horiz-adv-x="1321" 
d="M346.5 62q-130.5 85 -199.5 246t-69 384q0 222 69 382t199.5 244.5t312.5 84.5t313.5 -84.5t201 -244.5t69.5 -382q0 -223 -69.5 -383.5t-201 -246t-313.5 -85.5t-312.5 85zM942.5 295.5q95.5 133.5 95.5 392.5q0 261 -96 396t-283 135q-185 0 -280.5 -133.5
t-95.5 -393.5q0 -261 96 -395.5t283 -134.5q185 0 280.5 133.5zM375 1769h221l201 -264h-195z" />
    <glyph glyph-name="uni04230300.rlig" unicode="&#x423;&#x300;" horiz-adv-x="1102" 
d="M1106 1380l-461 -1095q-34 -82 -71.5 -143.5t-112 -111.5t-187.5 -50q-47 0 -71 8v176h39q59 0 98.5 17.5t63.5 46.5t45 73l-453 1079h219l338 -841l340 841h213zM268 1769h221l201 -264h-195z" />
    <glyph glyph-name="uni042A0300.rlig" unicode="&#x42a;&#x300;" horiz-adv-x="1329" 
d="M1071.5 761q98.5 -62 146.5 -155.5t48 -189.5q0 -100 -47.5 -195.5t-146.5 -158t-243 -62.5h-579v1190h-275v190h478v-557h376q144 0 242.5 -62zM959.5 223q52.5 33 77 85t24.5 108q0 55 -24.5 104.5t-77 81t-130.5 31.5h-376v-443h376q78 0 130.5 33zM432 1763h221
l201 -264h-195z" />
    <glyph glyph-name="uni042B0300.rlig" unicode="&#x42b;&#x300;" horiz-adv-x="1741" 
d="M972.5 761q98.5 -62 146.5 -155.5t48 -189.5q0 -100 -47.5 -195.5t-146 -158t-242.5 -62.5h-579v1380h202v-557h377q143 0 241.5 -62zM861.5 223q52.5 33 77 85t24.5 108q0 53 -24.5 102.5t-77 82t-130.5 32.5h-377v-443h377q78 0 130.5 33zM1385 1380h202v-1380h-202
v1380zM610 1765h221l201 -264h-195z" />
    <glyph glyph-name="uni042D0300.rlig" unicode="&#x42d;&#x300;" horiz-adv-x="1272" 
d="M925.5 1316q131.5 -87 200 -247t68.5 -377t-67.5 -378.5t-196.5 -249t-309 -87.5q-159 0 -279.5 57t-193.5 158.5t-95 233.5h207q34 -127 121.5 -194.5t228.5 -67.5q164 0 263 113t114 331h-600v191h597q-12 144 -54 235.5t-120.5 135.5t-199.5 44q-139 0 -227 -67
t-115 -182h-208q22 127 93 226t187.5 155.5t269.5 56.5q184 0 315.5 -87zM350 1769h221l201 -264h-195z" />
    <glyph glyph-name="uni042E0300.rlig" unicode="&#x42e;&#x300;" horiz-adv-x="1810" 
d="M1464.5 1318.5q131.5 -84.5 201 -244.5t69.5 -382q0 -223 -69.5 -383.5t-201 -246t-313.5 -85.5q-170 0 -296 75t-198.5 216.5t-84.5 339.5h-218v-608h-202v1380h202v-581h219q16 190 89 326t197.5 207t291.5 71q182 0 313.5 -84.5zM1434.5 295q95.5 133 95.5 393
q0 261 -96 396t-283 135q-186 0 -281.5 -133.5t-95.5 -393.5q0 -261 96 -395.5t283 -134.5q186 0 281.5 133zM864 1769h221l201 -264h-195z" />
    <glyph glyph-name="uni042F0300.rlig" unicode="&#x42f;&#x300;" horiz-adv-x="1280" 
d="M1126 1380v-1380h-202v557h-320l-319 -557h-232l341 586q-128 44 -203.5 146t-75.5 237q0 118 56 211.5t155.5 146.5t224.5 53h575zM924 748v442h-373q-107 0 -169.5 -60t-62.5 -163q0 -102 62.5 -160.5t169.5 -58.5h373zM352 1769h221l201 -264h-195z" />
    <glyph glyph-name="uni04300300.rlig" unicode="&#x430;&#x300;" horiz-adv-x="1032" 
d="M981 164v-154q-40 -18 -94 -18q-65 0 -109.5 30.5t-62.5 93.5q-50 -66 -125.5 -100t-163.5 -34q-89 0 -167 31t-127.5 100.5t-49.5 179.5q0 116 59.5 180t157.5 87.5t233 23.5h154v51q0 98 -46.5 152.5t-156.5 54.5q-161 0 -182 -127h-197q20 143 121.5 219t266.5 76
q196 0 288 -105t92 -282v-369q0 -53 18.5 -71.5t65.5 -18.5h25zM589.5 184q52.5 37 74.5 94t22 121v35h-156q-100 0 -157 -15t-80 -44.5t-23 -75.5q0 -72 48 -112t135 -40q84 0 136.5 37zM223 1380h221l201 -264h-195z" />
    <glyph glyph-name="uni04350300.rlig" unicode="&#x435;&#x300;" horiz-adv-x="1014" 
d="M940 454q-2 -20 -2 -22h-671q13 -142 79.5 -209t159.5 -67q83 0 138.5 35t82.5 110h193q-43 -151 -147 -235t-267 -84q-130 0 -228 60.5t-152 175.5t-54 274q0 161 58 278.5t160 178.5t230 61q134 0 229 -65.5t144 -178.5t49 -256q0 -36 -2 -56zM347.5 774
q-60.5 -64 -77.5 -180h475q-8 111 -65 177.5t-168 66.5q-104 0 -164.5 -64zM223 1380h221l201 -264h-195z" />
    <glyph glyph-name="uni04380300.rlig" unicode="&#x438;&#x300;" horiz-adv-x="1049" 
d="M914 991v-991h-182l-3 85q-46 -53 -114 -78.5t-148 -25.5q-108 0 -185 46t-118 132.5t-41 206.5v625h189v-610q0 -113 48 -171.5t142 -58.5q110 0 166.5 65.5t56.5 194.5v580h189zM237 1380h221l201 -264h-195z" />
    <glyph glyph-name="uni043E0300.rlig" unicode="&#x43e;&#x300;" horiz-adv-x="1026" 
d="M276 44q-99 62 -151.5 179.5t-52.5 280.5q0 155 56.5 269.5t157 175.5t230.5 61q133 0 232.5 -65t152.5 -180t53 -261q0 -162 -54.5 -279.5t-154 -180t-233.5 -62.5q-137 0 -236 62zM701.5 241q62.5 85 62.5 261q0 158 -64.5 246t-185.5 88q-118 0 -185 -84.5t-67 -249.5
q0 -177 63 -261.5t189 -84.5q125 0 187.5 85zM227 1380h221l201 -264h-195z" />
    <glyph glyph-name="uni04430300.rlig" unicode="&#x443;&#x300;" horiz-adv-x="913" 
d="M903 991l-418 -1190q-30 -88 -89.5 -131t-164.5 -43q-35 0 -71 6v168h71q39 0 58 19t35 63l39 106l-353 1002h207l245 -755l236 755h205zM168 1380h221l201 -264h-195z" />
    <glyph glyph-name="uni044B0300.rlig" unicode="&#x44b;&#x300;" horiz-adv-x="1458" 
d="M783 604q84 -39 129.5 -111.5t45.5 -170.5q0 -99 -45.5 -171.5t-129.5 -111.5t-199 -39h-449v991h189v-348h260q115 0 199 -39zM1323 991v-991h-188v991h188zM721.5 212q46.5 40 46.5 110q0 69 -50 109t-136 40h-258v-299h270q81 0 127.5 40zM483 1380h221l201 -264h-195
z" />
    <glyph glyph-name="uni044D0300.rlig" unicode="&#x44d;&#x300;" horiz-adv-x="985" 
d="M698 948.5q101 -61.5 157 -177.5t56 -275q0 -160 -54.5 -276t-156 -177t-239.5 -61q-106 0 -190 40.5t-138.5 117t-71.5 182.5h193q15 -79 68 -122.5t141 -43.5q227 0 255 262h-329v176h326q-21 120 -84.5 181t-163.5 61q-88 0 -140 -43t-69 -121h-193q15 99 66 175.5
t136.5 119.5t197.5 43q132 0 233 -61.5zM207 1380h221l201 -264h-195z" />
    <glyph glyph-name="uni044F0300.rlig" unicode="&#x44f;&#x300;" horiz-adv-x="1024" 
d="M920 991v-991h-189v348h-252l-203 -348h-210l232 381q-94 41 -148 119t-54 170q0 91 48.5 164t136 115t200.5 42h439zM731 518v301h-270q-82 0 -128 -40.5t-46 -108.5q0 -73 46.5 -112.5t139.5 -39.5h258zM307 1380h221l201 -264h-195z" />
    <glyph glyph-name=".notdef" horiz-adv-x="1249" 
d="M297.5 -18q-141.5 78 -219.5 220t-78 328t78 327.5t219.5 219.5t327.5 78q185 0 326.5 -78t219.5 -219.5t78 -327.5t-78 -328t-219.5 -220t-326.5 -78q-186 0 -327.5 78zM690 326q0 39 24 71t74 78q42 39 68 67.5t44 68t18 87.5q0 81 -36.5 143t-102.5 96t-152 34
q-81 0 -145.5 -36.5t-103.5 -102t-46 -150.5h190q3 57 30.5 89t72.5 32q46 0 72 -26t26 -72q0 -37 -12.5 -65t-31 -48t-50.5 -46q-37 -33 -60 -58.5t-39 -65.5t-16 -96h176zM692 90v168h-180v-168h180z" />
    <glyph glyph-name=".null" horiz-adv-x="0" 
 />
    <glyph glyph-name="nonmarkingreturn" horiz-adv-x="682" 
 />
    <glyph glyph-name="space" unicode=" " horiz-adv-x="530" 
 />
    <glyph glyph-name="exclam" unicode="!" horiz-adv-x="541" 
d="M168 1380h205l-29 -1009h-149zM170 252h199v-252h-199v252z" />
    <glyph glyph-name="quotedbl" unicode="&#x22;" horiz-adv-x="805" 
d="M158 1380h176v-444h-176v444zM471 1380h176v-444h-176v444z" />
    <glyph glyph-name="numbersign" unicode="#" horiz-adv-x="1427" 
d="M1047 846l-42 -264h259v-164h-286l-67 -418h-174l68 418h-249l-67 -418h-174l68 418h-268v164h295l44 264h-268v164h294l61 370h170l-60 -370h251l61 370h170l-60 -370h262v-164h-288zM876 846h-251l-42 -264h249z" />
    <glyph glyph-name="dollar" unicode="$" horiz-adv-x="1192" 
d="M1054 186.5q-56 -89.5 -158.5 -142t-240.5 -62.5v-156h-125v155q-140 7 -241 63t-156 152t-63 222h206q6 -113 70 -178.5t184 -75.5v461q-130 34 -214 71.5t-141.5 111t-57.5 193.5q0 113 51.5 198.5t145 134t216.5 57.5v147h125v-147q129 -8 224.5 -59.5t149.5 -140.5
t58 -210h-206q-1 99 -61.5 156.5t-164.5 69.5v-407q144 -36 235.5 -74t155.5 -118t64 -215q0 -117 -56 -206.5zM371.5 899q54.5 -42 158.5 -73v381q-97 -11 -155 -63t-58 -128q0 -75 54.5 -117zM839.5 234q67.5 57 67.5 147q0 62 -32.5 103t-85.5 66.5t-134 48.5v-434
q117 12 184.5 69z" />
    <glyph glyph-name="percent" unicode="%" horiz-adv-x="1638" 
d="M240 656q-65 47 -99.5 136.5t-34.5 213.5t34.5 213t99 135.5t155.5 46.5t155.5 -46.5t99 -135.5t34.5 -213t-34.5 -213.5t-99.5 -136.5t-155 -47t-155 47zM1053 1380h139l-702 -1380h-142zM491 814q31 62 31 192t-31 192t-96 62t-96 -62t-31 -192t31 -192t96 -62t96 62z
M1088 27q-65 47 -99.5 136.5t-34.5 213.5t34.5 213t99 135.5t155.5 46.5t155.5 -46.5t99 -135.5t34.5 -213t-34.5 -213.5t-99.5 -136.5t-155 -47t-155 47zM1339 185q31 62 31 192t-31 192t-96 62t-96 -62t-31 -192t31 -192t96 -62t96 62z" />
    <glyph glyph-name="ampersand" unicode="&#x26;" horiz-adv-x="1225" 
d="M1159 522h-139q37 -77 37 -160q0 -98 -58.5 -186t-167 -142t-253.5 -54q-148 0 -256.5 51t-166 141.5t-57.5 206.5q0 126 66 217.5t158 137.5q-75 37 -129 114t-54 182q0 97 50.5 182.5t150 138t238.5 52.5t240.5 -57.5t156 -151t59.5 -201.5h-209q-8 107 -72 165.5
t-175 58.5t-175.5 -56t-64.5 -149q0 -95 65.5 -149t178.5 -54h8v-170h-17q-131 0 -203.5 -61t-72.5 -177q0 -115 74 -177t207 -62q87 0 152 28t100.5 81t35.5 126q0 51 -15.5 88t-35.5 54v170h344v-187z" />
    <glyph glyph-name="quotesingle" unicode="'" horiz-adv-x="492" 
d="M158 1380h176v-444h-176v444z" />
    <glyph glyph-name="parenleft" unicode="(" horiz-adv-x="555" 
d="M218 -100.5q-63 140.5 -104.5 320.5t-41.5 370q0 189 41.5 369t104.5 320.5t128 225.5h201q-70 -93 -137.5 -238t-112.5 -322t-45 -355t45 -355.5t112.5 -322.5t137.5 -238h-201q-65 85 -128 225.5z" />
    <glyph glyph-name="parenright" unicode=")" horiz-adv-x="555" 
d="M8 -326q70 93 137.5 238t112.5 322.5t45 355.5t-45 355t-112.5 322t-137.5 238h201q65 -85 128 -225.5t104.5 -320.5t41.5 -369q0 -190 -41.5 -370t-104.5 -320.5t-128 -225.5h-201z" />
    <glyph glyph-name="asterisk" unicode="*" horiz-adv-x="1028" 
d="M607 1040l181 -239l-126 -91l-172 246l-172 -247l-125 91l181 240l-287 87l48 147l283 -98l-6 299h155l-6 -299l284 98l48 -147z" />
    <glyph glyph-name="plus" unicode="+" 
d="M1038 469h-399v-408h-186v408h-404v176h404v408h186v-408h399v-176z" />
    <glyph glyph-name="comma" unicode="," horiz-adv-x="512" 
d="M45 -94q60 8 94.5 52t34.5 116v178h186v-125q0 -167 -75 -249t-240 -99v127z" />
    <glyph glyph-name="hyphen" unicode="-" horiz-adv-x="932" 
d="M143 643h645v-176h-645v176z" />
    <glyph glyph-name="period" unicode="." horiz-adv-x="512" 
d="M158 272h202v-272h-202v272z" />
    <glyph glyph-name="slash" unicode="/" horiz-adv-x="901" 
d="M698 1421h187l-680 -1470h-187z" />
    <glyph glyph-name="zero" unicode="0" 
d="M289 61.5q-107 84.5 -164 244t-57 380.5q0 220 57.5 380t165 245.5t254.5 85.5q150 0 257 -84t163.5 -243t56.5 -380q0 -220 -57.5 -381t-165 -246.5t-254.5 -85.5q-149 0 -256 84.5zM758 292.5q67 128.5 67 401.5q0 249 -72.5 382.5t-207.5 133.5q-142 0 -211.5 -136.5
t-69.5 -411.5q0 -240 73.5 -369t209.5 -129q144 0 211 128.5z" />
    <glyph glyph-name="one" unicode="1" 
d="M958 176v-176h-765v176h294v950l-303 -186v211l336 219h162v-1194h276z" />
    <glyph glyph-name="two" unicode="2" 
d="M958 182v-182h-847v188q270 240 402.5 376t183.5 227.5t51 185.5q0 110 -61.5 171.5t-172.5 61.5q-101 0 -163.5 -52t-71.5 -144h-199q11 117 69 203.5t156 133t225 46.5q122 0 217 -52.5t148 -147t53 -216.5q0 -112 -50 -212.5t-178 -234t-380 -352.5h618z" />
    <glyph glyph-name="three" unicode="3" 
d="M919 612.5q60 -88.5 60 -211.5q0 -121 -61 -217.5t-168.5 -151.5t-241.5 -55q-175 0 -293 94t-156 263h205q22 -80 87.5 -125t162.5 -45q123 0 194.5 65t71.5 177t-72.5 174.5t-201.5 62.5h-88v168h80q112 0 175.5 54t63.5 149q0 92 -60 144t-165 52q-86 0 -143 -39
t-74 -108h-203q16 101 74.5 176.5t150 116.5t203.5 41q122 0 216.5 -46.5t147 -129.5t52.5 -189q0 -104 -48.5 -180.5t-135.5 -111.5q107 -39 167 -127.5z" />
    <glyph glyph-name="four" unicode="4" 
d="M1044 299h-186v-299h-194v299h-629v168l602 903h221v-893h186v-178zM664 477v653l-433 -653h433z" />
    <glyph glyph-name="five" unicode="5" 
d="M775.5 890q97.5 -60 150.5 -169.5t53 -253.5q0 -142 -58 -253.5t-162 -174t-237 -62.5q-107 0 -196 39.5t-151 113.5t-89 175h207q25 -64 88 -103.5t141 -39.5q79 0 137.5 36t89.5 104t31 161q0 146 -64.5 223.5t-187.5 77.5q-174 0 -229 -137h-176l78 743h694v-186h-540
l-37 -315q92 81 231 81q129 0 226.5 -60z" />
    <glyph glyph-name="six" unicode="6" 
d="M799 847.5q94 -57.5 148 -160.5t54 -236q0 -138 -57.5 -246t-161.5 -168t-237 -60q-146 0 -248.5 75.5t-156.5 223.5t-54 363q0 232 61 403t174.5 263t266.5 92q145 0 249 -83.5t138 -242.5h-195q-26 70 -75.5 104.5t-118.5 34.5q-128 0 -202.5 -111t-93.5 -325
q52 64 131 97.5t167 33.5q117 0 211 -57.5zM684 198.5q56 34.5 87.5 97t31.5 144.5q0 83 -31.5 146.5t-88 98t-130.5 34.5q-75 0 -132 -35t-88.5 -97.5t-31.5 -142.5q0 -79 31 -142.5t89 -100.5t134 -37q73 0 129 34.5z" />
    <glyph glyph-name="seven" unicode="7" 
d="M961 1370v-172l-553 -1198h-218l560 1184h-674v186h885z" />
    <glyph glyph-name="eight" unicode="8" 
d="M957.5 576q56.5 -88 56.5 -187q0 -123 -58.5 -216.5t-164.5 -144.5t-246 -51t-246.5 51t-164.5 144.5t-58 216.5q0 104 56 193t157 139q-86 56 -131 131.5t-45 159.5q0 113 54.5 200.5t152.5 136t225 48.5q126 0 223.5 -49t152 -136.5t54.5 -199.5q0 -83 -45.5 -159.5
t-129.5 -131.5q101 -57 157.5 -145zM372 1159.5q-63 -54.5 -63 -149.5q0 -61 30.5 -109t84 -75t121.5 -27q67 0 120 27t83 75t30 109q0 95 -62.5 149.5t-170.5 54.5q-110 0 -173 -54.5zM688.5 188q60.5 28 93.5 80t33 121q0 71 -33 124t-93.5 81.5t-141.5 28.5
q-83 0 -145 -28.5t-95 -81.5t-33 -124q0 -69 33.5 -121t95.5 -80t144 -28q81 0 141.5 28z" />
    <glyph glyph-name="nine" unicode="9" 
d="M788.5 1321.5q102.5 -75.5 156.5 -223.5t54 -363q0 -232 -61 -403t-174.5 -263t-266.5 -92q-145 0 -249 83.5t-138 242.5h195q26 -70 75.5 -104.5t118.5 -34.5q128 0 202.5 111t93.5 325q-52 -64 -131 -97.5t-167 -33.5q-117 0 -211 57.5t-148 160.5t-54 236
q0 138 57.5 246t161.5 168t237 60q146 0 248.5 -75.5zM664 690q57 35 88.5 97.5t31.5 142.5q0 79 -31 142.5t-89 100.5t-134 37q-73 0 -129 -34.5t-87.5 -97t-31.5 -144.5q0 -83 31.5 -146.5t88 -98t130.5 -34.5q75 0 132 35z" />
    <glyph glyph-name="colon" unicode=":" horiz-adv-x="571" 
d="M176 991h202v-272h-202v272zM176 272h202v-272h-202v272z" />
    <glyph glyph-name="semicolon" unicode=";" horiz-adv-x="547" 
d="M51 -94q60 8 94.5 52t34.5 116v178h186v-125q0 -167 -75 -249t-240 -99v127zM172 991h202v-272h-202v272z" />
    <glyph glyph-name="less" unicode="&#x3c;" 
d="M994 834l-694 -277l694 -293v-188l-899 397v170l899 379v-188z" />
    <glyph glyph-name="equal" unicode="=" 
d="M94 825h901v-176h-901v176zM94 453h901v-177h-901v177z" />
    <glyph glyph-name="greater" unicode="&#x3e;" 
d="M995 643v-170l-899 -397v188l694 293l-694 277v188z" />
    <glyph glyph-name="question" unicode="?" horiz-adv-x="928" 
d="M336 412q0 65 22 119t53.5 94.5t84.5 96.5q51 54 80.5 92t50 86.5t20.5 105.5q0 92 -53 147t-145 55q-90 0 -143.5 -51t-59.5 -143h-195q9 112 62 197.5t141 132.5t201 47q115 0 204.5 -49.5t139 -135t49.5 -190.5q0 -78 -26.5 -142.5t-65 -113t-99.5 -113.5
q-50 -53 -77.5 -87t-46.5 -74.5t-19 -84.5v-49h-178v60zM330 252h198v-252h-198v252z" />
    <glyph glyph-name="at" unicode="@" horiz-adv-x="1976" 
d="M1329 303q-6 -31 -6 -57q0 -56 27.5 -85.5t79.5 -29.5q78 0 149.5 63t115.5 172.5t44 241.5q0 193 -92 337.5t-251.5 222t-355.5 77.5q-220 0 -398.5 -96t-281 -272.5t-102.5 -409.5q0 -215 89.5 -380.5t255.5 -257t390 -91.5q147 0 261 41t210 121h244
q-132 -155 -314 -239.5t-411 -84.5q-261 0 -465 110t-318 311.5t-114 465.5q0 278 125.5 493t342.5 333t482 118q241 0 440.5 -99.5t316 -281.5t116.5 -420q0 -184 -72 -328.5t-189.5 -223.5t-246.5 -79q-95 0 -151.5 41t-76.5 101q-56 -63 -133 -101.5t-170 -38.5
q-89 0 -164.5 38.5t-123 125.5t-47.5 226q0 160 63 305.5t178 235t262 89.5q75 0 130.5 -23.5t87.5 -62.5l14 72h194zM1054.5 218q73.5 66 115.5 173.5t42 224.5q0 99 -36.5 153t-126.5 54q-106 0 -179.5 -70.5t-110 -175t-36.5 -204.5q0 -111 45.5 -166t124.5 -55
q88 0 161.5 66z" />
    <glyph glyph-name="A" unicode="A" horiz-adv-x="1225" 
d="M896 344h-570l-127 -344h-207l524 1380h195l522 -1380h-207zM824 532l-218 575l-211 -575h429z" />
    <glyph glyph-name="B" unicode="B" horiz-adv-x="1278" 
d="M1143.5 601q56.5 -87 56.5 -208q0 -116 -55 -205.5t-155 -138.5t-232 -49h-604v1380h587q125 0 219.5 -44.5t146.5 -126.5t52 -189q0 -105 -45.5 -183.5t-123.5 -114.5q97 -34 153.5 -121zM896 1137.5q-60 52.5 -165 52.5h-375v-387h396q95 0 149.5 51.5t54.5 138.5
q0 92 -60 144.5zM928 246.5q65 56.5 65 154.5q0 104 -68 164t-186 60h-383v-435h392q115 0 180 56.5z" />
    <glyph glyph-name="C" unicode="C" horiz-adv-x="1272" 
d="M343.5 64.5q-130.5 87.5 -198 248.5t-67.5 379q0 217 68.5 377t200 247t315.5 87q150 0 266 -56.5t185.5 -156t88.5 -225.5h-209q-23 116 -109.5 185t-221.5 69q-189 0 -284 -135.5t-95 -391.5q0 -168 44.5 -287t129.5 -181t205 -62q137 0 221.5 68.5t117.5 195.5h207
q-20 -131 -91.5 -232.5t-189 -159t-268.5 -57.5q-185 0 -315.5 87.5z" />
    <glyph glyph-name="D" unicode="D" horiz-adv-x="1333" 
d="M986 1293.5q134 -86.5 201.5 -237.5t67.5 -343q0 -219 -68 -379t-203.5 -247t-332.5 -87h-497v1380h505q193 0 327 -86.5zM955 321q96 131 96 388q0 224 -99 352.5t-293 128.5h-303v-1000h303q200 0 296 131z" />
    <glyph glyph-name="E" unicode="E" horiz-adv-x="1157" 
d="M1096 190v-190h-942v1380h936v-190h-734v-391h609v-191h-609v-418h740z" />
    <glyph glyph-name="F" unicode="F" horiz-adv-x="1110" 
d="M356 1190v-391h592v-191h-592v-608h-202v1380h919v-190h-717z" />
    <glyph glyph-name="G" unicode="G" horiz-adv-x="1315" 
d="M1221 760v-242q0 -154 -66 -277t-190.5 -193.5t-294.5 -70.5q-189 0 -322 87.5t-201.5 248.5t-68.5 379t68 378t201 246.5t323 86.5q150 0 266.5 -57.5t187 -157t88.5 -223.5h-206q-27 114 -113.5 180.5t-222.5 66.5q-194 0 -290.5 -133.5t-96.5 -386.5t100 -388.5
t291 -135.5q118 0 195 47.5t113 126.5t36 178v51h-430v189h633z" />
    <glyph glyph-name="H" unicode="H" horiz-adv-x="1323" 
d="M1169 1380v-1380h-202v608h-611v-608h-202v1380h202v-581h611v581h202z" />
    <glyph glyph-name="I" unicode="I" horiz-adv-x="510" 
d="M154 1380h202v-1380h-202v1380z" />
    <glyph glyph-name="J" unicode="J" horiz-adv-x="928" 
d="M174 31.5q-88 54.5 -133.5 145t-50.5 198.5h203q2 -54 25.5 -102t66.5 -77.5t102 -29.5q95 0 146 61t51 160v993h202v-993q0 -112 -44.5 -205.5t-134 -149t-220.5 -55.5q-125 0 -213 54.5z" />
    <glyph glyph-name="K" unicode="K" horiz-adv-x="1237" 
d="M563 685l-207 -228v-457h-202v1380h202v-661l594 661h258l-504 -551l553 -829h-241z" />
    <glyph glyph-name="L" unicode="L" horiz-adv-x="1030" 
d="M999 190v-190h-845v1380h202v-1190h643z" />
    <glyph glyph-name="M" unicode="M" horiz-adv-x="1610" 
d="M1456 1380v-1380h-203v990l-366 -851h-164l-367 853v-992h-202v1380h225l430 -997l422 997h225z" />
    <glyph glyph-name="N" unicode="N" horiz-adv-x="1325" 
d="M1171 1380v-1380h-202l-613 1023v-1023h-202v1380h202l613 -1018v1018h202z" />
    <glyph glyph-name="O" unicode="O" horiz-adv-x="1321" 
d="M346.5 62q-130.5 85 -199.5 246t-69 384q0 222 69 382t199.5 244.5t312.5 84.5t313.5 -84.5t201 -244.5t69.5 -382q0 -223 -69.5 -383.5t-201 -246t-313.5 -85.5t-312.5 85zM942.5 295.5q95.5 133.5 95.5 392.5q0 261 -96 396t-283 135q-185 0 -280.5 -133.5
t-95.5 -393.5q0 -261 96 -395.5t283 -134.5q185 0 280.5 133.5z" />
    <glyph glyph-name="P" unicode="P" horiz-adv-x="1233" 
d="M957.5 1326.5q99.5 -53.5 155.5 -147.5t56 -212t-56 -211t-155.5 -146t-224.5 -53h-377v-557h-202v1380h579q125 0 224.5 -53.5zM852.5 776q52.5 28 82.5 78t30 113q0 64 -30 114.5t-82.5 79.5t-119.5 29h-377v-442h377q67 0 119.5 28z" />
    <glyph glyph-name="Q" unicode="Q" horiz-adv-x="1321" 
d="M1184 334q-59 -153 -171.5 -243t-269.5 -109q-1 -100 42 -145.5t128 -45.5h131v-160q-16 -5 -57.5 -8.5t-87.5 -3.5q-93 0 -174.5 36t-132.5 118.5t-49 213.5q-147 25 -251.5 116.5t-159 241t-54.5 347.5q0 222 69 382t199.5 244.5t312.5 84.5t313.5 -84.5t201 -244.5
t69.5 -382q0 -205 -59 -358zM379 296.5q96 -134.5 283 -134.5q185 0 280.5 133.5t95.5 392.5q0 261 -96 396t-283 135q-185 0 -280.5 -133.5t-95.5 -393.5q0 -261 96 -395.5z" />
    <glyph glyph-name="R" unicode="R" horiz-adv-x="1280" 
d="M676 557h-320v-557h-202v1380h575q125 0 224.5 -53t155.5 -146.5t56 -211.5q0 -135 -75.5 -237t-203.5 -146l341 -586h-232zM356 748h373q107 0 169.5 58.5t62.5 160.5q0 103 -62.5 163t-169.5 60h-373v-442z" />
    <glyph glyph-name="S" unicode="S" horiz-adv-x="1180" 
d="M311.5 32q-110.5 55 -171.5 155t-70 233h211q6 -124 81 -192t218 -68q93 0 164 27t110 77t39 117q0 73 -44 118.5t-110 70.5t-180 54q-142 37 -229.5 73t-149 111.5t-61.5 201.5q0 121 59 210t164.5 136t243.5 47q144 0 252 -49.5t169 -143.5t66 -223h-209
q-1 113 -76.5 173.5t-203.5 60.5q-78 0 -137.5 -25t-92 -70t-32.5 -102q0 -65 41 -105t102.5 -62.5t171.5 -50.5q146 -37 238 -75t157.5 -118.5t65.5 -217.5q0 -127 -64.5 -221.5t-183 -145.5t-275.5 -51q-153 0 -263.5 55z" />
    <glyph glyph-name="T" unicode="T" horiz-adv-x="1079" 
d="M1049 1190h-406v-1190h-203v1190h-409v190h1018v-190z" />
    <glyph glyph-name="U" unicode="U" horiz-adv-x="1300" 
d="M384 34q-114 57 -179.5 179.5t-65.5 312.5v854h203v-848q0 -362 305 -362q311 0 311 362v848h203v-854q0 -187 -66.5 -310t-182 -181t-265.5 -58q-149 0 -263 57z" />
    <glyph glyph-name="V" unicode="V" horiz-adv-x="1151" 
d="M1141 1380l-453 -1380h-229l-449 1380h209l359 -1119l356 1119h207z" />
    <glyph glyph-name="W" unicode="W" horiz-adv-x="1702" 
d="M1681 1380l-350 -1380h-205l-274 1081l-283 -1081h-204l-345 1380h211l247 -1057l274 1057h198l278 -1056l245 1056h208z" />
    <glyph glyph-name="X" unicode="X" horiz-adv-x="1112" 
d="M883 0l-328 536l-326 -536h-229l431 704l-419 676h230l317 -519l305 519h232l-411 -683l427 -697h-229z" />
    <glyph glyph-name="Y" unicode="Y" horiz-adv-x="1130" 
d="M1120 1380l-452 -825v-555h-203v555l-455 825h230l329 -635l326 635h225z" />
    <glyph glyph-name="Z" unicode="Z" horiz-adv-x="1108" 
d="M1030 1204l-720 -1014h720v-190h-958v174l719 1016h-687v190h926v-176z" />
    <glyph glyph-name="bracketleft" unicode="[" horiz-adv-x="653" 
d="M342 1358v-1497h270v-158h-448v1813h448v-158h-270z" />
    <glyph glyph-name="backslash" unicode="\" horiz-adv-x="901" 
d="M37 1380h186l637 -1380h-186z" />
    <glyph glyph-name="bracketright" unicode="]" horiz-adv-x="653" 
d="M489 1516v-1813h-448v158h270v1497h-270v158h448z" />
    <glyph glyph-name="asciicircum" unicode="^" horiz-adv-x="977" 
d="M721 682l-230 543l-235 -543h-182l342 780h159l328 -780h-182z" />
    <glyph glyph-name="underscore" unicode="_" horiz-adv-x="907" 
d="M-16 -129h940v-158h-940v158z" />
    <glyph glyph-name="grave" unicode="`" horiz-adv-x="586" 
d="M82 1380h221l201 -264h-195z" />
    <glyph glyph-name="a" unicode="a" horiz-adv-x="1032" 
d="M981 164v-154q-40 -18 -94 -18q-65 0 -109.5 30.5t-62.5 93.5q-50 -66 -125.5 -100t-163.5 -34q-89 0 -167 31t-127.5 100.5t-49.5 179.5q0 116 59.5 180t157.5 87.5t233 23.5h154v51q0 98 -46.5 152.5t-156.5 54.5q-161 0 -182 -127h-197q20 143 121.5 219t266.5 76
q196 0 288 -105t92 -282v-369q0 -53 18.5 -71.5t65.5 -18.5h25zM589.5 184q52.5 37 74.5 94t22 121v35h-156q-100 0 -157 -15t-80 -44.5t-23 -75.5q0 -72 48 -112t135 -40q84 0 136.5 37z" />
    <glyph glyph-name="b" unicode="b" horiz-adv-x="1057" 
d="M798.5 948.5q89.5 -61.5 138 -176t48.5 -270.5q0 -159 -50 -276.5t-143.5 -180.5t-220.5 -63q-80 0 -144.5 26t-106.5 77l-3 -85h-182v1380h189v-471q50 49 117.5 75t146.5 26q121 0 210.5 -61.5zM734.5 240q60.5 88 60.5 260q0 170 -60 255t-176 85q-120 0 -182 -87.5
t-62 -256.5q0 -168 61 -256t179 -88q119 0 179.5 88z" />
    <glyph glyph-name="c" unicode="c" horiz-adv-x="979" 
d="M275 43.5q-98 61.5 -150.5 176t-52.5 269.5q0 162 56 279.5t156 179.5t230 62q108 0 194 -43t139.5 -119.5t70.5 -175.5h-193q-20 78 -71 121t-136 43q-121 0 -188.5 -86t-67.5 -256q0 -169 67 -253.5t189 -84.5q89 0 142.5 43.5t68.5 122.5h193q-18 -105 -74.5 -181.5
t-143.5 -117.5t-196 -41q-135 0 -233 61.5z" />
    <glyph glyph-name="d" unicode="d" horiz-adv-x="1057" 
d="M922 1380v-1380h-183l-3 84q-44 -50 -110 -76t-147 -26q-124 0 -216 60.5t-141.5 173t-49.5 265.5q0 163 50 282t144 183t223 64q74 0 136.5 -25.5t107.5 -76.5v472h189zM679 242.5q62 90.5 62 263.5q0 334 -237 334q-119 0 -180.5 -86.5t-61.5 -253.5q0 -169 60 -258.5
t178 -89.5q117 0 179 90.5z" />
    <glyph glyph-name="e" unicode="e" horiz-adv-x="1014" 
d="M940 454q-2 -20 -2 -22h-671q13 -142 79.5 -209t159.5 -67q83 0 138.5 35t82.5 110h193q-43 -151 -147 -235t-267 -84q-130 0 -228 60.5t-152 175.5t-54 274q0 161 58 278.5t160 178.5t230 61q134 0 229 -65.5t144 -178.5t49 -256q0 -36 -2 -56zM347.5 774
q-60.5 -64 -77.5 -180h475q-8 111 -65 177.5t-168 66.5q-104 0 -164.5 -64z" />
    <glyph glyph-name="f" unicode="f" horiz-adv-x="643" 
d="M409 1198q-24 -27 -24 -92v-115h211v-172h-211v-819h-188v819h-150v172h150v96q0 168 76 240t223 72q52 0 100 -10v-164h-109q-54 0 -78 -27z" />
    <glyph glyph-name="g" unicode="g" horiz-adv-x="1059" 
d="M924 991v-911q0 -231 -105 -349t-313 -118q-172 0 -275 80.5t-125 230.5h189q30 -139 207 -139q84 0 135 30t74.5 94.5t23.5 170.5v27q-42 -51 -109 -79t-151 -28q-124 0 -215 63t-139.5 175t-48.5 256q0 152 49.5 268.5t143 182t220.5 65.5q81 0 146.5 -26.5
t106.5 -76.5l3 84h183zM681.5 254.5q59.5 84.5 59.5 249.5q0 167 -57 251.5t-174 84.5q-123 0 -185.5 -87.5t-62.5 -256.5q0 -159 61 -242.5t179 -83.5q120 0 179.5 84.5z" />
    <glyph glyph-name="h" unicode="h" horiz-adv-x="1049" 
d="M768 964q77 -46 117.5 -132.5t40.5 -206.5v-625h-189v610q0 114 -49.5 172t-144.5 58q-108 0 -163.5 -76.5t-55.5 -224.5v-539h-189v1380h189v-478q42 55 111 81.5t149 26.5q107 0 184 -46z" />
    <glyph glyph-name="i" unicode="i" horiz-adv-x="463" 
d="M137 991h189v-991h-189v991zM137 1380h190v-235h-190v235z" />
    <glyph glyph-name="j" unicode="j" horiz-adv-x="467" 
d="M-29 -365v160h54q114 0 114 107v1089h189v-1079q0 -154 -76 -220.5t-193 -66.5q-51 0 -88 10zM137 1380h190v-235h-190v235z" />
    <glyph glyph-name="k" unicode="k" horiz-adv-x="965" 
d="M435 461l-111 -115v-346h-189v1380h189v-802l385 413h233l-371 -402l408 -589h-234z" />
    <glyph glyph-name="l" unicode="l" horiz-adv-x="502" 
d="M189.5 50q-60.5 58 -60.5 210v1120h188v-1124q0 -38 9.5 -58t29 -27t52.5 -7h43v-154q-49 -18 -113 -18q-88 0 -148.5 58z" />
    <glyph glyph-name="m" unicode="m" horiz-adv-x="1548" 
d="M1343.5 913q81.5 -97 81.5 -286v-627h-188v610q0 119 -40 174.5t-118 55.5q-200 0 -200 -269v-571h-187v610q0 230 -166 230q-95 0 -148.5 -67.5t-53.5 -201.5v-571h-189v991h182l3 -82q39 48 102.5 74.5t138.5 26.5q87 0 154 -37t103 -103q104 140 286 140
q158 0 239.5 -97z" />
    <glyph glyph-name="n" unicode="n" horiz-adv-x="1049" 
d="M767 964q77 -46 118 -132.5t41 -206.5v-625h-189v610q0 113 -48 171.5t-142 58.5q-110 0 -166.5 -65.5t-56.5 -194.5v-580h-189v991h182l3 -85q46 53 114 78.5t148 25.5q108 0 185 -46z" />
    <glyph glyph-name="o" unicode="o" horiz-adv-x="1026" 
d="M276 44q-99 62 -151.5 179.5t-52.5 280.5q0 155 56.5 269.5t157 175.5t230.5 61q133 0 232.5 -65t152.5 -180t53 -261q0 -162 -54.5 -279.5t-154 -180t-233.5 -62.5q-137 0 -236 62zM701.5 241q62.5 85 62.5 261q0 158 -64.5 246t-185.5 88q-118 0 -185 -84.5t-67 -249.5
q0 -177 63 -261.5t189 -84.5q125 0 187.5 85z" />
    <glyph glyph-name="p" unicode="p" horiz-adv-x="1053" 
d="M795.5 946.5q90.5 -63.5 138 -178.5t47.5 -268q0 -156 -48.5 -273t-140 -181t-217.5 -64q-79 0 -142.5 26t-108.5 78v-455h-189v1360h182l3 -85q46 51 111.5 77.5t146.5 26.5q127 0 217.5 -63.5zM732 241q59 89 59 261q0 338 -234 338q-118 0 -179 -86.5t-61 -255.5
q0 -170 61 -258t177 -88q118 0 177 89z" />
    <glyph glyph-name="q" unicode="q" horiz-adv-x="1059" 
d="M924 991v-1360h-189v458q-42 -51 -109 -79t-151 -28q-124 0 -215 65t-139.5 181t-48.5 266q0 152 49.5 268.5t143 182t220.5 65.5q81 0 146.5 -26.5t106.5 -76.5l3 84h183zM741 504q0 167 -57 251.5t-174 84.5q-123 0 -185.5 -87.5t-62.5 -256.5q0 -170 61 -257t179 -87
q239 0 239 352z" />
    <glyph glyph-name="r" unicode="r" horiz-adv-x="670" 
d="M659 995v-176h-61q-99 0 -159 -34t-87.5 -108t-27.5 -196v-481h-189v991h180l4 -143q48 84 110 123t140 39q55 0 90 -15z" />
    <glyph glyph-name="s" unicode="s" horiz-adv-x="924" 
d="M258 20.5q-87 38.5 -134.5 112t-51.5 176.5h190q4 -81 56.5 -122.5t148.5 -41.5q63 0 108 17.5t68 47t23 64.5q0 40 -28 65.5t-71 40t-118 32.5q-108 27 -176.5 54.5t-117.5 85.5t-49 155q0 89 42.5 157.5t123.5 107t191 38.5q108 0 188.5 -37.5t125 -107.5t46.5 -167
h-190q-4 75 -50.5 111.5t-123.5 36.5q-79 0 -122.5 -35.5t-43.5 -87.5q0 -43 29 -70t73.5 -42.5t122.5 -34.5q106 -26 172.5 -52.5t114 -82.5t47.5 -150q0 -91 -46.5 -161t-134.5 -109t-208 -39q-118 0 -205 38.5z" />
    <glyph glyph-name="t" unicode="t" horiz-adv-x="668" 
d="M387 819v-543q0 -62 22.5 -87t82.5 -25h81v-154q-73 -18 -135 -18q-116 0 -177.5 66.5t-61.5 203.5v557h-150v172h150v383h188v-383h213v-172h-213z" />
    <glyph glyph-name="u" unicode="u" horiz-adv-x="1049" 
d="M914 991v-991h-182l-3 85q-46 -53 -114 -78.5t-148 -25.5q-108 0 -185 46t-118 132.5t-41 206.5v625h189v-610q0 -113 48 -171.5t142 -58.5q110 0 166.5 65.5t56.5 194.5v580h189z" />
    <glyph glyph-name="v" unicode="v" horiz-adv-x="911" 
d="M901 991l-336 -991h-219l-336 991h207l241 -777l238 777h205z" />
    <glyph glyph-name="w" unicode="w" horiz-adv-x="1354" 
d="M1337 991l-280 -991h-193l-189 685l-190 -685h-192l-277 991h205l177 -716l196 716h166l202 -716l173 716h202z" />
    <glyph glyph-name="x" unicode="x" horiz-adv-x="956" 
d="M723 0l-242 369l-252 -369h-215l352 519l-321 472h221l215 -327l226 327h219l-331 -478l347 -513h-219z" />
    <glyph glyph-name="y" unicode="y" horiz-adv-x="913" 
d="M903 991l-418 -1190q-30 -88 -89.5 -131t-164.5 -43q-35 0 -71 6v168h71q39 0 58 19t35 63l39 106l-353 1002h207l245 -755l236 755h205z" />
    <glyph glyph-name="z" unicode="z" horiz-adv-x="903" 
d="M846 834l-537 -662h533v-172h-770v162l542 657h-520v172h752v-157z" />
    <glyph glyph-name="braceleft" unicode="{" horiz-adv-x="573" 
d="M311.5 655q-22.5 -48 -63.5 -68q40 -16 63 -62.5t23 -114.5v-324q0 -123 61.5 -193.5t167.5 -70.5v-150q-128 0 -222.5 49.5t-145 142t-50.5 218.5v330q0 61 -24 87.5t-80 28.5v123q56 2 80 29t24 88v324q0 125 50.5 216.5t145 141t222.5 49.5v-147q-106 0 -167.5 -71
t-61.5 -194v-317q0 -67 -22.5 -115z" />
    <glyph glyph-name="bar" unicode="|" horiz-adv-x="489" 
d="M156 1501h178v-1659h-178v1659z" />
    <glyph glyph-name="braceright" unicode="}" horiz-adv-x="573" 
d="M452 680q24 -27 80 -29v-123q-56 -2 -80 -28.5t-24 -87.5v-330q0 -126 -50.5 -218.5t-145 -142t-222.5 -49.5v150q106 0 167.5 70.5t61.5 193.5v324q0 68 23 114.5t63 62.5q-41 20 -63.5 68t-22.5 115v317q0 123 -61.5 194t-167.5 71v147q128 0 222.5 -49.5t145 -141
t50.5 -216.5v-324q0 -61 24 -88z" />
    <glyph glyph-name="asciitilde" unicode="~" horiz-adv-x="1034" 
d="M614.5 425q-45.5 13 -113.5 38q-62 22 -97 32.5t-62 10.5q-32 0 -58.5 -21.5t-33.5 -64.5h-176q11 72 49 129t95 89t124 32q39 0 85 -13t112 -38q58 -22 95 -33t66 -11q37 0 60 25t28 68h170q-8 -71 -42 -129.5t-90 -92.5t-128 -34q-38 0 -83.5 13z" />
    <glyph glyph-name="exclamdown" unicode="&#xa1;" horiz-adv-x="541" 
d="M371 739h-199v252h199v-252zM373 -389h-205l29 1009h149z" />
    <glyph glyph-name="cent" unicode="&#xa2;" horiz-adv-x="1012" 
d="M831 90.5q-94 -88.5 -243 -102.5v-162h-125v164q-122 16 -209.5 82.5t-133.5 174.5t-46 245q0 139 46.5 248.5t134.5 177t208 83.5v166h125v-163q147 -14 243.5 -101.5t118.5 -230.5h-192q-16 62 -57.5 103.5t-112.5 53.5v-665q71 11 115.5 52.5t58.5 105.5h192
q-29 -143 -123 -231.5zM313.5 275.5q49.5 -85.5 149.5 -107.5v659q-97 -22 -148 -107t-51 -224q0 -135 49.5 -220.5z" />
    <glyph glyph-name="sterling" unicode="&#xa3;" horiz-adv-x="1108" 
d="M408 186h632v-186h-897v186q55 0 80 27t25 88v344h-86v133h86v211q0 115 48 208t140.5 146.5t218.5 53.5q116 0 202 -49.5t135.5 -136.5t60.5 -197h-199q-11 94 -59 144t-140 50q-103 0 -156 -59.5t-53 -163.5v-207h412v-133h-412v-321q0 -93 -38 -138z" />
    <glyph glyph-name="currency" unicode="&#xa4;" horiz-adv-x="1210" 
d="M954 355l82 -81l-112 -112l-82 82q-102 -66 -234 -66q-133 0 -237 69l-84 -85l-113 112l86 86q-65 103 -65 234t65 232l-86 85l113 113l84 -85q103 69 237 69q132 0 234 -66l82 82l112 -113l-82 -81q68 -100 68 -236q0 -133 -68 -239zM381.5 450q33.5 -64 93 -100.5
t133.5 -36.5q75 0 134 36.5t92.5 100.5t33.5 144t-33.5 144t-92.5 100t-134 36q-74 0 -133.5 -36t-93 -100t-33.5 -144t33.5 -144z" />
    <glyph glyph-name="yen" unicode="&#xa5;" horiz-adv-x="1130" 
d="M797 784h209v-133h-283l-55 -100v-53h338v-133h-338v-365h-203v365h-367v133h367v53l-56 100h-311v133h238l-326 586h230l329 -630l326 630h225z" />
    <glyph glyph-name="brokenbar" unicode="&#xa6;" horiz-adv-x="489" 
d="M156 1501h178v-725h-178v725zM156 567h178v-725h-178v725z" />
    <glyph glyph-name="section" unicode="&#xa7;" horiz-adv-x="1018" 
d="M894.5 457q-47.5 -68 -137.5 -105q97 -85 97 -215q0 -85 -41.5 -156t-121 -113t-189.5 -42q-108 0 -187 42t-121 114.5t-42 164.5h192q3 -73 47 -113t115 -40q76 0 117 40.5t41 102.5q0 43 -30 77t-108 65l-227 92q-223 90 -223 272q0 87 46.5 160.5t141.5 108.5
q-37 39 -57.5 90t-20.5 108q0 76 37 144t113.5 110.5t189.5 42.5q158 0 244 -85t86 -239h-190q2 70 -31.5 115t-114.5 45q-72 0 -106.5 -35t-34.5 -84t26 -81.5t93 -59.5l217 -86q105 -42 166 -108t61 -173q0 -91 -47.5 -159zM616 430q43 10 74.5 39.5t48.5 66.5t17 70
q0 88 -119 133l-224 86q-51 -9 -85 -36.5t-50 -63t-16 -70.5q0 -42 31 -73t94 -58z" />
    <glyph glyph-name="dieresis" unicode="&#xa8;" horiz-adv-x="713" 
d="M82 1380h178v-221h-178v221zM451 1380h180v-221h-180v221z" />
    <glyph glyph-name="copyright" unicode="&#xa9;" horiz-adv-x="1597" 
d="M427 62.5q-164 91.5 -255.5 254.5t-91.5 371t91.5 371t255.5 254.5t372 91.5t372 -91.5t255.5 -254.5t91.5 -371t-91.5 -371t-255.5 -254.5t-372 -91.5t-372 91.5zM1100.5 178.5q132.5 74.5 207 207.5t74.5 302t-74.5 302t-207 207.5t-301.5 74.5t-301.5 -74.5
t-206.5 -207.5t-74 -302t74 -302t206.5 -207.5t301.5 -74.5t301.5 74.5zM620.5 331.5q-78.5 48.5 -120 140t-41.5 218.5q0 129 42 220.5t120 139.5t184 48q140 0 227 -81t111 -216h-164q-14 68 -57 104.5t-115 36.5q-92 0 -138 -61t-46 -191q0 -129 46 -190.5t138 -61.5
q73 0 114.5 37.5t55.5 112.5h164q-22 -145 -107.5 -225t-226.5 -80q-108 0 -186.5 48.5z" />
    <glyph glyph-name="ordfeminine" unicode="&#xaa;" horiz-adv-x="762" 
d="M713 827v-116q-34 -9 -70 -9q-45 0 -79.5 20.5t-47.5 56.5q-33 -40 -87.5 -63.5t-119.5 -23.5q-69 0 -122.5 25t-83 71.5t-29.5 108.5q0 102 72.5 154t197.5 55h145v27q0 61 -29.5 95t-99.5 34q-49 0 -75 -21t-41 -61h-148q25 103 93.5 156t177.5 53q140 0 206 -71.5
t66 -193.5v-252q0 -45 45 -45h29zM419.5 840.5q36.5 23.5 53 60t16.5 76.5v14h-124q-75 -1 -108.5 -25t-33.5 -69q0 -36 28.5 -58t74.5 -22q57 0 93.5 23.5z" />
    <glyph glyph-name="guillemotleft" unicode="&#xab;" horiz-adv-x="1112" 
d="M718 559l341 -436h-205l-338 436l338 426h211zM247 559l341 -436h-205l-338 436l338 426h211z" />
    <glyph glyph-name="logicalnot" unicode="&#xac;" 
d="M1028 645v-500h-182v324h-766v176h948z" />
    <glyph glyph-name="registered" unicode="&#xae;" horiz-adv-x="1597" 
d="M1171 1313.5q164 -91.5 255.5 -254.5t91.5 -371t-91.5 -371t-255.5 -254.5t-372 -91.5t-372 91.5t-255.5 254.5t-91.5 371t91.5 371t255.5 254.5t372 91.5t372 -91.5zM1100.5 178.5q132.5 74.5 207 207.5t74.5 302t-74.5 302t-207 207.5t-301.5 74.5t-301.5 -74.5
t-206.5 -207.5t-74 -302t74 -302t206.5 -207.5t301.5 -74.5t301.5 74.5zM1083.5 714q-36.5 -56 -100.5 -86l168 -321h-174l-147 289h-132v-289h-155v780h315q75 0 134.5 -32t93.5 -88t34 -127q0 -70 -36.5 -126zM698 743h160q53 0 78 28.5t25 68.5q0 39 -25.5 68.5
t-77.5 29.5h-160v-195z" />
    <glyph glyph-name="macron" unicode="&#xaf;" horiz-adv-x="754" 
d="M82 1319h590v-148h-590v148z" />
    <glyph glyph-name="degree" unicode="&#xb0;" horiz-adv-x="750" 
d="M228 837q-68 40 -108 108t-40 149q0 80 40 148.5t108 108.5t149 40t149.5 -40t108 -108.5t39.5 -148.5q0 -81 -39.5 -149t-107.5 -108t-150 -40q-81 0 -149 40zM449.5 966q33.5 20 53 54t19.5 74q0 39 -19.5 72.5t-53 53t-72.5 19.5t-72.5 -19.5t-53.5 -53t-20 -72.5
q0 -40 20 -74t53.5 -54t72.5 -20t72.5 20z" />
    <glyph glyph-name="plusminus" unicode="&#xb1;" 
d="M1038 758v-176h-399v-295h-186v295h-404v176h404v295h186v-295h399zM49 174h989v-174h-989v174z" />
    <glyph glyph-name="uni00B2" unicode="&#xb2;" horiz-adv-x="653" 
d="M592 961v-123h-500v118q147 130 221 204.5t102.5 122.5t28.5 93q0 52 -28 81.5t-84 29.5q-49 0 -82 -27.5t-37 -75.5h-141q6 67 40 119t90.5 81.5t129.5 29.5q80 0 137 -31.5t86 -85t29 -119.5q0 -76 -42.5 -142.5t-109.5 -121.5l-186 -153h346z" />
    <glyph glyph-name="uni00B3" unicode="&#xb3;" horiz-adv-x="682" 
d="M578.5 1171.5q27.5 -44.5 27.5 -96.5q0 -74 -37 -131t-99 -88t-136 -31q-106 0 -176.5 58t-94.5 159h144q12 -45 46.5 -69.5t80.5 -24.5q60 0 96.5 34.5t36.5 92.5q0 50 -35 80.5t-92 30.5h-90v110h76q51 0 84.5 27.5t33.5 71.5q0 46 -32 70t-82 24q-40 0 -69 -20.5
t-38 -59.5h-139q10 63 44.5 109.5t87 71t114.5 24.5q71 0 128.5 -26t90.5 -76t33 -119q0 -45 -20 -83t-56 -64q45 -30 72.5 -74.5z" />
    <glyph glyph-name="acute" unicode="&#xb4;" horiz-adv-x="586" 
d="M281 1380h223l-230 -264h-192z" />
    <glyph glyph-name="paragraph" unicode="&#xb6;" horiz-adv-x="1393" 
d="M1323 1188h-244v-1188h-205v1188h-241v-1188h-211v592q-103 4 -188.5 58t-135 142.5t-49.5 192.5q0 108 53 198.5t143 143.5t197 53h881v-192z" />
    <glyph glyph-name="periodcentered" unicode="&#xb7;" horiz-adv-x="481" 
d="M143 848h195v-273h-195v273z" />
    <glyph glyph-name="cedilla" unicode="&#xb8;" horiz-adv-x="459" 
d="M115 -465.5q-22 3.5 -33 8.5v125q19 -3 36 -3q50 0 78.5 22t28.5 63q0 44 -31 67.5t-88 26.5v82h33q73 0 126.5 -25t82.5 -70t29 -103t-27.5 -102.5t-76.5 -69.5t-111 -25q-25 0 -47 3.5z" />
    <glyph glyph-name="uni00B9" unicode="&#xb9;" horiz-adv-x="446" 
d="M338 1597v-759h-133v600l-168 -103v144l192 118h109z" />
    <glyph glyph-name="ordmasculine" unicode="&#xba;" horiz-adv-x="774" 
d="M221 735.5q-71 41.5 -109 121t-38 190.5q0 106 39.5 183t111 118t164.5 41q95 0 165.5 -44t108 -122t37.5 -176q0 -111 -38 -190.5t-108 -121t-165 -41.5q-97 0 -168 41.5zM551 1044q0 102 -41.5 157.5t-120.5 55.5q-77 0 -120.5 -54t-43.5 -159q0 -219 164 -219
q162 0 162 219z" />
    <glyph glyph-name="guillemotright" unicode="&#xbb;" horiz-adv-x="1112" 
d="M1067 559l-338 -436h-205l341 436l-347 426h211zM596 559l-338 -436h-205l341 436l-347 426h211z" />
    <glyph glyph-name="onequarter" unicode="&#xbc;" horiz-adv-x="1425" 
d="M338 1378v-759h-133v600l-168 -103v144l192 118h109zM944 1380h139l-702 -1380h-142zM1386 159h-104v-159h-133v159h-352v107l342 493h143v-479h104v-121zM1149 280v314l-215 -314h215z" />
    <glyph glyph-name="onehalf" unicode="&#xbd;" horiz-adv-x="1508" 
d="M338 1378v-759h-133v600l-168 -103v144l192 118h109zM944 1380h139l-702 -1380h-142zM1447 123v-123h-500v118q147 130 221 204.5t102.5 122.5t28.5 93q0 52 -28 81.5t-84 29.5q-49 0 -82 -27.5t-37 -75.5h-141q6 67 40 119t90.5 81.5t129.5 29.5q80 0 137 -31.5t86 -85
t29 -119.5q0 -76 -42.5 -142.5t-109.5 -121.5l-186 -153h346z" />
    <glyph glyph-name="threequarters" unicode="&#xbe;" horiz-adv-x="1620" 
d="M578.5 952.5q27.5 -44.5 27.5 -96.5q0 -74 -37 -131t-99 -88t-136 -31q-106 0 -176.5 58t-94.5 159h144q12 -45 46.5 -69.5t80.5 -24.5q60 0 96.5 34.5t36.5 92.5q0 50 -35 80.5t-92 30.5h-90v110h76q51 0 84.5 27.5t33.5 71.5q0 46 -32 70t-82 24q-40 0 -69 -20.5
t-38 -59.5h-139q10 63 44.5 109.5t87 71t114.5 24.5q71 0 128.5 -26t90.5 -76t33 -119q0 -45 -20 -83t-56 -64q45 -30 72.5 -74.5zM1139 1380h139l-702 -1380h-142zM1581 159h-104v-159h-133v159h-352v107l342 493h143v-479h104v-121zM1344 280v314l-215 -314h215z" />
    <glyph glyph-name="questiondown" unicode="&#xbf;" horiz-adv-x="928" 
d="M598 725h-198v252h198v-252zM592 565q0 -65 -22 -119t-53.5 -94.5t-84.5 -96.5q-51 -54 -80.5 -92t-50 -86.5t-20.5 -105.5q0 -92 53 -147t145 -55q90 0 143.5 51t59.5 143h195q-9 -112 -62 -197.5t-141 -132.5t-201 -47q-115 0 -204.5 49.5t-139 135t-49.5 190.5
q0 78 26.5 142.5t65 113t99.5 113.5q50 53 77.5 87t46.5 74.5t19 84.5v49h178v-60z" />
    <glyph glyph-name="Agrave" unicode="&#xc0;" horiz-adv-x="1225" 
d="M896 344h-570l-127 -344h-207l524 1380h195l522 -1380h-207zM824 532l-218 575l-211 -575h429zM325 1769h221l201 -264h-195z" />
    <glyph glyph-name="Aacute" unicode="&#xc1;" horiz-adv-x="1225" 
d="M896 344h-570l-127 -344h-207l524 1380h195l522 -1380h-207zM824 532l-218 575l-211 -575h429zM703 1769h223l-230 -264h-192z" />
    <glyph glyph-name="Acircumflex" unicode="&#xc2;" horiz-adv-x="1225" 
d="M896 344h-570l-127 -344h-207l524 1380h195l522 -1380h-207zM824 532l-218 575l-211 -575h429zM514 1769h197l219 -264h-189l-131 139l-127 -139h-188z" />
    <glyph glyph-name="Atilde" unicode="&#xc3;" horiz-adv-x="1225" 
d="M896 344h-570l-127 -344h-207l524 1380h195l522 -1380h-207zM824 532l-218 575l-211 -575h429zM665.5 1555q-35.5 13 -86.5 37q-39 18 -59 26t-37 8q-30 0 -46.5 -20t-23.5 -60h-151q24 107 77 169.5t148 62.5q34 0 68 -12.5t83 -36.5q40 -19 60.5 -27t38.5 -8
q58 0 72 84h151q-16 -107 -71.5 -171.5t-149.5 -64.5q-38 0 -73.5 13z" />
    <glyph glyph-name="Adieresis" unicode="&#xc4;" horiz-adv-x="1225" 
d="M896 344h-570l-127 -344h-207l524 1380h195l522 -1380h-207zM824 532l-218 575l-211 -575h429zM338 1769h178v-221h-178v221zM707 1769h180v-221h-180v221z" />
    <glyph glyph-name="Aring" unicode="&#xc5;" horiz-adv-x="1225" 
d="M896 344h-570l-127 -344h-207l524 1380h195l522 -1380h-207zM824 532l-218 575l-211 -575h429zM506 1513.5q-48 26.5 -75.5 73.5t-27.5 105t27.5 104.5t75.5 73t106 26.5t106 -26.5t75.5 -73t27.5 -104.5t-27.5 -105t-75.5 -73.5t-106 -26.5t-106 26.5zM684 1619
q28 28 28 73q0 44 -28 72t-72 28q-45 0 -73 -28t-28 -72q0 -45 28 -73t73 -28q44 0 72 28z" />
    <glyph glyph-name="AE" unicode="&#xc6;" horiz-adv-x="1663" 
d="M1601 190v-190h-882v340h-402l-127 -340h-206l524 1380h1087v-190h-674v-391h549v-191h-549v-418h680zM719 528v662h-86l-246 -662h332z" />
    <glyph glyph-name="Ccedilla" unicode="&#xc7;" horiz-adv-x="1272" 
d="M343.5 64.5q-130.5 87.5 -198 248.5t-67.5 379q0 217 68.5 377t200 247t315.5 87q150 0 266 -56.5t185.5 -156t88.5 -225.5h-209q-23 116 -109.5 185t-221.5 69q-189 0 -284 -135.5t-95 -391.5q0 -168 44.5 -287t129.5 -181t205 -62q137 0 221.5 68.5t117.5 195.5h207
q-20 -131 -91.5 -232.5t-189 -159t-268.5 -57.5q-185 0 -315.5 87.5zM547 -465.5q-22 3.5 -33 8.5v125q19 -3 36 -3q50 0 78.5 22t28.5 63q0 44 -31 67.5t-88 26.5v82h33q73 0 126.5 -25t82.5 -70t29 -103t-27.5 -102.5t-76.5 -69.5t-111 -25q-25 0 -47 3.5z" />
    <glyph glyph-name="Egrave" unicode="&#xc8;" horiz-adv-x="1157" 
d="M1096 190v-190h-942v1380h936v-190h-734v-391h609v-191h-609v-418h740zM325 1769h221l201 -264h-195z" />
    <glyph glyph-name="Eacute" unicode="&#xc9;" horiz-adv-x="1157" 
d="M1096 190v-190h-942v1380h936v-190h-734v-391h609v-191h-609v-418h740zM703 1769h223l-230 -264h-192z" />
    <glyph glyph-name="Ecircumflex" unicode="&#xca;" horiz-adv-x="1157" 
d="M1096 190v-190h-942v1380h936v-190h-734v-391h609v-191h-609v-418h740zM514 1769h197l219 -264h-189l-131 139l-127 -139h-188z" />
    <glyph glyph-name="Edieresis" unicode="&#xcb;" horiz-adv-x="1157" 
d="M1096 190v-190h-942v1380h936v-190h-734v-391h609v-191h-609v-418h740zM338 1769h178v-221h-178v221zM707 1769h180v-221h-180v221z" />
    <glyph glyph-name="Igrave" unicode="&#xcc;" horiz-adv-x="510" 
d="M154 1380h202v-1380h-202v1380zM-31 1769h221l201 -264h-195z" />
    <glyph glyph-name="Iacute" unicode="&#xcd;" horiz-adv-x="510" 
d="M154 1380h202v-1380h-202v1380zM347 1769h223l-230 -264h-192z" />
    <glyph glyph-name="Icircumflex" unicode="&#xce;" horiz-adv-x="510" 
d="M154 1380h202v-1380h-202v1380zM158 1769h197l219 -264h-189l-131 139l-127 -139h-188z" />
    <glyph glyph-name="Idieresis" unicode="&#xcf;" horiz-adv-x="510" 
d="M154 1380h202v-1380h-202v1380zM-18 1769h178v-221h-178v221zM351 1769h180v-221h-180v221z" />
    <glyph glyph-name="Eth" unicode="&#xd0;" horiz-adv-x="1395" 
d="M1047 1293.5q134 -86.5 201.5 -237.5t67.5 -343q0 -219 -68 -379t-203.5 -247t-332.5 -87h-497v614h-192v172h192v594h505q193 0 327 -86.5zM1016 321q96 131 96 388q0 224 -99 352.5t-293 128.5h-303v-404h235v-172h-235v-424h303q200 0 296 131z" />
    <glyph glyph-name="Ntilde" unicode="&#xd1;" horiz-adv-x="1325" 
d="M1171 1380v-1380h-202l-613 1023v-1023h-202v1380h202l613 -1018v1018h202zM717.5 1555q-35.5 13 -86.5 37q-39 18 -59 26t-37 8q-30 0 -46.5 -20t-23.5 -60h-151q24 107 77 169.5t148 62.5q34 0 68 -12.5t83 -36.5q40 -19 60.5 -27t38.5 -8q58 0 72 84h151
q-16 -107 -71.5 -171.5t-149.5 -64.5q-38 0 -73.5 13z" />
    <glyph glyph-name="Ograve" unicode="&#xd2;" horiz-adv-x="1321" 
d="M346.5 62q-130.5 85 -199.5 246t-69 384q0 222 69 382t199.5 244.5t312.5 84.5t313.5 -84.5t201 -244.5t69.5 -382q0 -223 -69.5 -383.5t-201 -246t-313.5 -85.5t-312.5 85zM942.5 295.5q95.5 133.5 95.5 392.5q0 261 -96 396t-283 135q-185 0 -280.5 -133.5
t-95.5 -393.5q0 -261 96 -395.5t283 -134.5q185 0 280.5 133.5zM375 1769h221l201 -264h-195z" />
    <glyph glyph-name="Oacute" unicode="&#xd3;" horiz-adv-x="1321" 
d="M346.5 62q-130.5 85 -199.5 246t-69 384q0 222 69 382t199.5 244.5t312.5 84.5t313.5 -84.5t201 -244.5t69.5 -382q0 -223 -69.5 -383.5t-201 -246t-313.5 -85.5t-312.5 85zM942.5 295.5q95.5 133.5 95.5 392.5q0 261 -96 396t-283 135q-185 0 -280.5 -133.5
t-95.5 -393.5q0 -261 96 -395.5t283 -134.5q185 0 280.5 133.5zM753 1769h223l-230 -264h-192z" />
    <glyph glyph-name="Ocircumflex" unicode="&#xd4;" horiz-adv-x="1321" 
d="M346.5 62q-130.5 85 -199.5 246t-69 384q0 222 69 382t199.5 244.5t312.5 84.5t313.5 -84.5t201 -244.5t69.5 -382q0 -223 -69.5 -383.5t-201 -246t-313.5 -85.5t-312.5 85zM942.5 295.5q95.5 133.5 95.5 392.5q0 261 -96 396t-283 135q-185 0 -280.5 -133.5
t-95.5 -393.5q0 -261 96 -395.5t283 -134.5q185 0 280.5 133.5zM564 1769h197l219 -264h-189l-131 139l-127 -139h-188z" />
    <glyph glyph-name="Otilde" unicode="&#xd5;" horiz-adv-x="1321" 
d="M346.5 62q-130.5 85 -199.5 246t-69 384q0 222 69 382t199.5 244.5t312.5 84.5t313.5 -84.5t201 -244.5t69.5 -382q0 -223 -69.5 -383.5t-201 -246t-313.5 -85.5t-312.5 85zM942.5 295.5q95.5 133.5 95.5 392.5q0 261 -96 396t-283 135q-185 0 -280.5 -133.5
t-95.5 -393.5q0 -261 96 -395.5t283 -134.5q185 0 280.5 133.5zM715.5 1555q-35.5 13 -86.5 37q-39 18 -59 26t-37 8q-30 0 -46.5 -20t-23.5 -60h-151q24 107 77 169.5t148 62.5q34 0 68 -12.5t83 -36.5q40 -19 60.5 -27t38.5 -8q58 0 72 84h151q-16 -107 -71.5 -171.5
t-149.5 -64.5q-38 0 -73.5 13z" />
    <glyph glyph-name="Odieresis" unicode="&#xd6;" horiz-adv-x="1321" 
d="M346.5 62q-130.5 85 -199.5 246t-69 384q0 222 69 382t199.5 244.5t312.5 84.5t313.5 -84.5t201 -244.5t69.5 -382q0 -223 -69.5 -383.5t-201 -246t-313.5 -85.5t-312.5 85zM942.5 295.5q95.5 133.5 95.5 392.5q0 261 -96 396t-283 135q-185 0 -280.5 -133.5
t-95.5 -393.5q0 -261 96 -395.5t283 -134.5q185 0 280.5 133.5zM388 1769h178v-221h-178v221zM757 1769h180v-221h-180v221z" />
    <glyph glyph-name="multiply" unicode="&#xd7;" 
d="M668 547l342 -342l-121 -123l-344 344l-346 -346l-123 123l346 346l-344 344l121 123l345 -345l345 345l123 -125z" />
    <glyph glyph-name="Oslash" unicode="&#xd8;" horiz-adv-x="1321" 
d="M1190 1031.5q53 -146.5 53 -339.5q0 -223 -69.5 -383.5t-201 -246t-313.5 -85.5q-147 0 -264 57l-60 -116h-162l104 199q-97 92 -148 238t-51 337q0 222 69 382t199.5 244.5t312.5 84.5q147 0 258 -54l55 105h161l-96 -185q100 -91 153 -237.5zM374 304l456 878
q-74 37 -171 37q-185 0 -280.5 -133.5t-95.5 -393.5q0 -253 91 -388zM942.5 295.5q95.5 133.5 95.5 392.5q0 262 -97 397l-458 -882q76 -41 179 -41q185 0 280.5 133.5z" />
    <glyph glyph-name="Ugrave" unicode="&#xd9;" horiz-adv-x="1300" 
d="M384 34q-114 57 -179.5 179.5t-65.5 312.5v854h203v-848q0 -362 305 -362q311 0 311 362v848h203v-854q0 -187 -66.5 -310t-182 -181t-265.5 -58q-149 0 -263 57zM364 1769h221l201 -264h-195z" />
    <glyph glyph-name="Uacute" unicode="&#xda;" horiz-adv-x="1300" 
d="M384 34q-114 57 -179.5 179.5t-65.5 312.5v854h203v-848q0 -362 305 -362q311 0 311 362v848h203v-854q0 -187 -66.5 -310t-182 -181t-265.5 -58q-149 0 -263 57zM742 1769h223l-230 -264h-192z" />
    <glyph glyph-name="Ucircumflex" unicode="&#xdb;" horiz-adv-x="1300" 
d="M384 34q-114 57 -179.5 179.5t-65.5 312.5v854h203v-848q0 -362 305 -362q311 0 311 362v848h203v-854q0 -187 -66.5 -310t-182 -181t-265.5 -58q-149 0 -263 57zM553 1769h197l219 -264h-189l-131 139l-127 -139h-188z" />
    <glyph glyph-name="Udieresis" unicode="&#xdc;" horiz-adv-x="1300" 
d="M384 34q-114 57 -179.5 179.5t-65.5 312.5v854h203v-848q0 -362 305 -362q311 0 311 362v848h203v-854q0 -187 -66.5 -310t-182 -181t-265.5 -58q-149 0 -263 57zM377 1769h178v-221h-178v221zM746 1769h180v-221h-180v221z" />
    <glyph glyph-name="Yacute" unicode="&#xdd;" horiz-adv-x="1130" 
d="M1120 1380l-452 -825v-555h-203v555l-455 825h230l329 -635l326 635h225zM656 1769h223l-230 -264h-192z" />
    <glyph glyph-name="Thorn" unicode="&#xde;" horiz-adv-x="1237" 
d="M948 1075.5q98 -54.5 153.5 -150.5t55.5 -216q0 -119 -55.5 -214t-153.5 -148.5t-221 -53.5h-373v-293h-200v1380h200v-250h373q123 0 221 -54.5zM843.5 514q51.5 29 81 80.5t29.5 116.5t-29.5 116.5t-81 81t-116.5 29.5h-373v-453h373q65 0 116.5 29z" />
    <glyph glyph-name="germandbls" unicode="&#xdf;" horiz-adv-x="1069" 
d="M928.5 653.5q68.5 -96.5 68.5 -237.5q0 -127 -56.5 -223t-159.5 -148.5t-238 -52.5q-65 0 -99 8v164h88q134 0 204.5 70.5t70.5 193.5q0 118 -64.5 187t-187.5 69h-57v166h28q62 0 106 29t65.5 75.5t21.5 98.5q0 76 -45.5 126t-132.5 50q-61 0 -111 -26.5t-79 -80
t-29 -131.5v-991h-187v981q0 136 53 230t145 141t208 47q113 0 196.5 -44.5t127.5 -120.5t44 -169q0 -90 -42 -159.5t-118 -112.5q111 -43 179.5 -139.5z" />
    <glyph glyph-name="agrave" unicode="&#xe0;" horiz-adv-x="1032" 
d="M981 164v-154q-40 -18 -94 -18q-65 0 -109.5 30.5t-62.5 93.5q-50 -66 -125.5 -100t-163.5 -34q-89 0 -167 31t-127.5 100.5t-49.5 179.5q0 116 59.5 180t157.5 87.5t233 23.5h154v51q0 98 -46.5 152.5t-156.5 54.5q-161 0 -182 -127h-197q20 143 121.5 219t266.5 76
q196 0 288 -105t92 -282v-369q0 -53 18.5 -71.5t65.5 -18.5h25zM589.5 184q52.5 37 74.5 94t22 121v35h-156q-100 0 -157 -15t-80 -44.5t-23 -75.5q0 -72 48 -112t135 -40q84 0 136.5 37zM211 1380h221l201 -264h-195z" />
    <glyph glyph-name="aacute" unicode="&#xe1;" horiz-adv-x="1032" 
d="M981 164v-154q-40 -18 -94 -18q-65 0 -109.5 30.5t-62.5 93.5q-50 -66 -125.5 -100t-163.5 -34q-89 0 -167 31t-127.5 100.5t-49.5 179.5q0 116 59.5 180t157.5 87.5t233 23.5h154v51q0 98 -46.5 152.5t-156.5 54.5q-161 0 -182 -127h-197q20 143 121.5 219t266.5 76
q196 0 288 -105t92 -282v-369q0 -53 18.5 -71.5t65.5 -18.5h25zM589.5 184q52.5 37 74.5 94t22 121v35h-156q-100 0 -157 -15t-80 -44.5t-23 -75.5q0 -72 48 -112t135 -40q84 0 136.5 37zM589 1380h223l-230 -264h-192z" />
    <glyph glyph-name="acircumflex" unicode="&#xe2;" horiz-adv-x="1032" 
d="M981 164v-154q-40 -18 -94 -18q-65 0 -109.5 30.5t-62.5 93.5q-50 -66 -125.5 -100t-163.5 -34q-89 0 -167 31t-127.5 100.5t-49.5 179.5q0 116 59.5 180t157.5 87.5t233 23.5h154v51q0 98 -46.5 152.5t-156.5 54.5q-161 0 -182 -127h-197q20 143 121.5 219t266.5 76
q196 0 288 -105t92 -282v-369q0 -53 18.5 -71.5t65.5 -18.5h25zM589.5 184q52.5 37 74.5 94t22 121v35h-156q-100 0 -157 -15t-80 -44.5t-23 -75.5q0 -72 48 -112t135 -40q84 0 136.5 37zM400 1380h197l219 -264h-189l-131 139l-127 -139h-188z" />
    <glyph glyph-name="atilde" unicode="&#xe3;" horiz-adv-x="1032" 
d="M981 164v-154q-40 -18 -94 -18q-65 0 -109.5 30.5t-62.5 93.5q-50 -66 -125.5 -100t-163.5 -34q-89 0 -167 31t-127.5 100.5t-49.5 179.5q0 116 59.5 180t157.5 87.5t233 23.5h154v51q0 98 -46.5 152.5t-156.5 54.5q-161 0 -182 -127h-197q20 143 121.5 219t266.5 76
q196 0 288 -105t92 -282v-369q0 -53 18.5 -71.5t65.5 -18.5h25zM589.5 184q52.5 37 74.5 94t22 121v35h-156q-100 0 -157 -15t-80 -44.5t-23 -75.5q0 -72 48 -112t135 -40q84 0 136.5 37zM551.5 1166q-35.5 13 -86.5 37q-39 18 -59 26t-37 8q-30 0 -46.5 -20t-23.5 -60h-151
q24 107 77 169.5t148 62.5q34 0 68 -12.5t83 -36.5q40 -19 60.5 -27t38.5 -8q58 0 72 84h151q-16 -107 -71.5 -171.5t-149.5 -64.5q-38 0 -73.5 13z" />
    <glyph glyph-name="adieresis" unicode="&#xe4;" horiz-adv-x="1032" 
d="M981 164v-154q-40 -18 -94 -18q-65 0 -109.5 30.5t-62.5 93.5q-50 -66 -125.5 -100t-163.5 -34q-89 0 -167 31t-127.5 100.5t-49.5 179.5q0 116 59.5 180t157.5 87.5t233 23.5h154v51q0 98 -46.5 152.5t-156.5 54.5q-161 0 -182 -127h-197q20 143 121.5 219t266.5 76
q196 0 288 -105t92 -282v-369q0 -53 18.5 -71.5t65.5 -18.5h25zM589.5 184q52.5 37 74.5 94t22 121v35h-156q-100 0 -157 -15t-80 -44.5t-23 -75.5q0 -72 48 -112t135 -40q84 0 136.5 37zM224 1380h178v-221h-178v221zM593 1380h180v-221h-180v221z" />
    <glyph glyph-name="aring" unicode="&#xe5;" horiz-adv-x="1032" 
d="M981 164v-154q-40 -18 -94 -18q-65 0 -109.5 30.5t-62.5 93.5q-50 -66 -125.5 -100t-163.5 -34q-89 0 -167 31t-127.5 100.5t-49.5 179.5q0 116 59.5 180t157.5 87.5t233 23.5h154v51q0 98 -46.5 152.5t-156.5 54.5q-161 0 -182 -127h-197q20 143 121.5 219t266.5 76
q196 0 288 -105t92 -282v-369q0 -53 18.5 -71.5t65.5 -18.5h25zM589.5 184q52.5 37 74.5 94t22 121v35h-156q-100 0 -157 -15t-80 -44.5t-23 -75.5q0 -72 48 -112t135 -40q84 0 136.5 37zM392 1124.5q-48 26.5 -75.5 73.5t-27.5 105t27.5 104.5t75.5 73t106 26.5t106 -26.5
t75.5 -73t27.5 -104.5t-27.5 -105t-75.5 -73.5t-106 -26.5t-106 26.5zM570 1230q28 28 28 73q0 44 -28 72t-72 28q-45 0 -73 -28t-28 -72q0 -45 28 -73t73 -28q44 0 72 28z" />
    <glyph glyph-name="ae" unicode="&#xe6;" horiz-adv-x="1622" 
d="M1548 454q-2 -20 -2 -22h-671q13 -142 79.5 -209t159.5 -67q84 0 139 35t82 110h193q-43 -151 -147 -235t-267 -84q-111 0 -198.5 45.5t-143.5 131.5q-61 -87 -150.5 -132t-195.5 -45q-89 0 -167 31t-127.5 100.5t-49.5 179.5q0 116 59.5 180t157.5 87.5t233 23.5h154v51
q0 98 -46.5 152.5t-156.5 54.5q-161 0 -182 -127h-197q20 143 121.5 219t266.5 76q222 0 317 -142q59 69 141 105.5t178 36.5q134 0 229 -65.5t144 -178.5t49 -256q0 -36 -2 -56zM953.5 772q-60.5 -66 -76.5 -186h477q-6 114 -63.5 183t-170.5 69q-106 0 -166.5 -66z
M589.5 184q52.5 37 74.5 94t22 121v35h-156q-100 0 -157 -15t-80 -44.5t-23 -75.5q0 -72 48 -112t135 -40q84 0 136.5 37z" />
    <glyph glyph-name="ccedilla" unicode="&#xe7;" horiz-adv-x="979" 
d="M275 43.5q-98 61.5 -150.5 176t-52.5 269.5q0 162 56 279.5t156 179.5t230 62q108 0 194 -43t139.5 -119.5t70.5 -175.5h-193q-20 78 -71 121t-136 43q-121 0 -188.5 -86t-67.5 -256q0 -169 67 -253.5t189 -84.5q89 0 142.5 43.5t68.5 122.5h193q-18 -105 -74.5 -181.5
t-143.5 -117.5t-196 -41q-135 0 -233 61.5zM399 -465.5q-22 3.5 -33 8.5v125q19 -3 36 -3q50 0 78.5 22t28.5 63q0 44 -31 67.5t-88 26.5v82h33q73 0 126.5 -25t82.5 -70t29 -103t-27.5 -102.5t-76.5 -69.5t-111 -25q-25 0 -47 3.5z" />
    <glyph glyph-name="egrave" unicode="&#xe8;" horiz-adv-x="1014" 
d="M940 454q-2 -20 -2 -22h-671q13 -142 79.5 -209t159.5 -67q83 0 138.5 35t82.5 110h193q-43 -151 -147 -235t-267 -84q-130 0 -228 60.5t-152 175.5t-54 274q0 161 58 278.5t160 178.5t230 61q134 0 229 -65.5t144 -178.5t49 -256q0 -36 -2 -56zM347.5 774
q-60.5 -64 -77.5 -180h475q-8 111 -65 177.5t-168 66.5q-104 0 -164.5 -64zM221 1380h221l201 -264h-195z" />
    <glyph glyph-name="eacute" unicode="&#xe9;" horiz-adv-x="1014" 
d="M940 454q-2 -20 -2 -22h-671q13 -142 79.5 -209t159.5 -67q83 0 138.5 35t82.5 110h193q-43 -151 -147 -235t-267 -84q-130 0 -228 60.5t-152 175.5t-54 274q0 161 58 278.5t160 178.5t230 61q134 0 229 -65.5t144 -178.5t49 -256q0 -36 -2 -56zM347.5 774
q-60.5 -64 -77.5 -180h475q-8 111 -65 177.5t-168 66.5q-104 0 -164.5 -64zM599 1380h223l-230 -264h-192z" />
    <glyph glyph-name="ecircumflex" unicode="&#xea;" horiz-adv-x="1014" 
d="M940 454q-2 -20 -2 -22h-671q13 -142 79.5 -209t159.5 -67q83 0 138.5 35t82.5 110h193q-43 -151 -147 -235t-267 -84q-130 0 -228 60.5t-152 175.5t-54 274q0 161 58 278.5t160 178.5t230 61q134 0 229 -65.5t144 -178.5t49 -256q0 -36 -2 -56zM347.5 774
q-60.5 -64 -77.5 -180h475q-8 111 -65 177.5t-168 66.5q-104 0 -164.5 -64zM410 1380h197l219 -264h-189l-131 139l-127 -139h-188z" />
    <glyph glyph-name="edieresis" unicode="&#xeb;" horiz-adv-x="1014" 
d="M940 454q-2 -20 -2 -22h-671q13 -142 79.5 -209t159.5 -67q83 0 138.5 35t82.5 110h193q-43 -151 -147 -235t-267 -84q-130 0 -228 60.5t-152 175.5t-54 274q0 161 58 278.5t160 178.5t230 61q134 0 229 -65.5t144 -178.5t49 -256q0 -36 -2 -56zM347.5 774
q-60.5 -64 -77.5 -180h475q-8 111 -65 177.5t-168 66.5q-104 0 -164.5 -64zM234 1380h178v-221h-178v221zM603 1380h180v-221h-180v221z" />
    <glyph glyph-name="igrave" unicode="&#xec;" horiz-adv-x="463" 
d="M137 991h189v-991h-189v991zM-54 1380h221l201 -264h-195z" />
    <glyph glyph-name="iacute" unicode="&#xed;" horiz-adv-x="463" 
d="M137 991h189v-991h-189v991zM324 1380h223l-230 -264h-192z" />
    <glyph glyph-name="icircumflex" unicode="&#xee;" horiz-adv-x="463" 
d="M137 991h189v-991h-189v991zM135 1380h197l219 -264h-189l-131 139l-127 -139h-188z" />
    <glyph glyph-name="idieresis" unicode="&#xef;" horiz-adv-x="463" 
d="M137 991h189v-991h-189v991zM-41 1380h178v-221h-178v221zM328 1380h180v-221h-180v221z" />
    <glyph glyph-name="eth" unicode="&#xf0;" horiz-adv-x="1010" 
d="M878 893.5q60 -181.5 60 -367.5q0 -174 -52 -296t-149 -185t-229 -63q-134 0 -232.5 63t-151 179.5t-52.5 271.5t51.5 269.5t142.5 175t207 60.5q134 0 220 -77q-51 126 -145 244l-222 -72l-37 110l175 57q-66 66 -134 117l196 21q47 -35 98 -86l193 63l37 -110l-147 -48
q111 -145 171 -326.5zM685.5 243q62.5 87 62.5 249q0 160 -63 247.5t-181 87.5q-113 0 -177.5 -84t-64.5 -251q0 -162 63 -249t181 -87q117 0 179.5 87z" />
    <glyph glyph-name="ntilde" unicode="&#xf1;" horiz-adv-x="1049" 
d="M767 964q77 -46 118 -132.5t41 -206.5v-625h-189v610q0 113 -48 171.5t-142 58.5q-110 0 -166.5 -65.5t-56.5 -194.5v-580h-189v991h182l3 -85q46 53 114 78.5t148 25.5q108 0 185 -46zM577.5 1166q-35.5 13 -86.5 37q-39 18 -59 26t-37 8q-30 0 -46.5 -20t-23.5 -60
h-151q24 107 77 169.5t148 62.5q34 0 68 -12.5t83 -36.5q40 -19 60.5 -27t38.5 -8q58 0 72 84h151q-16 -107 -71.5 -171.5t-149.5 -64.5q-38 0 -73.5 13z" />
    <glyph glyph-name="ograve" unicode="&#xf2;" horiz-adv-x="1026" 
d="M276 44q-99 62 -151.5 179.5t-52.5 280.5q0 155 56.5 269.5t157 175.5t230.5 61q133 0 232.5 -65t152.5 -180t53 -261q0 -162 -54.5 -279.5t-154 -180t-233.5 -62.5q-137 0 -236 62zM701.5 241q62.5 85 62.5 261q0 158 -64.5 246t-185.5 88q-118 0 -185 -84.5t-67 -249.5
q0 -177 63 -261.5t189 -84.5q125 0 187.5 85zM227 1380h221l201 -264h-195z" />
    <glyph glyph-name="oacute" unicode="&#xf3;" horiz-adv-x="1026" 
d="M276 44q-99 62 -151.5 179.5t-52.5 280.5q0 155 56.5 269.5t157 175.5t230.5 61q133 0 232.5 -65t152.5 -180t53 -261q0 -162 -54.5 -279.5t-154 -180t-233.5 -62.5q-137 0 -236 62zM701.5 241q62.5 85 62.5 261q0 158 -64.5 246t-185.5 88q-118 0 -185 -84.5t-67 -249.5
q0 -177 63 -261.5t189 -84.5q125 0 187.5 85zM605 1380h223l-230 -264h-192z" />
    <glyph glyph-name="ocircumflex" unicode="&#xf4;" horiz-adv-x="1026" 
d="M276 44q-99 62 -151.5 179.5t-52.5 280.5q0 155 56.5 269.5t157 175.5t230.5 61q133 0 232.5 -65t152.5 -180t53 -261q0 -162 -54.5 -279.5t-154 -180t-233.5 -62.5q-137 0 -236 62zM701.5 241q62.5 85 62.5 261q0 158 -64.5 246t-185.5 88q-118 0 -185 -84.5t-67 -249.5
q0 -177 63 -261.5t189 -84.5q125 0 187.5 85zM416 1380h197l219 -264h-189l-131 139l-127 -139h-188z" />
    <glyph glyph-name="otilde" unicode="&#xf5;" horiz-adv-x="1026" 
d="M276 44q-99 62 -151.5 179.5t-52.5 280.5q0 155 56.5 269.5t157 175.5t230.5 61q133 0 232.5 -65t152.5 -180t53 -261q0 -162 -54.5 -279.5t-154 -180t-233.5 -62.5q-137 0 -236 62zM701.5 241q62.5 85 62.5 261q0 158 -64.5 246t-185.5 88q-118 0 -185 -84.5t-67 -249.5
q0 -177 63 -261.5t189 -84.5q125 0 187.5 85zM567.5 1166q-35.5 13 -86.5 37q-39 18 -59 26t-37 8q-30 0 -46.5 -20t-23.5 -60h-151q24 107 77 169.5t148 62.5q34 0 68 -12.5t83 -36.5q40 -19 60.5 -27t38.5 -8q58 0 72 84h151q-16 -107 -71.5 -171.5t-149.5 -64.5
q-38 0 -73.5 13z" />
    <glyph glyph-name="odieresis" unicode="&#xf6;" horiz-adv-x="1026" 
d="M276 44q-99 62 -151.5 179.5t-52.5 280.5q0 155 56.5 269.5t157 175.5t230.5 61q133 0 232.5 -65t152.5 -180t53 -261q0 -162 -54.5 -279.5t-154 -180t-233.5 -62.5q-137 0 -236 62zM701.5 241q62.5 85 62.5 261q0 158 -64.5 246t-185.5 88q-118 0 -185 -84.5t-67 -249.5
q0 -177 63 -261.5t189 -84.5q125 0 187.5 85zM240 1380h178v-221h-178v221zM609 1380h180v-221h-180v221z" />
    <glyph glyph-name="divide" unicode="&#xf7;" 
d="M70 645h948v-176h-948v176zM436 1048h202v-272h-202v272zM436 329h202v-272h-202v272z" />
    <glyph glyph-name="oslash" unicode="&#xf8;" horiz-adv-x="1026" 
d="M914 733.5q40 -103.5 40 -229.5q0 -162 -54.5 -279.5t-154 -180t-233.5 -62.5q-109 0 -193 39l-45 -82h-149l85 157q-67 68 -102.5 171.5t-35.5 236.5q0 155 56.5 269.5t157 175.5t230.5 61q92 0 172 -33l43 78h150l-81 -150q74 -68 114 -171.5zM306 272l298 549
q-40 15 -90 15q-118 0 -185 -84.5t-67 -249.5q0 -147 44 -230zM701.5 241q62.5 85 62.5 261q0 148 -56 234l-305 -559q48 -21 111 -21q125 0 187.5 85z" />
    <glyph glyph-name="ugrave" unicode="&#xf9;" horiz-adv-x="1049" 
d="M914 991v-991h-182l-3 85q-46 -53 -114 -78.5t-148 -25.5q-108 0 -185 46t-118 132.5t-41 206.5v625h189v-610q0 -113 48 -171.5t142 -58.5q110 0 166.5 65.5t56.5 194.5v580h189zM237 1380h221l201 -264h-195z" />
    <glyph glyph-name="uacute" unicode="&#xfa;" horiz-adv-x="1049" 
d="M914 991v-991h-182l-3 85q-46 -53 -114 -78.5t-148 -25.5q-108 0 -185 46t-118 132.5t-41 206.5v625h189v-610q0 -113 48 -171.5t142 -58.5q110 0 166.5 65.5t56.5 194.5v580h189zM615 1380h223l-230 -264h-192z" />
    <glyph glyph-name="ucircumflex" unicode="&#xfb;" horiz-adv-x="1049" 
d="M914 991v-991h-182l-3 85q-46 -53 -114 -78.5t-148 -25.5q-108 0 -185 46t-118 132.5t-41 206.5v625h189v-610q0 -113 48 -171.5t142 -58.5q110 0 166.5 65.5t56.5 194.5v580h189zM426 1380h197l219 -264h-189l-131 139l-127 -139h-188z" />
    <glyph glyph-name="udieresis" unicode="&#xfc;" horiz-adv-x="1049" 
d="M914 991v-991h-182l-3 85q-46 -53 -114 -78.5t-148 -25.5q-108 0 -185 46t-118 132.5t-41 206.5v625h189v-610q0 -113 48 -171.5t142 -58.5q110 0 166.5 65.5t56.5 194.5v580h189zM250 1380h178v-221h-178v221zM619 1380h180v-221h-180v221z" />
    <glyph glyph-name="yacute" unicode="&#xfd;" horiz-adv-x="913" 
d="M903 991l-418 -1190q-30 -88 -89.5 -131t-164.5 -43q-35 0 -71 6v168h71q39 0 58 19t35 63l39 106l-353 1002h207l245 -755l236 755h205zM550 1380h223l-230 -264h-192z" />
    <glyph glyph-name="thorn" unicode="&#xfe;" horiz-adv-x="1053" 
d="M795.5 946.5q90.5 -63.5 138 -178.5t47.5 -268q0 -156 -48.5 -273t-140 -181t-217.5 -64q-79 0 -142.5 26t-108.5 78v-455h-189v1749h189v-469q45 49 110 74t144 25q127 0 217.5 -63.5zM732 241q59 89 59 261q0 338 -234 338q-118 0 -179 -86.5t-61 -255.5
q0 -170 61 -258t177 -88q118 0 177 89z" />
    <glyph glyph-name="ydieresis" unicode="&#xff;" horiz-adv-x="913" 
d="M903 991l-418 -1190q-30 -88 -89.5 -131t-164.5 -43q-35 0 -71 6v168h71q39 0 58 19t35 63l39 106l-353 1002h207l245 -755l236 755h205zM185 1380h178v-221h-178v221zM554 1380h180v-221h-180v221z" />
    <glyph glyph-name="Amacron" unicode="&#x100;" horiz-adv-x="1225" 
d="M896 344h-570l-127 -344h-207l524 1380h195l522 -1380h-207zM824 532l-218 575l-211 -575h429zM317 1708h590v-148h-590v148z" />
    <glyph glyph-name="amacron" unicode="&#x101;" horiz-adv-x="1032" 
d="M981 164v-154q-40 -18 -94 -18q-65 0 -109.5 30.5t-62.5 93.5q-50 -66 -125.5 -100t-163.5 -34q-89 0 -167 31t-127.5 100.5t-49.5 179.5q0 116 59.5 180t157.5 87.5t233 23.5h154v51q0 98 -46.5 152.5t-156.5 54.5q-161 0 -182 -127h-197q20 143 121.5 219t266.5 76
q196 0 288 -105t92 -282v-369q0 -53 18.5 -71.5t65.5 -18.5h25zM589.5 184q52.5 37 74.5 94t22 121v35h-156q-100 0 -157 -15t-80 -44.5t-23 -75.5q0 -72 48 -112t135 -40q84 0 136.5 37zM203 1319h590v-148h-590v148z" />
    <glyph glyph-name="Abreve" unicode="&#x102;" horiz-adv-x="1225" 
d="M896 344h-570l-127 -344h-207l524 1380h195l522 -1380h-207zM824 532l-218 575l-211 -575h429zM484 1530q-59 33 -93.5 92t-34.5 133h143q0 -53 32 -87t81 -34q51 0 82 34t31 87h143q0 -74 -34.5 -133t-93.5 -92t-128 -33t-128 33z" />
    <glyph glyph-name="abreve" unicode="&#x103;" horiz-adv-x="1032" 
d="M981 164v-154q-40 -18 -94 -18q-65 0 -109.5 30.5t-62.5 93.5q-50 -66 -125.5 -100t-163.5 -34q-89 0 -167 31t-127.5 100.5t-49.5 179.5q0 116 59.5 180t157.5 87.5t233 23.5h154v51q0 98 -46.5 152.5t-156.5 54.5q-161 0 -182 -127h-197q20 143 121.5 219t266.5 76
q196 0 288 -105t92 -282v-369q0 -53 18.5 -71.5t65.5 -18.5h25zM589.5 184q52.5 37 74.5 94t22 121v35h-156q-100 0 -157 -15t-80 -44.5t-23 -75.5q0 -72 48 -112t135 -40q84 0 136.5 37zM370 1141q-59 33 -93.5 92t-34.5 133h143q0 -53 32 -87t81 -34q51 0 82 34t31 87h143
q0 -74 -34.5 -133t-93.5 -92t-128 -33t-128 33z" />
    <glyph glyph-name="Aogonek" unicode="&#x104;" horiz-adv-x="1225" 
d="M1114 -223.5q33 -32.5 88 -32.5h23v-106q-32 -13 -78 -13q-63 0 -112.5 24t-77 69t-27.5 104q0 56 25.5 103t70.5 76l-130 343h-570l-127 -344h-207l524 1380h195l522 -1380h-29q-58 -3 -90.5 -39t-32.5 -96q0 -56 33 -88.5zM824 532l-218 575l-211 -575h429z" />
    <glyph glyph-name="aogonek" unicode="&#x105;" horiz-adv-x="1032" 
d="M851 -53q-22 -33 -22 -82q0 -56 33 -88.5t88 -32.5h23v-106q-32 -13 -78 -13q-63 0 -112.5 24t-77 69t-27.5 104q0 62 31.5 113.5t84.5 77.5q-59 30 -79 103q-50 -66 -125.5 -100t-163.5 -34q-89 0 -167 31t-127.5 100.5t-49.5 179.5q0 116 59.5 180t157.5 87.5t233 23.5
h154v51q0 98 -46.5 152.5t-156.5 54.5q-161 0 -182 -127h-197q20 143 121.5 219t266.5 76q196 0 288 -105t92 -282v-369q0 -53 18.5 -71.5t65.5 -18.5h25v-154q-9 -4 -29 -10q-10 -3 -39 -7q-40 -13 -62 -46zM589.5 184q52.5 37 74.5 94t22 121v35h-156q-100 0 -157 -15
t-80 -44.5t-23 -75.5q0 -72 48 -112t135 -40q84 0 136.5 37z" />
    <glyph glyph-name="Cacute" unicode="&#x106;" horiz-adv-x="1272" 
d="M343.5 64.5q-130.5 87.5 -198 248.5t-67.5 379q0 217 68.5 377t200 247t315.5 87q150 0 266 -56.5t185.5 -156t88.5 -225.5h-209q-23 116 -109.5 185t-221.5 69q-189 0 -284 -135.5t-95 -391.5q0 -168 44.5 -287t129.5 -181t205 -62q137 0 221.5 68.5t117.5 195.5h207
q-20 -131 -91.5 -232.5t-189 -159t-268.5 -57.5q-185 0 -315.5 87.5zM728 1769h223l-230 -264h-192z" />
    <glyph glyph-name="cacute" unicode="&#x107;" horiz-adv-x="979" 
d="M275 43.5q-98 61.5 -150.5 176t-52.5 269.5q0 162 56 279.5t156 179.5t230 62q108 0 194 -43t139.5 -119.5t70.5 -175.5h-193q-20 78 -71 121t-136 43q-121 0 -188.5 -86t-67.5 -256q0 -169 67 -253.5t189 -84.5q89 0 142.5 43.5t68.5 122.5h193q-18 -105 -74.5 -181.5
t-143.5 -117.5t-196 -41q-135 0 -233 61.5zM580 1380h223l-230 -264h-192z" />
    <glyph glyph-name="Ccircumflex" unicode="&#x108;" horiz-adv-x="1272" 
d="M343.5 64.5q-130.5 87.5 -198 248.5t-67.5 379q0 217 68.5 377t200 247t315.5 87q150 0 266 -56.5t185.5 -156t88.5 -225.5h-209q-23 116 -109.5 185t-221.5 69q-189 0 -284 -135.5t-95 -391.5q0 -168 44.5 -287t129.5 -181t205 -62q137 0 221.5 68.5t117.5 195.5h207
q-20 -131 -91.5 -232.5t-189 -159t-268.5 -57.5q-185 0 -315.5 87.5zM539 1769h197l219 -264h-189l-131 139l-127 -139h-188z" />
    <glyph glyph-name="ccircumflex" unicode="&#x109;" horiz-adv-x="979" 
d="M275 43.5q-98 61.5 -150.5 176t-52.5 269.5q0 162 56 279.5t156 179.5t230 62q108 0 194 -43t139.5 -119.5t70.5 -175.5h-193q-20 78 -71 121t-136 43q-121 0 -188.5 -86t-67.5 -256q0 -169 67 -253.5t189 -84.5q89 0 142.5 43.5t68.5 122.5h193q-18 -105 -74.5 -181.5
t-143.5 -117.5t-196 -41q-135 0 -233 61.5zM391 1380h197l219 -264h-189l-131 139l-127 -139h-188z" />
    <glyph glyph-name="Cdotaccent" unicode="&#x10a;" horiz-adv-x="1272" 
d="M343.5 64.5q-130.5 87.5 -198 248.5t-67.5 379q0 217 68.5 377t200 247t315.5 87q150 0 266 -56.5t185.5 -156t88.5 -225.5h-209q-23 116 -109.5 185t-221.5 69q-189 0 -284 -135.5t-95 -391.5q0 -168 44.5 -287t129.5 -181t205 -62q137 0 221.5 68.5t117.5 195.5h207
q-20 -131 -91.5 -232.5t-189 -159t-268.5 -57.5q-185 0 -315.5 87.5zM541 1769h190v-235h-190v235z" />
    <glyph glyph-name="cdotaccent" unicode="&#x10b;" horiz-adv-x="979" 
d="M275 43.5q-98 61.5 -150.5 176t-52.5 269.5q0 162 56 279.5t156 179.5t230 62q108 0 194 -43t139.5 -119.5t70.5 -175.5h-193q-20 78 -71 121t-136 43q-121 0 -188.5 -86t-67.5 -256q0 -169 67 -253.5t189 -84.5q89 0 142.5 43.5t68.5 122.5h193q-18 -105 -74.5 -181.5
t-143.5 -117.5t-196 -41q-135 0 -233 61.5zM393 1380h190v-235h-190v235z" />
    <glyph glyph-name="Ccaron" unicode="&#x10c;" horiz-adv-x="1272" 
d="M343.5 64.5q-130.5 87.5 -198 248.5t-67.5 379q0 217 68.5 377t200 247t315.5 87q150 0 266 -56.5t185.5 -156t88.5 -225.5h-209q-23 116 -109.5 185t-221.5 69q-189 0 -284 -135.5t-95 -391.5q0 -168 44.5 -287t129.5 -181t205 -62q137 0 221.5 68.5t117.5 195.5h207
q-20 -131 -91.5 -232.5t-189 -159t-268.5 -57.5q-185 0 -315.5 87.5zM320 1769h188l127 -139l131 139h189l-219 -264h-197z" />
    <glyph glyph-name="ccaron" unicode="&#x10d;" horiz-adv-x="979" 
d="M275 43.5q-98 61.5 -150.5 176t-52.5 269.5q0 162 56 279.5t156 179.5t230 62q108 0 194 -43t139.5 -119.5t70.5 -175.5h-193q-20 78 -71 121t-136 43q-121 0 -188.5 -86t-67.5 -256q0 -169 67 -253.5t189 -84.5q89 0 142.5 43.5t68.5 122.5h193q-18 -105 -74.5 -181.5
t-143.5 -117.5t-196 -41q-135 0 -233 61.5zM172 1380h188l127 -139l131 139h189l-219 -264h-197z" />
    <glyph glyph-name="Dcaron" unicode="&#x10e;" horiz-adv-x="1333" 
d="M986 1293.5q134 -86.5 201.5 -237.5t67.5 -343q0 -219 -68 -379t-203.5 -247t-332.5 -87h-497v1380h505q193 0 327 -86.5zM955 321q96 131 96 388q0 224 -99 352.5t-293 128.5h-303v-1000h303q200 0 296 131zM351 1769h188l127 -139l131 139h189l-219 -264h-197z" />
    <glyph glyph-name="dcaron" unicode="&#x10f;" horiz-adv-x="1057" 
d="M922 1380v-1380h-183l-3 84q-44 -50 -110 -76t-147 -26q-124 0 -216 60.5t-141.5 173t-49.5 265.5q0 163 50 282t144 183t223 64q74 0 136.5 -25.5t107.5 -76.5v472h189zM679 242.5q62 90.5 62 263.5q0 334 -237 334q-119 0 -180.5 -86.5t-61.5 -253.5q0 -169 60 -258.5
t178 -89.5q117 0 179 90.5zM1031 1380h180l-35 -311h-145v311z" />
    <glyph glyph-name="Dcroat" unicode="&#x110;" horiz-adv-x="1395" 
d="M1047 1293.5q134 -86.5 201.5 -237.5t67.5 -343q0 -219 -68 -379t-203.5 -247t-332.5 -87h-497v614h-192v172h192v594h505q193 0 327 -86.5zM1016 321q96 131 96 388q0 224 -99 352.5t-293 128.5h-303v-404h235v-172h-235v-424h303q200 0 296 131z" />
    <glyph glyph-name="dcroat" unicode="&#x111;" horiz-adv-x="1057" 
d="M1056 1092h-134v-1092h-183l-3 84q-44 -50 -110 -76t-147 -26q-124 0 -216 60.5t-141.5 173t-49.5 265.5q0 163 50 282t144 183t223 64q74 0 136.5 -25.5t107.5 -76.5v184h-291v147h291v141h189v-141h134v-147zM679 242.5q62 90.5 62 263.5q0 334 -237 334
q-119 0 -180.5 -86.5t-61.5 -253.5q0 -169 60 -258.5t178 -89.5q117 0 179 90.5z" />
    <glyph glyph-name="Emacron" unicode="&#x112;" horiz-adv-x="1157" 
d="M1096 190v-190h-942v1380h936v-190h-734v-391h609v-191h-609v-418h740zM317 1708h590v-148h-590v148z" />
    <glyph glyph-name="emacron" unicode="&#x113;" horiz-adv-x="1014" 
d="M940 454q-2 -20 -2 -22h-671q13 -142 79.5 -209t159.5 -67q83 0 138.5 35t82.5 110h193q-43 -151 -147 -235t-267 -84q-130 0 -228 60.5t-152 175.5t-54 274q0 161 58 278.5t160 178.5t230 61q134 0 229 -65.5t144 -178.5t49 -256q0 -36 -2 -56zM347.5 774
q-60.5 -64 -77.5 -180h475q-8 111 -65 177.5t-168 66.5q-104 0 -164.5 -64zM213 1319h590v-148h-590v148z" />
    <glyph glyph-name="Ebreve" unicode="&#x114;" horiz-adv-x="1157" 
d="M1096 190v-190h-942v1380h936v-190h-734v-391h609v-191h-609v-418h740zM484 1530q-59 33 -93.5 92t-34.5 133h143q0 -53 32 -87t81 -34q51 0 82 34t31 87h143q0 -74 -34.5 -133t-93.5 -92t-128 -33t-128 33z" />
    <glyph glyph-name="ebreve" unicode="&#x115;" horiz-adv-x="1014" 
d="M940 454q-2 -20 -2 -22h-671q13 -142 79.5 -209t159.5 -67q83 0 138.5 35t82.5 110h193q-43 -151 -147 -235t-267 -84q-130 0 -228 60.5t-152 175.5t-54 274q0 161 58 278.5t160 178.5t230 61q134 0 229 -65.5t144 -178.5t49 -256q0 -36 -2 -56zM347.5 774
q-60.5 -64 -77.5 -180h475q-8 111 -65 177.5t-168 66.5q-104 0 -164.5 -64zM380 1141q-59 33 -93.5 92t-34.5 133h143q0 -53 32 -87t81 -34q51 0 82 34t31 87h143q0 -74 -34.5 -133t-93.5 -92t-128 -33t-128 33z" />
    <glyph glyph-name="Edotaccent" unicode="&#x116;" horiz-adv-x="1157" 
d="M1096 190v-190h-942v1380h936v-190h-734v-391h609v-191h-609v-418h740zM516 1769h190v-235h-190v235z" />
    <glyph glyph-name="edotaccent" unicode="&#x117;" horiz-adv-x="1014" 
d="M940 454q-2 -20 -2 -22h-671q13 -142 79.5 -209t159.5 -67q83 0 138.5 35t82.5 110h193q-43 -151 -147 -235t-267 -84q-130 0 -228 60.5t-152 175.5t-54 274q0 161 58 278.5t160 178.5t230 61q134 0 229 -65.5t144 -178.5t49 -256q0 -36 -2 -56zM347.5 774
q-60.5 -64 -77.5 -180h475q-8 111 -65 177.5t-168 66.5q-104 0 -164.5 -64zM412 1380h190v-235h-190v235z" />
    <glyph glyph-name="Eogonek" unicode="&#x118;" horiz-adv-x="1157" 
d="M1117 -256v-106q-32 -13 -78 -13q-63 0 -112.5 24t-77 69t-27.5 104q0 55 25 102t69 76h-762v1380h936v-190h-734v-391h609v-191h-609v-418h740v-190q-58 -3 -90.5 -39t-32.5 -96q0 -56 33 -88.5t88 -32.5h23z" />
    <glyph glyph-name="eogonek" unicode="&#x119;" horiz-adv-x="1014" 
d="M940 454q-2 -20 -2 -22h-671q13 -142 79.5 -209t159.5 -67q83 0 138.5 35t82.5 110h193q-33 -116 -102.5 -193.5t-174.5 -107.5h-1q-16 -5 -50 -11q-35 -15 -53.5 -47t-18.5 -77q0 -56 33 -88.5t88 -32.5h23v-106q-32 -13 -78 -13q-63 0 -112.5 24t-77 69t-27.5 104
q0 49 19.5 91.5t55.5 72.5q-113 14 -197 77.5t-129.5 173t-45.5 255.5q0 161 58 278.5t160 178.5t230 61q134 0 229 -65.5t144 -178.5t49 -256q0 -36 -2 -56zM347.5 774q-60.5 -64 -77.5 -180h475q-8 111 -65 177.5t-168 66.5q-104 0 -164.5 -64z" />
    <glyph glyph-name="Ecaron" unicode="&#x11a;" horiz-adv-x="1157" 
d="M1096 190v-190h-942v1380h936v-190h-734v-391h609v-191h-609v-418h740zM295 1769h188l127 -139l131 139h189l-219 -264h-197z" />
    <glyph glyph-name="ecaron" unicode="&#x11b;" horiz-adv-x="1014" 
d="M940 454q-2 -20 -2 -22h-671q13 -142 79.5 -209t159.5 -67q83 0 138.5 35t82.5 110h193q-43 -151 -147 -235t-267 -84q-130 0 -228 60.5t-152 175.5t-54 274q0 161 58 278.5t160 178.5t230 61q134 0 229 -65.5t144 -178.5t49 -256q0 -36 -2 -56zM347.5 774
q-60.5 -64 -77.5 -180h475q-8 111 -65 177.5t-168 66.5q-104 0 -164.5 -64zM191 1380h188l127 -139l131 139h189l-219 -264h-197z" />
    <glyph glyph-name="Gcircumflex" unicode="&#x11c;" horiz-adv-x="1315" 
d="M1221 760v-242q0 -154 -66 -277t-190.5 -193.5t-294.5 -70.5q-189 0 -322 87.5t-201.5 248.5t-68.5 379t68 378t201 246.5t323 86.5q150 0 266.5 -57.5t187 -157t88.5 -223.5h-206q-27 114 -113.5 180.5t-222.5 66.5q-194 0 -290.5 -133.5t-96.5 -386.5t100 -388.5
t291 -135.5q118 0 195 47.5t113 126.5t36 178v51h-430v189h633zM559 1769h197l219 -264h-189l-131 139l-127 -139h-188z" />
    <glyph glyph-name="gcircumflex" unicode="&#x11d;" horiz-adv-x="1059" 
d="M924 991v-911q0 -231 -105 -349t-313 -118q-172 0 -275 80.5t-125 230.5h189q30 -139 207 -139q84 0 135 30t74.5 94.5t23.5 170.5v27q-42 -51 -109 -79t-151 -28q-124 0 -215 63t-139.5 175t-48.5 256q0 152 49.5 268.5t143 182t220.5 65.5q81 0 146.5 -26.5
t106.5 -76.5l3 84h183zM681.5 254.5q59.5 84.5 59.5 249.5q0 167 -57 251.5t-174 84.5q-123 0 -185.5 -87.5t-62.5 -256.5q0 -159 61 -242.5t179 -83.5q120 0 179.5 84.5zM430 1380h197l219 -264h-189l-131 139l-127 -139h-188z" />
    <glyph glyph-name="Gbreve" unicode="&#x11e;" horiz-adv-x="1315" 
d="M1221 760v-242q0 -154 -66 -277t-190.5 -193.5t-294.5 -70.5q-189 0 -322 87.5t-201.5 248.5t-68.5 379t68 378t201 246.5t323 86.5q150 0 266.5 -57.5t187 -157t88.5 -223.5h-206q-27 114 -113.5 180.5t-222.5 66.5q-194 0 -290.5 -133.5t-96.5 -386.5t100 -388.5
t291 -135.5q118 0 195 47.5t113 126.5t36 178v51h-430v189h633zM529 1530q-59 33 -93.5 92t-34.5 133h143q0 -53 32 -87t81 -34q51 0 82 34t31 87h143q0 -74 -34.5 -133t-93.5 -92t-128 -33t-128 33z" />
    <glyph glyph-name="gbreve" unicode="&#x11f;" horiz-adv-x="1059" 
d="M924 991v-911q0 -231 -105 -349t-313 -118q-172 0 -275 80.5t-125 230.5h189q30 -139 207 -139q84 0 135 30t74.5 94.5t23.5 170.5v27q-42 -51 -109 -79t-151 -28q-124 0 -215 63t-139.5 175t-48.5 256q0 152 49.5 268.5t143 182t220.5 65.5q81 0 146.5 -26.5
t106.5 -76.5l3 84h183zM681.5 254.5q59.5 84.5 59.5 249.5q0 167 -57 251.5t-174 84.5q-123 0 -185.5 -87.5t-62.5 -256.5q0 -159 61 -242.5t179 -83.5q120 0 179.5 84.5zM400 1141q-59 33 -93.5 92t-34.5 133h143q0 -53 32 -87t81 -34q51 0 82 34t31 87h143
q0 -74 -34.5 -133t-93.5 -92t-128 -33t-128 33z" />
    <glyph glyph-name="Gdotaccent" unicode="&#x120;" horiz-adv-x="1315" 
d="M1221 760v-242q0 -154 -66 -277t-190.5 -193.5t-294.5 -70.5q-189 0 -322 87.5t-201.5 248.5t-68.5 379t68 378t201 246.5t323 86.5q150 0 266.5 -57.5t187 -157t88.5 -223.5h-206q-27 114 -113.5 180.5t-222.5 66.5q-194 0 -290.5 -133.5t-96.5 -386.5t100 -388.5
t291 -135.5q118 0 195 47.5t113 126.5t36 178v51h-430v189h633zM561 1769h190v-235h-190v235z" />
    <glyph glyph-name="gdotaccent" unicode="&#x121;" horiz-adv-x="1059" 
d="M924 991v-911q0 -231 -105 -349t-313 -118q-172 0 -275 80.5t-125 230.5h189q30 -139 207 -139q84 0 135 30t74.5 94.5t23.5 170.5v27q-42 -51 -109 -79t-151 -28q-124 0 -215 63t-139.5 175t-48.5 256q0 152 49.5 268.5t143 182t220.5 65.5q81 0 146.5 -26.5
t106.5 -76.5l3 84h183zM681.5 254.5q59.5 84.5 59.5 249.5q0 167 -57 251.5t-174 84.5q-123 0 -185.5 -87.5t-62.5 -256.5q0 -159 61 -242.5t179 -83.5q120 0 179.5 84.5zM432 1380h190v-235h-190v235z" />
    <glyph glyph-name="Gcommaaccent" unicode="&#x122;" horiz-adv-x="1315" 
d="M1221 760v-242q0 -154 -66 -277t-190.5 -193.5t-294.5 -70.5q-189 0 -322 87.5t-201.5 248.5t-68.5 379t68 378t201 246.5t323 86.5q150 0 266.5 -57.5t187 -157t88.5 -223.5h-206q-27 114 -113.5 180.5t-222.5 66.5q-194 0 -290.5 -133.5t-96.5 -386.5t100 -388.5
t291 -135.5q118 0 195 47.5t113 126.5t36 178v51h-430v189h633zM475 -365q58 13 86.5 51.5t28.5 106.5v90h168v-59q0 -132 -69 -211.5t-214 -93.5v116z" />
    <glyph glyph-name="gcommaaccent" unicode="&#x123;" horiz-adv-x="1059" 
d="M924 991v-911q0 -231 -105 -349t-313 -118q-172 0 -275 80.5t-125 230.5h189q30 -139 207 -139q84 0 135 30t74.5 94.5t23.5 170.5v27q-42 -51 -109 -79t-151 -28q-124 0 -215 63t-139.5 175t-48.5 256q0 152 49.5 268.5t143 182t220.5 65.5q81 0 146.5 -26.5
t106.5 -76.5l3 84h183zM681.5 254.5q59.5 84.5 59.5 249.5q0 167 -57 251.5t-174 84.5q-123 0 -185.5 -87.5t-62.5 -256.5q0 -159 61 -242.5t179 -83.5q120 0 179.5 84.5zM673 1364q-58 -13 -86.5 -51.5t-28.5 -106.5v-90h-168v59q0 132 69 211.5t214 93.5v-116z" />
    <glyph glyph-name="Hcircumflex" unicode="&#x124;" horiz-adv-x="1323" 
d="M1169 1380v-1380h-202v608h-611v-608h-202v1380h202v-581h611v581h202zM564 1769h197l219 -264h-189l-131 139l-127 -139h-188z" />
    <glyph glyph-name="hcircumflex" unicode="&#x125;" horiz-adv-x="1049" 
d="M768 964q77 -46 117.5 -132.5t40.5 -206.5v-625h-189v610q0 114 -49.5 172t-144.5 58q-108 0 -163.5 -76.5t-55.5 -224.5v-539h-189v1380h189v-478q42 55 111 81.5t149 26.5q107 0 184 -46zM131 1769h197l219 -264h-189l-131 139l-127 -139h-188z" />
    <glyph glyph-name="Hbar" unicode="&#x126;" horiz-adv-x="1323" 
d="M1289 1049h-120v-1049h-202v608h-611v-608h-202v1049h-137v172h137v159h202v-159h611v159h202v-159h120v-172zM967 1049h-611v-250h611v250z" />
    <glyph glyph-name="hbar" unicode="&#x127;" horiz-adv-x="1049" 
d="M768 964q77 -46 117.5 -132.5t40.5 -206.5v-625h-189v610q0 114 -49.5 172t-144.5 58q-108 0 -163.5 -76.5t-55.5 -224.5v-539h-189v1092h-129v147h129v141h189v-141h282v-147h-282v-190q42 55 111 81.5t149 26.5q107 0 184 -46z" />
    <glyph glyph-name="Itilde" unicode="&#x128;" horiz-adv-x="510" 
d="M154 1380h202v-1380h-202v1380zM309.5 1555q-35.5 13 -86.5 37q-39 18 -59 26t-37 8q-30 0 -46.5 -20t-23.5 -60h-151q24 107 77 169.5t148 62.5q34 0 68 -12.5t83 -36.5q40 -19 60.5 -27t38.5 -8q58 0 72 84h151q-16 -107 -71.5 -171.5t-149.5 -64.5q-38 0 -73.5 13z
" />
    <glyph glyph-name="itilde" unicode="&#x129;" horiz-adv-x="463" 
d="M137 991h189v-991h-189v991zM286.5 1166q-35.5 13 -86.5 37q-39 18 -59 26t-37 8q-30 0 -46.5 -20t-23.5 -60h-151q24 107 77 169.5t148 62.5q34 0 68 -12.5t83 -36.5q40 -19 60.5 -27t38.5 -8q58 0 72 84h151q-16 -107 -71.5 -171.5t-149.5 -64.5q-38 0 -73.5 13z" />
    <glyph glyph-name="Imacron" unicode="&#x12a;" horiz-adv-x="510" 
d="M154 1380h202v-1380h-202v1380zM-39 1708h590v-148h-590v148z" />
    <glyph glyph-name="imacron" unicode="&#x12b;" horiz-adv-x="463" 
d="M137 991h189v-991h-189v991zM-62 1319h590v-148h-590v148z" />
    <glyph glyph-name="Ibreve" unicode="&#x12c;" horiz-adv-x="510" 
d="M154 1380h202v-1380h-202v1380zM128 1530q-59 33 -93.5 92t-34.5 133h143q0 -53 32 -87t81 -34q51 0 82 34t31 87h143q0 -74 -34.5 -133t-93.5 -92t-128 -33t-128 33z" />
    <glyph glyph-name="ibreve" unicode="&#x12d;" horiz-adv-x="463" 
d="M137 991h189v-991h-189v991zM105 1141q-59 33 -93.5 92t-34.5 133h143q0 -53 32 -87t81 -34q51 0 82 34t31 87h143q0 -74 -34.5 -133t-93.5 -92t-128 -33t-128 33z" />
    <glyph glyph-name="Iogonek" unicode="&#x12e;" horiz-adv-x="510" 
d="M377 -256v-106q-32 -13 -78 -13q-63 0 -112.5 24t-77 69t-27.5 104q0 55 25 102t69 76h-22v1380h202v-1380q-58 -3 -90.5 -39t-32.5 -96q0 -56 33 -88.5t88 -32.5h23z" />
    <glyph glyph-name="iogonek" unicode="&#x12f;" horiz-adv-x="463" 
d="M327 1145h-190v235h190v-235zM347 -256v-106q-32 -13 -78 -13q-63 0 -112.5 24t-77 69t-27.5 104q0 55 25 102t69 76h-9v991h189v-991q-58 -3 -90.5 -39t-32.5 -96q0 -56 33 -88.5t88 -32.5h23z" />
    <glyph glyph-name="Idotaccent" unicode="&#x130;" horiz-adv-x="510" 
d="M154 1380h202v-1380h-202v1380zM160 1769h190v-235h-190v235z" />
    <glyph glyph-name="dotlessi" unicode="&#x131;" horiz-adv-x="463" 
d="M137 991h189v-991h-189v991z" />
    <glyph glyph-name="Jcircumflex" unicode="&#x134;" horiz-adv-x="928" 
d="M174 31.5q-88 54.5 -133.5 145t-50.5 198.5h203q2 -54 25.5 -102t66.5 -77.5t102 -29.5q95 0 146 61t51 160v993h202v-993q0 -112 -44.5 -205.5t-134 -149t-220.5 -55.5q-125 0 -213 54.5zM588 1769h197l219 -264h-189l-131 139l-127 -139h-188z" />
    <glyph glyph-name="jcircumflex" unicode="&#x135;" horiz-adv-x="467" 
d="M-29 -365v160h54q114 0 114 107v1089h189v-1079q0 -154 -76 -220.5t-193 -66.5q-51 0 -88 10zM135 1380h197l219 -264h-189l-131 139l-127 -139h-188z" />
    <glyph glyph-name="Kcommaaccent" unicode="&#x136;" horiz-adv-x="1237" 
d="M563 685l-207 -228v-457h-202v1380h202v-661l594 661h258l-504 -551l553 -829h-241zM449 -365q58 13 86.5 51.5t28.5 106.5v90h168v-59q0 -132 -69 -211.5t-214 -93.5v116z" />
    <glyph glyph-name="kcommaaccent" unicode="&#x137;" horiz-adv-x="965" 
d="M435 461l-111 -115v-346h-189v1380h189v-802l385 413h233l-371 -402l408 -589h-234zM301 -365q58 13 86.5 51.5t28.5 106.5v90h168v-59q0 -132 -69 -211.5t-214 -93.5v116z" />
    <glyph glyph-name="kgreenlandic" unicode="&#x138;" horiz-adv-x="971" 
d="M429 449l-99 -101v-348h-189v991h189v-401l301 328q41 50 96.5 71t132.5 21q29 0 53.5 -3.5t34.5 -7.5v-163h-100q-29 0 -51.5 -14t-44.5 -42l-194 -199l409 -581h-236z" />
    <glyph glyph-name="Lacute" unicode="&#x139;" horiz-adv-x="1030" 
d="M999 190v-190h-845v1380h202v-1190h643zM370 1769h223l-230 -264h-192z" />
    <glyph glyph-name="lacute" unicode="&#x13a;" horiz-adv-x="502" 
d="M189.5 50q-60.5 58 -60.5 210v1120h188v-1124q0 -38 9.5 -58t29 -27t52.5 -7h43v-154q-49 -18 -113 -18q-88 0 -148.5 58zM314 1769h223l-230 -264h-192z" />
    <glyph glyph-name="Lcommaaccent" unicode="&#x13b;" horiz-adv-x="1030" 
d="M999 190v-190h-845v1380h202v-1190h643zM432 -365q58 13 86.5 51.5t28.5 106.5v90h168v-59q0 -132 -69 -211.5t-214 -93.5v116z" />
    <glyph glyph-name="lcommaaccent" unicode="&#x13c;" horiz-adv-x="502" 
d="M189.5 50q-60.5 58 -60.5 210v1120h188v-1124q0 -38 9.5 -58t29 -27t52.5 -7h43v-154q-49 -18 -113 -18q-88 0 -148.5 58zM150 -365q58 13 86.5 51.5t28.5 106.5v90h168v-59q0 -132 -69 -211.5t-214 -93.5v116z" />
    <glyph glyph-name="Lcaron" unicode="&#x13d;" horiz-adv-x="1030" 
d="M999 190v-190h-845v1380h202v-1190h643zM531 1380h180l-35 -311h-145v311z" />
    <glyph glyph-name="lcaron" unicode="&#x13e;" horiz-adv-x="502" 
d="M189.5 50q-60.5 58 -60.5 210v1120h188v-1124q0 -38 9.5 -58t29 -27t52.5 -7h43v-154q-49 -18 -113 -18q-88 0 -148.5 58zM426 1380h180l-35 -311h-145v311z" />
    <glyph glyph-name="Ldot" unicode="&#x13f;" horiz-adv-x="1040" 
d="M999 190v-190h-845v1380h202v-1190h643zM678 909h195v-272h-195v272z" />
    <glyph glyph-name="ldot" unicode="&#x140;" horiz-adv-x="680" 
d="M189.5 50q-60.5 58 -60.5 210v1120h188v-1124q0 -38 9.5 -58t29 -27t52.5 -7h43v-154q-49 -18 -113 -18q-88 0 -148.5 58zM457 848h195v-273h-195v273z" />
    <glyph glyph-name="Lslash" unicode="&#x141;" horiz-adv-x="1030" 
d="M999 190v-190h-845v495l-115 -49v195l115 49v690h202v-603l414 177v-194l-414 -178v-392h643z" />
    <glyph glyph-name="lslash" unicode="&#x142;" horiz-adv-x="502" 
d="M317 575v-319q0 -38 9.5 -58t29 -27t52.5 -7h43v-154q-49 -18 -113 -18q-88 0 -148.5 58t-60.5 210v233l-129 -57v185l129 57v702h188v-620l191 84v-185z" />
    <glyph glyph-name="Nacute" unicode="&#x143;" horiz-adv-x="1325" 
d="M1171 1380v-1380h-202l-613 1023v-1023h-202v1380h202l613 -1018v1018h202zM755 1769h223l-230 -264h-192z" />
    <glyph glyph-name="nacute" unicode="&#x144;" horiz-adv-x="1049" 
d="M767 964q77 -46 118 -132.5t41 -206.5v-625h-189v610q0 113 -48 171.5t-142 58.5q-110 0 -166.5 -65.5t-56.5 -194.5v-580h-189v991h182l3 -85q46 53 114 78.5t148 25.5q108 0 185 -46zM615 1380h223l-230 -264h-192z" />
    <glyph glyph-name="Ncommaaccent" unicode="&#x145;" horiz-adv-x="1325" 
d="M1171 1380v-1380h-202l-613 1023v-1023h-202v1380h202l613 -1018v1018h202zM482 -365q58 13 86.5 51.5t28.5 106.5v90h168v-59q0 -132 -69 -211.5t-214 -93.5v116z" />
    <glyph glyph-name="ncommaaccent" unicode="&#x146;" horiz-adv-x="1049" 
d="M767 964q77 -46 118 -132.5t41 -206.5v-625h-189v610q0 113 -48 171.5t-142 58.5q-110 0 -166.5 -65.5t-56.5 -194.5v-580h-189v991h182l3 -85q46 53 114 78.5t148 25.5q108 0 185 -46zM342 -365q58 13 86.5 51.5t28.5 106.5v90h168v-59q0 -132 -69 -211.5t-214 -93.5
v116z" />
    <glyph glyph-name="Ncaron" unicode="&#x147;" horiz-adv-x="1325" 
d="M1171 1380v-1380h-202l-613 1023v-1023h-202v1380h202l613 -1018v1018h202zM347 1769h188l127 -139l131 139h189l-219 -264h-197z" />
    <glyph glyph-name="ncaron" unicode="&#x148;" horiz-adv-x="1049" 
d="M767 964q77 -46 118 -132.5t41 -206.5v-625h-189v610q0 113 -48 171.5t-142 58.5q-110 0 -166.5 -65.5t-56.5 -194.5v-580h-189v991h182l3 -85q46 53 114 78.5t148 25.5q108 0 185 -46zM207 1380h188l127 -139l131 139h189l-219 -264h-197z" />
    <glyph glyph-name="Eng" unicode="&#x14a;" horiz-adv-x="1300" 
d="M1171 1380v-1501q0 -151 -79 -208.5t-197 -57.5q-26 0 -50.5 3t-37.5 7v160h53q57 0 86 17t29 69v136l-619 1019v-1024h-202v1380h202l613 -1018v1018h202z" />
    <glyph glyph-name="eng" unicode="&#x14b;" horiz-adv-x="1049" 
d="M767 964q77 -46 118 -132.5t41 -206.5v-742q0 -85 -32.5 -146t-90 -92.5t-129.5 -31.5q-53 0 -105 14v160h54q64 0 89 19t25 67v737q0 113 -48 171.5t-142 58.5q-110 0 -166.5 -65.5t-56.5 -194.5v-580h-189v991h182l3 -85q46 53 114 78.5t148 25.5q108 0 185 -46z" />
    <glyph glyph-name="Omacron" unicode="&#x14c;" horiz-adv-x="1321" 
d="M346.5 62q-130.5 85 -199.5 246t-69 384q0 222 69 382t199.5 244.5t312.5 84.5t313.5 -84.5t201 -244.5t69.5 -382q0 -223 -69.5 -383.5t-201 -246t-313.5 -85.5t-312.5 85zM942.5 295.5q95.5 133.5 95.5 392.5q0 261 -96 396t-283 135q-185 0 -280.5 -133.5
t-95.5 -393.5q0 -261 96 -395.5t283 -134.5q185 0 280.5 133.5zM367 1708h590v-148h-590v148z" />
    <glyph glyph-name="omacron" unicode="&#x14d;" horiz-adv-x="1026" 
d="M276 44q-99 62 -151.5 179.5t-52.5 280.5q0 155 56.5 269.5t157 175.5t230.5 61q133 0 232.5 -65t152.5 -180t53 -261q0 -162 -54.5 -279.5t-154 -180t-233.5 -62.5q-137 0 -236 62zM701.5 241q62.5 85 62.5 261q0 158 -64.5 246t-185.5 88q-118 0 -185 -84.5t-67 -249.5
q0 -177 63 -261.5t189 -84.5q125 0 187.5 85zM219 1319h590v-148h-590v148z" />
    <glyph glyph-name="Obreve" unicode="&#x14e;" horiz-adv-x="1321" 
d="M346.5 62q-130.5 85 -199.5 246t-69 384q0 222 69 382t199.5 244.5t312.5 84.5t313.5 -84.5t201 -244.5t69.5 -382q0 -223 -69.5 -383.5t-201 -246t-313.5 -85.5t-312.5 85zM942.5 295.5q95.5 133.5 95.5 392.5q0 261 -96 396t-283 135q-185 0 -280.5 -133.5
t-95.5 -393.5q0 -261 96 -395.5t283 -134.5q185 0 280.5 133.5zM534 1530q-59 33 -93.5 92t-34.5 133h143q0 -53 32 -87t81 -34q51 0 82 34t31 87h143q0 -74 -34.5 -133t-93.5 -92t-128 -33t-128 33z" />
    <glyph glyph-name="obreve" unicode="&#x14f;" horiz-adv-x="1026" 
d="M276 44q-99 62 -151.5 179.5t-52.5 280.5q0 155 56.5 269.5t157 175.5t230.5 61q133 0 232.5 -65t152.5 -180t53 -261q0 -162 -54.5 -279.5t-154 -180t-233.5 -62.5q-137 0 -236 62zM701.5 241q62.5 85 62.5 261q0 158 -64.5 246t-185.5 88q-118 0 -185 -84.5t-67 -249.5
q0 -177 63 -261.5t189 -84.5q125 0 187.5 85zM386 1141q-59 33 -93.5 92t-34.5 133h143q0 -53 32 -87t81 -34q51 0 82 34t31 87h143q0 -74 -34.5 -133t-93.5 -92t-128 -33t-128 33z" />
    <glyph glyph-name="Ohungarumlaut" unicode="&#x150;" horiz-adv-x="1321" 
d="M346.5 62q-130.5 85 -199.5 246t-69 384q0 222 69 382t199.5 244.5t312.5 84.5t313.5 -84.5t201 -244.5t69.5 -382q0 -223 -69.5 -383.5t-201 -246t-313.5 -85.5t-312.5 85zM942.5 295.5q95.5 133.5 95.5 392.5q0 261 -96 396t-283 135q-185 0 -280.5 -133.5
t-95.5 -393.5q0 -261 96 -395.5t283 -134.5q185 0 280.5 133.5zM590 1769h211l-239 -264h-166zM912 1769h213l-242 -264h-163z" />
    <glyph glyph-name="ohungarumlaut" unicode="&#x151;" horiz-adv-x="1026" 
d="M276 44q-99 62 -151.5 179.5t-52.5 280.5q0 155 56.5 269.5t157 175.5t230.5 61q133 0 232.5 -65t152.5 -180t53 -261q0 -162 -54.5 -279.5t-154 -180t-233.5 -62.5q-137 0 -236 62zM701.5 241q62.5 85 62.5 261q0 158 -64.5 246t-185.5 88q-118 0 -185 -84.5t-67 -249.5
q0 -177 63 -261.5t189 -84.5q125 0 187.5 85zM442 1380h211l-239 -264h-166zM764 1380h213l-242 -264h-163z" />
    <glyph glyph-name="OE" unicode="&#x152;" horiz-adv-x="1897" 
d="M1835 190v-190h-882v50q-126 -73 -294 -73q-187 0 -317.5 89.5t-197 252t-66.5 381.5q0 214 69 372.5t199.5 244.5t312.5 86q82 0 158 -20.5t136 -56.5v54h876v-190h-674v-391h549v-191h-549v-418h680zM953 315v748q-48 72 -121.5 110.5t-172.5 38.5
q-183 0 -278.5 -132.5t-95.5 -379.5q0 -257 94.5 -393.5t279.5 -136.5q199 0 294 145z" />
    <glyph glyph-name="oe" unicode="&#x153;" horiz-adv-x="1698" 
d="M1624 454q-2 -20 -2 -22h-671q10 -97 45 -158.5t85.5 -89.5t108.5 -28q83 0 138.5 35t82.5 110h193q-43 -151 -147 -235t-267 -84q-109 0 -195.5 47t-142.5 134q-57 -86 -144.5 -133.5t-195.5 -47.5q-137 0 -236 62t-151.5 179.5t-52.5 280.5q0 155 56.5 269.5t157 175.5
t230.5 61q109 0 195.5 -50t144.5 -138q59 90 149 139t199 49q134 0 229 -65.5t144 -178.5t49 -256q0 -36 -2 -56zM1031.5 774q-60.5 -64 -77.5 -180h475q-8 111 -65 177.5t-168 66.5q-104 0 -164.5 -64zM701.5 241q62.5 85 62.5 261q0 158 -64.5 246t-185.5 88
q-118 0 -185 -84.5t-67 -249.5q0 -177 63 -261.5t189 -84.5q125 0 187.5 85z" />
    <glyph glyph-name="Racute" unicode="&#x154;" horiz-adv-x="1280" 
d="M676 557h-320v-557h-202v1380h575q125 0 224.5 -53t155.5 -146.5t56 -211.5q0 -135 -75.5 -237t-203.5 -146l341 -586h-232zM356 748h373q107 0 169.5 58.5t62.5 160.5q0 103 -62.5 163t-169.5 60h-373v-442zM732 1769h223l-230 -264h-192z" />
    <glyph glyph-name="racute" unicode="&#x155;" horiz-adv-x="670" 
d="M659 995v-176h-61q-99 0 -159 -34t-87.5 -108t-27.5 -196v-481h-189v991h180l4 -143q48 84 110 123t140 39q55 0 90 -15zM492 1380h223l-230 -264h-192z" />
    <glyph glyph-name="Rcommaaccent" unicode="&#x156;" horiz-adv-x="1280" 
d="M676 557h-320v-557h-202v1380h575q125 0 224.5 -53t155.5 -146.5t56 -211.5q0 -135 -75.5 -237t-203.5 -146l341 -586h-232zM356 748h373q107 0 169.5 58.5t62.5 160.5q0 103 -62.5 163t-169.5 60h-373v-442zM439 -365q58 13 86.5 51.5t28.5 106.5v90h168v-59
q0 -132 -69 -211.5t-214 -93.5v116z" />
    <glyph glyph-name="rcommaaccent" unicode="&#x157;" horiz-adv-x="670" 
d="M659 995v-176h-61q-99 0 -159 -34t-87.5 -108t-27.5 -196v-481h-189v991h180l4 -143q48 84 110 123t140 39q55 0 90 -15zM43 -365q58 13 86.5 51.5t28.5 106.5v90h168v-59q0 -132 -69 -211.5t-214 -93.5v116z" />
    <glyph glyph-name="Rcaron" unicode="&#x158;" horiz-adv-x="1280" 
d="M676 557h-320v-557h-202v1380h575q125 0 224.5 -53t155.5 -146.5t56 -211.5q0 -135 -75.5 -237t-203.5 -146l341 -586h-232zM356 748h373q107 0 169.5 58.5t62.5 160.5q0 103 -62.5 163t-169.5 60h-373v-442zM324 1769h188l127 -139l131 139h189l-219 -264h-197z" />
    <glyph glyph-name="rcaron" unicode="&#x159;" horiz-adv-x="670" 
d="M659 995v-176h-61q-99 0 -159 -34t-87.5 -108t-27.5 -196v-481h-189v991h180l4 -143q48 84 110 123t140 39q55 0 90 -15zM84 1380h188l127 -139l131 139h189l-219 -264h-197z" />
    <glyph glyph-name="Sacute" unicode="&#x15a;" horiz-adv-x="1180" 
d="M311.5 32q-110.5 55 -171.5 155t-70 233h211q6 -124 81 -192t218 -68q93 0 164 27t110 77t39 117q0 73 -44 118.5t-110 70.5t-180 54q-142 37 -229.5 73t-149 111.5t-61.5 201.5q0 121 59 210t164.5 136t243.5 47q144 0 252 -49.5t169 -143.5t66 -223h-209
q-1 113 -76.5 173.5t-203.5 60.5q-78 0 -137.5 -25t-92 -70t-32.5 -102q0 -65 41 -105t102.5 -62.5t171.5 -50.5q146 -37 238 -75t157.5 -118.5t65.5 -217.5q0 -127 -64.5 -221.5t-183 -145.5t-275.5 -51q-153 0 -263.5 55zM681 1769h223l-230 -264h-192z" />
    <glyph glyph-name="sacute" unicode="&#x15b;" horiz-adv-x="924" 
d="M258 20.5q-87 38.5 -134.5 112t-51.5 176.5h190q4 -81 56.5 -122.5t148.5 -41.5q63 0 108 17.5t68 47t23 64.5q0 40 -28 65.5t-71 40t-118 32.5q-108 27 -176.5 54.5t-117.5 85.5t-49 155q0 89 42.5 157.5t123.5 107t191 38.5q108 0 188.5 -37.5t125 -107.5t46.5 -167
h-190q-4 75 -50.5 111.5t-123.5 36.5q-79 0 -122.5 -35.5t-43.5 -87.5q0 -43 29 -70t73.5 -42.5t122.5 -34.5q106 -26 172.5 -52.5t114 -82.5t47.5 -150q0 -91 -46.5 -161t-134.5 -109t-208 -39q-118 0 -205 38.5zM554 1380h223l-230 -264h-192z" />
    <glyph glyph-name="Scircumflex" unicode="&#x15c;" horiz-adv-x="1180" 
d="M311.5 32q-110.5 55 -171.5 155t-70 233h211q6 -124 81 -192t218 -68q93 0 164 27t110 77t39 117q0 73 -44 118.5t-110 70.5t-180 54q-142 37 -229.5 73t-149 111.5t-61.5 201.5q0 121 59 210t164.5 136t243.5 47q144 0 252 -49.5t169 -143.5t66 -223h-209
q-1 113 -76.5 173.5t-203.5 60.5q-78 0 -137.5 -25t-92 -70t-32.5 -102q0 -65 41 -105t102.5 -62.5t171.5 -50.5q146 -37 238 -75t157.5 -118.5t65.5 -217.5q0 -127 -64.5 -221.5t-183 -145.5t-275.5 -51q-153 0 -263.5 55zM492 1769h197l219 -264h-189l-131 139l-127 -139
h-188z" />
    <glyph glyph-name="scircumflex" unicode="&#x15d;" horiz-adv-x="924" 
d="M258 20.5q-87 38.5 -134.5 112t-51.5 176.5h190q4 -81 56.5 -122.5t148.5 -41.5q63 0 108 17.5t68 47t23 64.5q0 40 -28 65.5t-71 40t-118 32.5q-108 27 -176.5 54.5t-117.5 85.5t-49 155q0 89 42.5 157.5t123.5 107t191 38.5q108 0 188.5 -37.5t125 -107.5t46.5 -167
h-190q-4 75 -50.5 111.5t-123.5 36.5q-79 0 -122.5 -35.5t-43.5 -87.5q0 -43 29 -70t73.5 -42.5t122.5 -34.5q106 -26 172.5 -52.5t114 -82.5t47.5 -150q0 -91 -46.5 -161t-134.5 -109t-208 -39q-118 0 -205 38.5zM365 1380h197l219 -264h-189l-131 139l-127 -139h-188z" />
    <glyph glyph-name="Scedilla" unicode="&#x15e;" horiz-adv-x="1180" 
d="M311.5 32q-110.5 55 -171.5 155t-70 233h211q6 -124 81 -192t218 -68q93 0 164 27t110 77t39 117q0 73 -44 118.5t-110 70.5t-180 54q-142 37 -229.5 73t-149 111.5t-61.5 201.5q0 121 59 210t164.5 136t243.5 47q144 0 252 -49.5t169 -143.5t66 -223h-209
q-1 113 -76.5 173.5t-203.5 60.5q-78 0 -137.5 -25t-92 -70t-32.5 -102q0 -65 41 -105t102.5 -62.5t171.5 -50.5q146 -37 238 -75t157.5 -118.5t65.5 -217.5q0 -127 -64.5 -221.5t-183 -145.5t-275.5 -51q-153 0 -263.5 55zM500 -465.5q-22 3.5 -33 8.5v125q19 -3 36 -3
q50 0 78.5 22t28.5 63q0 44 -31 67.5t-88 26.5v82h33q73 0 126.5 -25t82.5 -70t29 -103t-27.5 -102.5t-76.5 -69.5t-111 -25q-25 0 -47 3.5z" />
    <glyph glyph-name="scedilla" unicode="&#x15f;" horiz-adv-x="924" 
d="M258 20.5q-87 38.5 -134.5 112t-51.5 176.5h190q4 -81 56.5 -122.5t148.5 -41.5q63 0 108 17.5t68 47t23 64.5q0 40 -28 65.5t-71 40t-118 32.5q-108 27 -176.5 54.5t-117.5 85.5t-49 155q0 89 42.5 157.5t123.5 107t191 38.5q108 0 188.5 -37.5t125 -107.5t46.5 -167
h-190q-4 75 -50.5 111.5t-123.5 36.5q-79 0 -122.5 -35.5t-43.5 -87.5q0 -43 29 -70t73.5 -42.5t122.5 -34.5q106 -26 172.5 -52.5t114 -82.5t47.5 -150q0 -91 -46.5 -161t-134.5 -109t-208 -39q-118 0 -205 38.5zM373 -465.5q-22 3.5 -33 8.5v125q19 -3 36 -3q50 0 78.5 22
t28.5 63q0 44 -31 67.5t-88 26.5v82h33q73 0 126.5 -25t82.5 -70t29 -103t-27.5 -102.5t-76.5 -69.5t-111 -25q-25 0 -47 3.5z" />
    <glyph glyph-name="Scaron" unicode="&#x160;" horiz-adv-x="1180" 
d="M311.5 32q-110.5 55 -171.5 155t-70 233h211q6 -124 81 -192t218 -68q93 0 164 27t110 77t39 117q0 73 -44 118.5t-110 70.5t-180 54q-142 37 -229.5 73t-149 111.5t-61.5 201.5q0 121 59 210t164.5 136t243.5 47q144 0 252 -49.5t169 -143.5t66 -223h-209
q-1 113 -76.5 173.5t-203.5 60.5q-78 0 -137.5 -25t-92 -70t-32.5 -102q0 -65 41 -105t102.5 -62.5t171.5 -50.5q146 -37 238 -75t157.5 -118.5t65.5 -217.5q0 -127 -64.5 -221.5t-183 -145.5t-275.5 -51q-153 0 -263.5 55zM273 1769h188l127 -139l131 139h189l-219 -264
h-197z" />
    <glyph glyph-name="scaron" unicode="&#x161;" horiz-adv-x="924" 
d="M258 20.5q-87 38.5 -134.5 112t-51.5 176.5h190q4 -81 56.5 -122.5t148.5 -41.5q63 0 108 17.5t68 47t23 64.5q0 40 -28 65.5t-71 40t-118 32.5q-108 27 -176.5 54.5t-117.5 85.5t-49 155q0 89 42.5 157.5t123.5 107t191 38.5q108 0 188.5 -37.5t125 -107.5t46.5 -167
h-190q-4 75 -50.5 111.5t-123.5 36.5q-79 0 -122.5 -35.5t-43.5 -87.5q0 -43 29 -70t73.5 -42.5t122.5 -34.5q106 -26 172.5 -52.5t114 -82.5t47.5 -150q0 -91 -46.5 -161t-134.5 -109t-208 -39q-118 0 -205 38.5zM146 1380h188l127 -139l131 139h189l-219 -264h-197z" />
    <glyph glyph-name="uni0162" unicode="&#x162;" horiz-adv-x="1079" 
d="M1049 1190h-406v-1190h-203v1190h-409v190h1018v-190zM453 -465.5q-22 3.5 -33 8.5v125q19 -3 36 -3q50 0 78.5 22t28.5 63q0 44 -31 67.5t-88 26.5v82h33q73 0 126.5 -25t82.5 -70t29 -103t-27.5 -102.5t-76.5 -69.5t-111 -25q-25 0 -47 3.5z" />
    <glyph glyph-name="uni0163" unicode="&#x163;" horiz-adv-x="668" 
d="M387 819v-543q0 -62 22.5 -87t82.5 -25h81v-154q-73 -18 -135 -18q-116 0 -177.5 66.5t-61.5 203.5v557h-150v172h150v383h188v-383h213v-172h-213zM313 -465.5q-22 3.5 -33 8.5v125q19 -3 36 -3q50 0 78.5 22t28.5 63q0 44 -31 67.5t-88 26.5v82h33q73 0 126.5 -25
t82.5 -70t29 -103t-27.5 -102.5t-76.5 -69.5t-111 -25q-25 0 -47 3.5z" />
    <glyph glyph-name="Tcaron" unicode="&#x164;" horiz-adv-x="1079" 
d="M1049 1190h-406v-1190h-203v1190h-409v190h1018v-190zM224 1769h188l127 -139l131 139h189l-219 -264h-197z" />
    <glyph glyph-name="tcaron" unicode="&#x165;" horiz-adv-x="668" 
d="M387 819v-543q0 -62 22.5 -87t82.5 -25h81v-154q-73 -18 -135 -18q-116 0 -177.5 66.5t-61.5 203.5v557h-150v172h150v383h188v-383h213v-172h-213zM537 1380h180l-35 -311h-145v311z" />
    <glyph glyph-name="Tbar" unicode="&#x166;" horiz-adv-x="1079" 
d="M643 1190v-414h214v-172h-214v-604h-203v604h-214v172h214v414h-409v190h1018v-190h-406z" />
    <glyph glyph-name="tbar" unicode="&#x167;" horiz-adv-x="668" 
d="M387 819v-153h213v-170h-213v-220q0 -62 22.5 -87t82.5 -25h81v-154q-73 -18 -135 -18q-116 0 -177.5 66.5t-61.5 203.5v234h-150v170h150v153h-150v172h150v383h188v-383h213v-172h-213z" />
    <glyph glyph-name="Utilde" unicode="&#x168;" horiz-adv-x="1300" 
d="M384 34q-114 57 -179.5 179.5t-65.5 312.5v854h203v-848q0 -362 305 -362q311 0 311 362v848h203v-854q0 -187 -66.5 -310t-182 -181t-265.5 -58q-149 0 -263 57zM704.5 1555q-35.5 13 -86.5 37q-39 18 -59 26t-37 8q-30 0 -46.5 -20t-23.5 -60h-151q24 107 77 169.5
t148 62.5q34 0 68 -12.5t83 -36.5q40 -19 60.5 -27t38.5 -8q58 0 72 84h151q-16 -107 -71.5 -171.5t-149.5 -64.5q-38 0 -73.5 13z" />
    <glyph glyph-name="utilde" unicode="&#x169;" horiz-adv-x="1049" 
d="M914 991v-991h-182l-3 85q-46 -53 -114 -78.5t-148 -25.5q-108 0 -185 46t-118 132.5t-41 206.5v625h189v-610q0 -113 48 -171.5t142 -58.5q110 0 166.5 65.5t56.5 194.5v580h189zM577.5 1166q-35.5 13 -86.5 37q-39 18 -59 26t-37 8q-30 0 -46.5 -20t-23.5 -60h-151
q24 107 77 169.5t148 62.5q34 0 68 -12.5t83 -36.5q40 -19 60.5 -27t38.5 -8q58 0 72 84h151q-16 -107 -71.5 -171.5t-149.5 -64.5q-38 0 -73.5 13z" />
    <glyph glyph-name="Umacron" unicode="&#x16a;" horiz-adv-x="1300" 
d="M384 34q-114 57 -179.5 179.5t-65.5 312.5v854h203v-848q0 -362 305 -362q311 0 311 362v848h203v-854q0 -187 -66.5 -310t-182 -181t-265.5 -58q-149 0 -263 57zM356 1708h590v-148h-590v148z" />
    <glyph glyph-name="umacron" unicode="&#x16b;" horiz-adv-x="1049" 
d="M914 991v-991h-182l-3 85q-46 -53 -114 -78.5t-148 -25.5q-108 0 -185 46t-118 132.5t-41 206.5v625h189v-610q0 -113 48 -171.5t142 -58.5q110 0 166.5 65.5t56.5 194.5v580h189zM229 1319h590v-148h-590v148z" />
    <glyph glyph-name="Ubreve" unicode="&#x16c;" horiz-adv-x="1300" 
d="M384 34q-114 57 -179.5 179.5t-65.5 312.5v854h203v-848q0 -362 305 -362q311 0 311 362v848h203v-854q0 -187 -66.5 -310t-182 -181t-265.5 -58q-149 0 -263 57zM523 1530q-59 33 -93.5 92t-34.5 133h143q0 -53 32 -87t81 -34q51 0 82 34t31 87h143q0 -74 -34.5 -133
t-93.5 -92t-128 -33t-128 33z" />
    <glyph glyph-name="ubreve" unicode="&#x16d;" horiz-adv-x="1049" 
d="M914 991v-991h-182l-3 85q-46 -53 -114 -78.5t-148 -25.5q-108 0 -185 46t-118 132.5t-41 206.5v625h189v-610q0 -113 48 -171.5t142 -58.5q110 0 166.5 65.5t56.5 194.5v580h189zM396 1141q-59 33 -93.5 92t-34.5 133h143q0 -53 32 -87t81 -34q51 0 82 34t31 87h143
q0 -74 -34.5 -133t-93.5 -92t-128 -33t-128 33z" />
    <glyph glyph-name="Uring" unicode="&#x16e;" horiz-adv-x="1300" 
d="M384 34q-114 57 -179.5 179.5t-65.5 312.5v854h203v-848q0 -362 305 -362q311 0 311 362v848h203v-854q0 -187 -66.5 -310t-182 -181t-265.5 -58q-149 0 -263 57zM545 1513.5q-48 26.5 -75.5 73.5t-27.5 105t27.5 104.5t75.5 73t106 26.5t106 -26.5t75.5 -73t27.5 -104.5
t-27.5 -105t-75.5 -73.5t-106 -26.5t-106 26.5zM723 1619q28 28 28 73q0 44 -28 72t-72 28q-45 0 -73 -28t-28 -72q0 -45 28 -73t73 -28q44 0 72 28z" />
    <glyph glyph-name="uring" unicode="&#x16f;" horiz-adv-x="1049" 
d="M914 991v-991h-182l-3 85q-46 -53 -114 -78.5t-148 -25.5q-108 0 -185 46t-118 132.5t-41 206.5v625h189v-610q0 -113 48 -171.5t142 -58.5q110 0 166.5 65.5t56.5 194.5v580h189zM418 1124.5q-48 26.5 -75.5 73.5t-27.5 105t27.5 104.5t75.5 73t106 26.5t106 -26.5
t75.5 -73t27.5 -104.5t-27.5 -105t-75.5 -73.5t-106 -26.5t-106 26.5zM596 1230q28 28 28 73q0 44 -28 72t-72 28q-45 0 -73 -28t-28 -72q0 -45 28 -73t73 -28q44 0 72 28z" />
    <glyph glyph-name="Uhungarumlaut" unicode="&#x170;" horiz-adv-x="1300" 
d="M384 34q-114 57 -179.5 179.5t-65.5 312.5v854h203v-848q0 -362 305 -362q311 0 311 362v848h203v-854q0 -187 -66.5 -310t-182 -181t-265.5 -58q-149 0 -263 57zM579 1769h211l-239 -264h-166zM901 1769h213l-242 -264h-163z" />
    <glyph glyph-name="uhungarumlaut" unicode="&#x171;" horiz-adv-x="1049" 
d="M914 991v-991h-182l-3 85q-46 -53 -114 -78.5t-148 -25.5q-108 0 -185 46t-118 132.5t-41 206.5v625h189v-610q0 -113 48 -171.5t142 -58.5q110 0 166.5 65.5t56.5 194.5v580h189zM452 1380h211l-239 -264h-166zM774 1380h213l-242 -264h-163z" />
    <glyph glyph-name="Uogonek" unicode="&#x172;" horiz-adv-x="1300" 
d="M1161 1380v-854q0 -245 -112.5 -380t-302.5 -162q-30 -17 -46 -47t-16 -72q0 -56 33 -88.5t88 -32.5h23v-106q-32 -13 -78 -13q-63 0 -112.5 24t-77 69t-27.5 104q0 46 17.5 86t49.5 70q-211 14 -336 148.5t-125 399.5v854h203v-848q0 -362 305 -362q311 0 311 362v848
h203z" />
    <glyph glyph-name="uogonek" unicode="&#x173;" horiz-adv-x="1049" 
d="M934 -256v-106q-32 -13 -78 -13q-63 0 -112.5 24t-77 69t-27.5 104q0 55 25 102t69 76h-1l-3 85q-46 -53 -114 -78.5t-148 -25.5q-108 0 -185 46t-118 132.5t-41 206.5v625h189v-610q0 -113 48 -171.5t142 -58.5q110 0 166.5 65.5t56.5 194.5v580h189v-991h-1
q-58 -3 -90.5 -39t-32.5 -96q0 -56 33 -88.5t88 -32.5h23z" />
    <glyph glyph-name="Wcircumflex" unicode="&#x174;" horiz-adv-x="1702" 
d="M1681 1380l-350 -1380h-205l-274 1081l-283 -1081h-204l-345 1380h211l247 -1057l274 1057h198l278 -1056l245 1056h208zM744 1769h197l219 -264h-189l-131 139l-127 -139h-188z" />
    <glyph glyph-name="wcircumflex" unicode="&#x175;" horiz-adv-x="1354" 
d="M1337 991l-280 -991h-193l-189 685l-190 -685h-192l-277 991h205l177 -716l196 716h166l202 -716l173 716h202zM580 1380h197l219 -264h-189l-131 139l-127 -139h-188z" />
    <glyph glyph-name="Ycircumflex" unicode="&#x176;" horiz-adv-x="1130" 
d="M1120 1380l-452 -825v-555h-203v555l-455 825h230l329 -635l326 635h225zM467 1769h197l219 -264h-189l-131 139l-127 -139h-188z" />
    <glyph glyph-name="ycircumflex" unicode="&#x177;" horiz-adv-x="913" 
d="M903 991l-418 -1190q-30 -88 -89.5 -131t-164.5 -43q-35 0 -71 6v168h71q39 0 58 19t35 63l39 106l-353 1002h207l245 -755l236 755h205zM361 1380h197l219 -264h-189l-131 139l-127 -139h-188z" />
    <glyph glyph-name="Ydieresis" unicode="&#x178;" horiz-adv-x="1130" 
d="M1120 1380l-452 -825v-555h-203v555l-455 825h230l329 -635l326 635h225zM291 1769h178v-221h-178v221zM660 1769h180v-221h-180v221z" />
    <glyph glyph-name="Zacute" unicode="&#x179;" horiz-adv-x="1108" 
d="M1030 1204l-720 -1014h720v-190h-958v174l719 1016h-687v190h926v-176zM646 1769h223l-230 -264h-192z" />
    <glyph glyph-name="zacute" unicode="&#x17a;" horiz-adv-x="903" 
d="M846 834l-537 -662h533v-172h-770v162l542 657h-520v172h752v-157zM554 1380h223l-230 -264h-192z" />
    <glyph glyph-name="Zdotaccent" unicode="&#x17b;" horiz-adv-x="1108" 
d="M1030 1204l-720 -1014h720v-190h-958v174l719 1016h-687v190h926v-176zM459 1769h190v-235h-190v235z" />
    <glyph glyph-name="zdotaccent" unicode="&#x17c;" horiz-adv-x="903" 
d="M846 834l-537 -662h533v-172h-770v162l542 657h-520v172h752v-157zM367 1380h190v-235h-190v235z" />
    <glyph glyph-name="Zcaron" unicode="&#x17d;" horiz-adv-x="1108" 
d="M1030 1204l-720 -1014h720v-190h-958v174l719 1016h-687v190h926v-176zM238 1769h188l127 -139l131 139h189l-219 -264h-197z" />
    <glyph glyph-name="zcaron" unicode="&#x17e;" horiz-adv-x="903" 
d="M846 834l-537 -662h533v-172h-770v162l542 657h-520v172h752v-157zM146 1380h188l127 -139l131 139h189l-219 -264h-197z" />
    <glyph glyph-name="longs" unicode="&#x17f;" horiz-adv-x="637" 
d="M606 1389v-164h-106q-55 0 -79 -27t-24 -92v-1106h-188v819h-162v172h162v96q0 116 31.5 184t94.5 98t163 30q53 0 108 -10z" />
    <glyph glyph-name="uni018F" unicode="&#x18f;" horiz-adv-x="1315" 
d="M968 1316.5q133 -86.5 201 -246.5t68 -378t-68.5 -379t-201.5 -248.5t-322 -87.5q-176 0 -305 83.5t-198 241t-69 374.5q0 41 3 84h954q-14 225 -109.5 342t-275.5 117q-130 0 -216.5 -68.5t-119.5 -185.5h-207q31 125 104.5 224t185.5 156.5t253 57.5q190 0 323 -86.5z
M912.5 266q94.5 104 114.5 305h-743q20 -200 112.5 -304.5t252.5 -104.5q169 0 263.5 104z" />
    <glyph glyph-name="florin" unicode="&#x192;" horiz-adv-x="674" 
d="M432.5 1201q-22.5 -26 -22.5 -89v-121h198v-176h-198v-893q0 -115 -31.5 -182.5t-94.5 -97t-161 -29.5q-63 0 -109 8v166h107q52 0 75 26.5t23 90.5v911h-162v176h162v101q0 115 31.5 183t94 98t161.5 30q53 0 108 -10v-166h-106q-53 0 -75.5 -26z" />
    <glyph glyph-name="uni01CD" unicode="&#x1cd;" horiz-adv-x="1225" 
d="M896 344h-570l-127 -344h-207l524 1380h195l522 -1380h-207zM824 532l-218 575l-211 -575h429zM295 1769h188l127 -139l131 139h189l-219 -264h-197z" />
    <glyph glyph-name="uni01CE" unicode="&#x1ce;" horiz-adv-x="1032" 
d="M981 164v-154q-40 -18 -94 -18q-65 0 -109.5 30.5t-62.5 93.5q-50 -66 -125.5 -100t-163.5 -34q-89 0 -167 31t-127.5 100.5t-49.5 179.5q0 116 59.5 180t157.5 87.5t233 23.5h154v51q0 98 -46.5 152.5t-156.5 54.5q-161 0 -182 -127h-197q20 143 121.5 219t266.5 76
q196 0 288 -105t92 -282v-369q0 -53 18.5 -71.5t65.5 -18.5h25zM589.5 184q52.5 37 74.5 94t22 121v35h-156q-100 0 -157 -15t-80 -44.5t-23 -75.5q0 -72 48 -112t135 -40q84 0 136.5 37zM181 1380h188l127 -139l131 139h189l-219 -264h-197z" />
    <glyph glyph-name="uni01CF" unicode="&#x1cf;" horiz-adv-x="510" 
d="M154 1380h202v-1380h-202v1380zM-61 1769h188l127 -139l131 139h189l-219 -264h-197z" />
    <glyph glyph-name="uni01D0" unicode="&#x1d0;" horiz-adv-x="463" 
d="M137 991h189v-991h-189v991zM-84 1380h188l127 -139l131 139h189l-219 -264h-197z" />
    <glyph glyph-name="uni01D1" unicode="&#x1d1;" horiz-adv-x="1321" 
d="M346.5 62q-130.5 85 -199.5 246t-69 384q0 222 69 382t199.5 244.5t312.5 84.5t313.5 -84.5t201 -244.5t69.5 -382q0 -223 -69.5 -383.5t-201 -246t-313.5 -85.5t-312.5 85zM942.5 295.5q95.5 133.5 95.5 392.5q0 261 -96 396t-283 135q-185 0 -280.5 -133.5
t-95.5 -393.5q0 -261 96 -395.5t283 -134.5q185 0 280.5 133.5zM345 1769h188l127 -139l131 139h189l-219 -264h-197z" />
    <glyph glyph-name="uni01D2" unicode="&#x1d2;" horiz-adv-x="1026" 
d="M276 44q-99 62 -151.5 179.5t-52.5 280.5q0 155 56.5 269.5t157 175.5t230.5 61q133 0 232.5 -65t152.5 -180t53 -261q0 -162 -54.5 -279.5t-154 -180t-233.5 -62.5q-137 0 -236 62zM701.5 241q62.5 85 62.5 261q0 158 -64.5 246t-185.5 88q-118 0 -185 -84.5t-67 -249.5
q0 -177 63 -261.5t189 -84.5q125 0 187.5 85zM197 1380h188l127 -139l131 139h189l-219 -264h-197z" />
    <glyph glyph-name="uni01D3" unicode="&#x1d3;" horiz-adv-x="1300" 
d="M384 34q-114 57 -179.5 179.5t-65.5 312.5v854h203v-848q0 -362 305 -362q311 0 311 362v848h203v-854q0 -187 -66.5 -310t-182 -181t-265.5 -58q-149 0 -263 57zM334 1769h188l127 -139l131 139h189l-219 -264h-197z" />
    <glyph glyph-name="uni01D4" unicode="&#x1d4;" horiz-adv-x="1049" 
d="M914 991v-991h-182l-3 85q-46 -53 -114 -78.5t-148 -25.5q-108 0 -185 46t-118 132.5t-41 206.5v625h189v-610q0 -113 48 -171.5t142 -58.5q110 0 166.5 65.5t56.5 194.5v580h189zM207 1380h188l127 -139l131 139h189l-219 -264h-197z" />
    <glyph glyph-name="uni01D5" unicode="&#x1d5;" horiz-adv-x="1300" 
d="M356 1970h590v-148h-590v148zM377 1691h178v-177h-178v177zM746 1691h180v-177h-180v177zM384 34q-114 57 -179.5 179.5t-65.5 312.5v854h203v-848q0 -362 305 -362q311 0 311 362v848h203v-854q0 -187 -66.5 -310t-182 -181t-265.5 -58q-149 0 -263 57z" />
    <glyph glyph-name="uni01D6" unicode="&#x1d6;" horiz-adv-x="1049" 
d="M819 1433h-590v148h590v-148zM250 1125v177h178v-177h-178zM619 1125v177h180v-177h-180zM914 991v-991h-182l-3 85q-46 -53 -114 -78.5t-148 -25.5q-108 0 -185 46t-118 132.5t-41 206.5v625h189v-610q0 -113 48 -171.5t142 -58.5q110 0 166.5 65.5t56.5 194.5v580h189z
" />
    <glyph glyph-name="uni01D7" unicode="&#x1d7;" horiz-adv-x="1300" 
d="M742 2031h223l-230 -264h-192zM377 1691h178v-177h-178v177zM746 1691h180v-177h-180v177zM384 34q-114 57 -179.5 179.5t-65.5 312.5v854h203v-848q0 -362 305 -362q311 0 311 362v848h203v-854q0 -187 -66.5 -310t-182 -181t-265.5 -58q-149 0 -263 57z" />
    <glyph glyph-name="uni01D8" unicode="&#x1d8;" horiz-adv-x="1049" 
d="M608 1378h-192l199 264h223zM428 1125h-178v177h178v-177zM619 1125v177h180v-177h-180zM914 991v-991h-182l-3 85q-46 -53 -114 -78.5t-148 -25.5q-108 0 -185 46t-118 132.5t-41 206.5v625h189v-610q0 -113 48 -171.5t142 -58.5q110 0 166.5 65.5t56.5 194.5v580h189z
" />
    <glyph glyph-name="uni01D9" unicode="&#x1d9;" horiz-adv-x="1300" 
d="M334 2031h188l127 -139l131 139h189l-219 -264h-197zM377 1691h178v-177h-178v177zM746 1691h180v-177h-180v177zM384 34q-114 57 -179.5 179.5t-65.5 312.5v854h203v-848q0 -362 305 -362q311 0 311 362v848h203v-854q0 -187 -66.5 -310t-182 -181t-265.5 -58
q-149 0 -263 57z" />
    <glyph glyph-name="uni01DA" unicode="&#x1da;" horiz-adv-x="1049" 
d="M426 1378l-219 264h188l127 -139l131 139h189l-219 -264h-197zM250 1302h178v-177h-178v177zM619 1302h180v-177h-180v177zM914 991v-991h-182l-3 85q-46 -53 -114 -78.5t-148 -25.5q-108 0 -185 46t-118 132.5t-41 206.5v625h189v-610q0 -113 48 -171.5t142 -58.5
q110 0 166.5 65.5t56.5 194.5v580h189z" />
    <glyph glyph-name="uni01DB" unicode="&#x1db;" horiz-adv-x="1300" 
d="M364 2031h221l201 -264h-195zM377 1691h178v-177h-178v177zM746 1691h180v-177h-180v177zM384 34q-114 57 -179.5 179.5t-65.5 312.5v854h203v-848q0 -362 305 -362q311 0 311 362v848h203v-854q0 -187 -66.5 -310t-182 -181t-265.5 -58q-149 0 -263 57z" />
    <glyph glyph-name="uni01DC" unicode="&#x1dc;" horiz-adv-x="1049" 
d="M464 1378l-227 264h221l201 -264h-195zM250 1125v177h178v-177h-178zM619 1302h180v-177h-180v177zM914 991v-991h-182l-3 85q-46 -53 -114 -78.5t-148 -25.5q-108 0 -185 46t-118 132.5t-41 206.5v625h189v-610q0 -113 48 -171.5t142 -58.5q110 0 166.5 65.5t56.5 194.5
v580h189z" />
    <glyph glyph-name="uni01DD" unicode="&#x1dd;" horiz-adv-x="1014" 
d="M736 948.5q98 -60.5 152 -175.5t54 -274q0 -161 -58 -278.5t-160 -178.5t-230 -61q-134 0 -229 65.5t-144 178.5t-49 256q0 36 2 56t2 22h671q-13 142 -79.5 209t-159.5 67q-83 0 -138.5 -35t-82.5 -110h-193q43 151 147 235t267 84q130 0 228 -60.5zM666.5 217
q60.5 64 77.5 180h-475q8 -111 65 -177.5t168 -66.5q104 0 164.5 64z" />
    <glyph glyph-name="AEacute" unicode="&#x1fc;" horiz-adv-x="1663" 
d="M1601 190v-190h-882v340h-402l-127 -340h-206l524 1380h1087v-190h-674v-391h549v-191h-549v-418h680zM719 528v662h-86l-246 -662h332zM935 1769h223l-230 -264h-192z" />
    <glyph glyph-name="aeacute" unicode="&#x1fd;" horiz-adv-x="1622" 
d="M1548 454q-2 -20 -2 -22h-671q13 -142 79.5 -209t159.5 -67q84 0 139 35t82 110h193q-43 -151 -147 -235t-267 -84q-111 0 -198.5 45.5t-143.5 131.5q-61 -87 -150.5 -132t-195.5 -45q-89 0 -167 31t-127.5 100.5t-49.5 179.5q0 116 59.5 180t157.5 87.5t233 23.5h154v51
q0 98 -46.5 152.5t-156.5 54.5q-161 0 -182 -127h-197q20 143 121.5 219t266.5 76q222 0 317 -142q59 69 141 105.5t178 36.5q134 0 229 -65.5t144 -178.5t49 -256q0 -36 -2 -56zM953.5 772q-60.5 -66 -76.5 -186h477q-6 114 -63.5 183t-170.5 69q-106 0 -166.5 -66z
M589.5 184q52.5 37 74.5 94t22 121v35h-156q-100 0 -157 -15t-80 -44.5t-23 -75.5q0 -72 48 -112t135 -40q84 0 136.5 37zM902 1380h223l-230 -264h-192z" />
    <glyph glyph-name="Oslashacute" unicode="&#x1fe;" horiz-adv-x="1321" 
d="M1190 1031.5q53 -146.5 53 -339.5q0 -223 -69.5 -383.5t-201 -246t-313.5 -85.5q-147 0 -264 57l-60 -116h-162l104 199q-97 92 -148 238t-51 337q0 222 69 382t199.5 244.5t312.5 84.5q147 0 258 -54l55 105h161l-96 -185q100 -91 153 -237.5zM374 304l456 878
q-74 37 -171 37q-185 0 -280.5 -133.5t-95.5 -393.5q0 -253 91 -388zM942.5 295.5q95.5 133.5 95.5 392.5q0 262 -97 397l-458 -882q76 -41 179 -41q185 0 280.5 133.5zM753 1769h223l-230 -264h-192z" />
    <glyph glyph-name="oslashacute" unicode="&#x1ff;" horiz-adv-x="1026" 
d="M914 733.5q40 -103.5 40 -229.5q0 -162 -54.5 -279.5t-154 -180t-233.5 -62.5q-109 0 -193 39l-45 -82h-149l85 157q-67 68 -102.5 171.5t-35.5 236.5q0 155 56.5 269.5t157 175.5t230.5 61q92 0 172 -33l43 78h150l-81 -150q74 -68 114 -171.5zM306 272l298 549
q-40 15 -90 15q-118 0 -185 -84.5t-67 -249.5q0 -147 44 -230zM701.5 241q62.5 85 62.5 261q0 148 -56 234l-305 -559q48 -21 111 -21q125 0 187.5 85zM601 1380h223l-230 -264h-192z" />
    <glyph glyph-name="Scommaaccent" unicode="&#x218;" horiz-adv-x="1180" 
d="M311.5 32q-110.5 55 -171.5 155t-70 233h211q6 -124 81 -192t218 -68q93 0 164 27t110 77t39 117q0 73 -44 118.5t-110 70.5t-180 54q-142 37 -229.5 73t-149 111.5t-61.5 201.5q0 121 59 210t164.5 136t243.5 47q144 0 252 -49.5t169 -143.5t66 -223h-209
q-1 113 -76.5 173.5t-203.5 60.5q-78 0 -137.5 -25t-92 -70t-32.5 -102q0 -65 41 -105t102.5 -62.5t171.5 -50.5q146 -37 238 -75t157.5 -118.5t65.5 -217.5q0 -127 -64.5 -221.5t-183 -145.5t-275.5 -51q-153 0 -263.5 55zM408 -365q58 13 86.5 51.5t28.5 106.5v90h168v-59
q0 -132 -69 -211.5t-214 -93.5v116z" />
    <glyph glyph-name="scommaaccent" unicode="&#x219;" horiz-adv-x="924" 
d="M258 20.5q-87 38.5 -134.5 112t-51.5 176.5h190q4 -81 56.5 -122.5t148.5 -41.5q63 0 108 17.5t68 47t23 64.5q0 40 -28 65.5t-71 40t-118 32.5q-108 27 -176.5 54.5t-117.5 85.5t-49 155q0 89 42.5 157.5t123.5 107t191 38.5q108 0 188.5 -37.5t125 -107.5t46.5 -167
h-190q-4 75 -50.5 111.5t-123.5 36.5q-79 0 -122.5 -35.5t-43.5 -87.5q0 -43 29 -70t73.5 -42.5t122.5 -34.5q106 -26 172.5 -52.5t114 -82.5t47.5 -150q0 -91 -46.5 -161t-134.5 -109t-208 -39q-118 0 -205 38.5zM281 -365q58 13 86.5 51.5t28.5 106.5v90h168v-59
q0 -132 -69 -211.5t-214 -93.5v116z" />
    <glyph glyph-name="uni021A" unicode="&#x21a;" horiz-adv-x="1079" 
d="M1049 1190h-406v-1190h-203v1190h-409v190h1018v-190zM361 -365q58 13 86.5 51.5t28.5 106.5v90h168v-59q0 -132 -69 -211.5t-214 -93.5v116z" />
    <glyph glyph-name="uni021B" unicode="&#x21b;" horiz-adv-x="668" 
d="M387 819v-543q0 -62 22.5 -87t82.5 -25h81v-154q-73 -18 -135 -18q-116 0 -177.5 66.5t-61.5 203.5v557h-150v172h150v383h188v-383h213v-172h-213zM221 -365q58 13 86.5 51.5t28.5 106.5v90h168v-59q0 -132 -69 -211.5t-214 -93.5v116z" />
    <glyph glyph-name="uni0237" unicode="&#x237;" horiz-adv-x="467" 
d="M-29 -365v160h54q114 0 114 107v1089h189v-1079q0 -154 -76 -220.5t-193 -66.5q-51 0 -88 10z" />
    <glyph glyph-name="circumflex" unicode="&#x2c6;" horiz-adv-x="799" 
d="M301 1380h197l219 -264h-189l-131 139l-127 -139h-188z" />
    <glyph glyph-name="caron" unicode="&#x2c7;" horiz-adv-x="799" 
d="M82 1380h188l127 -139l131 139h189l-219 -264h-197z" />
    <glyph glyph-name="breve" unicode="&#x2d8;" horiz-adv-x="676" 
d="M210 1141q-59 33 -93.5 92t-34.5 133h143q0 -53 32 -87t81 -34q51 0 82 34t31 87h143q0 -74 -34.5 -133t-93.5 -92t-128 -33t-128 33z" />
    <glyph glyph-name="dotaccent" unicode="&#x2d9;" horiz-adv-x="354" 
d="M82 1380h190v-235h-190v235z" />
    <glyph glyph-name="ring" unicode="&#x2da;" horiz-adv-x="582" 
d="M185 1124.5q-48 26.5 -75.5 73.5t-27.5 105t27.5 104.5t75.5 73t106 26.5t106 -26.5t75.5 -73t27.5 -104.5t-27.5 -105t-75.5 -73.5t-106 -26.5t-106 26.5zM363 1230q28 28 28 73q0 44 -28 72t-72 28q-45 0 -73 -28t-28 -72q0 -45 28 -73t73 -28q44 0 72 28z" />
    <glyph glyph-name="ogonek" unicode="&#x2db;" horiz-adv-x="459" 
d="M186.5 -351q-49.5 24 -77 69t-27.5 104q0 58 27.5 107t76.5 77.5t109 28.5h61v-35q-58 -3 -90.5 -39t-32.5 -96q0 -56 33 -88.5t88 -32.5h23v-106q-32 -13 -78 -13q-63 0 -112.5 24z" />
    <glyph glyph-name="tilde" unicode="&#x2dc;" horiz-adv-x="862" 
d="M485.5 1166q-35.5 13 -86.5 37q-39 18 -59 26t-37 8q-30 0 -46.5 -20t-23.5 -60h-151q24 107 77 169.5t148 62.5q34 0 68 -12.5t83 -36.5q40 -19 60.5 -27t38.5 -8q58 0 72 84h151q-16 -107 -71.5 -171.5t-149.5 -64.5q-38 0 -73.5 13z" />
    <glyph glyph-name="hungarumlaut" unicode="&#x2dd;" horiz-adv-x="893" 
d="M276 1380h211l-239 -264h-166zM598 1380h213l-242 -264h-163z" />
    <glyph glyph-name="gravecomb" unicode="&#x300;" horiz-adv-x="0" 
d="M-504 1380h221l201 -264h-195z" />
    <glyph glyph-name="acutecomb" unicode="&#x301;" horiz-adv-x="0" 
d="M-305 1380h223l-230 -264h-192z" />
    <glyph glyph-name="uni0302" unicode="&#x302;" horiz-adv-x="0" 
d="M-498 1380h197l219 -264h-189l-131 139l-127 -139h-188z" />
    <glyph glyph-name="tildecomb" unicode="&#x303;" horiz-adv-x="0" 
d="M-376.5 1166q-35.5 13 -86.5 37q-39 18 -59 26t-37 8q-30 0 -46.5 -20t-23.5 -60h-151q24 107 77 169.5t148 62.5q34 0 68 -12.5t83 -36.5q40 -19 60.5 -27t38.5 -8q58 0 72 84h151q-16 -107 -71.5 -171.5t-149.5 -64.5q-38 0 -73.5 13z" />
    <glyph glyph-name="uni0304" unicode="&#x304;" horiz-adv-x="0" 
d="M-672 1319h590v-148h-590v148z" />
    <glyph glyph-name="uni0306" unicode="&#x306;" horiz-adv-x="0" 
d="M-466 1141q-59 33 -93.5 92t-34.5 133h143q0 -53 32 -87t81 -34q51 0 82 34t31 87h143q0 -74 -34.5 -133t-93.5 -92t-128 -33t-128 33z" />
    <glyph glyph-name="uni0307" unicode="&#x307;" horiz-adv-x="0" 
d="M-272 1380h190v-235h-190v235z" />
    <glyph glyph-name="uni0308" unicode="&#x308;" horiz-adv-x="0" 
d="M-631 1380h178v-221h-178v221zM-262 1380h180v-221h-180v221z" />
    <glyph glyph-name="uni030A" unicode="&#x30a;" horiz-adv-x="0" 
d="M-397 1124.5q-48 26.5 -75.5 73.5t-27.5 105t27.5 104.5t75.5 73t106 26.5t106 -26.5t75.5 -73t27.5 -104.5t-27.5 -105t-75.5 -73.5t-106 -26.5t-106 26.5zM-219 1230q28 28 28 73q0 44 -28 72t-72 28q-45 0 -73 -28t-28 -72q0 -45 28 -73t73 -28q44 0 72 28z" />
    <glyph glyph-name="uni030B" unicode="&#x30b;" horiz-adv-x="0" 
d="M-617 1380h211l-239 -264h-166zM-295 1380h213l-242 -264h-163z" />
    <glyph glyph-name="uni030C" unicode="&#x30c;" horiz-adv-x="0" 
d="M-717 1380h188l127 -139l131 139h189l-219 -264h-197z" />
    <glyph glyph-name="uni0312" unicode="&#x312;" horiz-adv-x="0" 
d="M-82 1364q-58 -13 -86.5 -51.5t-28.5 -106.5v-90h-168v59q0 132 69 211.5t214 93.5v-116z" />
    <glyph glyph-name="uni0326" unicode="&#x326;" horiz-adv-x="0" 
d="M-364 -365q58 13 86.5 51.5t28.5 106.5v90h168v-59q0 -132 -69 -211.5t-214 -93.5v116z" />
    <glyph glyph-name="uni0327" unicode="&#x327;" horiz-adv-x="0" 
d="M-344 -465.5q-22 3.5 -33 8.5v125q19 -3 36 -3q50 0 78.5 22t28.5 63q0 44 -31 67.5t-88 26.5v82h33q73 0 126.5 -25t82.5 -70t29 -103t-27.5 -102.5t-76.5 -69.5t-111 -25q-25 0 -47 3.5z" />
    <glyph glyph-name="uni0328" unicode="&#x328;" horiz-adv-x="0" 
d="M-272.5 -351q-49.5 24 -77 69t-27.5 104q0 58 27.5 107t76.5 77.5t109 28.5h61v-35q-58 -3 -90.5 -39t-32.5 -96q0 -56 33 -88.5t88 -32.5h23v-106q-32 -13 -78 -13q-63 0 -112.5 24z" />
    <glyph glyph-name="tonos" unicode="&#x384;" horiz-adv-x="463" 
d="M131 1380h201l-45 -282h-156v282z" />
    <glyph glyph-name="dieresistonos" unicode="&#x385;" horiz-adv-x="889" 
d="M358 1550h197l-45 -311h-150zM68 1380h178v-221h-178v221zM641 1380h180v-221h-180v221z" />
    <glyph glyph-name="Alphatonos" unicode="&#x386;" horiz-adv-x="1243" 
d="M914 344h-570l-127 -344h-207l524 1380h195l522 -1380h-207zM842 532l-218 575l-211 -575h429zM92 1380h201l-45 -282h-156v282z" />
    <glyph glyph-name="Epsilontonos" unicode="&#x388;" horiz-adv-x="1413" 
d="M1348 190v-190h-942v1380h936v-190h-734v-391h609v-191h-609v-418h740zM53 1380h201l-45 -282h-156v282z" />
    <glyph glyph-name="Etatonos" unicode="&#x389;" horiz-adv-x="1575" 
d="M1421 1380v-1380h-202v608h-611v-608h-202v1380h202v-581h611v581h202zM53 1380h201l-45 -282h-156v282z" />
    <glyph glyph-name="Iotatonos" unicode="&#x38a;" horiz-adv-x="762" 
d="M406 1380h202v-1380h-202v1380zM53 1380h201l-45 -282h-156v282z" />
    <glyph glyph-name="Omicrontonos" unicode="&#x38c;" horiz-adv-x="1561" 
d="M586.5 62q-130.5 85 -199.5 246t-69 384q0 222 69 382t199.5 244.5t312.5 84.5t313.5 -84.5t201 -244.5t69.5 -382q0 -223 -69.5 -383.5t-201 -246t-313.5 -85.5t-312.5 85zM1182.5 295.5q95.5 133.5 95.5 392.5q0 261 -96 396t-283 135q-185 0 -280.5 -133.5
t-95.5 -393.5q0 -261 96 -395.5t283 -134.5q185 0 280.5 133.5zM53 1380h201l-45 -282h-156v282z" />
    <glyph glyph-name="Upsilontonos" unicode="&#x38e;" horiz-adv-x="1448" 
d="M1466 1380l-452 -825v-555h-203v555l-455 825h230l329 -635l326 635h225zM53 1380h201l-45 -282h-156v282z" />
    <glyph glyph-name="Omegatonos" unicode="&#x38f;" horiz-adv-x="1585" 
d="M1448.5 423q-55.5 -153 -143.5 -245h178v-178h-473v168q79 11 145 86.5t105 200t39 276.5q0 135 -43.5 243.5t-131 172t-214.5 63.5q-128 0 -215.5 -63.5t-130.5 -172t-43 -243.5q0 -152 39 -276.5t105 -200t144 -86.5v-168h-473v178h178q-88 92 -143 244.5t-55 312.5
q0 179 68.5 331.5t203 244.5t322.5 92t322.5 -92t203 -244.5t68.5 -331.5q0 -159 -55.5 -312zM53 1380h201l-45 -282h-156v282z" />
    <glyph glyph-name="iotadieresistonos" unicode="&#x390;" horiz-adv-x="471" 
d="M187.5 50.5q-58.5 58.5 -58.5 209.5v731h188v-735q0 -55 16.5 -73.5t51.5 -18.5h35v-154q-47 -18 -96 -18q-78 0 -136.5 58.5zM152 1550h197l-45 -311h-150zM-138 1380h178v-221h-178v221zM435 1380h180v-221h-180v221z" />
    <glyph glyph-name="Alpha" unicode="&#x391;" horiz-adv-x="1225" 
d="M896 344h-570l-127 -344h-207l524 1380h195l522 -1380h-207zM824 532l-218 575l-211 -575h429z" />
    <glyph glyph-name="Beta" unicode="&#x392;" horiz-adv-x="1278" 
d="M1143.5 601q56.5 -87 56.5 -208q0 -116 -55 -205.5t-155 -138.5t-232 -49h-604v1380h587q125 0 219.5 -44.5t146.5 -126.5t52 -189q0 -105 -45.5 -183.5t-123.5 -114.5q97 -34 153.5 -121zM896 1137.5q-60 52.5 -165 52.5h-375v-387h396q95 0 149.5 51.5t54.5 138.5
q0 92 -60 144.5zM928 246.5q65 56.5 65 154.5q0 104 -68 164t-186 60h-383v-435h392q115 0 180 56.5z" />
    <glyph glyph-name="Gamma" unicode="&#x393;" horiz-adv-x="1069" 
d="M1073 1190h-719v-1190h-202v1380h921v-190z" />
    <glyph glyph-name="uni0394" unicode="&#x394;" horiz-adv-x="1214" 
d="M1227 0h-1239l522 1380h195zM262 188h688l-344 917z" />
    <glyph glyph-name="Epsilon" unicode="&#x395;" horiz-adv-x="1157" 
d="M1096 190v-190h-942v1380h936v-190h-734v-391h609v-191h-609v-418h740z" />
    <glyph glyph-name="Zeta" unicode="&#x396;" horiz-adv-x="1108" 
d="M1030 1204l-720 -1014h720v-190h-958v174l719 1016h-687v190h926v-176z" />
    <glyph glyph-name="Eta" unicode="&#x397;" horiz-adv-x="1323" 
d="M1169 1380v-1380h-202v608h-611v-608h-202v1380h202v-581h611v581h202z" />
    <glyph glyph-name="Theta" unicode="&#x398;" horiz-adv-x="1321" 
d="M341.5 66.5q-130.5 89.5 -197 252t-66.5 381.5q0 214 69 372.5t199.5 244.5t312.5 86q189 0 320.5 -93.5t197.5 -251.5t66 -351q0 -220 -66 -384.5t-197 -255t-321 -90.5q-187 0 -317.5 89.5zM943 305.5q95 137.5 95 396.5q0 150 -41.5 265t-126.5 180t-213 65
q-183 0 -278.5 -132.5t-95.5 -379.5q0 -258 94 -395t280 -137q191 0 286 137.5zM414 799h491v-191h-491v191z" />
    <glyph glyph-name="Iota" unicode="&#x399;" horiz-adv-x="510" 
d="M154 1380h202v-1380h-202v1380z" />
    <glyph glyph-name="Kappa" unicode="&#x39a;" horiz-adv-x="1237" 
d="M563 685l-207 -228v-457h-202v1380h202v-661l594 661h258l-504 -551l553 -829h-241z" />
    <glyph glyph-name="Lambda" unicode="&#x39b;" horiz-adv-x="1225" 
d="M1024 0l-411 1106l-412 -1106h-209l524 1380h193l524 -1380h-209z" />
    <glyph glyph-name="Mu" unicode="&#x39c;" horiz-adv-x="1610" 
d="M1456 1380v-1380h-203v990l-366 -851h-164l-367 853v-992h-202v1380h225l430 -997l422 997h225z" />
    <glyph glyph-name="Nu" unicode="&#x39d;" horiz-adv-x="1325" 
d="M1171 1380v-1380h-202l-613 1023v-1023h-202v1380h202l613 -1018v1018h202z" />
    <glyph glyph-name="Xi" unicode="&#x39e;" horiz-adv-x="1149" 
d="M102 1380h945v-190h-945v190zM168 799h813v-191h-813v191zM102 190h945v-190h-945v190z" />
    <glyph glyph-name="Omicron" unicode="&#x39f;" horiz-adv-x="1321" 
d="M346.5 62q-130.5 85 -199.5 246t-69 384q0 222 69 382t199.5 244.5t312.5 84.5t313.5 -84.5t201 -244.5t69.5 -382q0 -223 -69.5 -383.5t-201 -246t-313.5 -85.5t-312.5 85zM942.5 295.5q95.5 133.5 95.5 392.5q0 261 -96 396t-283 135q-185 0 -280.5 -133.5
t-95.5 -393.5q0 -261 96 -395.5t283 -134.5q185 0 280.5 133.5z" />
    <glyph glyph-name="Pi" unicode="&#x3a0;" horiz-adv-x="1319" 
d="M1167 1380v-1380h-202v1190h-611v-1190h-202v1380h1015z" />
    <glyph glyph-name="Rho" unicode="&#x3a1;" horiz-adv-x="1233" 
d="M957.5 1326.5q99.5 -53.5 155.5 -147.5t56 -212t-56 -211t-155.5 -146t-224.5 -53h-377v-557h-202v1380h579q125 0 224.5 -53.5zM852.5 776q52.5 28 82.5 78t30 113q0 64 -30 114.5t-82.5 79.5t-119.5 29h-377v-442h377q67 0 119.5 28z" />
    <glyph glyph-name="Sigma" unicode="&#x3a3;" horiz-adv-x="1094" 
d="M1028 190v-190h-956v168l526 541l-500 503v168h918v-190h-639l475 -481l-511 -519h687z" />
    <glyph glyph-name="Tau" unicode="&#x3a4;" horiz-adv-x="1079" 
d="M1049 1190h-406v-1190h-203v1190h-409v190h1018v-190z" />
    <glyph glyph-name="Upsilon" unicode="&#x3a5;" horiz-adv-x="1130" 
d="M1120 1380l-452 -825v-555h-203v555l-455 825h230l329 -635l326 635h225z" />
    <glyph glyph-name="Phi" unicode="&#x3a6;" horiz-adv-x="1462" 
d="M1330.5 396.5q-68.5 -130.5 -196.5 -208.5t-305 -95v-195h-200v195q-176 17 -303 95t-195 208.5t-68 301.5t68 300.5t195 207.5t303 96v187h200v-186q176 -16 304.5 -94t197 -208.5t68.5 -302.5q0 -171 -68.5 -301.5zM1097.5 420q96.5 108 96.5 278q0 114 -43.5 202
t-126 142.5t-195.5 70.5v-827q172 26 268.5 134zM363.5 418.5q95.5 -108.5 265.5 -132.5v826q-112 -17 -193.5 -72t-124.5 -142t-43 -200q0 -171 95.5 -279.5z" />
    <glyph glyph-name="Chi" unicode="&#x3a7;" horiz-adv-x="1112" 
d="M883 0l-328 536l-326 -536h-229l431 704l-419 676h230l317 -519l305 519h232l-411 -683l427 -697h-229z" />
    <glyph glyph-name="Psi" unicode="&#x3a8;" horiz-adv-x="1317" 
d="M1239 1380v-268q0 -263 -128 -394t-351 -151v-567h-203v567q-223 20 -351 151t-128 394v268h203v-262q0 -339 276 -359v621h203v-621q276 20 276 359v262h203z" />
    <glyph glyph-name="uni03A9" unicode="&#x3a9;" horiz-adv-x="1337" 
d="M1206.5 423q-55.5 -153 -143.5 -245h178v-178h-473v168q79 11 145 86.5t105 200t39 276.5q0 135 -43.5 243.5t-131 172t-214.5 63.5q-128 0 -215.5 -63.5t-130.5 -172t-43 -243.5q0 -152 39 -276.5t105 -200t144 -86.5v-168h-473v178h178q-88 92 -143 244.5t-55 312.5
q0 179 68.5 331.5t203 244.5t322.5 92t322.5 -92t203 -244.5t68.5 -331.5q0 -159 -55.5 -312z" />
    <glyph glyph-name="Iotadieresis" unicode="&#x3aa;" horiz-adv-x="510" 
d="M154 1380h202v-1380h-202v1380zM-18 1769h178v-221h-178v221zM351 1769h180v-221h-180v221z" />
    <glyph glyph-name="Upsilondieresis" unicode="&#x3ab;" horiz-adv-x="1130" 
d="M1120 1380l-452 -825v-555h-203v555l-455 825h230l329 -635l326 635h225zM277 1769h178v-221h-178v221zM646 1769h180v-221h-180v221z" />
    <glyph glyph-name="alphatonos" unicode="&#x3ac;" horiz-adv-x="1075" 
d="M1024 164v-158q-31 -14 -80 -14q-70 0 -116 28.5t-66 93.5q-41 -61 -116 -96.5t-171 -35.5q-124 0 -215 65t-139.5 181t-48.5 266q0 152 49.5 268.5t143 182t220.5 65.5q81 0 146.5 -26.5t106.5 -75.5l3 83h183v-749q0 -41 18.5 -59.5t56.5 -18.5h25zM741 504
q0 167 -57 251.5t-174 84.5q-123 0 -185.5 -87.5t-62.5 -256.5q0 -170 61 -257t179 -87q239 0 239 352zM448 1380h201l-45 -282h-156v282z" />
    <glyph glyph-name="epsilontonos" unicode="&#x3ad;" horiz-adv-x="954" 
d="M897 315q-19 -103 -78 -178t-147.5 -115t-194.5 -40q-115 0 -203 37t-137 106.5t-49 163.5q0 71 40 129.5t113 94.5q-68 34 -99 83t-31 121q0 76 44 143t128.5 108.5t199.5 41.5q165 0 263.5 -86.5t123.5 -237.5h-192q-18 78 -63.5 115t-133.5 37q-55 0 -95.5 -18
t-61.5 -47t-21 -62q0 -53 43 -83t135 -30h29v-170h-35q-90 0 -143 -35t-53 -96q0 -68 56 -105.5t142 -37.5q89 0 150.5 43.5t77.5 117.5h192zM385 1380h201l-45 -282h-156v282z" />
    <glyph glyph-name="etatonos" unicode="&#x3ae;" horiz-adv-x="1049" 
d="M767 964q77 -46 118 -132.5t41 -206.5v-994h-189v979q0 113 -48 171.5t-142 58.5q-110 0 -166.5 -65.5t-56.5 -194.5v-580h-189v991h182l3 -85q46 53 114 78.5t148 25.5q108 0 185 -46zM483 1380h201l-45 -282h-156v282z" />
    <glyph glyph-name="iotatonos" unicode="&#x3af;" horiz-adv-x="471" 
d="M187.5 50.5q-58.5 58.5 -58.5 209.5v731h188v-735q0 -55 16.5 -73.5t51.5 -18.5h35v-154q-47 -18 -96 -18q-78 0 -136.5 58.5zM145 1380h201l-45 -282h-156v282z" />
    <glyph glyph-name="upsilondieresistonos" unicode="&#x3b0;" horiz-adv-x="1036" 
d="M312.5 33.5q-89.5 45.5 -139.5 132.5t-50 207v618h188v-616q0 -110 58 -163.5t149 -53.5q94 0 150.5 53t56.5 164v616h188v-618q0 -118 -49 -205t-138.5 -133.5t-207.5 -46.5q-116 0 -205.5 45.5zM432 1550h197l-45 -311h-150zM142 1380h178v-221h-178v221zM715 1380h180
v-221h-180v221z" />
    <glyph glyph-name="alpha" unicode="&#x3b1;" horiz-adv-x="1075" 
d="M1024 164v-158q-31 -14 -80 -14q-70 0 -116 28.5t-66 93.5q-41 -61 -116 -96.5t-171 -35.5q-124 0 -215 65t-139.5 181t-48.5 266q0 152 49.5 268.5t143 182t220.5 65.5q81 0 146.5 -26.5t106.5 -75.5l3 83h183v-749q0 -41 18.5 -59.5t56.5 -18.5h25zM741 504
q0 167 -57 251.5t-174 84.5q-123 0 -185.5 -87.5t-62.5 -256.5q0 -170 61 -257t179 -87q239 0 239 352z" />
    <glyph glyph-name="beta" unicode="&#x3b2;" horiz-adv-x="1098" 
d="M948.5 655.5q63.5 -91.5 63.5 -231.5q0 -131 -52.5 -229.5t-148.5 -152.5t-223 -54q-73 0 -142 30t-108 74v-461h-188v1346q0 139 53 234.5t143 143.5t201 48t196.5 -45t133 -121.5t47.5 -167.5q0 -93 -41.5 -167t-107.5 -111q110 -44 173.5 -135.5zM766 232
q57 72 57 198q0 115 -67.5 183.5t-190.5 68.5h-53v170h29q63 0 106.5 28t65.5 73.5t22 97.5q0 76 -45.5 129t-134.5 53q-62 0 -111.5 -27.5t-78.5 -83t-29 -135.5v-569q0 -124 67 -191t183 -67q123 0 180 72z" />
    <glyph glyph-name="gamma" unicode="&#x3b3;" horiz-adv-x="907" 
d="M539 -28q3 -24 3 -50q0 -54 -15 -124t-48 -169h-194q41 135 58 209t17 119q0 37 -10 66l-342 968h205l242 -735l237 735h207z" />
    <glyph glyph-name="delta" unicode="&#x3b4;" horiz-adv-x="1026" 
d="M767.5 918q94.5 -61 139.5 -160.5t45 -247.5q0 -167 -53.5 -285.5t-152 -180.5t-232.5 -62q-136 0 -235.5 62.5t-152 177.5t-52.5 270t53 262t159 171q-64 28 -101.5 78.5t-37.5 120.5q0 72 39.5 135.5t120.5 103.5t201 40q118 0 202.5 -41t130 -113t50.5 -166h-191
q-6 75 -51.5 115.5t-140.5 40.5q-80 0 -127 -30.5t-47 -82.5q0 -27 16 -47t56.5 -37t115.5 -32q151 -31 245.5 -92zM699.5 241.5q62.5 85.5 62.5 250.5t-63 252t-185 87q-119 0 -184.5 -83t-65.5 -256q0 -167 63 -251.5t187 -84.5q123 0 185.5 85.5z" />
    <glyph glyph-name="epsilon" unicode="&#x3b5;" horiz-adv-x="954" 
d="M897 315q-19 -103 -78 -178t-147.5 -115t-194.5 -40q-115 0 -203 37t-137 106.5t-49 163.5q0 71 40 129.5t113 94.5q-68 34 -99 83t-31 121q0 76 44 143t128.5 108.5t199.5 41.5q165 0 263.5 -86.5t123.5 -237.5h-192q-18 78 -63.5 115t-133.5 37q-55 0 -95.5 -18
t-61.5 -47t-21 -62q0 -53 43 -83t135 -30h29v-170h-35q-90 0 -143 -35t-53 -96q0 -68 56 -105.5t142 -37.5q89 0 150.5 43.5t77.5 117.5h192z" />
    <glyph glyph-name="zeta" unicode="&#x3b6;" horiz-adv-x="911" 
d="M527 874.5q-133 -136.5 -193 -244.5t-60 -210q0 -90 33 -143.5t97.5 -79.5t170.5 -37q149 -15 216 -79t67 -171q0 -100 -76 -279h-196q43 91 62.5 149.5t19.5 96.5t-10 60t-35.5 34.5t-73.5 16.5q-204 15 -333.5 112t-129.5 295q0 128 53.5 242t179 247t356.5 322h-519
v174h733v-180q-229 -189 -362 -325.5z" />
    <glyph glyph-name="eta" unicode="&#x3b7;" horiz-adv-x="1049" 
d="M767 964q77 -46 118 -132.5t41 -206.5v-994h-189v979q0 113 -48 171.5t-142 58.5q-110 0 -166.5 -65.5t-56.5 -194.5v-580h-189v991h182l3 -85q46 53 114 78.5t148 25.5q108 0 185 -46z" />
    <glyph glyph-name="theta" unicode="&#x3b8;" horiz-adv-x="1102" 
d="M907 1218.5q121 -178.5 121 -526.5q0 -349 -121 -528.5t-356 -179.5t-356 179t-121 527q0 349 121 528t356 179t356 -178.5zM357 1114q-75 -109 -89 -321h568q-11 215 -79 322.5t-196 107.5q-129 0 -204 -109zM752.5 277q72.5 119 83.5 348h-571q8 -229 80 -348t204 -119
q131 0 203.5 119z" />
    <glyph glyph-name="iota" unicode="&#x3b9;" horiz-adv-x="471" 
d="M187.5 50.5q-58.5 58.5 -58.5 209.5v731h188v-735q0 -55 16.5 -73.5t51.5 -18.5h35v-154q-47 -18 -96 -18q-78 0 -136.5 58.5z" />
    <glyph glyph-name="kappa" unicode="&#x3ba;" horiz-adv-x="965" 
d="M438 457l-114 -120v-337h-189v991h189v-413l385 413h233l-371 -402l408 -589h-234z" />
    <glyph glyph-name="lambda" unicode="&#x3bb;" horiz-adv-x="907" 
d="M694 0l-238 741l-241 -741h-207l352 993l-49 131q-16 46 -38.5 65t-59.5 19h-66v166q32 6 72 6q104 0 163 -42.5t91 -131.5l426 -1206h-205z" />
    <glyph glyph-name="uni03BC" unicode="&#x3bc;" horiz-adv-x="1061" 
d="M135 991h189v-614q0 -73 27.5 -122t72.5 -73t98 -24q58 0 107 30t78.5 91t29.5 149v563h189v-991h-189v80q-97 -94 -215 -94q-58 0 -114.5 19.5t-83.5 47.5v-422h-189v1360z" />
    <glyph glyph-name="nu" unicode="&#x3bd;" horiz-adv-x="911" 
d="M901 991l-336 -991h-219l-336 991h207l241 -777l238 777h205z" />
    <glyph glyph-name="xi" unicode="&#x3be;" horiz-adv-x="909" 
d="M636 -215q19 59 19 98q0 54 -28 78.5t-99 28.5q-115 10 -216 55t-167.5 138.5t-66.5 238.5q0 130 61 223.5t160 136.5q-71 35 -117.5 110.5t-46.5 168.5q0 94 49 172t136.5 124t199.5 46q110 0 191 -41t126 -113.5t50 -165.5h-191q-6 75 -47.5 114.5t-128.5 39.5
q-96 0 -146 -51.5t-50 -132.5q0 -50 22.5 -96t68 -75.5t109.5 -29.5h43v-172h-57q-122 0 -183 -66.5t-61 -183.5q0 -119 78.5 -186.5t218.5 -81.5q152 -17 217.5 -79.5t65.5 -170.5q0 -42 -17 -104t-59 -177h-197q44 95 63 154z" />
    <glyph glyph-name="omicron" unicode="&#x3bf;" horiz-adv-x="1026" 
d="M276 44q-99 62 -151.5 179.5t-52.5 280.5q0 155 56.5 269.5t157 175.5t230.5 61q133 0 232.5 -65t152.5 -180t53 -261q0 -162 -54.5 -279.5t-154 -180t-233.5 -62.5q-137 0 -236 62zM701.5 241q62.5 85 62.5 261q0 158 -64.5 246t-185.5 88q-118 0 -185 -84.5t-67 -249.5
q0 -177 63 -261.5t189 -84.5q125 0 187.5 85z" />
    <glyph glyph-name="pi" unicode="&#x3c0;" horiz-adv-x="1257" 
d="M997 819v-575q0 -38 10.5 -56t29.5 -23t55 -5h36v-160q-35 -10 -84 -10q-110 0 -172.5 58t-62.5 202v569h-389v-819h-189v819h-161v172h1081v-172h-154z" />
    <glyph glyph-name="rho" unicode="&#x3c1;" horiz-adv-x="1038" 
d="M771 942q94 -64 144 -179t50 -265q0 -151 -49 -268t-142.5 -182.5t-220.5 -65.5q-74 0 -137 29.5t-109 84.5v-465h-188v873q0 155 52 268t149 173.5t227 60.5t224 -64zM774 502q0 158 -58.5 243.5t-172.5 85.5q-116 0 -179 -85t-63 -244q0 -177 66 -262.5t174 -85.5
q233 0 233 348z" />
    <glyph glyph-name="uni03C2" unicode="&#x3c2;" horiz-adv-x="965" 
d="M644 -209.5q18 55.5 18 84.5q0 40 -8.5 62.5t-35 37t-79.5 21.5q-131 16 -236 75.5t-167 166t-62 258.5q0 159 56 275t157 177.5t233 61.5q112 0 197 -43t136 -119t67 -176h-193q-17 78 -69 121t-140 43q-120 0 -187 -86t-67 -254q0 -152 82 -233.5t256 -102.5
q129 -17 188.5 -80.5t61.5 -171.5q0 -46 -17.5 -108t-60.5 -169h-192q44 104 62 159.5z" />
    <glyph glyph-name="sigma" unicode="&#x3c3;" horiz-adv-x="1047" 
d="M993 817h-139q48 -63 73 -142.5t25 -170.5q0 -162 -53.5 -279.5t-152 -180t-232.5 -62.5q-136 0 -235 62t-152 179.5t-53 280.5q0 155 55.5 269.5t155 175.5t229.5 61q47 0 117 -19h362v-174zM700 241q62 85 62 261q0 157 -63.5 245.5t-184.5 88.5q-118 0 -184 -85
t-66 -249q0 -176 62.5 -261t187.5 -85q124 0 186 85z" />
    <glyph glyph-name="tau" unicode="&#x3c4;" horiz-adv-x="907" 
d="M870 819h-311v-819h-188v819h-334v172h833v-172z" />
    <glyph glyph-name="upsilon" unicode="&#x3c5;" horiz-adv-x="1036" 
d="M312.5 33.5q-89.5 45.5 -139.5 132.5t-50 207v618h188v-616q0 -110 58 -163.5t149 -53.5q94 0 150.5 53t56.5 164v616h188v-618q0 -118 -49 -205t-138.5 -133.5t-207.5 -46.5q-116 0 -205.5 45.5z" />
    <glyph glyph-name="phi" unicode="&#x3c6;" horiz-adv-x="1278" 
d="M1143.5 257q-56.5 -113 -163 -181.5t-253.5 -85.5v-359h-188v358q-144 16 -249 84.5t-160.5 182t-55.5 262.5q0 148 51.5 258.5t147.5 170t225 59.5v-172q-116 0 -175 -79.5t-59 -236.5q0 -165 66 -251t209 -105v506q0 97 32 174t94.5 120.5t151.5 43.5q115 0 202 -61
t134 -171.5t47 -255.5q0 -148 -56.5 -261zM942 267q68 86 68 251q0 100 -24.5 171.5t-66.5 108t-94 36.5q-49 0 -73.5 -42.5t-24.5 -117.5v-512q147 19 215 105z" />
    <glyph glyph-name="chi" unicode="&#x3c7;" horiz-adv-x="967" 
d="M589 311l376 -680h-220l-262 497l-262 -497h-219l375 681l-375 679h221l260 -497l260 497h222z" />
    <glyph glyph-name="psi" unicode="&#x3c8;" horiz-adv-x="1282" 
d="M1159 991v-487q0 -150 -54.5 -263t-151 -177t-222.5 -74v-359h-188v359q-125 10 -222 74.5t-151.5 177t-54.5 262.5v487h188v-491q0 -151 65 -236t175 -100v827h188v-826q111 14 175.5 98.5t64.5 236.5v491h188z" />
    <glyph glyph-name="omega" unicode="&#x3c9;" horiz-adv-x="1298" 
d="M1121 874.5q96 -135.5 96 -380.5q0 -176 -47 -291t-121 -168t-158 -53q-83 0 -146.5 37t-95.5 105q-32 -69 -95 -105.5t-146 -36.5q-84 0 -158 53t-121 168t-47 291q0 245 96 380.5t295 135.5v-174q-81 0 -124.5 -39.5t-60 -115.5t-16.5 -202q0 -173 41 -249t119 -76
q56 0 89.5 40t33.5 105v377h188v-377q0 -65 33.5 -105t89.5 -40q79 0 119.5 76t40.5 249q0 126 -16.5 202t-60 115.5t-124.5 39.5v174q200 0 296 -135.5z" />
    <glyph glyph-name="iotadieresis" unicode="&#x3ca;" horiz-adv-x="471" 
d="M187.5 50.5q-58.5 58.5 -58.5 209.5v731h188v-735q0 -55 16.5 -73.5t51.5 -18.5h35v-154q-47 -18 -96 -18q-78 0 -136.5 58.5zM-36 1380h178v-221h-178v221zM333 1380h180v-221h-180v221z" />
    <glyph glyph-name="upsilondieresis" unicode="&#x3cb;" horiz-adv-x="1036" 
d="M312.5 33.5q-89.5 45.5 -139.5 132.5t-50 207v618h188v-616q0 -110 58 -163.5t149 -53.5q94 0 150.5 53t56.5 164v616h188v-618q0 -118 -49 -205t-138.5 -133.5t-207.5 -46.5q-116 0 -205.5 45.5zM244 1380h178v-221h-178v221zM613 1380h180v-221h-180v221z" />
    <glyph glyph-name="omicrontonos" unicode="&#x3cc;" horiz-adv-x="1026" 
d="M276 44q-99 62 -151.5 179.5t-52.5 280.5q0 155 56.5 269.5t157 175.5t230.5 61q133 0 232.5 -65t152.5 -180t53 -261q0 -162 -54.5 -279.5t-154 -180t-233.5 -62.5q-137 0 -236 62zM701.5 241q62.5 85 62.5 261q0 158 -64.5 246t-185.5 88q-118 0 -185 -84.5t-67 -249.5
q0 -177 63 -261.5t189 -84.5q125 0 187.5 85zM422 1380h201l-45 -282h-156v282z" />
    <glyph glyph-name="upsilontonos" unicode="&#x3cd;" horiz-adv-x="1036" 
d="M312.5 33.5q-89.5 45.5 -139.5 132.5t-50 207v618h188v-616q0 -110 58 -163.5t149 -53.5q94 0 150.5 53t56.5 164v616h188v-618q0 -118 -49 -205t-138.5 -133.5t-207.5 -46.5q-116 0 -205.5 45.5zM426 1380h201l-45 -282h-156v282z" />
    <glyph glyph-name="omegatonos" unicode="&#x3ce;" horiz-adv-x="1298" 
d="M1121 874.5q96 -135.5 96 -380.5q0 -176 -47 -291t-121 -168t-158 -53q-83 0 -146.5 37t-95.5 105q-32 -69 -95 -105.5t-146 -36.5q-84 0 -158 53t-121 168t-47 291q0 245 96 380.5t295 135.5v-174q-81 0 -124.5 -39.5t-60 -115.5t-16.5 -202q0 -173 41 -249t119 -76
q56 0 89.5 40t33.5 105v377h188v-377q0 -65 33.5 -105t89.5 -40q79 0 119.5 76t40.5 249q0 126 -16.5 202t-60 115.5t-124.5 39.5v174q200 0 296 -135.5zM557 1380h201l-45 -282h-156v282z" />
    <glyph glyph-name="uni03D0" unicode="&#x3d0;" horiz-adv-x="1071" 
d="M922.5 656.5q62.5 -93.5 62.5 -236.5q0 -131 -61 -230.5t-166 -153.5t-234 -54q-123 0 -213 50t-139 150t-49 246v553q0 138 52.5 233t143.5 142t205 47t198.5 -44t129.5 -122t45 -176q0 -94 -41 -164t-118 -107q122 -40 184.5 -133.5zM680.5 188q57.5 34 87 95t29.5 141
q0 120 -67 188t-191 68h-54v170h37q59 0 101.5 29t64 76t21.5 100q0 75 -45.5 125.5t-135.5 50.5q-62 0 -111 -26.5t-77.5 -80.5t-28.5 -133v-579q0 -125 61 -191.5t171 -66.5q80 0 137.5 34z" />
    <glyph glyph-name="uni0401" unicode="&#x401;" horiz-adv-x="1157" 
d="M1096 190v-190h-942v1380h936v-190h-734v-391h609v-191h-609v-418h740zM338 1769h178v-221h-178v221zM707 1769h180v-221h-180v221z" />
    <glyph glyph-name="uni0402" unicode="&#x402;" horiz-adv-x="1452" 
d="M1178 942q97 -68 146.5 -187.5t49.5 -271.5q0 -154 -50.5 -267t-146.5 -173.5t-229 -60.5q-41 0 -65 4v172h20q127 0 199 79t72 246q0 188 -83 265t-198 77q-70 0 -125.5 -27t-88 -82.5t-32.5 -137.5v-578h-203v1190h-409v190h1018v-190h-406v-284q49 48 127.5 76
t167.5 28q139 0 236 -68z" />
    <glyph glyph-name="uni0403" unicode="&#x403;" horiz-adv-x="1061" 
d="M152 1380h913v-190h-711v-1190h-202v1380zM601 1769h223l-230 -264h-192z" />
    <glyph glyph-name="uni0404" unicode="&#x404;" horiz-adv-x="1272" 
d="M1219 426q-22 -132 -95 -233.5t-193.5 -158.5t-279.5 -57q-180 0 -309 87.5t-196.5 249t-67.5 378.5t68.5 377t200 247t315.5 87q153 0 269.5 -56.5t187.5 -155.5t93 -226h-208q-27 115 -115 182t-227 67q-121 0 -199.5 -44t-120.5 -135.5t-54 -235.5h597v-191h-600
q15 -218 114 -331t263 -113q141 0 228.5 67.5t121.5 194.5h207z" />
    <glyph glyph-name="uni0405" unicode="&#x405;" horiz-adv-x="1180" 
d="M311.5 32q-110.5 55 -171.5 155t-70 233h211q6 -124 81 -192t218 -68q93 0 164 27t110 77t39 117q0 73 -44 118.5t-110 70.5t-180 54q-142 37 -229.5 73t-149 111.5t-61.5 201.5q0 121 59 210t164.5 136t243.5 47q144 0 252 -49.5t169 -143.5t66 -223h-209
q-1 113 -76.5 173.5t-203.5 60.5q-78 0 -137.5 -25t-92 -70t-32.5 -102q0 -65 41 -105t102.5 -62.5t171.5 -50.5q146 -37 238 -75t157.5 -118.5t65.5 -217.5q0 -127 -64.5 -221.5t-183 -145.5t-275.5 -51q-153 0 -263.5 55z" />
    <glyph glyph-name="uni0406" unicode="&#x406;" horiz-adv-x="510" 
d="M154 1380h202v-1380h-202v1380z" />
    <glyph glyph-name="uni0407" unicode="&#x407;" horiz-adv-x="510" 
d="M154 1380h202v-1380h-202v1380zM-18 1769h178v-221h-178v221zM351 1769h180v-221h-180v221z" />
    <glyph glyph-name="uni0408" unicode="&#x408;" horiz-adv-x="928" 
d="M174 31.5q-88 54.5 -133.5 145t-50.5 198.5h203q2 -54 25.5 -102t66.5 -77.5t102 -29.5q95 0 146 61t51 160v993h202v-993q0 -112 -44.5 -205.5t-134 -149t-220.5 -55.5q-125 0 -213 54.5z" />
    <glyph glyph-name="uni0409" unicode="&#x409;" horiz-adv-x="1958" 
d="M1699.5 761q98.5 -62 146.5 -155.5t48 -189.5q0 -100 -47.5 -195.5t-146 -158t-242.5 -62.5h-559v1190h-453v-825q0 -111 -39 -197.5t-119 -136t-200 -49.5q-46 0 -72 8v176h31q98 0 147.5 51t49.5 150v1013h858v-557h356q143 0 241.5 -62zM1589 222.5q52 32.5 76.5 84
t24.5 109.5q0 56 -24.5 105.5t-76.5 80.5t-131 31h-356v-443h356q79 0 131 32.5z" />
    <glyph glyph-name="uni040A" unicode="&#x40a;" horiz-adv-x="2003" 
d="M1744.5 761q98.5 -62 146.5 -155.5t48 -189.5q0 -100 -47.5 -195.5t-146 -158t-242.5 -62.5h-559v608h-590v-608h-202v1380h202v-581h590v581h203v-557h356q143 0 241.5 -62zM1633.5 223.5q52.5 33.5 77 85.5t24.5 107q0 54 -24.5 103.5t-77 81.5t-130.5 32h-356v-443
h356q78 0 130.5 33.5z" />
    <glyph glyph-name="uni040B" unicode="&#x40b;" horiz-adv-x="1423" 
d="M1123 960q80 -50 123.5 -138.5t43.5 -200.5v-621h-203v586q0 114 -56.5 176.5t-147.5 62.5q-102 0 -167.5 -60.5t-68.5 -186.5v-578h-203v1190h-409v190h1018v-190h-406v-293q49 53 127.5 83t163.5 30q105 0 185 -50z" />
    <glyph glyph-name="uni040C" unicode="&#x40c;" horiz-adv-x="1237" 
d="M563 685l-207 -228v-457h-202v1380h202v-661l594 661h258l-504 -551l553 -829h-241zM699 1769h223l-230 -264h-192z" />
    <glyph glyph-name="uni040E" unicode="&#x40e;" horiz-adv-x="1102" 
d="M1106 1380l-461 -1095q-34 -82 -71.5 -143.5t-112 -111.5t-187.5 -50q-47 0 -71 8v176h39q59 0 98.5 17.5t63.5 46.5t45 73l-453 1079h219l338 -841l340 841h213zM427 1530q-59 33 -93.5 92t-34.5 133h143q0 -53 32 -87t81 -34q51 0 82 34t31 87h143q0 -74 -34.5 -133
t-93.5 -92t-128 -33t-128 33z" />
    <glyph glyph-name="uni040F" unicode="&#x40f;" horiz-adv-x="1319" 
d="M1167 0h-393v-229h-203v229h-419v1380h202v-1190h611v1190h202v-1380z" />
    <glyph glyph-name="uni0410" unicode="&#x410;" horiz-adv-x="1225" 
d="M896 344h-570l-127 -344h-207l524 1380h195l522 -1380h-207zM824 532l-218 575l-211 -575h429z" />
    <glyph glyph-name="uni0411" unicode="&#x411;" horiz-adv-x="1231" 
d="M972.5 761q98.5 -62 146.5 -155.5t48 -189.5q0 -100 -47.5 -195.5t-146 -158t-242.5 -62.5h-579v1380h913v-190h-711v-367h377q143 0 241.5 -62zM862 222.5q52 32.5 76.5 84t24.5 109.5q0 55 -24.5 104.5t-77 81t-130.5 31.5h-377v-443h377q79 0 131 32.5z" />
    <glyph glyph-name="uni0412" unicode="&#x412;" horiz-adv-x="1278" 
d="M1143.5 601q56.5 -87 56.5 -208q0 -116 -55 -205.5t-155 -138.5t-232 -49h-604v1380h587q125 0 219.5 -44.5t146.5 -126.5t52 -189q0 -105 -45.5 -183.5t-123.5 -114.5q97 -34 153.5 -121zM896 1137.5q-60 52.5 -165 52.5h-375v-387h396q95 0 149.5 51.5t54.5 138.5
q0 92 -60 144.5zM928 246.5q65 56.5 65 154.5q0 104 -68 164t-186 60h-383v-435h392q115 0 180 56.5z" />
    <glyph glyph-name="uni0413" unicode="&#x413;" horiz-adv-x="1061" 
d="M152 1380h913v-190h-711v-1190h-202v1380z" />
    <glyph glyph-name="uni0414" unicode="&#x414;" horiz-adv-x="1356" 
d="M1331 190v-419h-203v229h-917v-229h-203v419h112q79 75 121.5 207.5t59 332t16.5 509.5v141h861v-1190h153zM502.5 731.5q-15.5 -185.5 -52 -315.5t-100.5 -226h625v1002h-457q0 -275 -15.5 -460.5z" />
    <glyph glyph-name="uni0415" unicode="&#x415;" horiz-adv-x="1157" 
d="M1096 190v-190h-942v1380h936v-190h-734v-391h609v-191h-609v-418h740z" />
    <glyph glyph-name="uni0416" unicode="&#x416;" horiz-adv-x="2009" 
d="M1313 684l-207 -227v-457h-203v457l-207 228l-452 -685h-242l554 830l-505 550h258l594 -660v660h203v-660l594 660h258l-505 -550l554 -830h-242z" />
    <glyph glyph-name="uni0417" unicode="&#x417;" horiz-adv-x="1157" 
d="M996 600q57 -83 57 -188q0 -100 -53 -200.5t-163.5 -167.5t-271.5 -67q-155 0 -269.5 63t-176 165t-66.5 215h211q13 -109 85.5 -182.5t209.5 -73.5q87 0 152.5 31.5t101 88t35.5 128.5q0 70 -34.5 122t-97 80.5t-143.5 28.5h-88v168h80q69 0 124 26.5t85.5 74
t30.5 108.5q0 58 -29 102.5t-83.5 69.5t-129.5 25q-114 0 -180.5 -60t-77.5 -162h-209q10 108 64.5 201t157.5 150t249 57q138 0 238.5 -51t152.5 -136t52 -186q0 -96 -46 -172.5t-117 -122.5q92 -52 149 -135z" />
    <glyph glyph-name="uni0418" unicode="&#x418;" horiz-adv-x="1325" 
d="M1171 1380v-1380h-202v1023l-613 -1023h-202v1380h202v-1018l613 1018h202z" />
    <glyph glyph-name="uni0419" unicode="&#x419;" horiz-adv-x="1325" 
d="M1171 1380v-1380h-202v1023l-613 -1023h-202v1380h202v-1018l613 1018h202zM574 1530q-59 33 -93.5 92t-34.5 133h143q0 -53 32 -87t81 -34q51 0 82 34t31 87h143q0 -74 -34.5 -133t-93.5 -92t-128 -33t-128 33z" />
    <glyph glyph-name="uni041A" unicode="&#x41a;" horiz-adv-x="1237" 
d="M563 685l-207 -228v-457h-202v1380h202v-661l594 661h258l-504 -551l553 -829h-241z" />
    <glyph glyph-name="uni041B" unicode="&#x41b;" horiz-adv-x="1274" 
d="M16 -12v174h31q98 0 147.5 51.5t49.5 151.5v1015h878v-1380h-202v1190h-474v-828q0 -111 -38.5 -197t-119 -135.5t-200.5 -49.5q-46 0 -72 8z" />
    <glyph glyph-name="uni041C" unicode="&#x41c;" horiz-adv-x="1610" 
d="M1456 1380v-1380h-203v990l-366 -851h-164l-367 853v-992h-202v1380h225l430 -997l422 997h225z" />
    <glyph glyph-name="uni041D" unicode="&#x41d;" horiz-adv-x="1323" 
d="M1169 1380v-1380h-202v608h-611v-608h-202v1380h202v-581h611v581h202z" />
    <glyph glyph-name="uni041E" unicode="&#x41e;" horiz-adv-x="1321" 
d="M346.5 62q-130.5 85 -199.5 246t-69 384q0 222 69 382t199.5 244.5t312.5 84.5t313.5 -84.5t201 -244.5t69.5 -382q0 -223 -69.5 -383.5t-201 -246t-313.5 -85.5t-312.5 85zM942.5 295.5q95.5 133.5 95.5 392.5q0 261 -96 396t-283 135q-185 0 -280.5 -133.5
t-95.5 -393.5q0 -261 96 -395.5t283 -134.5q185 0 280.5 133.5z" />
    <glyph glyph-name="uni041F" unicode="&#x41f;" horiz-adv-x="1319" 
d="M152 1380h1015v-1380h-202v1190h-611v-1190h-202v1380z" />
    <glyph glyph-name="uni0420" unicode="&#x420;" horiz-adv-x="1233" 
d="M957.5 1326.5q99.5 -53.5 155.5 -147.5t56 -212t-56 -211t-155.5 -146t-224.5 -53h-377v-557h-202v1380h579q125 0 224.5 -53.5zM852.5 776q52.5 28 82.5 78t30 113q0 64 -30 114.5t-82.5 79.5t-119.5 29h-377v-442h377q67 0 119.5 28z" />
    <glyph glyph-name="uni0421" unicode="&#x421;" horiz-adv-x="1272" 
d="M343.5 64.5q-130.5 87.5 -198 248.5t-67.5 379q0 217 68.5 377t200 247t315.5 87q150 0 266 -56.5t185.5 -156t88.5 -225.5h-209q-23 116 -109.5 185t-221.5 69q-189 0 -284 -135.5t-95 -391.5q0 -168 44.5 -287t129.5 -181t205 -62q137 0 221.5 68.5t117.5 195.5h207
q-20 -131 -91.5 -232.5t-189 -159t-268.5 -57.5q-185 0 -315.5 87.5z" />
    <glyph glyph-name="uni0422" unicode="&#x422;" horiz-adv-x="1079" 
d="M1049 1190h-406v-1190h-203v1190h-409v190h1018v-190z" />
    <glyph glyph-name="uni0423" unicode="&#x423;" horiz-adv-x="1102" 
d="M1106 1380l-461 -1095q-34 -82 -71.5 -143.5t-112 -111.5t-187.5 -50q-47 0 -71 8v176h39q59 0 98.5 17.5t63.5 46.5t45 73l-453 1079h219l338 -841l340 841h213z" />
    <glyph glyph-name="uni0424" unicode="&#x424;" horiz-adv-x="1462" 
d="M1330.5 396.5q-68.5 -130.5 -196.5 -208.5t-305 -95v-195h-200v195q-176 17 -303 95t-195 208.5t-68 301.5t68 300.5t195 207.5t303 96v187h200v-186q176 -16 304.5 -94t197 -208.5t68.5 -302.5q0 -171 -68.5 -301.5zM1097.5 420q96.5 108 96.5 278q0 114 -43.5 202
t-126 142.5t-195.5 70.5v-827q172 26 268.5 134zM363.5 418.5q95.5 -108.5 265.5 -132.5v826q-112 -17 -193.5 -72t-124.5 -142t-43 -200q0 -171 95.5 -279.5z" />
    <glyph glyph-name="uni0425" unicode="&#x425;" horiz-adv-x="1112" 
d="M883 0l-328 536l-326 -536h-229l431 704l-419 676h230l317 -519l305 519h232l-411 -683l427 -697h-229z" />
    <glyph glyph-name="uni0426" unicode="&#x426;" horiz-adv-x="1356" 
d="M1331 190v-419h-203v229h-976v1380h202v-1190h611v1190h202v-1190h164z" />
    <glyph glyph-name="uni0427" unicode="&#x427;" horiz-adv-x="1251" 
d="M1100 1380v-1380h-203v557h-350q-124 0 -225 51.5t-159.5 147.5t-58.5 225v399h203v-399q0 -107 64.5 -170t175.5 -63h350v632h203z" />
    <glyph glyph-name="uni0428" unicode="&#x428;" horiz-adv-x="1688" 
d="M1536 1380v-1380h-1384v1380h202v-1190h389v1190h201v-1190h389v1190h203z" />
    <glyph glyph-name="uni0429" unicode="&#x429;" horiz-adv-x="1722" 
d="M1698 190v-419h-203v229h-1343v1380h202v-1190h389v1190h201v-1190h389v1190h203v-1190h162z" />
    <glyph glyph-name="uni042A" unicode="&#x42a;" horiz-adv-x="1329" 
d="M1071.5 761q98.5 -62 146.5 -155.5t48 -189.5q0 -100 -47.5 -195.5t-146.5 -158t-243 -62.5h-579v1190h-275v190h478v-557h376q144 0 242.5 -62zM959.5 223q52.5 33 77 85t24.5 108q0 55 -24.5 104.5t-77 81t-130.5 31.5h-376v-443h376q78 0 130.5 33z" />
    <glyph glyph-name="uni042B" unicode="&#x42b;" horiz-adv-x="1737" 
d="M972.5 761q98.5 -62 146.5 -155.5t48 -189.5q0 -100 -47.5 -195.5t-146 -158t-242.5 -62.5h-579v1380h202v-557h377q143 0 241.5 -62zM1585 1380v-1380h-203v1380h203zM861.5 223q52.5 33 77 85t24.5 108q0 53 -24.5 102.5t-77 82t-130.5 32.5h-377v-443h377
q78 0 130.5 33z" />
    <glyph glyph-name="uni042C" unicode="&#x42c;" horiz-adv-x="1231" 
d="M972.5 761q98.5 -62 146.5 -155.5t48 -189.5q0 -100 -47.5 -195.5t-146 -158t-242.5 -62.5h-579v1380h202v-557h377q143 0 241.5 -62zM861.5 223q52.5 33 77 85t24.5 108q0 53 -24.5 102.5t-77 82t-130.5 32.5h-377v-443h377q78 0 130.5 33z" />
    <glyph glyph-name="uni042D" unicode="&#x42d;" horiz-adv-x="1272" 
d="M925.5 1316q131.5 -87 200 -247t68.5 -377t-67.5 -378.5t-196.5 -249t-309 -87.5q-159 0 -279.5 57t-193.5 158.5t-95 233.5h207q34 -127 121.5 -194.5t228.5 -67.5q164 0 263 113t114 331h-600v191h597q-12 144 -54 235.5t-120.5 135.5t-199.5 44q-139 0 -227 -67
t-115 -182h-208q22 127 93 226t187.5 155.5t269.5 56.5q184 0 315.5 -87z" />
    <glyph glyph-name="uni042E" unicode="&#x42e;" horiz-adv-x="1810" 
d="M1464.5 1318.5q131.5 -84.5 201 -244.5t69.5 -382q0 -223 -69.5 -383.5t-201 -246t-313.5 -85.5q-170 0 -296 75t-198.5 216.5t-84.5 339.5h-218v-608h-202v1380h202v-581h219q16 190 89 326t197.5 207t291.5 71q182 0 313.5 -84.5zM1434.5 295q95.5 133 95.5 393
q0 261 -96 396t-283 135q-186 0 -281.5 -133.5t-95.5 -393.5q0 -261 96 -395.5t283 -134.5q186 0 281.5 133z" />
    <glyph glyph-name="uni042F" unicode="&#x42f;" horiz-adv-x="1280" 
d="M1126 1380v-1380h-202v557h-320l-319 -557h-232l341 586q-128 44 -203.5 146t-75.5 237q0 118 56 211.5t155.5 146.5t224.5 53h575zM924 748v442h-373q-107 0 -169.5 -60t-62.5 -163q0 -102 62.5 -160.5t169.5 -58.5h373z" />
    <glyph glyph-name="uni0430" unicode="&#x430;" horiz-adv-x="1032" 
d="M981 164v-154q-40 -18 -94 -18q-65 0 -109.5 30.5t-62.5 93.5q-50 -66 -125.5 -100t-163.5 -34q-89 0 -167 31t-127.5 100.5t-49.5 179.5q0 116 59.5 180t157.5 87.5t233 23.5h154v51q0 98 -46.5 152.5t-156.5 54.5q-161 0 -182 -127h-197q20 143 121.5 219t266.5 76
q196 0 288 -105t92 -282v-369q0 -53 18.5 -71.5t65.5 -18.5h25zM589.5 184q52.5 37 74.5 94t22 121v35h-156q-100 0 -157 -15t-80 -44.5t-23 -75.5q0 -72 48 -112t135 -40q84 0 136.5 37z" />
    <glyph glyph-name="uni0431" unicode="&#x431;" horiz-adv-x="1026" 
d="M750.5 948q93.5 -62 147.5 -178.5t54 -273.5q0 -158 -54 -274t-154.5 -178t-235.5 -62q-152 0 -247.5 68.5t-140 208.5t-44.5 359q0 380 118 544t302 173l88 4q72 3 80 62h188v-19q0 -43 -25.5 -90t-84 -82t-150.5 -39l-94 -4q-104 -5 -155 -82t-60 -182q101 107 258 107
q116 0 209.5 -62zM699 242q63 86 63 252q0 164 -62 253t-180 89q-122 0 -189 -85t-67 -251q0 -179 60 -261.5t188 -82.5q124 0 187 86z" />
    <glyph glyph-name="uni0432" unicode="&#x432;" horiz-adv-x="1044" 
d="M909.5 415.5q46.5 -60.5 46.5 -134.5q0 -86 -44 -149t-127 -97.5t-197 -34.5h-453v991h449q116 0 195.5 -36t119 -96.5t39.5 -133.5q0 -153 -164 -213q89 -36 135.5 -96.5zM703.5 792.5q-41.5 26.5 -123.5 26.5h-256v-221h266q80 0 117.5 32t37.5 87q0 49 -41.5 75.5z
M717 206q49 32 49 93q0 56 -44 91.5t-132 35.5h-266v-252h264q80 0 129 32z" />
    <glyph glyph-name="uni0433" unicode="&#x433;" horiz-adv-x="852" 
d="M844 819h-520v-819h-189v991h709v-172z" />
    <glyph glyph-name="uni0434" unicode="&#x434;" horiz-adv-x="1145" 
d="M1104 172v-401h-186v231h-719v-231h-187v401h119q46 64 68 139.5t30.5 206.5t8.5 383v90h729v-819h137zM417.5 485.5q-6.5 -113.5 -25.5 -182.5t-59 -131h445v647h-354q0 -220 -6.5 -333.5z" />
    <glyph glyph-name="uni0435" unicode="&#x435;" horiz-adv-x="1014" 
d="M940 454q-2 -20 -2 -22h-671q13 -142 79.5 -209t159.5 -67q83 0 138.5 35t82.5 110h193q-43 -151 -147 -235t-267 -84q-130 0 -228 60.5t-152 175.5t-54 274q0 161 58 278.5t160 178.5t230 61q134 0 229 -65.5t144 -178.5t49 -256q0 -36 -2 -56zM347.5 774
q-60.5 -64 -77.5 -180h475q-8 111 -65 177.5t-168 66.5q-104 0 -164.5 -64z" />
    <glyph glyph-name="uni0436" unicode="&#x436;" horiz-adv-x="1473" 
d="M1253 0l-307 457l-115 -119v-338h-190v338l-114 119l-308 -457h-233l408 589l-371 402h233l385 -414v414h190v-414l386 414h233l-371 -402l408 -589h-234z" />
    <glyph glyph-name="uni0437" unicode="&#x437;" horiz-adv-x="954" 
d="M826 418.5q40 -58.5 40 -129.5q0 -94 -49 -163.5t-137 -106.5t-203 -37q-106 0 -194.5 40t-147.5 115t-78 178h192q16 -74 77.5 -117.5t150.5 -43.5q86 0 142 37.5t56 105.5q0 61 -53 96t-143 35h-35v170h29q92 0 135 30t43 83q0 33 -21 62t-61.5 47t-95.5 18
q-88 0 -133.5 -37t-63.5 -115h-192q25 151 123.5 237.5t263.5 86.5q115 0 199.5 -41.5t128.5 -108.5t44 -143q0 -72 -31 -121t-99 -83q73 -36 113 -94.5z" />
    <glyph glyph-name="uni0438" unicode="&#x438;" horiz-adv-x="1081" 
d="M946 991v-991h-188v679l-434 -679h-189v991h189v-690l434 690h188z" />
    <glyph glyph-name="uni0439" unicode="&#x439;" horiz-adv-x="1081" 
d="M946 991v-991h-188v679l-434 -679h-189v991h189v-690l434 690h188zM413 1141q-59 33 -93.5 92t-34.5 133h143q0 -53 32 -87t81 -34q51 0 82 34t31 87h143q0 -74 -34.5 -133t-93.5 -92t-128 -33t-128 33z" />
    <glyph glyph-name="uni043A" unicode="&#x43a;" horiz-adv-x="965" 
d="M438 457l-114 -120v-337h-189v991h189v-413l385 413h233l-371 -402l408 -589h-234z" />
    <glyph glyph-name="uni043B" unicode="&#x43b;" 
d="M954 991v-991h-188v819h-373v-538q0 -155 -76 -221t-192 -66q-40 0 -68 10v160h33q115 0 115 106v721h749z" />
    <glyph glyph-name="uni043C" unicode="&#x43c;" horiz-adv-x="1305" 
d="M1169 991v-991h-188v664l-258 -564h-141l-258 561v-661h-189v991h201l317 -679l316 679h200z" />
    <glyph glyph-name="uni043D" unicode="&#x43d;" horiz-adv-x="1081" 
d="M946 991v-991h-188v442h-434v-442h-189v991h189v-377h434v377h188z" />
    <glyph glyph-name="uni043E" unicode="&#x43e;" horiz-adv-x="1026" 
d="M276 44q-99 62 -151.5 179.5t-52.5 280.5q0 155 56.5 269.5t157 175.5t230.5 61q133 0 232.5 -65t152.5 -180t53 -261q0 -162 -54.5 -279.5t-154 -180t-233.5 -62.5q-137 0 -236 62zM701.5 241q62.5 85 62.5 261q0 158 -64.5 246t-185.5 88q-118 0 -185 -84.5t-67 -249.5
q0 -177 63 -261.5t189 -84.5q125 0 187.5 85z" />
    <glyph glyph-name="uni043F" unicode="&#x43f;" horiz-adv-x="1061" 
d="M926 991v-991h-189v819h-413v-819h-189v991h791z" />
    <glyph glyph-name="uni0440" unicode="&#x440;" horiz-adv-x="1053" 
d="M795.5 946.5q90.5 -63.5 138 -178.5t47.5 -268q0 -156 -48.5 -273t-140 -181t-217.5 -64q-79 0 -142.5 26t-108.5 78v-455h-189v1360h182l3 -85q46 51 111.5 77.5t146.5 26.5q127 0 217.5 -63.5zM732 241q59 89 59 261q0 338 -234 338q-118 0 -179 -86.5t-61 -255.5
q0 -170 61 -258t177 -88q118 0 177 89z" />
    <glyph glyph-name="uni0441" unicode="&#x441;" horiz-adv-x="979" 
d="M275 43.5q-98 61.5 -150.5 176t-52.5 269.5q0 162 56 279.5t156 179.5t230 62q108 0 194 -43t139.5 -119.5t70.5 -175.5h-193q-20 78 -71 121t-136 43q-121 0 -188.5 -86t-67.5 -256q0 -169 67 -253.5t189 -84.5q89 0 142.5 43.5t68.5 122.5h193q-18 -105 -74.5 -181.5
t-143.5 -117.5t-196 -41q-135 0 -233 61.5z" />
    <glyph glyph-name="uni0442" unicode="&#x442;" horiz-adv-x="907" 
d="M870 819h-311v-819h-188v819h-334v172h833v-172z" />
    <glyph glyph-name="uni0443" unicode="&#x443;" horiz-adv-x="913" 
d="M903 991l-418 -1190q-30 -88 -89.5 -131t-164.5 -43q-35 0 -71 6v168h71q39 0 58 19t35 63l39 106l-353 1002h207l245 -755l236 755h205z" />
    <glyph glyph-name="uni0444" unicode="&#x444;" horiz-adv-x="1655" 
d="M1391.5 945q90.5 -65 140 -181.5t49.5 -267.5q0 -150 -48.5 -266.5t-139 -182t-213.5 -65.5q-79 0 -144 28t-112 81v-460h-189v459q-98 -108 -256 -108q-125 0 -217 67t-141 184.5t-49 264.5q0 149 50 265.5t142.5 181.5t216.5 65q78 0 142.5 -26.5t111.5 -77.5v474h189
v-478q46 52 111.5 80t144.5 28q121 0 211.5 -65zM741 496q0 170 -60 255t-175 85q-120 0 -182 -88.5t-62 -253.5q0 -160 60.5 -249t183.5 -89q235 0 235 340zM1391 496q0 340 -238 340q-235 0 -235 -334q0 -172 61 -260t180 -88q232 0 232 342z" />
    <glyph glyph-name="uni0445" unicode="&#x445;" horiz-adv-x="956" 
d="M723 0l-242 369l-252 -369h-215l352 519l-321 472h221l215 -327l226 327h219l-331 -478l347 -513h-219z" />
    <glyph glyph-name="uni0446" unicode="&#x446;" horiz-adv-x="1083" 
d="M1063 172v-401h-186v229h-742v991h189v-819h413v819h189v-819h137z" />
    <glyph glyph-name="uni0447" unicode="&#x447;" horiz-adv-x="1018" 
d="M883 991v-991h-189v399h-235q-111 0 -194 44.5t-128 127.5t-45 195v225h189v-215q0 -99 51 -152t147 -53h215v420h189z" />
    <glyph glyph-name="uni0448" unicode="&#x448;" horiz-adv-x="1520" 
d="M1384 991v-991h-1249v991h189v-819h348v819h188v-819h336v819h188z" />
    <glyph glyph-name="uni0449" unicode="&#x449;" horiz-adv-x="1542" 
d="M1522 172v-401h-187v229h-1200v991h189v-819h348v819h188v-819h336v819h188v-819h138z" />
    <glyph glyph-name="uni044A" unicode="&#x44a;" 
d="M827 601q85 -42 131 -115t46 -164q0 -92 -46 -165t-131 -115t-198 -42h-449v819h-205v172h394v-348h260q113 0 198 -42zM767 212.5q46 40.5 46 109.5q0 72 -46.5 110.5t-139.5 38.5h-258v-299h270q82 0 128 40.5z" />
    <glyph glyph-name="uni044B" unicode="&#x44b;" horiz-adv-x="1458" 
d="M783 604q84 -39 129.5 -111.5t45.5 -170.5q0 -99 -45.5 -171.5t-129.5 -111.5t-199 -39h-449v991h189v-348h260q115 0 199 -39zM1323 991v-991h-188v991h188zM721.5 212q46.5 40 46.5 110q0 69 -50 109t-136 40h-258v-299h270q81 0 127.5 40z" />
    <glyph glyph-name="uni044C" unicode="&#x44c;" horiz-adv-x="1024" 
d="M782 601q85 -42 130.5 -115t45.5 -164q0 -92 -45.5 -165t-130.5 -115t-198 -42h-449v991h189v-348h260q113 0 198 -42zM722 212.5q46 40.5 46 109.5q0 72 -46.5 110.5t-139.5 38.5h-258v-299h270q82 0 128 40.5z" />
    <glyph glyph-name="uni044D" unicode="&#x44d;" horiz-adv-x="985" 
d="M698 948.5q101 -61.5 157 -177.5t56 -275q0 -160 -54.5 -276t-156 -177t-239.5 -61q-106 0 -190 40.5t-138.5 117t-71.5 182.5h193q15 -79 68 -122.5t141 -43.5q227 0 255 262h-329v176h326q-21 120 -84.5 181t-163.5 61q-88 0 -140 -43t-69 -121h-193q15 99 66 175.5
t136.5 119.5t197.5 43q132 0 233 -61.5z" />
    <glyph glyph-name="uni044E" unicode="&#x44e;" horiz-adv-x="1450" 
d="M1172.5 945q99.5 -65 152.5 -180t53 -261q0 -162 -54.5 -279.5t-154 -180t-233.5 -62.5q-129 0 -224 54.5t-149.5 158t-64.5 247.5h-172v-442h-189v991h189v-377h178q19 123 78.5 212.5t151.5 136.5t206 47q133 0 232.5 -65zM1125.5 241q62.5 85 62.5 261
q0 158 -64.5 246t-185.5 88q-118 0 -185 -84.5t-67 -249.5q0 -177 63 -261.5t189 -84.5q125 0 187.5 85z" />
    <glyph glyph-name="uni044F" unicode="&#x44f;" horiz-adv-x="1024" 
d="M920 991v-991h-189v348h-252l-203 -348h-210l232 381q-94 41 -148 119t-54 170q0 91 48.5 164t136 115t200.5 42h439zM731 518v301h-270q-82 0 -128 -40.5t-46 -108.5q0 -73 46.5 -112.5t139.5 -39.5h258z" />
    <glyph glyph-name="uni0451" unicode="&#x451;" horiz-adv-x="1014" 
d="M940 454q-2 -20 -2 -22h-671q13 -142 79.5 -209t159.5 -67q83 0 138.5 35t82.5 110h193q-43 -151 -147 -235t-267 -84q-130 0 -228 60.5t-152 175.5t-54 274q0 161 58 278.5t160 178.5t230 61q134 0 229 -65.5t144 -178.5t49 -256q0 -36 -2 -56zM347.5 774
q-60.5 -64 -77.5 -180h475q-8 111 -65 177.5t-168 66.5q-104 0 -164.5 -64zM236 1380h178v-221h-178v221zM605 1380h180v-221h-180v221z" />
    <glyph glyph-name="uni0452" unicode="&#x452;" horiz-adv-x="1071" 
d="M943.5 229.5q-49.5 -115.5 -141.5 -178.5t-214 -63q-25 0 -45 4v170h20q123 0 181.5 87.5t58.5 258.5q0 148 -62.5 237t-179.5 89q-118 0 -175.5 -83.5t-57.5 -254.5v-496h-187v1092h-135v147h135v141h189v-141h276v-147h-276v-194q49 53 116.5 80.5t161.5 27.5
q115 0 202.5 -66t135 -181.5t47.5 -258.5q0 -155 -49.5 -270.5z" />
    <glyph glyph-name="uni0453" unicode="&#x453;" horiz-adv-x="852" 
d="M844 819h-520v-819h-189v991h709v-172zM517 1380h223l-230 -264h-192z" />
    <glyph glyph-name="uni0454" unicode="&#x454;" horiz-adv-x="985" 
d="M924 322q-17 -106 -71.5 -182.5t-138.5 -117t-190 -40.5q-138 0 -239.5 61t-156 177t-54.5 276q0 159 56 275t157 177.5t233 61.5q112 0 197.5 -43t136.5 -119.5t66 -175.5h-193q-17 78 -69 121t-140 43q-100 0 -163.5 -61t-84.5 -181h326v-176h-329q28 -262 255 -262
q88 0 141 43.5t68 122.5h193z" />
    <glyph glyph-name="uni0455" unicode="&#x455;" horiz-adv-x="924" 
d="M258 20.5q-87 38.5 -134.5 112t-51.5 176.5h190q4 -81 56.5 -122.5t148.5 -41.5q63 0 108 17.5t68 47t23 64.5q0 40 -28 65.5t-71 40t-118 32.5q-108 27 -176.5 54.5t-117.5 85.5t-49 155q0 89 42.5 157.5t123.5 107t191 38.5q108 0 188.5 -37.5t125 -107.5t46.5 -167
h-190q-4 75 -50.5 111.5t-123.5 36.5q-79 0 -122.5 -35.5t-43.5 -87.5q0 -43 29 -70t73.5 -42.5t122.5 -34.5q106 -26 172.5 -52.5t114 -82.5t47.5 -150q0 -91 -46.5 -161t-134.5 -109t-208 -39q-118 0 -205 38.5z" />
    <glyph glyph-name="uni0456" unicode="&#x456;" horiz-adv-x="463" 
d="M137 991h189v-991h-189v991zM137 1380h190v-235h-190v235z" />
    <glyph glyph-name="uni0457" unicode="&#x457;" horiz-adv-x="459" 
d="M-131 1380h178v-221h-178v221zM238 1380h180v-221h-180v221zM139 991h189v-991h-189v991z" />
    <glyph glyph-name="uni0458" unicode="&#x458;" horiz-adv-x="467" 
d="M-29 -365v160h54q114 0 114 107v1089h189v-1079q0 -154 -76 -220.5t-193 -66.5q-51 0 -88 10zM137 1380h190v-235h-190v235z" />
    <glyph glyph-name="uni0459" unicode="&#x459;" horiz-adv-x="1655" 
d="M1409 604q87 -39 133.5 -111.5t46.5 -170.5q0 -99 -46.5 -171.5t-133.5 -111.5t-205 -39h-438v819h-373v-538q0 -155 -76 -221t-192 -66q-35 0 -68 10v160h33q115 0 115 106v721h749v-348h250q118 0 205 -39zM1352.5 212q46.5 40 46.5 110q0 69 -50.5 109t-136.5 40h-258
v-299h271q81 0 127.5 40z" />
    <glyph glyph-name="uni045A" unicode="&#x45a;" horiz-adv-x="1649" 
d="M1399.5 601q87.5 -42 135.5 -115t48 -164t-48 -164.5t-135.5 -115.5t-201.5 -42h-440v442h-434v-442h-189v991h189v-377h434v377h188v-348h252q114 0 201.5 -42zM1353 212.5q46 40.5 46 109.5q0 72 -46.5 110.5t-140.5 38.5h-266v-299h279q82 0 128 40.5z" />
    <glyph glyph-name="uni045B" unicode="&#x45b;" horiz-adv-x="1049" 
d="M768 964q77 -46 117.5 -132.5t40.5 -206.5v-625h-189v610q0 114 -49.5 172t-144.5 58q-108 0 -163.5 -76.5t-55.5 -224.5v-539h-189v1092h-129v147h129v141h189v-141h282v-147h-282v-190q42 55 111 81.5t149 26.5q107 0 184 -46z" />
    <glyph glyph-name="uni045C" unicode="&#x45c;" horiz-adv-x="965" 
d="M438 457l-114 -120v-337h-189v991h189v-413l385 413h233l-371 -402l408 -589h-234zM576 1380h223l-230 -264h-192z" />
    <glyph glyph-name="uni045E" unicode="&#x45e;" horiz-adv-x="913" 
d="M903 991l-418 -1190q-30 -88 -89.5 -131t-164.5 -43q-35 0 -71 6v168h71q39 0 58 19t35 63l39 106l-353 1002h207l245 -755l236 755h205zM331 1141q-59 33 -93.5 92t-34.5 133h143q0 -53 32 -87t81 -34q51 0 82 34t31 87h143q0 -74 -34.5 -133t-93.5 -92t-128 -33
t-128 33z" />
    <glyph glyph-name="uni045F" unicode="&#x45f;" horiz-adv-x="1061" 
d="M926 0h-293v-229h-189v229h-309v991h189v-819h413v819h189v-991z" />
    <glyph glyph-name="uni0490" unicode="&#x490;" horiz-adv-x="1061" 
d="M1065 1190h-711v-1190h-202v1380h710v230h203v-420z" />
    <glyph glyph-name="uni0491" unicode="&#x491;" horiz-adv-x="852" 
d="M844 819h-520v-819h-189v991h520v230h189v-402z" />
    <glyph glyph-name="uni04D9" unicode="&#x4d9;" horiz-adv-x="1014" 
d="M736 948.5q98 -60.5 152 -175.5t54 -274q0 -161 -58 -278.5t-160 -178.5t-230 -61q-134 0 -229 65.5t-144 178.5t-49 256q0 36 2 56t2 22h671q-13 142 -79.5 209t-159.5 67q-83 0 -138.5 -35t-82.5 -110h-193q43 151 147 235t267 84q130 0 228 -60.5zM666.5 217
q60.5 64 77.5 180h-475q8 -111 65 -177.5t168 -66.5q104 0 164.5 64z" />
    <glyph glyph-name="Wgrave" unicode="&#x1e80;" horiz-adv-x="1702" 
d="M1681 1380l-350 -1380h-205l-274 1081l-283 -1081h-204l-345 1380h211l247 -1057l274 1057h198l278 -1056l245 1056h208zM555 1769h221l201 -264h-195z" />
    <glyph glyph-name="wgrave" unicode="&#x1e81;" horiz-adv-x="1354" 
d="M1337 991l-280 -991h-193l-189 685l-190 -685h-192l-277 991h205l177 -716l196 716h166l202 -716l173 716h202zM391 1380h221l201 -264h-195z" />
    <glyph glyph-name="Wacute" unicode="&#x1e82;" horiz-adv-x="1702" 
d="M1681 1380l-350 -1380h-205l-274 1081l-283 -1081h-204l-345 1380h211l247 -1057l274 1057h198l278 -1056l245 1056h208zM933 1769h223l-230 -264h-192z" />
    <glyph glyph-name="wacute" unicode="&#x1e83;" horiz-adv-x="1354" 
d="M1337 991l-280 -991h-193l-189 685l-190 -685h-192l-277 991h205l177 -716l196 716h166l202 -716l173 716h202zM769 1380h223l-230 -264h-192z" />
    <glyph glyph-name="Wdieresis" unicode="&#x1e84;" horiz-adv-x="1702" 
d="M1681 1380l-350 -1380h-205l-274 1081l-283 -1081h-204l-345 1380h211l247 -1057l274 1057h198l278 -1056l245 1056h208zM568 1769h178v-221h-178v221zM937 1769h180v-221h-180v221z" />
    <glyph glyph-name="wdieresis" unicode="&#x1e85;" horiz-adv-x="1354" 
d="M1337 991l-280 -991h-193l-189 685l-190 -685h-192l-277 991h205l177 -716l196 716h166l202 -716l173 716h202zM404 1380h178v-221h-178v221zM773 1380h180v-221h-180v221z" />
    <glyph glyph-name="Ygrave" unicode="&#x1ef2;" horiz-adv-x="1130" 
d="M1120 1380l-452 -825v-555h-203v555l-455 825h230l329 -635l326 635h225zM278 1769h221l201 -264h-195z" />
    <glyph glyph-name="ygrave" unicode="&#x1ef3;" horiz-adv-x="913" 
d="M903 991l-418 -1190q-30 -88 -89.5 -131t-164.5 -43q-35 0 -71 6v168h71q39 0 58 19t35 63l39 106l-353 1002h207l245 -755l236 755h205zM172 1380h221l201 -264h-195z" />
    <glyph glyph-name="endash" unicode="&#x2013;" horiz-adv-x="1202" 
d="M106 643h986v-174h-986v174z" />
    <glyph glyph-name="emdash" unicode="&#x2014;" horiz-adv-x="1571" 
d="M10 645h1551v-174h-1551v174z" />
    <glyph glyph-name="quoteleft" unicode="&#x2018;" horiz-adv-x="510" 
d="M160 1096q0 103 26 168t83 98.5t151 38.5v-113q-52 -4 -75 -38.5t-23 -102.5v-195h-162v144z" />
    <glyph glyph-name="quoteright" unicode="&#x2019;" horiz-adv-x="510" 
d="M80 1044q52 5 75 39.5t23 102.5v194h162v-143q0 -106 -23.5 -169.5t-80 -96t-156.5 -39.5v112z" />
    <glyph glyph-name="quotesinglbase" unicode="&#x201a;" horiz-adv-x="510" 
d="M90 -106q52 4 75 39t23 104v194h162v-143q0 -105 -24.5 -169t-80.5 -97.5t-155 -40.5v113z" />
    <glyph glyph-name="quotedblleft" unicode="&#x201c;" horiz-adv-x="848" 
d="M160 1096q0 103 26 168t83 98.5t151 38.5v-113q-52 -4 -75 -38.5t-23 -102.5v-195h-162v144zM498 1096q0 103 26 168t83 98.5t151 38.5v-113q-52 -4 -75 -38.5t-23 -102.5v-195h-162v144z" />
    <glyph glyph-name="quotedblright" unicode="&#x201d;" horiz-adv-x="850" 
d="M80 1044q52 5 75 39.5t23 102.5v194h162v-143q0 -106 -23.5 -169.5t-80 -96t-156.5 -39.5v112zM420 1044q52 5 75 39.5t23 102.5v194h162v-143q0 -106 -23.5 -169.5t-80 -96t-156.5 -39.5v112z" />
    <glyph glyph-name="quotedblbase" unicode="&#x201e;" horiz-adv-x="850" 
d="M90 -106q52 4 75 39t23 104v194h162v-143q0 -105 -24.5 -169t-80.5 -97.5t-155 -40.5v113zM430 -106q52 4 75 39t23 104v194h162v-143q0 -105 -24.5 -169t-80.5 -97.5t-155 -40.5v113z" />
    <glyph glyph-name="dagger" unicode="&#x2020;" horiz-adv-x="975" 
d="M874 868h-296v-1026h-181v1026h-297v181h297v452h181v-452h296v-181z" />
    <glyph glyph-name="daggerdbl" unicode="&#x2021;" horiz-adv-x="975" 
d="M578 868v-372h296v-181h-296v-473h-181v473h-297v181h297v372h-297v181h297v452h181v-452h296v-181h-296z" />
    <glyph glyph-name="bullet" unicode="&#x2022;" horiz-adv-x="672" 
d="M250.5 539.5q-40.5 23.5 -64.5 64t-24 88.5q0 47 24 87.5t64.5 64.5t87.5 24q49 0 90 -24t64.5 -64.5t23.5 -87.5q0 -48 -23.5 -88.5t-64.5 -64t-90 -23.5q-47 0 -87.5 23.5z" />
    <glyph glyph-name="ellipsis" unicode="&#x2026;" horiz-adv-x="1475" 
d="M166 272h194v-272h-194v272zM639 272h195v-272h-195v272zM1110 272h195v-272h-195v272z" />
    <glyph glyph-name="perthousand" unicode="&#x2030;" horiz-adv-x="2316" 
d="M238 656q-65 47 -99.5 136.5t-34.5 213.5t34.5 213t99 135.5t155.5 46.5t155.5 -46.5t99 -135.5t34.5 -213t-34.5 -213.5t-99.5 -136.5t-155 -47t-155 47zM1059 1380h139l-702 -1380h-142zM489 814q31 62 31 192t-31 192t-96 62t-96 -62t-31 -192t31 -192t96 -62t96 62z
M1088 27q-65 47 -99.5 136.5t-34.5 213.5t34.5 213t99 135.5t155.5 46.5t155.5 -46.5t99 -135.5t34.5 -213t-34.5 -213.5t-99.5 -136.5t-155 -47t-155 47zM1768 27q-65 47 -99.5 136.5t-34.5 213.5t34.5 213t99 135.5t155.5 46.5t155.5 -46.5t99 -135.5t34.5 -213
t-34.5 -213.5t-99.5 -136.5t-155 -47t-155 47zM1339 185q31 62 31 192t-31 192t-96 62t-96 -62t-31 -192t31 -192t96 -62t96 62zM2019 185q31 62 31 192t-31 192t-96 62t-96 -62t-31 -192t31 -192t96 -62t96 62z" />
    <glyph glyph-name="guilsinglleft" unicode="&#x2039;" horiz-adv-x="641" 
d="M247 559l341 -436h-205l-338 436l338 426h211z" />
    <glyph glyph-name="guilsinglright" unicode="&#x203a;" horiz-adv-x="641" 
d="M596 559l-338 -436h-205l341 436l-347 426h211z" />
    <glyph glyph-name="fraction" unicode="&#x2044;" horiz-adv-x="389" 
d="M457 1380h139l-702 -1380h-142z" />
    <glyph glyph-name="Euro" unicode="&#x20ac;" horiz-adv-x="1415" 
d="M1311 383q-27 -121 -96.5 -212.5t-178 -142.5t-248.5 -51q-229 0 -373 136t-186 379h-163v133h149q-2 44 -2 67q0 41 3 80h-150v133h166q46 233 190 362.5t369 129.5q138 0 243.5 -48.5t172.5 -135t96 -199.5h-213q-75 198 -299 198q-143 0 -231.5 -78.5t-122.5 -228.5
h474v-133h-492q-3 -39 -3 -80q0 -23 2 -67h493v-133h-476q34 -160 125 -245t231 -85q122 0 196.5 56t112.5 165h211z" />
    <glyph glyph-name="uni2116" unicode="&#x2116;" horiz-adv-x="2099" 
d="M1171 1380v-1380h-202l-613 1023v-1023h-202v1380h202l613 -1018v1018h202zM1546 735.5q-71 41.5 -109 121t-38 190.5q0 106 39.5 183t111 118t164.5 41q95 0 165.5 -44t108 -122t37.5 -176q0 -111 -38 -190.5t-108 -121t-165 -41.5q-97 0 -168 41.5zM1876 1044
q0 102 -41.5 157.5t-120.5 55.5q-77 0 -120.5 -54t-43.5 -159q0 -219 164 -219q162 0 162 219z" />
    <glyph glyph-name="uni2117" unicode="&#x2117;" horiz-adv-x="1597" 
d="M1171 1313.5q164 -91.5 255.5 -254.5t91.5 -371t-91.5 -371t-255.5 -254.5t-372 -91.5t-372 91.5t-255.5 254.5t-91.5 371t91.5 371t255.5 254.5t372 91.5t372 -91.5zM1100.5 178.5q132.5 74.5 207 207.5t74.5 302t-74.5 302t-207 207.5t-301.5 74.5t-301.5 -74.5
t-206.5 -207.5t-74 -302t74 -302t206.5 -207.5t301.5 -74.5t301.5 74.5zM1021.5 1050.5q59.5 -36.5 89.5 -92t30 -110.5q0 -51 -25 -109t-83.5 -100.5t-153.5 -42.5h-160v-289h-156v780h316q83 0 142.5 -36.5zM956 771.5q25 28.5 25 68.5q0 39 -25 68.5t-77 29.5h-160v-195
h160q52 0 77 28.5z" />
    <glyph glyph-name="trademark" unicode="&#x2122;" horiz-adv-x="1354" 
d="M39 1380h512v-141h-180v-534h-152v534h-180v141zM1253 1380v-675h-147v340l-100 -224h-119l-101 230v-346h-151v675h137l174 -377l172 377h135z" />
    <glyph glyph-name="uni2126" unicode="&#x2126;" horiz-adv-x="1337" 
d="M1206.5 423q-55.5 -153 -143.5 -245h178v-178h-473v168q79 11 145 86.5t105 200t39 276.5q0 135 -43.5 243.5t-131 172t-214.5 63.5q-128 0 -215.5 -63.5t-130.5 -172t-43 -243.5q0 -152 39 -276.5t105 -200t144 -86.5v-168h-473v178h178q-88 92 -143 244.5t-55 312.5
q0 179 68.5 331.5t203 244.5t322.5 92t322.5 -92t203 -244.5t68.5 -331.5q0 -159 -55.5 -312z" />
    <glyph glyph-name="oneeighth" unicode="&#x215b;" horiz-adv-x="1537" 
d="M338 1378v-759h-133v600l-168 -103v144l192 118h109zM944 1380h139l-702 -1380h-142zM1434 323q28 -47 28 -102q0 -75 -37 -128t-99.5 -79.5t-138.5 -26.5t-139 26.5t-100 79.5t-37 128q0 52 30 101t79 82q-41 24 -64 64.5t-23 88.5q0 67 33.5 116.5t91 76t129.5 26.5
q71 0 129 -26.5t91.5 -76t33.5 -116.5q0 -49 -22.5 -89t-63.5 -64q51 -34 79 -81zM1101.5 628.5q-33.5 -26.5 -33.5 -75.5q0 -45 33.5 -75t85.5 -30q51 0 83 30t32 75q0 48 -32.5 75t-82.5 27q-52 0 -85.5 -26.5zM1284.5 138.5q37.5 30.5 37.5 84.5q0 50 -35 82.5t-98 32.5
q-64 0 -101.5 -32.5t-37.5 -82.5q0 -53 40 -84t99 -31q58 0 95.5 30.5z" />
    <glyph glyph-name="threeeighths" unicode="&#x215c;" horiz-adv-x="1732" 
d="M578.5 952.5q27.5 -44.5 27.5 -96.5q0 -74 -37 -131t-99 -88t-136 -31q-106 0 -176.5 58t-94.5 159h144q12 -45 46.5 -69.5t80.5 -24.5q60 0 96.5 34.5t36.5 92.5q0 50 -35 80.5t-92 30.5h-90v110h76q51 0 84.5 27.5t33.5 71.5q0 46 -32 70t-82 24q-40 0 -69 -20.5
t-38 -59.5h-139q10 63 44.5 109.5t87 71t114.5 24.5q71 0 128.5 -26t90.5 -76t33 -119q0 -45 -20 -83t-56 -64q45 -30 72.5 -74.5zM1139 1380h139l-702 -1380h-142zM1629 323q28 -47 28 -102q0 -75 -37 -128t-99.5 -79.5t-138.5 -26.5t-139 26.5t-100 79.5t-37 128
q0 52 30 101t79 82q-41 24 -64 64.5t-23 88.5q0 67 33.5 116.5t91 76t129.5 26.5q71 0 129 -26.5t91.5 -76t33.5 -116.5q0 -49 -22.5 -89t-63.5 -64q51 -34 79 -81zM1296.5 628.5q-33.5 -26.5 -33.5 -75.5q0 -45 33.5 -75t85.5 -30q51 0 83 30t32 75q0 48 -32.5 75t-82.5 27
q-52 0 -85.5 -26.5zM1479.5 138.5q37.5 30.5 37.5 84.5q0 50 -35 82.5t-98 32.5q-64 0 -101.5 -32.5t-37.5 -82.5q0 -53 40 -84t99 -31q58 0 95.5 30.5z" />
    <glyph glyph-name="fiveeighths" unicode="&#x215d;" horiz-adv-x="1718" 
d="M481 1119q57 -34 88 -95.5t31 -142.5q0 -79 -33.5 -142t-94.5 -99t-140 -36q-91 0 -162 52.5t-98 150.5h139q16 -38 50 -59t71 -21q61 0 95 41t34 111q0 72 -32 110.5t-93 38.5q-89 0 -121 -73h-121l47 423h412v-124h-303l-13 -128q28 15 52.5 21t58.5 6q76 0 133 -34z
M1125 1380h139l-702 -1380h-142zM1615 323q28 -47 28 -102q0 -75 -37 -128t-99.5 -79.5t-138.5 -26.5t-139 26.5t-100 79.5t-37 128q0 52 30 101t79 82q-41 24 -64 64.5t-23 88.5q0 67 33.5 116.5t91 76t129.5 26.5q71 0 129 -26.5t91.5 -76t33.5 -116.5q0 -49 -22.5 -89
t-63.5 -64q51 -34 79 -81zM1282.5 628.5q-33.5 -26.5 -33.5 -75.5q0 -45 33.5 -75t85.5 -30q51 0 83 30t32 75q0 48 -32.5 75t-82.5 27q-52 0 -85.5 -26.5zM1465.5 138.5q37.5 30.5 37.5 84.5q0 50 -35 82.5t-98 32.5q-64 0 -101.5 -32.5t-37.5 -82.5q0 -53 40 -84t99 -31
q58 0 95.5 30.5z" />
    <glyph glyph-name="seveneighths" unicode="&#x215e;" horiz-adv-x="1575" 
d="M555 1378v-106l-311 -653h-152l321 630h-378v129h520zM982 1380h139l-702 -1380h-142zM1472 323q28 -47 28 -102q0 -75 -37 -128t-99.5 -79.5t-138.5 -26.5t-139 26.5t-100 79.5t-37 128q0 52 30 101t79 82q-41 24 -64 64.5t-23 88.5q0 67 33.5 116.5t91 76t129.5 26.5
q71 0 129 -26.5t91.5 -76t33.5 -116.5q0 -49 -22.5 -89t-63.5 -64q51 -34 79 -81zM1139.5 628.5q-33.5 -26.5 -33.5 -75.5q0 -45 33.5 -75t85.5 -30q51 0 83 30t32 75q0 48 -32.5 75t-82.5 27q-52 0 -85.5 -26.5zM1322.5 138.5q37.5 30.5 37.5 84.5q0 50 -35 82.5t-98 32.5
q-64 0 -101.5 -32.5t-37.5 -82.5q0 -53 40 -84t99 -31q58 0 95.5 30.5z" />
    <glyph glyph-name="partialdiff" unicode="&#x2202;" horiz-adv-x="1026" 
d="M665.5 1282.5q143.5 -120.5 211.5 -321.5t69 -449q0 -164 -52.5 -283.5t-150 -183t-229.5 -63.5q-134 0 -232 63t-150 180.5t-52 278.5q0 151 54.5 263.5t152.5 173t227 60.5q43 0 87.5 -10.5t77.5 -29.5q-43 124 -139 196t-237 72h-90v168q48 6 92 6q217 0 360.5 -120.5
zM696 247q62 85 62 255q0 149 -64 237t-180 88q-114 0 -180 -83.5t-66 -241.5q0 -170 62.5 -255t183.5 -85q120 0 182 85z" />
    <glyph glyph-name="uni2206" unicode="&#x2206;" horiz-adv-x="1214" 
d="M1227 0h-1239l522 1380h195zM262 188h688l-344 917z" />
    <glyph glyph-name="product" unicode="&#x220f;" horiz-adv-x="1305" 
d="M1143 1380v-1378h-205v1186h-573v-1186h-203v1378h981z" />
    <glyph glyph-name="summation" unicode="&#x2211;" horiz-adv-x="1094" 
d="M1028 190v-190h-956v168l526 541l-500 503v168h918v-190h-639l475 -481l-511 -519h687z" />
    <glyph glyph-name="minus" unicode="&#x2212;" 
d="M72 645h948v-176h-948v176z" />
    <glyph glyph-name="radical" unicode="&#x221a;" horiz-adv-x="1335" 
d="M1386 1370h-280l-479 -1370h-191l-350 991h207l237 -737l433 1284h423v-168z" />
    <glyph glyph-name="infinity" unicode="&#x221e;" horiz-adv-x="1649" 
d="M1316.5 893.5q76.5 -44.5 123.5 -129.5t47 -199t-47 -198t-123.5 -128t-161.5 -44q-93 0 -170 60t-167 181q-55 -73 -103.5 -120t-105 -74t-124.5 -27q-77 0 -152.5 39t-125 118t-49.5 193t49.5 193t125 118t152.5 39q59 0 106 -18.5t99 -65.5t125 -136q65 82 114.5 133
t105.5 80.5t120 29.5q85 0 161.5 -44.5zM1222 397q34 22 57.5 65t23.5 103t-23.5 103.5t-57.5 65.5t-65 22q-39 0 -72.5 -15t-75.5 -55.5t-102 -118.5q57 -83 119 -137.5t131 -54.5q31 0 65 22zM612 443q59 48 113 123q-73 92 -127.5 131.5t-112.5 39.5q-32 0 -65.5 -19.5
t-56.5 -58.5t-23 -94q0 -54 23 -92.5t56.5 -58t65.5 -19.5q68 0 127 48z" />
    <glyph glyph-name="integral" unicode="&#x222b;" horiz-adv-x="694" 
d="M14 -379v166h107q52 0 75 26.5t23 90.5v1183q0 116 31.5 184t94 98t161.5 30q63 0 108 -10v-166h-106q-53 0 -75.5 -26t-22.5 -89v-1186q0 -115 -31.5 -182.5t-94.5 -97t-161 -29.5q-63 0 -109 8z" />
    <glyph glyph-name="approxequal" unicode="&#x2248;" horiz-adv-x="1034" 
d="M614.5 278q-45.5 13 -113.5 38q-62 22 -97 32.5t-62 10.5q-32 0 -58.5 -21.5t-33.5 -64.5h-176q11 72 49 129t95 89t124 32q39 0 85 -13t112 -38q58 -22 95 -33t66 -11q37 0 60 25t28 68h170q-8 -71 -42 -129.5t-90 -92.5t-128 -34q-38 0 -83.5 13zM614.5 638
q-45.5 13 -113.5 38q-62 22 -97 32.5t-62 10.5q-32 0 -58.5 -21.5t-33.5 -64.5h-176q11 72 49 129t95 89t124 32q39 0 85 -13t112 -38q58 -22 95 -33t66 -11q37 0 60 25t28 68h170q-8 -71 -42 -129.5t-90 -92.5t-128 -34q-38 0 -83.5 13z" />
    <glyph glyph-name="notequal" unicode="&#x2260;" 
d="M719 809l-91 -197h367v-176h-448l-201 -436h-186l200 436h-266v176h347l90 197h-437v176h518l174 379h189l-175 -379h195v-176h-276z" />
    <glyph glyph-name="lessequal" unicode="&#x2264;" 
d="M994 1006l-694 -277l694 -293v-188l-899 397v170l899 379v-188zM93 176h901v-176h-901v176z" />
    <glyph glyph-name="greaterequal" unicode="&#x2265;" 
d="M995 645l-899 -397v188l694 293l-694 277v188l899 -379v-170zM1000 176v-176h-901v176h901z" />
    <glyph glyph-name="lozenge" unicode="&#x25ca;" horiz-adv-x="1110" 
d="M1024 496l-389 -887h-176l-373 887l391 884h174zM834 496l-274 644l-284 -644l275 -646z" />
    <glyph glyph-name="uniF8FF" unicode="&#xf8ff;" horiz-adv-x="1036" 
 />
    <glyph glyph-name="Cacute.loclPLK" horiz-adv-x="1272" 
d="M343.5 64.5q-130.5 87.5 -198 248.5t-67.5 379q0 217 68.5 377t200 247t315.5 87q150 0 266 -56.5t185.5 -156t88.5 -225.5h-209q-23 116 -109.5 185t-221.5 69q-189 0 -284 -135.5t-95 -391.5q0 -168 44.5 -287t129.5 -181t205 -62q137 0 221.5 68.5t117.5 195.5h207
q-20 -131 -91.5 -232.5t-189 -159t-268.5 -57.5q-185 0 -315.5 87.5zM537 1769h201l-45 -264h-156v264z" />
    <glyph glyph-name="Jacute" horiz-adv-x="928" 
d="M174 31.5q-88 54.5 -133.5 145t-50.5 198.5h203q2 -54 25.5 -102t66.5 -77.5t102 -29.5q95 0 146 61t51 160v993h202v-993q0 -112 -44.5 -205.5t-134 -149t-220.5 -55.5q-125 0 -213 54.5zM777 1769h223l-230 -264h-192z" />
    <glyph glyph-name="jacute" horiz-adv-x="467" 
d="M-29 -365v160h54q114 0 114 107v1089h189v-1079q0 -154 -76 -220.5t-193 -66.5q-51 0 -88 10zM324 1380h223l-230 -264h-192z" />
    <glyph glyph-name="Nacute.loclPLK" horiz-adv-x="1325" 
d="M1171 1380v-1380h-202l-613 1023v-1023h-202v1380h202l613 -1018v1018h202zM564 1769h201l-45 -264h-156v264z" />
    <glyph glyph-name="Oacute.loclPLK" horiz-adv-x="1321" 
d="M346.5 62q-130.5 85 -199.5 246t-69 384q0 222 69 382t199.5 244.5t312.5 84.5t313.5 -84.5t201 -244.5t69.5 -382q0 -223 -69.5 -383.5t-201 -246t-313.5 -85.5t-312.5 85zM942.5 295.5q95.5 133.5 95.5 392.5q0 261 -96 396t-283 135q-185 0 -280.5 -133.5
t-95.5 -393.5q0 -261 96 -395.5t283 -134.5q185 0 280.5 133.5zM562 1769h201l-45 -264h-156v264z" />
    <glyph glyph-name="Sacute.loclPLK" horiz-adv-x="1180" 
d="M311.5 32q-110.5 55 -171.5 155t-70 233h211q6 -124 81 -192t218 -68q93 0 164 27t110 77t39 117q0 73 -44 118.5t-110 70.5t-180 54q-142 37 -229.5 73t-149 111.5t-61.5 201.5q0 121 59 210t164.5 136t243.5 47q144 0 252 -49.5t169 -143.5t66 -223h-209
q-1 113 -76.5 173.5t-203.5 60.5q-78 0 -137.5 -25t-92 -70t-32.5 -102q0 -65 41 -105t102.5 -62.5t171.5 -50.5q146 -37 238 -75t157.5 -118.5t65.5 -217.5q0 -127 -64.5 -221.5t-183 -145.5t-275.5 -51q-153 0 -263.5 55zM490 1769h201l-45 -264h-156v264z" />
    <glyph glyph-name="Zacute.loclPLK" horiz-adv-x="1108" 
d="M1030 1204l-720 -1014h720v-190h-958v174l719 1016h-687v190h926v-176zM455 1769h201l-45 -264h-156v264z" />
    <glyph glyph-name="a.ss01" horiz-adv-x="1075" 
d="M1024 164v-158q-31 -14 -80 -14q-70 0 -116 28.5t-66 93.5q-41 -61 -116 -96.5t-171 -35.5q-124 0 -215 65t-139.5 181t-48.5 266q0 152 49.5 268.5t143 182t220.5 65.5q81 0 146.5 -26.5t106.5 -75.5l3 83h183v-749q0 -41 18.5 -59.5t56.5 -18.5h25zM741 504
q0 167 -57 251.5t-174 84.5q-123 0 -185.5 -87.5t-62.5 -256.5q0 -170 61 -257t179 -87q239 0 239 352z" />
    <glyph glyph-name="aacute.ss01" horiz-adv-x="1075" 
d="M1024 164v-158q-31 -14 -80 -14q-70 0 -116 28.5t-66 93.5q-41 -61 -116 -96.5t-171 -35.5q-124 0 -215 65t-139.5 181t-48.5 266q0 152 49.5 268.5t143 182t220.5 65.5q81 0 146.5 -26.5t106.5 -75.5l3 83h183v-749q0 -41 18.5 -59.5t56.5 -18.5h25zM741 504
q0 167 -57 251.5t-174 84.5q-123 0 -185.5 -87.5t-62.5 -256.5q0 -170 61 -257t179 -87q239 0 239 352zM615 1380h223l-230 -264h-192z" />
    <glyph glyph-name="abreve.ss01" horiz-adv-x="1075" 
d="M1024 164v-158q-31 -14 -80 -14q-70 0 -116 28.5t-66 93.5q-41 -61 -116 -96.5t-171 -35.5q-124 0 -215 65t-139.5 181t-48.5 266q0 152 49.5 268.5t143 182t220.5 65.5q81 0 146.5 -26.5t106.5 -75.5l3 83h183v-749q0 -41 18.5 -59.5t56.5 -18.5h25zM741 504
q0 167 -57 251.5t-174 84.5q-123 0 -185.5 -87.5t-62.5 -256.5q0 -170 61 -257t179 -87q239 0 239 352zM396 1141q-59 33 -93.5 92t-34.5 133h143q0 -53 32 -87t81 -34q51 0 82 34t31 87h143q0 -74 -34.5 -133t-93.5 -92t-128 -33t-128 33z" />
    <glyph glyph-name="acircumflex.ss01" horiz-adv-x="1075" 
d="M1024 164v-158q-31 -14 -80 -14q-70 0 -116 28.5t-66 93.5q-41 -61 -116 -96.5t-171 -35.5q-124 0 -215 65t-139.5 181t-48.5 266q0 152 49.5 268.5t143 182t220.5 65.5q81 0 146.5 -26.5t106.5 -75.5l3 83h183v-749q0 -41 18.5 -59.5t56.5 -18.5h25zM741 504
q0 167 -57 251.5t-174 84.5q-123 0 -185.5 -87.5t-62.5 -256.5q0 -170 61 -257t179 -87q239 0 239 352zM426 1380h197l219 -264h-189l-131 139l-127 -139h-188z" />
    <glyph glyph-name="adieresis.ss01" horiz-adv-x="1075" 
d="M1024 164v-158q-31 -14 -80 -14q-70 0 -116 28.5t-66 93.5q-41 -61 -116 -96.5t-171 -35.5q-124 0 -215 65t-139.5 181t-48.5 266q0 152 49.5 268.5t143 182t220.5 65.5q81 0 146.5 -26.5t106.5 -75.5l3 83h183v-749q0 -41 18.5 -59.5t56.5 -18.5h25zM741 504
q0 167 -57 251.5t-174 84.5q-123 0 -185.5 -87.5t-62.5 -256.5q0 -170 61 -257t179 -87q239 0 239 352zM250 1380h178v-221h-178v221zM619 1380h180v-221h-180v221z" />
    <glyph glyph-name="agrave.ss01" horiz-adv-x="1075" 
d="M1024 164v-158q-31 -14 -80 -14q-70 0 -116 28.5t-66 93.5q-41 -61 -116 -96.5t-171 -35.5q-124 0 -215 65t-139.5 181t-48.5 266q0 152 49.5 268.5t143 182t220.5 65.5q81 0 146.5 -26.5t106.5 -75.5l3 83h183v-749q0 -41 18.5 -59.5t56.5 -18.5h25zM741 504
q0 167 -57 251.5t-174 84.5q-123 0 -185.5 -87.5t-62.5 -256.5q0 -170 61 -257t179 -87q239 0 239 352zM237 1380h221l201 -264h-195z" />
    <glyph glyph-name="amacron.ss01" horiz-adv-x="1075" 
d="M1024 164v-158q-31 -14 -80 -14q-70 0 -116 28.5t-66 93.5q-41 -61 -116 -96.5t-171 -35.5q-124 0 -215 65t-139.5 181t-48.5 266q0 152 49.5 268.5t143 182t220.5 65.5q81 0 146.5 -26.5t106.5 -75.5l3 83h183v-749q0 -41 18.5 -59.5t56.5 -18.5h25zM741 504
q0 167 -57 251.5t-174 84.5q-123 0 -185.5 -87.5t-62.5 -256.5q0 -170 61 -257t179 -87q239 0 239 352zM229 1319h590v-148h-590v148z" />
    <glyph glyph-name="aogonek.ss01" horiz-adv-x="1075" 
d="M1029 -256v-106q-32 -13 -78 -13q-63 0 -112.5 24t-77 69t-27.5 104q0 61 30 111.5t82 77.5q-60 28 -84 103q-41 -61 -116 -96.5t-171 -35.5q-124 0 -215 65t-139.5 181t-48.5 266q0 152 49.5 268.5t143 182t220.5 65.5q81 0 146.5 -26.5t106.5 -75.5l3 83h183v-749
q0 -41 18.5 -59.5t56.5 -18.5h25v-158l-16 -6h-1q-21 -6 -39 -7q-39 -13 -61 -46.5t-22 -81.5q0 -56 33 -88.5t88 -32.5h23zM741 504q0 167 -57 251.5t-174 84.5q-123 0 -185.5 -87.5t-62.5 -256.5q0 -170 61 -257t179 -87q239 0 239 352z" />
    <glyph glyph-name="aring.ss01" horiz-adv-x="1075" 
d="M1024 164v-158q-31 -14 -80 -14q-70 0 -116 28.5t-66 93.5q-41 -61 -116 -96.5t-171 -35.5q-124 0 -215 65t-139.5 181t-48.5 266q0 152 49.5 268.5t143 182t220.5 65.5q81 0 146.5 -26.5t106.5 -75.5l3 83h183v-749q0 -41 18.5 -59.5t56.5 -18.5h25zM741 504
q0 167 -57 251.5t-174 84.5q-123 0 -185.5 -87.5t-62.5 -256.5q0 -170 61 -257t179 -87q239 0 239 352zM418 1124.5q-48 26.5 -75.5 73.5t-27.5 105t27.5 104.5t75.5 73t106 26.5t106 -26.5t75.5 -73t27.5 -104.5t-27.5 -105t-75.5 -73.5t-106 -26.5t-106 26.5zM596 1230
q28 28 28 73q0 44 -28 72t-72 28q-45 0 -73 -28t-28 -72q0 -45 28 -73t73 -28q44 0 72 28z" />
    <glyph glyph-name="atilde.ss01" horiz-adv-x="1075" 
d="M1024 164v-158q-31 -14 -80 -14q-70 0 -116 28.5t-66 93.5q-41 -61 -116 -96.5t-171 -35.5q-124 0 -215 65t-139.5 181t-48.5 266q0 152 49.5 268.5t143 182t220.5 65.5q81 0 146.5 -26.5t106.5 -75.5l3 83h183v-749q0 -41 18.5 -59.5t56.5 -18.5h25zM741 504
q0 167 -57 251.5t-174 84.5q-123 0 -185.5 -87.5t-62.5 -256.5q0 -170 61 -257t179 -87q239 0 239 352zM577.5 1166q-35.5 13 -86.5 37q-39 18 -59 26t-37 8q-30 0 -46.5 -20t-23.5 -60h-151q24 107 77 169.5t148 62.5q34 0 68 -12.5t83 -36.5q40 -19 60.5 -27t38.5 -8
q58 0 72 84h151q-16 -107 -71.5 -171.5t-149.5 -64.5q-38 0 -73.5 13z" />
    <glyph glyph-name="cacute.loclPLK" horiz-adv-x="979" 
d="M275 43.5q-98 61.5 -150.5 176t-52.5 269.5q0 162 56 279.5t156 179.5t230 62q108 0 194 -43t139.5 -119.5t70.5 -175.5h-193q-20 78 -71 121t-136 43q-121 0 -188.5 -86t-67.5 -256q0 -169 67 -253.5t189 -84.5q89 0 142.5 43.5t68.5 122.5h193q-18 -105 -74.5 -181.5
t-143.5 -117.5t-196 -41q-135 0 -233 61.5zM389 1380h201l-45 -264h-156v264z" />
    <glyph glyph-name="i.loclTRK" horiz-adv-x="463" 
d="M137 991h189v-991h-189v991zM137 1380h190v-235h-190v235z" />
    <glyph glyph-name="nacute.loclPLK" horiz-adv-x="1049" 
d="M767 964q77 -46 118 -132.5t41 -206.5v-625h-189v610q0 113 -48 171.5t-142 58.5q-110 0 -166.5 -65.5t-56.5 -194.5v-580h-189v991h182l3 -85q46 53 114 78.5t148 25.5q108 0 185 -46zM424 1380h201l-45 -264h-156v264z" />
    <glyph glyph-name="oacute.loclPLK" horiz-adv-x="1026" 
d="M276 44q-99 62 -151.5 179.5t-52.5 280.5q0 155 56.5 269.5t157 175.5t230.5 61q133 0 232.5 -65t152.5 -180t53 -261q0 -162 -54.5 -279.5t-154 -180t-233.5 -62.5q-137 0 -236 62zM701.5 241q62.5 85 62.5 261q0 158 -64.5 246t-185.5 88q-118 0 -185 -84.5t-67 -249.5
q0 -177 63 -261.5t189 -84.5q125 0 187.5 85zM414 1380h201l-45 -264h-156v264z" />
    <glyph glyph-name="sacute.loclPLK" horiz-adv-x="924" 
d="M258 20.5q-87 38.5 -134.5 112t-51.5 176.5h190q4 -81 56.5 -122.5t148.5 -41.5q63 0 108 17.5t68 47t23 64.5q0 40 -28 65.5t-71 40t-118 32.5q-108 27 -176.5 54.5t-117.5 85.5t-49 155q0 89 42.5 157.5t123.5 107t191 38.5q108 0 188.5 -37.5t125 -107.5t46.5 -167
h-190q-4 75 -50.5 111.5t-123.5 36.5q-79 0 -122.5 -35.5t-43.5 -87.5q0 -43 29 -70t73.5 -42.5t122.5 -34.5q106 -26 172.5 -52.5t114 -82.5t47.5 -150q0 -91 -46.5 -161t-134.5 -109t-208 -39q-118 0 -205 38.5zM363 1380h201l-45 -264h-156v264z" />
    <glyph glyph-name="zacute.loclPLK" horiz-adv-x="903" 
d="M846 834l-537 -662h533v-172h-770v162l542 657h-520v172h752v-157zM363 1380h201l-45 -264h-156v264z" />
    <glyph glyph-name="ordfeminine.alt" horiz-adv-x="801" 
d="M748 821v-119q-26 -8 -64 -8q-46 0 -81 22t-50 64q-67 -90 -191 -90q-87 0 -152 46.5t-100.5 126t-35.5 175.5q0 101 38 180.5t105.5 123.5t153.5 44q99 0 169 -62l3 54h131v-512q0 -21 10.5 -33t30.5 -12h33zM498.5 878q36.5 57 36.5 164q0 104 -35.5 158.5t-116.5 54.5
q-74 0 -117 -59t-43 -160q0 -100 42 -157.5t114 -57.5q83 0 119.5 57z" />
    <glyph glyph-name="uni0414.loclBGR" horiz-adv-x="1348" 
d="M1335 188v-417h-202v229h-918v-229h-203v417h114l452 1192h194l452 -1192h111zM328 188h689l-343 923z" />
    <glyph glyph-name="uni041B.loclBGR" horiz-adv-x="1151" 
d="M934 0l-356 1119l-359 -1119h-209l449 1380h229l453 -1380h-207z" />
    <glyph glyph-name="uni0430.ss01" horiz-adv-x="1075" 
d="M1024 164v-158q-31 -14 -80 -14q-70 0 -116 28.5t-66 93.5q-41 -61 -116 -96.5t-171 -35.5q-124 0 -215 65t-139.5 181t-48.5 266q0 152 49.5 268.5t143 182t220.5 65.5q81 0 146.5 -26.5t106.5 -75.5l3 83h183v-749q0 -41 18.5 -59.5t56.5 -18.5h25zM741 504
q0 167 -57 251.5t-174 84.5q-123 0 -185.5 -87.5t-62.5 -256.5q0 -170 61 -257t179 -87q239 0 239 352z" />
    <glyph glyph-name="uni0432.loclBGR" horiz-adv-x="1071" 
d="M922.5 656.5q62.5 -93.5 62.5 -236.5q0 -131 -61 -230.5t-166 -153.5t-234 -54q-123 0 -213 50t-139 150t-49 246v553q0 138 52.5 233t143.5 142t205 47t198.5 -44t129.5 -122t45 -176q0 -94 -41 -164t-118 -107q122 -40 184.5 -133.5zM680.5 188q57.5 34 87 95t29.5 141
q0 120 -67 188t-191 68h-54v170h37q59 0 101.5 29t64 76t21.5 100q0 75 -45.5 125.5t-135.5 50.5q-62 0 -111 -26.5t-77.5 -80.5t-28.5 -133v-579q0 -125 61 -191.5t171 -66.5q80 0 137.5 34z" />
    <glyph glyph-name="uni0433.loclBGR" horiz-adv-x="924" 
d="M253 21q-88 39 -134.5 109t-46.5 161q0 94 49.5 150t118.5 82.5t179 52.5q81 19 127 34.5t76.5 42.5t30.5 70q0 52 -43.5 87.5t-122.5 35.5q-77 0 -123.5 -36.5t-50.5 -111.5h-190q2 97 46.5 167t125 107.5t188.5 37.5q111 0 191.5 -38.5t123 -107t42.5 -157.5
q0 -94 -50 -150.5t-119.5 -83t-180.5 -53.5q-80 -20 -125.5 -35.5t-76 -42t-30.5 -68.5q0 -35 23 -64.5t68 -47t108 -17.5q95 0 147.5 41.5t57.5 122.5h190q-4 -103 -52 -176.5t-134.5 -112t-204.5 -38.5q-120 0 -208 39z" />
    <glyph glyph-name="uni0434.loclBGR" horiz-adv-x="1059" 
d="M924 991v-911q0 -231 -105 -349t-313 -118q-172 0 -275 80.5t-125 230.5h189q30 -139 207 -139q84 0 135 30t74.5 94.5t23.5 170.5v27q-42 -51 -109 -79t-151 -28q-124 0 -215 63t-139.5 175t-48.5 256q0 152 49.5 268.5t143 182t220.5 65.5q81 0 146.5 -26.5
t106.5 -76.5l3 84h183zM681.5 254.5q59.5 84.5 59.5 249.5q0 167 -57 251.5t-174 84.5q-123 0 -185.5 -87.5t-62.5 -256.5q0 -159 61 -242.5t179 -83.5q120 0 179.5 84.5z" />
    <glyph glyph-name="uni0436.loclBGR" horiz-adv-x="1473" 
d="M1253 0l-307 457l-115 -119v-338h-190v338l-114 119l-308 -457h-233l408 589l-371 402h233l385 -414v801h190v-801l386 414h233l-371 -402l408 -589h-234z" />
    <glyph glyph-name="uni0437.loclBGR" horiz-adv-x="952" 
d="M835 255.5q60 -87.5 60 -216.5q0 -123 -58.5 -217.5t-157 -145.5t-212.5 -51q-107 0 -197.5 39.5t-151.5 114t-81 176.5h192q16 -73 79.5 -115.5t154.5 -42.5q111 0 177.5 65t66.5 181q0 70 -30.5 123.5t-88.5 83t-139 29.5h-43v170h28q75 0 123 28.5t70 73.5t22 96
q0 82 -46 135.5t-140 53.5q-87 0 -133.5 -43.5t-53.5 -118.5h-190q5 94 52.5 169.5t131 119t193.5 43.5q112 0 197 -45t131.5 -122t46.5 -171q0 -92 -48 -168.5t-117 -114.5q102 -42 162 -129.5z" />
    <glyph glyph-name="uni0438.loclBGR" horiz-adv-x="1049" 
d="M914 991v-991h-182l-3 85q-46 -53 -114 -78.5t-148 -25.5q-108 0 -185 46t-118 132.5t-41 206.5v625h189v-610q0 -113 48 -171.5t142 -58.5q110 0 166.5 65.5t56.5 194.5v580h189z" />
    <glyph glyph-name="uni0439.loclBGR" horiz-adv-x="1049" 
d="M914 991v-991h-182l-3 85q-46 -53 -114 -78.5t-148 -25.5q-108 0 -185 46t-118 132.5t-41 206.5v625h189v-610q0 -113 48 -171.5t142 -58.5q110 0 166.5 65.5t56.5 194.5v580h189zM396 1141q-59 33 -93.5 92t-34.5 133h143q0 -53 32 -87t81 -34q51 0 82 34t31 87h143
q0 -74 -34.5 -133t-93.5 -92t-128 -33t-128 33z" />
    <glyph glyph-name="uni043A.loclBGR" horiz-adv-x="965" 
d="M435 461l-111 -115v-346h-189v1380h189v-802l385 413h233l-371 -402l408 -589h-234z" />
    <glyph glyph-name="uni043B.loclBGR" horiz-adv-x="911" 
d="M696 0l-238 777l-241 -777h-207l336 991h219l336 -991h-205z" />
    <glyph glyph-name="uni043C.loclBGR" horiz-adv-x="1305" 
d="M1169 991v-991h-188v664l-258 -564h-141l-258 561v-661h-189v991h201l317 -679l316 679h200z" />
    <glyph glyph-name="uni043F.loclBGR" horiz-adv-x="1049" 
d="M767 964q77 -46 118 -132.5t41 -206.5v-625h-189v610q0 113 -48 171.5t-142 58.5q-110 0 -166.5 -65.5t-56.5 -194.5v-580h-189v991h182l3 -85q46 53 114 78.5t148 25.5q108 0 185 -46z" />
    <glyph glyph-name="uni0442.loclBGR" horiz-adv-x="1548" 
d="M1343.5 913q81.5 -97 81.5 -286v-627h-188v610q0 119 -40 174.5t-118 55.5q-200 0 -200 -269v-571h-187v610q0 230 -166 230q-95 0 -148.5 -67.5t-53.5 -201.5v-571h-189v991h182l3 -82q39 48 102.5 74.5t138.5 26.5q87 0 154 -37t103 -103q104 140 286 140
q158 0 239.5 -97z" />
    <glyph glyph-name="uni0446.loclBGR" horiz-adv-x="1081" 
d="M1061 172v-401h-187v229h-149v90q-49 -50 -116 -76t-144 -26q-109 0 -186 47.5t-116.5 133.5t-39.5 200v622h188v-608q0 -75 26 -125.5t68.5 -75t94.5 -24.5q108 0 166.5 76t58.5 237v520h188v-819h148z" />
    <glyph glyph-name="uni0448.loclBGR" horiz-adv-x="1548" 
d="M1413 991v-991h-182l-3 82q-39 -48 -102.5 -74.5t-138.5 -26.5q-87 0 -154 37t-103 103q-104 -140 -286 -140q-158 0 -239.5 97t-81.5 286v627h188v-610q0 -119 40 -174.5t118 -55.5q200 0 200 269v571h187v-610q0 -230 166 -230q95 0 148.5 67.5t53.5 201.5v571h189z
" />
    <glyph glyph-name="uni0449.loclBGR" horiz-adv-x="1581" 
d="M1561 172v-401h-187v229h-143l-3 83q-38 -49 -102 -75t-139 -26q-87 0 -154 36.5t-103 102.5q-51 -70 -124 -104.5t-162 -34.5q-158 0 -239.5 97t-81.5 286v626h188v-610q0 -118 40.5 -173.5t117.5 -55.5q201 0 201 268v571h186v-610q0 -229 166 -229q95 0 149 67.5
t54 200.5v571h188v-819h148z" />
    <glyph glyph-name="uni044C.loclBGR" horiz-adv-x="1044" 
d="M810.5 787q87.5 -67 125 -166.5t37.5 -202.5q0 -129 -58 -228.5t-159 -153.5t-228 -54q-124 0 -215.5 53.5t-140.5 155t-49 243.5v557h188v-240q44 49 116 76t157 27q139 0 226.5 -67zM723.5 226.5q60.5 74.5 60.5 199.5q0 119 -57.5 188.5t-171.5 69.5
q-117 0 -181.5 -74t-64.5 -198t63 -192t173 -68q118 0 178.5 74.5z" />
    <glyph glyph-name="uni044A.loclBGR" 
d="M854.5 787q88.5 -67 126 -163.5t37.5 -189.5q0 -141 -57.5 -243t-158 -155.5t-227.5 -53.5q-126 0 -217.5 53.5t-140.5 155t-49 243.5v385h-193v172h381v-240q44 50 116.5 76.5t150.5 26.5q143 0 231.5 -67zM768.5 226q60.5 74 60.5 204q0 115 -58 184.5t-173 69.5
q-76 0 -131.5 -34t-84 -94.5t-28.5 -139.5q0 -82 29 -141.5t79.5 -91t115.5 -31.5q130 0 190.5 74z" />
    <glyph glyph-name="uni044E.loclBGR" horiz-adv-x="1450" 
d="M1170.5 945q99.5 -65 152.5 -180t53 -261q0 -162 -54.5 -279.5t-154 -180t-233.5 -62.5q-129 0 -224 54.5t-149.5 158t-64.5 247.5h-170v-442h-189v1380h189v-766h176q19 123 78.5 212.5t151.5 136.5t206 47q133 0 232.5 -65zM1123.5 241q62.5 85 62.5 261
q0 158 -64.5 246t-185.5 88q-118 0 -185 -84.5t-67 -249.5q0 -177 63 -261.5t189 -84.5q125 0 187.5 85z" />
    <glyph glyph-name="uni04300300.ss01.rlig" horiz-adv-x="1075" 
d="M1024 164v-158q-31 -14 -80 -14q-70 0 -116 28.5t-66 93.5q-41 -61 -116 -96.5t-171 -35.5q-124 0 -215 65t-139.5 181t-48.5 266q0 152 49.5 268.5t143 182t220.5 65.5q81 0 146.5 -26.5t106.5 -75.5l3 83h183v-749q0 -41 18.5 -59.5t56.5 -18.5h25zM741 504
q0 167 -57 251.5t-174 84.5q-123 0 -185.5 -87.5t-62.5 -256.5q0 -170 61 -257t179 -87q239 0 239 352zM254 1380h221l201 -264h-195z" />
    <glyph glyph-name="uni044A0300.loclBGR.rlig" 
d="M854.5 787q88.5 -67 126 -163.5t37.5 -189.5q0 -141 -57.5 -243t-158 -155.5t-227.5 -53.5q-126 0 -217.5 53.5t-140.5 155t-49 243.5v385h-193v172h381v-240q44 50 116.5 76.5t150.5 26.5q143 0 231.5 -67zM768.5 226q60.5 74 60.5 204q0 115 -58 184.5t-173 69.5
q-76 0 -131.5 -34t-84 -94.5t-28.5 -139.5q0 -82 29 -141.5t79.5 -91t115.5 -31.5q130 0 190.5 74zM328 1380h221l201 -264h-195z" />
    <glyph glyph-name="uni044E0300.loclBGR.rlig" horiz-adv-x="1450" 
d="M1170.5 945q99.5 -65 152.5 -180t53 -261q0 -162 -54.5 -279.5t-154 -180t-233.5 -62.5q-129 0 -224 54.5t-149.5 158t-64.5 247.5h-170v-442h-189v1380h189v-766h176q19 123 78.5 212.5t151.5 136.5t206 47q133 0 232.5 -65zM1123.5 241q62.5 85 62.5 261
q0 158 -64.5 246t-185.5 88q-118 0 -185 -84.5t-67 -249.5q0 -177 63 -261.5t189 -84.5q125 0 187.5 85zM438 1380h221l201 -264h-195z" />
    <glyph glyph-name="zero.lf" 
d="M289 61.5q-107 84.5 -164 244t-57 380.5q0 220 57.5 380t165 245.5t254.5 85.5q150 0 257 -84t163.5 -243t56.5 -380q0 -220 -57.5 -381t-165 -246.5t-254.5 -85.5q-149 0 -256 84.5zM758 292.5q67 128.5 67 401.5q0 249 -72.5 382.5t-207.5 133.5q-142 0 -211.5 -136.5
t-69.5 -411.5q0 -240 73.5 -369t209.5 -129q144 0 211 128.5z" />
    <glyph glyph-name="one.lf" horiz-adv-x="971" 
d="M668 1370v-1370h-195v1126l-297 -182v211l332 215h160z" />
    <glyph glyph-name="two.lf" 
d="M929 182v-182h-847v188q270 240 402.5 376t183.5 227.5t51 185.5q0 110 -61.5 171.5t-172.5 61.5q-101 0 -163.5 -52t-71.5 -144h-199q11 117 69 203.5t156 133t225 46.5q122 0 217 -52.5t148 -147t53 -216.5q0 -112 -50 -212.5t-178 -234t-380 -352.5h618z" />
    <glyph glyph-name="three.lf" 
d="M925 612.5q60 -88.5 60 -211.5q0 -121 -61 -217.5t-168.5 -151.5t-241.5 -55q-175 0 -293 94t-156 263h205q22 -80 87.5 -125t162.5 -45q123 0 194.5 65t71.5 177t-72.5 174.5t-201.5 62.5h-88v168h80q112 0 175.5 54t63.5 149q0 92 -60 144t-165 52q-86 0 -143 -39
t-74 -108h-203q16 101 74.5 176.5t150 116.5t203.5 41q122 0 216.5 -46.5t147 -129.5t52.5 -189q0 -104 -48.5 -180.5t-135.5 -111.5q107 -39 167 -127.5z" />
    <glyph glyph-name="four.lf" 
d="M1071 299h-186v-299h-194v299h-629v168l602 903h221v-893h186v-178zM691 477v653l-433 -653h433z" />
    <glyph glyph-name="five.lf" 
d="M755.5 890q97.5 -60 150.5 -169.5t53 -253.5q0 -142 -58 -253.5t-162 -174t-237 -62.5q-107 0 -196 39.5t-151 113.5t-89 175h207q25 -64 88 -103.5t141 -39.5q79 0 137.5 36t89.5 104t31 161q0 146 -64.5 223.5t-187.5 77.5q-174 0 -229 -137h-176l78 743h694v-186h-540
l-37 -315q92 81 231 81q129 0 226.5 -60z" />
    <glyph glyph-name="six.lf" 
d="M805 847.5q94 -57.5 148 -160.5t54 -236q0 -138 -57.5 -246t-161.5 -168t-237 -60q-146 0 -248.5 75.5t-156.5 223.5t-54 363q0 232 61 403t174.5 263t266.5 92q145 0 249 -83.5t138 -242.5h-195q-26 70 -75.5 104.5t-118.5 34.5q-128 0 -202.5 -111t-93.5 -325
q52 64 131 97.5t167 33.5q117 0 211 -57.5zM690 198.5q56 34.5 87.5 97t31.5 144.5q0 83 -31.5 146.5t-88 98t-130.5 34.5q-75 0 -132 -35t-88.5 -97.5t-31.5 -142.5q0 -79 31 -142.5t89 -100.5t134 -37q73 0 129 34.5z" />
    <glyph glyph-name="seven.lf" 
d="M934 1370v-172l-553 -1198h-218l560 1184h-674v186h885z" />
    <glyph glyph-name="eight.lf" 
d="M986.5 576q56.5 -88 56.5 -187q0 -123 -58.5 -216.5t-164.5 -144.5t-246 -51t-246.5 51t-164.5 144.5t-58 216.5q0 104 56 193t157 139q-86 56 -131 131.5t-45 159.5q0 113 54.5 200.5t152.5 136t225 48.5q126 0 223.5 -49t152 -136.5t54.5 -199.5q0 -83 -45.5 -159.5
t-129.5 -131.5q101 -57 157.5 -145zM401 1159.5q-63 -54.5 -63 -149.5q0 -61 30.5 -109t84 -75t121.5 -27q67 0 120 27t83 75t30 109q0 95 -62.5 149.5t-170.5 54.5q-110 0 -173 -54.5zM717.5 188q60.5 28 93.5 80t33 121q0 71 -33 124t-93.5 81.5t-141.5 28.5
q-83 0 -145 -28.5t-95 -81.5t-33 -124q0 -69 33.5 -121t95.5 -80t144 -28q81 0 141.5 28z" />
    <glyph glyph-name="nine.lf" 
d="M784.5 1321.5q102.5 -75.5 156.5 -223.5t54 -363q0 -232 -61 -403t-174.5 -263t-266.5 -92q-145 0 -249 83.5t-138 242.5h195q26 -70 75.5 -104.5t118.5 -34.5q128 0 202.5 111t93.5 325q-52 -64 -131 -97.5t-167 -33.5q-117 0 -211 57.5t-148 160.5t-54 236
q0 138 57.5 246t161.5 168t237 60q146 0 248.5 -75.5zM660 690q57 35 88.5 97.5t31.5 142.5q0 79 -31 142.5t-89 100.5t-134 37q-73 0 -129 -34.5t-87.5 -97t-31.5 -144.5q0 -83 31.5 -146.5t88 -98t130.5 -34.5q75 0 132 35z" />
    <glyph glyph-name="zero.sinf" horiz-adv-x="711" 
d="M141 -141.5q-65 114.5 -65 281.5q0 95 24 183.5t87 149t171 60.5q101 0 163 -56.5t88 -145t26 -191.5q0 -157 -61.5 -276.5t-215.5 -119.5q-152 0 -217 114.5zM465.5 -62.5q32.5 70.5 32.5 202.5q0 109 -27.5 188.5t-112.5 79.5q-86 0 -115.5 -78.5t-29.5 -189.5
q0 -71 8.5 -128.5t40.5 -101t96 -43.5q75 0 107.5 70.5z" />
    <glyph glyph-name="one.sinf" horiz-adv-x="446" 
d="M338 516v-759h-133v600l-168 -103v144l192 118h109z" />
    <glyph glyph-name="two.sinf" horiz-adv-x="653" 
d="M592 -120v-123h-500v118q147 130 221 204.5t102.5 122.5t28.5 93q0 52 -28 81.5t-84 29.5q-49 0 -82 -27.5t-37 -75.5h-141q6 67 40 119t90.5 81.5t129.5 29.5q80 0 137 -31.5t86 -85t29 -119.5q0 -76 -42.5 -142.5t-109.5 -121.5l-186 -153h346z" />
    <glyph glyph-name="three.sinf" horiz-adv-x="682" 
d="M578.5 90.5q27.5 -44.5 27.5 -96.5q0 -74 -37 -131t-99 -88t-136 -31q-106 0 -176.5 58t-94.5 159h144q12 -45 46.5 -69.5t80.5 -24.5q60 0 96.5 34.5t36.5 92.5q0 50 -35 80.5t-92 30.5h-90v110h76q51 0 84.5 27.5t33.5 71.5q0 46 -32 70t-82 24q-40 0 -69 -20.5
t-38 -59.5h-139q10 63 44.5 109.5t87 71t114.5 24.5q71 0 128.5 -26t90.5 -76t33 -119q0 -45 -20 -83t-56 -64q45 -30 72.5 -74.5z" />
    <glyph glyph-name="four.sinf" horiz-adv-x="651" 
d="M612 -84h-104v-159h-133v159h-352v107l342 493h143v-479h104v-121zM375 37v314l-215 -314h215z" />
    <glyph glyph-name="five.sinf" horiz-adv-x="668" 
d="M481 257q57 -34 88 -95.5t31 -142.5q0 -79 -33.5 -142t-94.5 -99t-140 -36q-91 0 -162 52.5t-98 150.5h139q16 -38 50 -59t71 -21q61 0 95 41t34 111q0 72 -32 110.5t-93 38.5q-89 0 -121 -73h-121l47 423h412v-124h-303l-13 -128q28 15 52.5 21t58.5 6q76 0 133 -34z
" />
    </font>
</defs>
</svg>
