<?xml version="1.0" standalone="no"?>
<!DOCTYPE svg PUBLIC "-//W3C//DTD SVG 1.1//EN" "http://www.w3.org/Graphics/SVG/1.1/DTD/svg11.dtd" >
<svg xmlns="http://www.w3.org/2000/svg" xmlns:xlink="http://www.w3.org/1999/xlink" version="1.1">
<metadata>
Created by FontForge 20170731 at Tue May  3 21:19:27 2016
 By Aleksey,,,
Copyright (c) by Binnenland, 2015. All rights reserved. Exclusively licensed through MINI Brand Management (BMW Group) 
</metadata>
<defs>
<font id="MINISerif-Bold" horiz-adv-x="0" >
  <font-face 
    font-family="MINI Serif"
    font-weight="700"
    font-stretch="normal"
    units-per-em="1000"
    panose-1="0 0 8 0 0 0 0 0 0 0"
    ascent="750"
    descent="-250"
    x-height="452"
    cap-height="648"
    bbox="-679 -222 1032 882"
    underline-thickness="50"
    underline-position="-150"
    unicode-range="U+0020-FB02"
  />
<missing-glyph horiz-adv-x="600" 
d="M169 69q-57 31 -88 88t-31 131t31 130.5t88 87.5t131 31t131 -31t88 -87.5t31 -130.5t-31 -131t-88 -88t-131 -31t-131 31zM309 228q0 17 12 32.5t36 36.5q28 25 42.5 44.5t14.5 44.5q0 38 -31 62.5t-82 24.5q-34 0 -60 -10t-42 -28v-66h42q4 44 19.5 62t41.5 18
q25 0 38 -16t13 -39q0 -26 -9 -41.5t-27 -32.5q-20 -20 -30.5 -39t-10.5 -53h33zM319.5 123.5q10.5 10.5 10.5 25.5q0 16 -10.5 26t-25.5 10q-17 0 -27 -10t-10 -26q0 -15 10.5 -25.5t26.5 -10.5q15 0 25.5 10.5z" />
    <glyph glyph-name="fi" unicode="fi" horiz-adv-x="646" 
d="M327 680q25 -15 49 -41l-35 -32q-18 19 -35.5 28t-37.5 9q-33 0 -48.5 -23t-15.5 -70v-99h116v-43h-116v-366h92v-43h-273v43h69v366h-65v43h65v75q0 74 45.5 121t118.5 47q46 0 71 -15zM363 43h77v366h-70v41l182 12v-419h78v-43h-267v43zM444.5 644.5
q20.5 20.5 49.5 20.5t49.5 -20.5t20.5 -49.5t-20.5 -49.5t-49.5 -20.5t-49.5 20.5t-20.5 49.5t20.5 49.5z" />
    <glyph glyph-name="fl" unicode="fl" horiz-adv-x="590" 
d="M569 43v-43h-236v43h62v573q-46 37 -101 37q-38 0 -64.5 -28.5t-26.5 -81.5v-93h107v-43h-107v-364h83v-43h-263v43h69v364h-65v43h65v71q0 58 27 98t70.5 60t93.5 20q47 0 92 -18l132 9v-647h62z" />
    <glyph glyph-name="f_b.liga" unicode="fb" horiz-adv-x="854" 
d="M723 433.5q45 -29.5 69.5 -79.5t24.5 -109q0 -64 -23.5 -123t-71 -96.5t-115.5 -37.5q-64 0 -102 39v-27h-112v617q-45 36 -99 36q-38 0 -64.5 -28.5t-26.5 -81.5v-93h107v-43h-107v-364h83v-43h-263v43h69v364h-65v43h65v71q0 58 27 98t70.5 60t93.5 20q44 0 87 -16
l135 9v-270q22 19 49 30t66 11q58 0 103 -29.5zM677.5 82.5q22.5 44.5 22.5 115.5q0 92 -25 153.5t-74 61.5q-40 0 -68 -27t-28 -83v-158q0 -48 29.5 -77.5t71.5 -29.5q49 0 71.5 44.5z" />
    <glyph glyph-name="f_h.liga" unicode="fh" horiz-adv-x="847" 
d="M835 43v-43h-235v43h62v262q0 110 -67 110q-37 0 -62.5 -27.5t-25.5 -81.5v-263h60v-43h-233v43h62v572q-22 18 -46.5 28t-55.5 10q-38 0 -64.5 -28.5t-26.5 -81.5v-93h107v-43h-107v-364h83v-43h-263v43h69v364h-65v43h65v71q0 58 27 98t70.5 60t93.5 20q48 0 91 -18
l133 10v-270q42 42 109 42q89 0 123.5 -43.5t34.5 -114.5v-262h61z" />
    <glyph glyph-name="f_k.liga" unicode="fk" horiz-adv-x="843" 
d="M836 43v-43h-160l-151 223h-18v-180h58v-43h-231v43h62v572q-22 18 -46.5 28t-55.5 10q-38 0 -64.5 -28.5t-26.5 -81.5v-93h107v-43h-107v-364h83v-43h-263v43h69v364h-65v43h65v71q0 58 27 98t70.5 60t93.5 20q48 0 91 -18l133 10v-424h38l133 140h-69v43h205v-43h-68
l-127 -135l163 -229h54z" />
    <glyph glyph-name="uni04100300.rlig" unicode="&#x410;&#x300;" horiz-adv-x="665" 
d="M657 48v-48h-277v48h78l-61 181h-189l-63 -181h74v-48h-209v48h76l214 600h71l214 -600h72zM380 279l-74 219h-5l-76 -219h155zM193 792l65 71l145 -166h-65z" />
    <glyph glyph-name="uni04150300.rlig" unicode="&#x415;&#x300;" horiz-adv-x="571" 
d="M539 182v-182h-516v48h78v552h-78v48h508v-182h-70l-51 134h-188v-233h104v78h60v-206h-60v78h-104v-269h197l50 134h70zM199 800l65 71l145 -166h-65z" />
    <glyph glyph-name="uni04180300.rlig" unicode="&#x418;&#x300;" horiz-adv-x="702" 
d="M601 600v-552h78v-48h-277v48h78v408l-258 -336v-72h78v-48h-277v48h78v552h-78v48h277v-48h-78v-394l258 335v59h-78v48h277v-48h-78zM243 800l65 71l145 -166h-65z" />
    <glyph glyph-name="uni041E0300.rlig" unicode="&#x41e;&#x300;" horiz-adv-x="643" 
d="M152.5 34q-65.5 46 -95 118t-29.5 153q0 92 31.5 173t97.5 131.5t164 50.5q101 0 167.5 -46t96.5 -118.5t30 -152.5q0 -92 -31.5 -173t-97.5 -131.5t-165 -50.5q-103 0 -168.5 46zM452.5 101q38.5 69 38.5 177q0 146 -45 242t-136 96q-80 0 -119 -70t-39 -178
q0 -146 45.5 -241t136.5 -95q80 0 118.5 69zM214 800l65 71l145 -166h-65z" />
    <glyph glyph-name="uni04230300.rlig" unicode="&#x423;&#x300;" horiz-adv-x="587" 
d="M579 600h-76l-209 -511q-22 -53 -51 -78.5t-75 -25.5q-63 0 -109 49l36 41q14 -16 34.5 -27t39.5 -11q23 0 39 14t27 42l39 96l-186 411h-80v48h278v-48h-73l118 -273l111 273h-79v48h216v-48zM221 800l65 71l145 -166h-65z" />
    <glyph glyph-name="uni042A0300.rlig" unicode="&#x42a;&#x300;" horiz-adv-x="736" 
d="M610.5 346.5q48.5 -22.5 75.5 -63t27 -94.5t-27 -97t-76 -67.5t-113 -24.5h-317v48h78v552h-115l-50 -134h-70v182h434v-48h-78v-231h119q64 0 112.5 -22.5zM533 65q24 17 39 48.5t15 74.5q0 38 -14.5 67.5t-38.5 46t-51 16.5h-104v-270h103q27 0 51 17zM237 800l65 71
l145 -166h-65z" />
    <glyph glyph-name="uni042B0300.rlig" unicode="&#x42b;&#x300;" horiz-adv-x="910" 
d="M451.5 346.5q48.5 -22.5 75.5 -63t27 -94.5t-27 -97t-76 -67.5t-113 -24.5h-315v48h78v552h-78v48h277v-48h-78v-231h117q64 0 112.5 -22.5zM374 65q24 17 39 48.5t15 74.5q0 38 -14.5 67.5t-38.5 46t-51 16.5h-102v-270h101q27 0 51 17zM790 600v-552h97v-48h-315v48h97
v552h-97v48h315v-48h-97zM344 800l65 71l145 -166h-65z" />
    <glyph glyph-name="uni042D0300.rlig" unicode="&#x42d;&#x300;" horiz-adv-x="576" 
d="M422.5 613.5q65.5 -46.5 95.5 -119t30 -151.5q0 -91 -31 -171.5t-96.5 -131.5t-164.5 -51q-88 0 -149.5 51t-76.5 144h52q14 -71 57.5 -105t107.5 -34q91 0 134.5 64t43.5 172q0 24 -1 36h-257v52h254q-13 114 -54.5 179.5t-103.5 65.5q-108 0 -123 -148h-85v135
q42 25 88 42t113 17q101 0 166.5 -46.5zM180 800l65 71l145 -166h-65z" />
    <glyph glyph-name="uni042E0300.rlig" unicode="&#x42e;&#x300;" horiz-adv-x="952" 
d="M797.5 614q66.5 -46 96.5 -118.5t30 -152.5q0 -92 -31.5 -173t-97.5 -131.5t-165 -50.5q-103 0 -168.5 46t-95 118t-29.5 153v12h-115v-269h78v-48h-277v48h78v552h-78v48h277v-48h-78v-233h119q9 80 43.5 146.5t96.5 106.5t149 40q101 0 167.5 -46zM761.5 101
q38.5 69 38.5 177q0 146 -45 242t-136 96q-80 0 -119 -70t-39 -178q0 -146 45.5 -241t136.5 -95q80 0 118.5 69zM338 792l65 71l145 -166h-65z" />
    <glyph glyph-name="uni042F0300.rlig" unicode="&#x42f;&#x300;" horiz-adv-x="644" 
d="M543 600v-552h78v-48h-277v48h78v246h-56l-182 -294h-179v48h69l165 257q-60 19 -94 64t-34 104q0 75 53 125t156 50h301v-48h-78zM422 342v258h-91q-40 0 -66 -35.5t-26 -91.5q0 -54 27 -92.5t65 -38.5h91zM209 792l65 71l145 -166h-65z" />
    <glyph glyph-name="uni04300300.rlig" unicode="&#x430;&#x300;" horiz-adv-x="488" 
d="M478 29q-21 -21 -45 -30.5t-56 -9.5q-54 0 -79 38q-23 -18 -52.5 -28t-60.5 -10q-66 0 -104.5 28t-38.5 80q0 41 29.5 72.5t83.5 49.5l133 45v48q0 60 -13.5 84.5t-46.5 24.5q-37 0 -53.5 -26t-21.5 -90h-86v101q25 25 72 41t94 16q83 0 125.5 -38t42.5 -113v-240
q0 -11 7 -18t18 -7q14 0 32 14zM175.5 62.5q17.5 -18.5 43.5 -18.5q35 0 69 31v142l-72 -25q-28 -10 -43 -31.5t-15 -50.5t17.5 -47.5zM129 604l65 71l145 -166h-65z" />
    <glyph glyph-name="uni04350300.rlig" unicode="&#x435;&#x300;" horiz-adv-x="473" 
d="M386 408.5q50 -54.5 50 -148.5q0 -15 -1 -23h-289q5 -81 41 -133.5t89 -52.5q40 0 73 28.5t43 73.5h43q-13 -76 -65 -120t-127 -44q-61 0 -107.5 29.5t-72.5 83t-26 122.5q0 71 27 125t75.5 84t111.5 30q85 0 135 -54.5zM175 383q-25 -37 -29 -101h176q1 66 -20 102
t-61 36q-41 0 -66 -37zM128 604l65 71l145 -166h-65z" />
    <glyph glyph-name="uni04380300.rlig" unicode="&#x438;&#x300;" horiz-adv-x="534" 
d="M514 44v-41l-172 -11l-2 36q-19 -19 -48.5 -29t-64.5 -10q-154 0 -154 157v263h-61v43h173v-306q0 -109 65 -109q38 0 64 27t26 82v263h-61v43h173v-408h62zM146 604l65 71l145 -166h-65z" />
    <glyph glyph-name="uni043E0300.rlig" unicode="&#x43e;&#x300;" horiz-adv-x="497" 
d="M137 18.5q-47 29.5 -73.5 82.5t-26.5 120q0 68 27.5 123.5t76 87t110.5 31.5q59 0 107 -29t75 -81.5t27 -118.5q0 -68 -28.5 -124t-78 -88.5t-111.5 -32.5q-58 0 -105 29.5zM318.5 78q23.5 45 23.5 129q0 91 -27 152t-75 61q-40 0 -63.5 -45t-23.5 -129q0 -91 27 -152
t75 -61q40 0 63.5 45zM138 604l65 71l145 -166h-65z" />
    <glyph glyph-name="uni04430300.rlig" unicode="&#x443;&#x300;" horiz-adv-x="503" 
d="M508 409h-65l-194 -523q-38 -102 -124 -102q-27 0 -53 11.5t-55 37.5l34 40q17 -16 37.5 -26.5t36.5 -10.5q21 0 38 13.5t27 38.5l40 106l-176 415h-59v43h243v-43h-64l109 -271l102 271h-70v43h193v-43zM169 604l65 71l145 -166h-65z" />
    <glyph glyph-name="uni044B0300.rlig" unicode="&#x44b;&#x300;" horiz-adv-x="771" 
d="M431.5 224.5q48.5 -35.5 48.5 -90.5q0 -38 -22 -68.5t-63 -48t-96 -17.5h-276v43h60v366h-60v43h231v-43h-60v-149h109q80 0 128.5 -35.5zM688 409v-366h60v-43h-231v43h60v366h-60v43h231v-43h-60zM340 67q25 24 25 67q0 36 -23.5 58.5t-61.5 22.5h-86v-172h87
q34 0 59 24zM282 604l65 71l145 -166h-65z" />
    <glyph glyph-name="uni044D0300.rlig" unicode="&#x44d;&#x300;" horiz-adv-x="460" 
d="M331 428.5q47 -34.5 69 -86.5t22 -107q0 -60 -24 -117t-71 -93.5t-111 -36.5q-78 0 -126.5 47.5t-61.5 117.5h44q12 -47 42.5 -77.5t75.5 -30.5q58 0 86.5 40.5t28.5 108.5v21h-156v46h152q-7 67 -30 112.5t-59 45.5q-34 0 -58 -25.5t-28 -81.5h-80v91q24 24 71 42t95 18
q72 0 119 -34.5zM102 604l65 71l145 -166h-65z" />
    <glyph glyph-name="uni044F0300.rlig" unicode="&#x44f;&#x300;" horiz-adv-x="533" 
d="M449 409v-366h61v-43h-233v43h61v159h-43l-138 -202h-152v43h55l118 167q-46 13 -75 45t-29 77q0 51 44.5 85.5t128.5 34.5h263v-43h-61zM338 409h-74q-32 0 -52 -20.5t-20 -58.5q0 -37 21 -60.5t50 -23.5h75v163zM159 604l65 71l145 -166h-65z" />
    <glyph glyph-name=".notdef" horiz-adv-x="600" 
d="M169 69q-57 31 -88 88t-31 131t31 130.5t88 87.5t131 31t131 -31t88 -87.5t31 -130.5t-31 -131t-88 -88t-131 -31t-131 31zM309 228q0 17 12 32.5t36 36.5q28 25 42.5 44.5t14.5 44.5q0 38 -31 62.5t-82 24.5q-34 0 -60 -10t-42 -28v-66h42q4 44 19.5 62t41.5 18
q25 0 38 -16t13 -39q0 -26 -9 -41.5t-27 -32.5q-20 -20 -30.5 -39t-10.5 -53h33zM319.5 123.5q10.5 10.5 10.5 25.5q0 16 -10.5 26t-25.5 10q-17 0 -27 -10t-10 -26q0 -15 10.5 -25.5t26.5 -10.5q15 0 25.5 10.5z" />
    <glyph glyph-name=".null" 
 />
    <glyph glyph-name="nonmarkingreturn" horiz-adv-x="333" 
 />
    <glyph glyph-name="space" unicode=" " horiz-adv-x="250" 
 />
    <glyph glyph-name="exclam" unicode="!" horiz-adv-x="246" 
d="M62 648h123l-16 -445h-90zM75.5 8.5q-19.5 19.5 -19.5 47.5t19.5 47.5t47.5 19.5t47.5 -19.5t19.5 -47.5t-19.5 -47.5t-47.5 -19.5t-47.5 19.5z" />
    <glyph glyph-name="quotedbl" unicode="&#x22;" horiz-adv-x="393" 
d="M56 691h112l-50 -214h-62v214zM222 691h113l-51 -214h-62v214z" />
    <glyph glyph-name="numbersign" unicode="#" horiz-adv-x="624" 
d="M458 399l-43 -133h151v-59h-170l-75 -233h-62l75 233h-128l-74 -233h-65l75 233h-110v59h129l42 133h-147v59h166l69 215h64l-69 -215h128l69 215h64l-70 -215h114v-59h-133zM395 399h-127l-43 -133h128z" />
    <glyph glyph-name="dollar" unicode="$" horiz-adv-x="493" 
d="M409 45q-52 -46 -139 -54v-94h-61v94q-60 5 -105.5 25.5t-64.5 44.5v121h84q10 -79 40 -113t77 -34t75.5 29.5t28.5 76.5q0 61 -52 96l-169 112q-38 25 -62.5 63t-24.5 87q0 65 46 108t127 50v94h61v-94q55 -4 98.5 -22.5t67.5 -45.5v-123h-85q-8 82 -36 115.5t-74 33.5
q-45 0 -69.5 -26.5t-24.5 -68.5q0 -53 45 -83l177 -116q44 -29 68 -71.5t24 -89.5q0 -69 -52 -115z" />
    <glyph glyph-name="percent" unicode="%" horiz-adv-x="772" 
d="M482 673h53l-251 -699h-54zM103 344.5q-41 44.5 -41 130.5q0 55 19.5 94t52 58.5t70.5 19.5q62 0 103.5 -43t41.5 -129q0 -57 -20 -96.5t-53 -59t-72 -19.5q-60 0 -101 44.5zM244 378q12 40 12 97q0 59 -12 97t-40 38q-27 0 -38.5 -39.5t-11.5 -95.5q0 -137 50 -137
q28 0 40 40zM463.5 45q-40.5 45 -40.5 130q0 55 19.5 94t52 58.5t71.5 19.5q61 0 102.5 -43.5t41.5 -128.5q0 -57 -20 -96.5t-53 -59t-72 -19.5q-61 0 -101.5 45zM605 78q12 40 12 97q0 59 -11.5 97t-39.5 38q-27 0 -39 -39t-12 -96q0 -137 51 -137q27 0 39 40z" />
    <glyph glyph-name="ampersand" unicode="&#x26;" horiz-adv-x="536" 
d="M150.5 10q-52.5 21 -85.5 64t-33 108q0 59 35 104t89 65q-38 25 -58.5 59t-20.5 82q0 77 52 122.5t134 45.5q51 0 99 -18.5t75 -48.5v-116h-78q-6 56 -16 86t-27.5 42.5t-48.5 12.5q-39 0 -61 -35.5t-22 -80.5q0 -57 21 -98t67 -41v-39h-14q-35 0 -60 -21.5t-37.5 -54.5
t-12.5 -67q0 -67 33 -107.5t81 -40.5q58 0 88.5 37t30.5 86q0 29 -7.5 54t-20.5 35h-62v41h227v-41h-55q26 -44 26 -85q0 -46 -27 -85t-78.5 -62.5t-121.5 -23.5q-59 0 -111.5 21z" />
    <glyph glyph-name="quotesingle" unicode="'" horiz-adv-x="226" 
d="M56 691h112l-50 -214h-62v214z" />
    <glyph glyph-name="parenleft" unicode="(" horiz-adv-x="291" 
d="M97 84.5q-47 90.5 -47 222.5q0 133 48 225t139 152l34 -29q-50 -39 -81.5 -135t-31.5 -212t31.5 -211.5t80.5 -136.5l-32 -26q-94 60 -141 150.5z" />
    <glyph glyph-name="parenright" unicode=")" horiz-adv-x="291" 
d="M194 533.5q47 -90.5 47 -222.5q0 -133 -48 -225t-139 -152l-34 29q50 39 81.5 135t31.5 212t-31.5 211.5t-80.5 136.5l32 26q94 -60 141 -150.5z" />
    <glyph glyph-name="asterisk" unicode="*" horiz-adv-x="462" 
d="M272 487l85 -93l-64 -46l-62 110l-64 -111l-63 46l87 94l-125 26l24 74l116 -53l-14 126h78l-15 -127l117 53l24 -74z" />
    <glyph glyph-name="plus" unicode="+" horiz-adv-x="524" 
d="M232 231h-176v58h176v176h59v-176h176v-58h-176v-176h-59v176z" />
    <glyph glyph-name="comma" unicode="," horiz-adv-x="226" 
d="M160.5 95q21.5 -21 21.5 -62q0 -51 -25 -86t-54.5 -53.5t-35.5 -18.5l-23 37q21 9 44 30t26 51q-3 -1 -10 -1q-24 0 -41.5 18.5t-17.5 43.5q0 26 19.5 44t45.5 18q29 0 50.5 -21z" />
    <glyph glyph-name="hyphen" unicode="-" horiz-adv-x="306" 
d="M39 289h228v-58h-228v58z" />
    <glyph glyph-name="period" unicode="." horiz-adv-x="220" 
d="M60.5 103.5q19.5 19.5 47.5 19.5t47.5 -19.5t19.5 -47.5t-19.5 -47.5t-47.5 -19.5t-47.5 19.5t-19.5 47.5t19.5 47.5z" />
    <glyph glyph-name="slash" unicode="/" horiz-adv-x="421" 
d="M337 673h62l-317 -699h-62z" />
    <glyph glyph-name="zero" unicode="0" horiz-adv-x="530" 
d="M140 30.5q-54 41.5 -83 116.5t-29 173q0 100 30 177.5t84 120t123 42.5t123 -42.5t84 -120t30 -177.5q0 -98 -29 -173t-83 -116.5t-125 -41.5t-125 41.5zM325.5 70.5q26.5 37.5 42 104t15.5 149.5t-15.5 150t-42 105t-60.5 38t-60.5 -38t-42 -105t-15.5 -150t15.5 -149.5
t42 -104t60.5 -37.5t60.5 37.5z" />
    <glyph glyph-name="one" unicode="1" horiz-adv-x="530" 
d="M431 48v-48h-311v48h99v494l-81 -53l-27 41l174 118h46v-600h100z" />
    <glyph glyph-name="two" unicode="2" horiz-adv-x="530" 
d="M480 108v-108h-409v38q122 122 182.5 194.5t83 123t22.5 106.5q0 70 -26.5 111t-78.5 41q-46 0 -74 -34.5t-34 -115.5h-79v120q32 32 80 53t108 21q56 0 106.5 -21t83 -64t32.5 -106q0 -48 -24.5 -92t-83.5 -103.5t-178 -163.5h289z" />
    <glyph glyph-name="three" unicode="3" horiz-adv-x="530" 
d="M453.5 295q35.5 -45 35.5 -111q0 -65 -36.5 -109t-91 -65t-106.5 -21q-66 0 -122.5 34t-89.5 94l39 24q27 -48 68.5 -72t89.5 -24q56 0 93 33t37 103q0 62 -30.5 97.5t-85.5 35.5h-38v47q34 0 65 15.5t50.5 45.5t19.5 73q0 50 -26 84.5t-73 34.5q-93 0 -105 -150h-79v121
q33 36 82 54.5t106 18.5q61 0 109 -21t75 -59t27 -87t-26 -83.5t-67 -53.5q44 -14 79.5 -59z" />
    <glyph glyph-name="four" unicode="4" horiz-adv-x="530" 
d="M511 147h-91v-147h-112v147h-282v57l245 444h149v-424h91v-77zM308 224v368h-14l-198 -368h212z" />
    <glyph glyph-name="five" unicode="5" horiz-adv-x="530" 
d="M374.5 395q48.5 -25 77.5 -72.5t29 -113.5q0 -73 -37 -122.5t-92 -73.5t-108 -24q-65 0 -120.5 33t-85.5 91l37 23q24 -45 64.5 -68t84.5 -23q34 0 66 16t52.5 51t20.5 88q0 80 -37.5 119.5t-92.5 39.5q-31 0 -57 -12t-42 -33h-52l26 334h343v-106h-301l-13 -167
q21 20 55 32.5t76 12.5q58 0 106.5 -25z" />
    <glyph glyph-name="six" unicode="6" horiz-adv-x="530" 
d="M391.5 390.5q46.5 -24.5 76 -72t29.5 -112.5q0 -66 -30.5 -115.5t-80.5 -75.5t-107 -26q-62 0 -116.5 33t-88.5 103.5t-34 178.5q0 110 35.5 190t95 122t129.5 42q52 0 95 -24t73 -72l-34 -30q-48 73 -120 73q-66 0 -105 -62.5t-46 -180.5q25 26 58.5 39.5t71.5 13.5
q52 0 98.5 -24.5zM357.5 75q20.5 42 20.5 110q0 88 -30 133.5t-77 45.5q-33 0 -62.5 -21.5t-45.5 -57.5q4 -121 39.5 -186.5t90.5 -65.5q44 0 64.5 42z" />
    <glyph glyph-name="seven" unicode="7" horiz-adv-x="530" 
d="M486 648v-48l-274 -600h-60l251 543h-267l-29 -77h-55v182h434z" />
    <glyph glyph-name="eight" unicode="8" horiz-adv-x="530" 
d="M463.5 282q32.5 -44 32.5 -104q0 -62 -32.5 -104.5t-85.5 -63.5t-113 -21q-59 0 -112 21t-86 63.5t-33 104.5q0 60 32.5 104t86.5 62q-40 22 -67.5 61.5t-27.5 90.5q0 53 29 89.5t76 54.5t102 18t102 -18t76 -54.5t29 -89.5q0 -51 -27.5 -90.5t-67.5 -61.5
q54 -18 86.5 -62zM197 581.5q-27 -34.5 -27 -89.5t28 -92t67 -37t67 37t28 92t-27 89.5t-68 34.5t-68 -34.5zM344 72q30 39 30 105t-29.5 105t-79.5 39t-79.5 -39t-29.5 -105t30 -105t79 -39t79 39z" />
    <glyph glyph-name="nine" unicode="9" horiz-adv-x="530" 
d="M376.5 625q54.5 -33 88.5 -103.5t34 -177.5q0 -109 -35 -189.5t-93.5 -123t-126.5 -42.5q-57 0 -104 29.5t-78 81.5l39 27q51 -86 124 -86q66 0 105 62.5t46 182.5q-53 -53 -130 -53q-52 0 -98.5 24.5t-76 72t-29.5 111.5q0 66 30.5 115.5t80.5 75.5t107 26
q62 0 116.5 -33zM331 305.5q30 21.5 46 58.5q-4 125 -38.5 188t-89.5 63q-46 0 -67 -42.5t-21 -110.5q0 -87 30 -132.5t77 -45.5q33 0 63 21.5z" />
    <glyph glyph-name="colon" unicode=":" horiz-adv-x="220" 
d="M62.5 337.5q-19.5 19.5 -19.5 47.5t19.5 47.5t47.5 19.5t47.5 -19.5t19.5 -47.5t-19.5 -47.5t-47.5 -19.5t-47.5 19.5zM62.5 8.5q-19.5 19.5 -19.5 47.5t19.5 47.5t47.5 19.5t47.5 -19.5t19.5 -47.5t-19.5 -47.5t-47.5 -19.5t-47.5 19.5z" />
    <glyph glyph-name="semicolon" unicode=";" horiz-adv-x="226" 
d="M62.5 337.5q-19.5 19.5 -19.5 47.5t19.5 47.5t47.5 19.5t47.5 -19.5t19.5 -47.5t-19.5 -47.5t-47.5 -19.5t-47.5 19.5zM158 95q20 -21 20 -64q0 -61 -36.5 -101t-74.5 -54l-30 30q25 13 47 36t25 48h-2q-24 0 -43 19t-19 46q0 25 19 43t46 18q28 0 48 -21z" />
    <glyph glyph-name="less" unicode="&#x3c;" horiz-adv-x="524" 
d="M54 231v56l411 162v-64l-328 -125l328 -125v-66z" />
    <glyph glyph-name="equal" unicode="=" horiz-adv-x="524" 
d="M56 351h411v-58h-411v58zM56 230h411v-58h-411v58z" />
    <glyph glyph-name="greater" unicode="&#x3e;" horiz-adv-x="524" 
d="M59 134l319 126l-319 123v66l411 -160v-58l-411 -161v64z" />
    <glyph glyph-name="question" unicode="?" horiz-adv-x="424" 
d="M156 255.5q3 18.5 13.5 35.5t34.5 46l61 72q17 20 24 43.5t7 57.5q0 42 -24 72t-71 30q-48 0 -77 -33t-36 -115h-79v122q30 33 79 52.5t111 19.5q63 0 111 -21t74 -58t26 -83t-18.5 -75.5t-55.5 -64.5l-75 -74q-21 -21 -33.5 -39t-12.5 -43h-62q0 37 3 55.5zM137.5 8.5
q-19.5 19.5 -19.5 47.5t19.5 47.5t47.5 19.5t47.5 -19.5t19.5 -47.5t-19.5 -47.5t-47.5 -19.5t-47.5 19.5z" />
    <glyph glyph-name="at" unicode="@" horiz-adv-x="950" 
d="M265.5 -155.5q-100.5 58.5 -159 158.5t-58.5 220q0 119 58.5 219.5t159 159t220.5 58.5q118 0 213 -52t149 -141t54 -197q0 -75 -29.5 -141t-79.5 -105t-108 -39q-45 0 -77.5 15.5t-47.5 46.5q-56 -58 -133 -58q-90 0 -132 50t-42 135q0 65 30.5 131.5t86 109.5t126.5 43
q59 0 97 -36l5 26h111l-51 -351q-1 -4 -1 -13q0 -21 9.5 -33t24.5 -12q41 0 76.5 33t56 86.5t20.5 111.5q0 91 -46.5 169t-128.5 124t-183 46q-102 0 -189.5 -52.5t-139 -141t-51.5 -192.5t51.5 -192.5t139 -141t189.5 -52.5q66 0 133 27t108 76l40 -38q-53 -54 -128.5 -85
t-152.5 -31q-120 0 -220.5 58.5zM511.5 66.5q31.5 29.5 38.5 78.5l24 158q2 14 2 22q0 37 -19.5 61.5t-58.5 24.5q-66 0 -96 -73t-30 -162q0 -139 72 -139q36 0 67.5 29.5z" />
    <glyph glyph-name="A" unicode="A" horiz-adv-x="665" 
d="M657 48v-48h-277v48h78l-61 181h-189l-63 -181h74v-48h-209v48h76l214 600h71l214 -600h72zM380 279l-74 219h-5l-76 -219h155z" />
    <glyph glyph-name="B" unicode="B" horiz-adv-x="588" 
d="M524.5 289q31.5 -43 31.5 -101q0 -54 -27 -97t-76 -67t-113 -24h-317v48h78v552h-78v48h316q52 0 93.5 -20.5t64.5 -57.5t23 -84q0 -40 -22 -75t-58 -59q53 -20 84.5 -63zM222 600v-233h90q37 0 61.5 32t24.5 85q0 54 -25.5 85t-60.5 31h-90zM376 64.5q24 16.5 39 48
t15 74.5q0 53 -30 91.5t-76 38.5h-102v-269h103q27 0 51 16.5z" />
    <glyph glyph-name="C" unicode="C" horiz-adv-x="577" 
d="M152.5 35q-65.5 47 -95 119.5t-29.5 154.5q0 92 31 172t96.5 129.5t165.5 49.5q67 0 113 -17t88 -42v-135h-85q-8 78 -42 114t-85 36q-80 0 -119 -70t-39 -177q0 -100 24.5 -173.5t67.5 -112.5t97 -39q56 0 98 34.5t56 104.5h52q-15 -93 -76.5 -144t-149.5 -51
q-103 0 -168.5 47z" />
    <glyph glyph-name="D" unicode="D" horiz-adv-x="672" 
d="M505.5 606q70.5 -42 104.5 -112.5t34 -158.5q0 -83 -35 -160t-106 -126t-171 -49h-309v48h81v552h-81v48h309q103 0 173.5 -42zM430.5 89q43.5 41 65.5 107t22 140q0 76 -23 136t-67 94t-103 34h-100v-552h100q62 0 105.5 41z" />
    <glyph glyph-name="E" unicode="E" horiz-adv-x="571" 
d="M539 182v-182h-516v48h78v552h-78v48h508v-182h-70l-51 134h-188v-233h104v78h60v-206h-60v78h-104v-269h197l50 134h70z" />
    <glyph glyph-name="F" unicode="F" horiz-adv-x="554" 
d="M531 648v-182h-70l-51 134h-188v-233h104v78h60v-206h-60v78h-104v-269h78v-48h-277v48h78v552h-78v48h508z" />
    <glyph glyph-name="G" unicode="G" horiz-adv-x="643" 
d="M167.5 21.5q-63.5 33.5 -101.5 106t-38 183.5q0 90 33 169.5t100.5 129.5t167.5 50q109 0 211 -58v-136h-85q-8 77 -46.5 113.5t-90.5 36.5q-80 0 -123 -71t-43 -174q0 -154 43.5 -245.5t127.5 -91.5q49 0 80.5 38t31.5 93v68h-109v49h285v-49h-54v-233h-122v37
q-48 -49 -124 -49q-80 0 -143.5 33.5z" />
    <glyph glyph-name="H" unicode="H" horiz-adv-x="702" 
d="M601 600v-552h78v-48h-277v48h78v269h-258v-269h78v-48h-277v48h78v552h-78v48h278v-48h-79v-233h258v233h-78v48h277v-48h-78z" />
    <glyph glyph-name="I" unicode="I" horiz-adv-x="361" 
d="M241 600v-552h97v-48h-315v48h97v552h-97v48h315v-48h-97z" />
    <glyph glyph-name="J" unicode="J" horiz-adv-x="495" 
d="M98.5 11.5q-45.5 22.5 -70.5 50.5v120h86q7 -58 16.5 -89t26 -44.5t45.5 -13.5q45 0 62 28t17 82v455h-86v48h285v-48h-78v-436q0 -78 -51 -126.5t-149 -48.5q-58 0 -103.5 22.5z" />
    <glyph glyph-name="K" unicode="K" horiz-adv-x="659" 
d="M649 48v-48h-194l-203 317h-30v-269h78v-48h-277v48h78v552h-78v48h277v-48h-78v-233h53l188 233h-75v48h222v-48h-81l-177 -220l220 -332h77z" />
    <glyph glyph-name="L" unicode="L" horiz-adv-x="559" 
d="M23 48h78v552h-78v48h277v-48h-78v-552h197l50 134h70v-182h-516v48z" />
    <glyph glyph-name="M" unicode="M" horiz-adv-x="836" 
d="M23 48h78v552h-78v48h193l209 -457l195 457h193v-48h-78v-552h78v-48h-274v48h75v447l-191 -447h-62l-205 446v-446h74v-48h-207v48z" />
    <glyph glyph-name="N" unicode="N" horiz-adv-x="633" 
d="M23 48h78v552h-78v48h179l285 -446v398h-77v48h210v-48h-78v-600h-74l-312 493v-445h75v-48h-208v48z" />
    <glyph glyph-name="O" unicode="O" horiz-adv-x="643" 
d="M152.5 34q-65.5 46 -95 118t-29.5 153q0 92 31.5 173t97.5 131.5t164 50.5q101 0 167.5 -46t96.5 -118.5t30 -152.5q0 -92 -31.5 -173t-97.5 -131.5t-165 -50.5q-103 0 -168.5 46zM452.5 101q38.5 69 38.5 177q0 146 -45 242t-136 96q-80 0 -119 -70t-39 -178
q0 -146 45.5 -241t136.5 -95q80 0 118.5 69z" />
    <glyph glyph-name="P" unicode="P" horiz-adv-x="556" 
d="M476.5 601q56.5 -47 56.5 -127q0 -52 -26.5 -93t-74 -63.5t-108.5 -22.5h-102v-247h78v-48h-277v48h78v552h-78v48h301q96 0 152.5 -47zM378 381.5q27 38.5 27 92.5q0 55 -25.5 90.5t-66.5 35.5h-91v-257h91q38 0 65 38.5z" />
    <glyph glyph-name="Q" unicode="Q" horiz-adv-x="643" 
d="M655 -119q-23 -24 -58 -39.5t-74 -15.5q-71 0 -123 26.5t-81 76.5l-36 61q-89 9 -146.5 56t-83 115.5t-25.5 143.5q0 92 31.5 173t97.5 131.5t164 50.5q101 0 167.5 -46t96.5 -118.5t30 -152.5q0 -119 -51 -215t-153 -127l31 -52q44 -73 97 -73q23 0 43.5 10t41.5 30z
M197.5 127q45.5 -95 136.5 -95q80 0 118.5 69t38.5 177q0 146 -45 242t-136 96q-80 0 -119 -70t-39 -178q0 -146 45.5 -241z" />
    <glyph glyph-name="R" unicode="R" horiz-adv-x="644" 
d="M639 48v-48h-179l-182 294h-56v-246h78v-48h-277v48h78v552h-78v48h301q103 0 156 -50t53 -125q0 -59 -34 -104t-94 -64l165 -257h69zM222 342h91q38 0 65 38.5t27 92.5q0 56 -26 91.5t-66 35.5h-91v-258z" />
    <glyph glyph-name="S" unicode="S" horiz-adv-x="493" 
d="M115 10.5q-53 22.5 -76 50.5v121h84q10 -79 40 -113.5t77 -34.5t75.5 29.5t28.5 76.5q0 61 -52 96l-169 112q-38 25 -62.5 63.5t-24.5 87.5q0 72 54.5 116.5t149.5 44.5q64 0 116 -20t80 -51v-123h-85q-8 83 -36 116.5t-74 33.5q-45 0 -69.5 -26.5t-24.5 -68.5
q0 -53 45 -83l177 -116q44 -29 68 -71.5t24 -90.5q0 -50 -27.5 -89t-78 -61t-117.5 -22q-70 0 -123 22.5z" />
    <glyph glyph-name="T" unicode="T" horiz-adv-x="570" 
d="M130 48h95v552h-90l-50 -134h-65v182h531v-182h-65l-51 134h-89v-552h95v-48h-311v48z" />
    <glyph glyph-name="U" unicode="U" horiz-adv-x="643" 
d="M158.5 48.5q-64.5 59.5 -64.5 179.5v372h-78v48h277v-48h-78v-406q0 -74 35.5 -112.5t99.5 -38.5q39 0 72 18t52.5 52t19.5 80v407h-78v48h211v-48h-78v-403q0 -92 -57 -150t-160 -58q-109 0 -173.5 59.5z" />
    <glyph glyph-name="V" unicode="V" horiz-adv-x="685" 
d="M675 600h-85l-215 -600h-74l-214 600h-77v48h286v-48h-81l156 -453l160 453h-91v48h235v-48z" />
    <glyph glyph-name="W" unicode="W" horiz-adv-x="968" 
d="M958 600h-78l-176 -600h-68l-155 458l-139 -458h-69l-184 600h-79v48h280v-48h-79l127 -425l140 469h64l158 -471l124 427h-78v48h212v-48z" />
    <glyph glyph-name="X" unicode="X" horiz-adv-x="646" 
d="M631 48v-48h-188l-148 259l-133 -211h74v-48h-221v48h77l172 266l-163 286h-78v48h189l129 -228l118 180h-80v48h222v-48h-76l-152 -235l180 -317h78z" />
    <glyph glyph-name="Y" unicode="Y" horiz-adv-x="612" 
d="M370 299v-251h86v-48h-293v48h86v227l-161 325h-78v48h278v-48h-72l121 -248l129 248h-80v48h216v-48h-78z" />
    <glyph glyph-name="Z" unicode="Z" horiz-adv-x="546" 
d="M526 182v-182h-506v45l361 555h-223l-54 -134h-63v182h477v-41l-361 -559h253l52 134h64z" />
    <glyph glyph-name="bracketleft" unicode="[" horiz-adv-x="271" 
d="M63 742h193v-48h-99v-791h99v-48h-193v887z" />
    <glyph glyph-name="backslash" unicode="\" horiz-adv-x="351" 
d="M17 673h66l252 -699h-67z" />
    <glyph glyph-name="bracketright" unicode="]" horiz-adv-x="271" 
d="M208 -144h-193v48h99v791h-99v48h193v-887z" />
    <glyph glyph-name="asciicircum" unicode="^" horiz-adv-x="524" 
d="M235 680h54l159 -406h-59l-127 327l-128 -327h-58z" />
    <glyph glyph-name="underscore" unicode="_" horiz-adv-x="464" 
d="M24 -60h411v-57h-411v57z" />
    <glyph glyph-name="grave" unicode="`" horiz-adv-x="230" 
d="M10 604l65 71l145 -166h-65z" />
    <glyph glyph-name="a" unicode="a" horiz-adv-x="488" 
d="M478 29q-21 -21 -45 -30.5t-56 -9.5q-54 0 -79 38q-23 -18 -52.5 -28t-60.5 -10q-66 0 -104.5 28t-38.5 80q0 41 29.5 72.5t83.5 49.5l133 45v48q0 60 -13.5 84.5t-46.5 24.5q-37 0 -53.5 -26t-21.5 -90h-86v101q25 25 72 41t94 16q83 0 125.5 -38t42.5 -113v-240
q0 -11 7 -18t18 -7q14 0 32 14zM175.5 62.5q17.5 -18.5 43.5 -18.5q35 0 69 31v142l-72 -25q-28 -10 -43 -31.5t-15 -50.5t17.5 -47.5z" />
    <glyph glyph-name="b" unicode="b" horiz-adv-x="525" 
d="M394 433.5q45 -29.5 69.5 -80t24.5 -112.5q0 -61 -23.5 -119t-71 -95.5t-115.5 -37.5q-64 0 -102 39v-28h-112v638h-69v41l181 12v-269q22 19 48.5 30t64.5 11q60 0 105 -29.5zM371 206q0 87 -25.5 147t-78.5 60q-36 0 -63.5 -27t-27.5 -83v-158q0 -48 29.5 -77t71.5 -29
q94 0 94 167z" />
    <glyph glyph-name="c" unicode="c" horiz-adv-x="471" 
d="M135.5 18.5q-46.5 29.5 -72.5 82t-26 118.5q0 62 25.5 118t75 91t117.5 35q48 0 95 -16.5t71 -40.5v-93h-80q-4 55 -28 80.5t-56 25.5q-60 0 -85 -45t-25 -117q0 -49 13.5 -95.5t41 -76.5t67.5 -30q46 0 76 26t42 72h44q-13 -70 -61.5 -117t-126.5 -47q-61 0 -107.5 29.5
z" />
    <glyph glyph-name="d" unicode="d" horiz-adv-x="516" 
d="M456 691v-691h-112v27q-40 -38 -107 -38q-55 0 -100.5 26.5t-72.5 78t-27 123.5q0 68 24.5 124t69 89t102.5 33q37 0 63 -12t48 -30v217h-69v41zM321 67.5q23 28.5 23 80.5v154q0 54 -29.5 82.5t-67.5 28.5q-48 0 -70.5 -47t-22.5 -128q0 -87 25.5 -143t80.5 -56
q38 0 61 28.5z" />
    <glyph glyph-name="e" unicode="e" horiz-adv-x="473" 
d="M386 408.5q50 -54.5 50 -148.5q0 -15 -1 -23h-289q5 -81 41 -133.5t89 -52.5q40 0 73 28.5t43 73.5h43q-13 -76 -65 -120t-127 -44q-61 0 -107.5 29.5t-72.5 83t-26 122.5q0 71 27 125t75.5 84t111.5 30q85 0 135 -54.5zM175 383q-25 -37 -29 -101h176q1 66 -20 102
t-61 36q-41 0 -66 -37z" />
    <glyph glyph-name="f" unicode="f" horiz-adv-x="340" 
d="M327 680q25 -15 49 -41l-35 -32q-18 19 -35.5 28t-37.5 9q-33 0 -48.5 -23t-15.5 -70v-99h116v-43h-116v-366h92v-43h-273v43h69v366h-65v43h65v75q0 74 45.5 121t118.5 47q46 0 71 -15z" />
    <glyph glyph-name="g" unicode="g" horiz-adv-x="509" 
d="M492 0h-57q14 -12 22 -31.5t8 -42.5q0 -43 -28.5 -77t-79.5 -52.5t-117 -18.5q-63 0 -112 17.5t-76.5 48.5t-27.5 72q0 34 18.5 60.5t50.5 37.5q-19 13 -31.5 33t-12.5 41q0 30 23 51.5t60 27.5q-36 22 -57 58t-21 81q0 70 51.5 113.5t133.5 43.5q38 0 74 -11h147v-43
h-75q44 -42 44 -109q0 -47 -23.5 -84t-65 -58.5t-94.5 -21.5q-28 0 -53 6h-13q-24 0 -41 -14t-17 -34t17 -35.5t39 -15.5h41v-43h-46q-37 -30 -37 -79q0 -44 30 -71.5t78 -27.5t78.5 28t30.5 72q0 24 -10 45t-27 33h-56v43h232v-43zM183.5 395q-17.5 -28 -17.5 -81
q0 -62 22 -100t58 -38q33 0 52 31.5t19 86.5q0 59 -22.5 94t-60.5 35q-33 0 -50.5 -28z" />
    <glyph glyph-name="h" unicode="h" horiz-adv-x="533" 
d="M521 43v-43h-235v43h62v262q0 110 -70 110q-38 0 -61.5 -29.5t-23.5 -79.5v-263h60v-43h-234v43h62v595h-70v41l182 12v-269q45 41 116 41q72 0 111.5 -40t39.5 -118v-262h61z" />
    <glyph glyph-name="i" unicode="i" horiz-adv-x="306" 
d="M23 43h77v366h-70v41l182 12v-419h78v-43h-267v43zM104.5 644.5q20.5 20.5 49.5 20.5t49.5 -20.5t20.5 -49.5t-20.5 -49.5t-49.5 -20.5t-49.5 20.5t-20.5 49.5t20.5 49.5z" />
    <glyph glyph-name="j" unicode="j" horiz-adv-x="269" 
d="M-31.5 -201.5q-24.5 13.5 -54.5 41.5l35 35q41 -41 79 -41q29 0 44.5 21.5t15.5 73.5v480h-72v41l183 12v-513q0 -82 -48 -123t-116 -41q-42 0 -66.5 13.5zM90.5 644.5q20.5 20.5 49.5 20.5t49.5 -20.5t20.5 -49.5t-20.5 -49.5t-49.5 -20.5t-49.5 20.5t-20.5 49.5
t20.5 49.5z" />
    <glyph glyph-name="k" unicode="k" horiz-adv-x="528" 
d="M521 43v-43h-160l-151 223h-18v-180h58v-43h-231v43h62v595h-70v41l181 12v-424h38l133 140h-69v43h205v-43h-68l-127 -135l163 -229h54z" />
    <glyph glyph-name="l" unicode="l" horiz-adv-x="275" 
d="M18 43h62v595h-69v41l181 12v-648h62v-43h-236v43z" />
    <glyph glyph-name="m" unicode="m" horiz-adv-x="770" 
d="M758 43v-43h-221v43h48v262q0 54 -16 82t-44 28q-31 0 -55 -24.5t-24 -78.5v-269h55v-43h-218v43h53v262q0 55 -15.5 82.5t-45.5 27.5q-32 0 -55.5 -26t-23.5 -83v-263h51v-43h-224v43h61v366h-61v41l171 10l1 -38q17 18 44.5 29.5t58.5 11.5q42 0 76.5 -16.5t51.5 -39.5
q48 56 128 56q65 0 104 -39.5t39 -118.5v-262h61z" />
    <glyph glyph-name="n" unicode="n" horiz-adv-x="536" 
d="M524 43v-43h-235v43h62v262q0 110 -67 110q-40 0 -64 -30t-24 -79v-263h60v-43h-233v43h62v366h-62v41l171 10l2 -39q20 20 50 31t65 11q74 0 113 -40.5t39 -117.5v-262h61z" />
    <glyph glyph-name="o" unicode="o" horiz-adv-x="497" 
d="M137 18.5q-47 29.5 -73.5 82.5t-26.5 120q0 68 27.5 123.5t76 87t110.5 31.5q59 0 107 -29t75 -81.5t27 -118.5q0 -68 -28.5 -124t-78 -88.5t-111.5 -32.5q-58 0 -105 29.5zM318.5 78q23.5 45 23.5 129q0 91 -27 152t-75 61q-40 0 -63.5 -45t-23.5 -129q0 -91 27 -152
t75 -61q40 0 63.5 45z" />
    <glyph glyph-name="p" unicode="p" horiz-adv-x="523" 
d="M388.5 434.5q45.5 -28.5 71.5 -79.5t26 -118q0 -68 -27 -124.5t-74 -90t-106 -33.5t-102 38v-189h68v-43h-250v43h70v612h112v-27q41 40 110 40q56 0 101.5 -28.5zM348 80.5q23 41.5 23 125.5q0 95 -27.5 151t-76.5 56q-37 0 -63.5 -29.5t-26.5 -79.5v-162
q0 -44 28.5 -73.5t71.5 -29.5q48 0 71 41.5z" />
    <glyph glyph-name="q" unicode="q" horiz-adv-x="521" 
d="M526 -162v-43h-251v43h69v191q-46 -40 -112 -40q-55 0 -99.5 29.5t-70 81t-25.5 116.5q0 68 28 124.5t75.5 89.5t105.5 33q62 0 98 -38v16l112 22v-625h70zM319 70.5q25 31.5 25 77.5v156q0 48 -27 79t-68 31q-46 0 -70.5 -43t-24.5 -125q0 -92 29 -149.5t76 -57.5
q35 0 60 31.5z" />
    <glyph glyph-name="r" unicode="r" horiz-adv-x="405" 
d="M358.5 458q16.5 -5 35.5 -14v-120h-74q-2 30 -16.5 45.5t-34.5 15.5q-32 0 -52 -35.5t-20 -88.5v-218h82v-43h-256v43h62v366h-62v41l171 10l3 -81q17 39 49.5 61.5t74.5 22.5q21 0 37.5 -5z" />
    <glyph glyph-name="s" unicode="s" horiz-adv-x="427" 
d="M107.5 4.5q-47.5 15.5 -70.5 39.5v109h76q0 -58 25 -89t69 -31q34 0 53.5 17.5t19.5 46.5q0 37 -32 56l-134 79q-35 21 -53 49t-18 60q0 54 47 88t120 34q49 0 95.5 -15.5t70.5 -39.5v-108h-79q0 60 -21.5 90t-61.5 30q-32 0 -49 -16.5t-17 -44.5q0 -34 30 -51l133 -75
q36 -21 56 -51.5t20 -63.5q0 -37 -23.5 -66t-64.5 -46t-93 -17q-51 0 -98.5 15.5z" />
    <glyph glyph-name="t" unicode="t" horiz-adv-x="337" 
d="M330 36q-32 -27 -59 -37t-61 -10q-70 0 -107 34t-37 99v287h-44v34l124 124h32v-115h143v-43h-143v-289q0 -77 60 -77q33 0 65 26z" />
    <glyph glyph-name="u" unicode="u" horiz-adv-x="534" 
d="M514 44v-41l-172 -11l-2 36q-19 -19 -48.5 -29t-64.5 -10q-154 0 -154 157v263h-61v43h173v-306q0 -109 65 -109q38 0 64 27t26 82v263h-61v43h173v-408h62z" />
    <glyph glyph-name="v" unicode="v" horiz-adv-x="504" 
d="M509 409h-67l-153 -409h-67l-167 409h-60v43h244v-43h-63l106 -273l102 273h-69v43h194v-43z" />
    <glyph glyph-name="w" unicode="w" horiz-adv-x="735" 
d="M740 409h-68l-128 -409h-64l-112 275l-98 -275h-65l-148 409h-62v43h246v-43h-67l89 -264l109 307h43l122 -313l78 270h-72v43h197v-43z" />
    <glyph glyph-name="x" unicode="x" horiz-adv-x="512" 
d="M502 44v-44h-159l-108 167l-89 -123h56v-44h-187v44h62l128 170l-126 195h-59v43h156l98 -151l77 108h-57v43h180v-43h-58l-112 -155l137 -210h61z" />
    <glyph glyph-name="y" unicode="y" horiz-adv-x="503" 
d="M508 409h-65l-194 -523q-38 -102 -124 -102q-27 0 -53 11.5t-55 37.5l34 40q17 -16 37.5 -26.5t36.5 -10.5q21 0 38 13.5t27 38.5l40 106l-176 415h-59v43h243v-43h-64l109 -271l102 271h-70v43h193v-43z" />
    <glyph glyph-name="z" unicode="z" horiz-adv-x="443" 
d="M418 153v-153h-393v39l260 370h-139l-42 -107h-61v150h364v-36l-254 -372h162l43 109h60z" />
    <glyph glyph-name="braceleft" unicode="{" horiz-adv-x="282" 
d="M134.5 8q-47.5 35 -47.5 94v138q0 36 -11.5 52.5t-48.5 26.5v20q37 11 48.5 27t11.5 52v138q0 59 47.5 93.5t110.5 38.5l10 -26q-39 -10 -52.5 -32t-13.5 -63v-137q0 -41 -11.5 -64.5t-45.5 -36.5q35 -13 46 -36t11 -65v-138q0 -40 14 -62t52 -32l-10 -26
q-63 3 -110.5 38z" />
    <glyph glyph-name="bar" unicode="|" horiz-adv-x="210" 
d="M74 692h62v-734h-62v734z" />
    <glyph glyph-name="braceright" unicode="}" horiz-adv-x="282" 
d="M147.5 650q47.5 -35 47.5 -94v-138q0 -36 11.5 -52.5t48.5 -26.5v-20q-37 -11 -48.5 -27t-11.5 -52v-138q0 -59 -47.5 -93.5t-110.5 -38.5l-10 26q39 10 52.5 32t13.5 63v137q0 41 11.5 64.5t45.5 36.5q-35 13 -46 36t-11 65v138q0 40 -14 62t-52 32l10 26
q63 -3 110.5 -38z" />
    <glyph glyph-name="asciitilde" unicode="~" horiz-adv-x="524" 
d="M316 222q-27 5 -71 16q-36 10 -59.5 14.5t-44.5 4.5q-16 0 -25 -10.5t-12 -25.5h-55q10 43 38 71.5t72 28.5q26 0 50.5 -4.5t69.5 -14.5q38 -9 60.5 -13.5t43.5 -4.5q15 0 24.5 10.5t12.5 24.5h53q-8 -44 -34.5 -73t-69.5 -29q-26 0 -53 5z" />
    <glyph glyph-name="exclamdown" unicode="&#xa1;" horiz-adv-x="246" 
d="M170.5 447.5q19.5 -19.5 19.5 -47.5t-19.5 -47.5t-47.5 -19.5t-47.5 19.5t-19.5 47.5t19.5 47.5t47.5 19.5t47.5 -19.5zM169 253l16 -445h-123l17 445h90z" />
    <glyph glyph-name="cent" unicode="&#xa2;" horiz-adv-x="471" 
d="M380.5 148.5q-39.5 -44.5 -103.5 -54.5v-93h-61v92q-81 10 -130 72.5t-49 155.5q0 56 21 107.5t61.5 87.5t96.5 46v88h61v-86q44 -4 83.5 -19.5t60.5 -36.5v-93h-80q-4 55 -28 80.5t-56 25.5q-60 0 -85 -45t-25 -117q0 -49 13.5 -95.5t41 -76.5t67.5 -30q46 0 76 26
t42 72h44q-11 -62 -50.5 -106.5z" />
    <glyph glyph-name="sterling" unicode="&#xa3;" horiz-adv-x="566" 
d="M536 182v-182h-516v48h78v313h-76v51h76v58q0 96 60.5 143t149.5 47q62 0 114 -20t80 -51v-123h-85q-8 83 -36 116.5t-75 33.5q-42 0 -64.5 -36.5t-22.5 -104.5v-63h154v-51h-154v-313h197l50 134h70z" />
    <glyph glyph-name="yen" unicode="&#xa5;" horiz-adv-x="612" 
d="M524 600l-96 -188h107v-51h-133l-32 -62v-10h165v-52h-165v-189h86v-48h-293v48h86v189h-165v52h158l-36 72h-122v51h97l-93 188h-78v48h278v-48h-72l121 -248l129 248h-80v48h216v-48h-78z" />
    <glyph glyph-name="brokenbar" unicode="&#xa6;" horiz-adv-x="210" 
d="M74 692h62v-310h-62v310zM74 267h62v-310h-62v310z" />
    <glyph glyph-name="section" unicode="&#xa7;" horiz-adv-x="417" 
d="M361.5 179.5q15.5 -25.5 15.5 -58.5q0 -61 -48.5 -96.5t-131.5 -35.5q-57 0 -99 16t-63 40v113h71q0 -62 27 -91.5t67 -29.5q32 0 50.5 17.5t18.5 46.5q0 21 -11 35.5t-35 28.5l-125 70q-31 17 -50 45t-19 66q0 71 75 105q-34 22 -48 44.5t-14 53.5q0 60 47 92t120 32
q50 0 89 -14.5t64 -38.5v-114h-73q0 66 -20.5 93t-57.5 27q-33 0 -48.5 -17.5t-15.5 -43.5q0 -16 6.5 -27t22.5 -20l135 -75q75 -41 75 -108q0 -68 -75 -109q35 -21 50.5 -46.5zM249 260q13 7 22.5 22.5t9.5 35.5q0 36 -36 55l-82 44q-14 -8 -21.5 -23.5t-7.5 -33.5
q0 -38 39 -59z" />
    <glyph glyph-name="dieresis" unicode="&#xa8;" horiz-adv-x="322" 
d="M27.5 559q-17.5 18 -17.5 43q0 26 17.5 43.5t43.5 17.5q25 0 43 -17.5t18 -43.5q0 -25 -18 -43t-43 -18q-26 0 -43.5 18zM207.5 559q-17.5 18 -17.5 43q0 26 17.5 43.5t43.5 17.5q25 0 43 -17.5t18 -43.5q0 -25 -18 -43t-43 -18q-26 0 -43.5 18z" />
    <glyph glyph-name="copyright" unicode="&#xa9;" horiz-adv-x="725" 
d="M193.5 36q-78.5 45 -124.5 121t-46 166q0 91 46 167.5t124 121t171 44.5t171.5 -44.5t124 -121t45.5 -167.5q0 -90 -46 -166t-124 -121t-171 -45q-92 0 -170.5 45zM510 75q67 39 107 105t40 143q0 79 -40 145.5t-107 105.5t-146 39t-145.5 -39t-106 -105.5t-39.5 -145.5
q0 -77 39.5 -143t106 -105t145.5 -39t146 39zM232.5 166q-52.5 54 -52.5 144q0 57 19 108t60.5 83.5t104.5 32.5q45 0 89.5 -16.5t66.5 -40.5v-83h-80q-3 52 -24.5 76t-52.5 24q-43 0 -63 -40.5t-20 -103.5q0 -70 28 -124.5t81 -54.5q40 0 65 22.5t40 65.5h45
q-15 -61 -58 -104t-112 -43q-84 0 -136.5 54z" />
    <glyph glyph-name="ordfeminine" unicode="&#xaa;" horiz-adv-x="369" 
d="M349 342q-29 -30 -76 -30q-41 0 -60 27q-38 -27 -84 -27q-43 0 -70.5 20.5t-27.5 58.5q0 65 75 89l99 32v36q0 43 -10 60.5t-34 17.5q-23 0 -32.5 -18.5t-13.5 -65.5h-65v74q20 19 50 30.5t65 11.5q126 0 126 -111v-173q0 -8 5.5 -13t13.5 -5q10 0 24 10zM130 367
q11 -13 29 -13q14 0 24 5t22 17v101l-47 -17q-39 -13 -39 -59q0 -21 11 -34z" />
    <glyph glyph-name="guillemotleft" unicode="&#xab;" horiz-adv-x="479" 
d="M24 231l216 203l37 -35l-128 -168l128 -168l-37 -35zM204 231l216 203l37 -35l-128 -168l128 -168l-37 -35z" />
    <glyph glyph-name="logicalnot" unicode="&#xac;" horiz-adv-x="524" 
d="M408 294h-351v57h410v-231h-59v174z" />
    <glyph glyph-name="registered" unicode="&#xae;" horiz-adv-x="423" 
d="M301.5 648q40.5 -23 64 -63.5t23.5 -90.5t-23.5 -90.5t-64 -64t-90.5 -23.5t-90.5 23.5t-63.5 64t-23 90.5t23 90.5t63.5 63.5t90.5 23t90.5 -23zM313.5 391q40.5 41 40.5 103t-40.5 103t-101.5 41t-101.5 -41t-40.5 -103t40.5 -103t101.5 -41t101.5 41zM285 418h14v-17
h-57l-41 89h-10v-72h25v-17h-85v17h13v160h-13v16h92q26 0 45 -13.5t19 -38.5q0 -37 -39 -48zM191 508h25q10 0 17 10.5t7 25.5t-7 24.5t-17 9.5h-25v-70z" />
    <glyph glyph-name="macron" unicode="&#xaf;" horiz-adv-x="269" 
d="M10 591h249v-50h-249v50z" />
    <glyph glyph-name="degree" unicode="&#xb0;" horiz-adv-x="295" 
d="M67 497.5q-32 32.5 -32 78.5q0 44 32 75t78 31t78 -31t32 -75q0 -46 -32 -78.5t-78 -32.5t-78 32.5zM180 540q14 15 14 36q0 19 -14.5 34t-34.5 15t-34.5 -15t-14.5 -34q0 -21 14 -36t35 -15t35 15z" />
    <glyph glyph-name="plusminus" unicode="&#xb1;" horiz-adv-x="524" 
d="M233 231h-178v58h178v175h59v-175h177v-58h-177v-146h-59v146zM55 58h414v-58h-414v58z" />
    <glyph glyph-name="uni00B2" unicode="&#xb2;" horiz-adv-x="305" 
d="M234 485.5q-33 -39.5 -110 -92.5h138v-71h-223v21q62 56 94 91t45 61t13 55q0 38 -15 59t-41 21q-45 0 -49 -76h-52v62q47 41 105 41q59 0 93.5 -25t34.5 -69q0 -38 -33 -77.5z" />
    <glyph glyph-name="uni00B3" unicode="&#xb3;" horiz-adv-x="314" 
d="M265.5 472.5q17.5 -23.5 17.5 -55.5q0 -27 -17.5 -50t-48 -36.5t-65.5 -13.5q-41 0 -73.5 19.5t-52.5 55.5l24 14q31 -53 89 -53q66 0 66 65q0 61 -54 61h-26v32q30 0 50 18.5t20 46.5q0 24 -14.5 39.5t-36.5 15.5q-46 0 -53 -76h-53v63q19 20 47.5 30.5t61.5 10.5
q54 0 89 -25t35 -64q0 -23 -14 -40.5t-37 -25.5q28 -8 45.5 -31.5z" />
    <glyph glyph-name="acute" unicode="&#xb4;" horiz-adv-x="230" 
d="M155 676l65 -71l-145 -95h-65z" />
    <glyph glyph-name="uni00B5" unicode="&#xb5;" horiz-adv-x="536" 
d="M522 29q-38 -40 -98 -40q-61 0 -81 42q-17 -20 -43 -31t-52 -11q-44 0 -70 20v-183h-112v626h112v-307q0 -54 16.5 -81t50.5 -27q36 0 62 27t26 81v307h112v-380q0 -12 7.5 -18.5t17.5 -6.5q13 0 34 16z" />
    <glyph glyph-name="paragraph" unicode="&#xb6;" horiz-adv-x="563" 
d="M267 295q-62 1 -108.5 25t-71.5 64.5t-25 90.5q0 75 52.5 123.5t154.5 48.5h255v-47h-77v-600h-52v600h-76v-600h-52v295z" />
    <glyph glyph-name="periodcentered" unicode="&#xb7;" horiz-adv-x="202" 
d="M52.5 187.5q-19.5 19.5 -19.5 49.5q0 29 19.5 48.5t48.5 19.5t48 -19.5t19 -48.5q0 -30 -19 -49.5t-48 -19.5t-48.5 19.5z" />
    <glyph glyph-name="cedilla" unicode="&#xb8;" horiz-adv-x="189" 
d="M73 -163q18 0 32 13t14 32q0 21 -16 36.5t-47 15.5l6 78l38 -6l-1 -34q35 -4 57.5 -29t22.5 -60q0 -41 -31 -65.5t-71 -24.5q-34 0 -67 20l18 37q23 -13 45 -13z" />
    <glyph glyph-name="uni00B9" unicode="&#xb9;" horiz-adv-x="271" 
d="M229 353v-31h-186v31h54v235l-38 -24l-17 26l99 64h31v-301h57z" />
    <glyph glyph-name="ordmasculine" unicode="&#xba;" horiz-adv-x="349" 
d="M100.5 331q-33.5 19 -54 58.5t-20.5 97.5q0 55 20.5 94t54.5 58.5t72 19.5q63 0 106.5 -43.5t43.5 -128.5q0 -56 -21 -95.5t-55.5 -59.5t-73.5 -20t-72.5 19zM215.5 388.5q14.5 40.5 14.5 98.5q0 60 -14 99t-42 39t-42 -40t-14 -98q0 -62 13.5 -100.5t41.5 -38.5
t42.5 40.5z" />
    <glyph glyph-name="guillemotright" unicode="&#xbb;" horiz-adv-x="479" 
d="M275 231l-216 -203l-37 35l128 168l-128 168l37 35zM455 231l-216 -203l-37 35l128 168l-128 168l37 35z" />
    <glyph glyph-name="onequarter" unicode="&#xbc;" horiz-adv-x="641" 
d="M229 356v-31h-186v31h54v235l-38 -24l-17 26l99 64h31v-301h57zM410 673h53l-251 -699h-54zM615 76h-43v-76h-75v76h-156v38l130 218h101v-213h43v-43zM497 119v183h-8l-106 -183h114z" />
    <glyph glyph-name="onehalf" unicode="&#xbd;" horiz-adv-x="655" 
d="M229 356v-31h-186v31h54v235l-38 -24l-17 26l99 64h31v-301h57zM410 673h53l-251 -699h-54zM584 163.5q-33 -39.5 -110 -92.5h138v-71h-223v21q62 56 94 91t45 61t13 55q0 38 -15 59t-41 21q-45 0 -49 -76h-52v62q47 41 105 41q59 0 93.5 -25t34.5 -69q0 -38 -33 -77.5z
" />
    <glyph glyph-name="threequarters" unicode="&#xbe;" horiz-adv-x="684" 
d="M265.5 474.5q17.5 -23.5 17.5 -55.5q0 -27 -17.5 -50t-48 -36.5t-65.5 -13.5q-41 0 -73.5 19.5t-52.5 55.5l24 14q31 -53 89 -53q66 0 66 65q0 61 -54 61h-26v32q30 0 50 18.5t20 46.5q0 24 -14.5 39.5t-36.5 15.5q-46 0 -53 -76h-53v63q19 20 47.5 30.5t61.5 10.5
q54 0 89 -25t35 -64q0 -23 -14 -40.5t-37 -25.5q28 -8 45.5 -31.5zM453 673h53l-251 -699h-54zM658 76h-43v-76h-75v76h-156v38l130 218h101v-213h43v-43zM540 119v183h-8l-106 -183h114z" />
    <glyph glyph-name="questiondown" unicode="&#xbf;" horiz-adv-x="424" 
d="M286.5 445.5q19.5 -19.5 19.5 -47.5t-19.5 -47.5t-47.5 -19.5t-47.5 19.5t-19.5 47.5t19.5 47.5t47.5 19.5t47.5 -19.5zM268 198.5q-3 -18.5 -13.5 -35.5t-34.5 -46l-61 -72q-17 -20 -24 -43.5t-7 -57.5q0 -42 24 -72t71 -30q48 0 77 33t36 115h79v-122
q-30 -33 -79 -52.5t-111 -19.5q-63 0 -111 21t-74 58t-26 83t18.5 75.5t55.5 64.5l75 74q21 21 33.5 39t12.5 43h62q0 -37 -3 -55.5z" />
    <glyph glyph-name="Agrave" unicode="&#xc0;" horiz-adv-x="665" 
d="M657 48v-48h-277v48h78l-61 181h-189l-63 -181h74v-48h-209v48h76l214 600h71l214 -600h72zM380 279l-74 219h-5l-76 -219h155zM193 792l65 71l145 -166h-65z" />
    <glyph glyph-name="Aacute" unicode="&#xc1;" horiz-adv-x="665" 
d="M657 48v-48h-277v48h78l-61 181h-189l-63 -181h74v-48h-209v48h76l214 600h71l214 -600h72zM380 279l-74 219h-5l-76 -219h155zM418 862l65 -71l-145 -95h-65z" />
    <glyph glyph-name="Acircumflex" unicode="&#xc2;" horiz-adv-x="665" 
d="M657 48v-48h-277v48h78l-61 181h-189l-63 -181h74v-48h-209v48h76l214 600h71l214 -600h72zM380 279l-74 219h-5l-76 -219h155zM331 853l155 -159h-69l-87 59l-89 -59h-66z" />
    <glyph glyph-name="Atilde" unicode="&#xc3;" horiz-adv-x="665" 
d="M657 48v-48h-277v48h78l-61 181h-189l-63 -181h74v-48h-209v48h76l214 600h71l214 -600h72zM380 279l-74 219h-5l-76 -219h155zM316 719q-23 10 -35 14t-25 4q-14 0 -26.5 -9.5t-16.5 -24.5h-47q10 43 38 71t72 28q16 0 32 -5t37 -15q36 -17 55 -17q14 0 26.5 10.5
t14.5 24.5h47q-8 -44 -34 -72.5t-70 -28.5q-26 0 -68 20z" />
    <glyph glyph-name="Adieresis" unicode="&#xc4;" horiz-adv-x="665" 
d="M657 48v-48h-277v48h78l-61 181h-189l-63 -181h74v-48h-209v48h76l214 600h71l214 -600h72zM380 279l-74 219h-5l-76 -219h155zM197.5 715q-17.5 18 -17.5 43q0 26 17.5 43.5t43.5 17.5q25 0 43 -17.5t18 -43.5q0 -25 -18 -43t-43 -18q-26 0 -43.5 18zM377.5 715
q-17.5 18 -17.5 43q0 26 17.5 43.5t43.5 17.5q25 0 43 -17.5t18 -43.5q0 -25 -18 -43t-43 -18q-26 0 -43.5 18z" />
    <glyph glyph-name="Aring" unicode="&#xc5;" horiz-adv-x="665" 
d="M657 48v-48h-277v48h78l-61 181h-189l-63 -181h74v-48h-209v48h76l214 600h71l214 -600h72zM380 279l-74 219h-5l-76 -219h155zM266.5 722.5q-26.5 25.5 -26.5 62.5t26.5 62.5t64.5 25.5t64.5 -25.5t26.5 -62.5t-26.5 -62.5t-64.5 -25.5t-64.5 25.5zM363.5 751
q13.5 13 13.5 34t-13.5 34t-32.5 13t-32.5 -13t-13.5 -34t13.5 -34t32.5 -13t32.5 13z" />
    <glyph glyph-name="AE" unicode="&#xc6;" horiz-adv-x="884" 
d="M852 182v-182h-516v48h78v184h-175l-82 -183h77v-49h-224v49h82l255 551h-11v1h-51v47h559v-182h-70l-51 134h-188v-233h104v78h60v-206h-60v78h-104v-269h197l50 134h70zM414 285v315h-8l-143 -315h151z" />
    <glyph glyph-name="Ccedilla" unicode="&#xc7;" horiz-adv-x="577" 
d="M476.5 44.5q-56.5 -50.5 -138.5 -55.5v-17q35 -4 57.5 -29t22.5 -60q0 -41 -31 -65.5t-71 -24.5q-34 0 -67 20l18 37q23 -13 45 -13q18 0 32 13t14 32q0 21 -16 36.5t-47 15.5l4 55q-95 5 -155.5 52.5t-88 118t-27.5 149.5q0 92 31 172t96.5 129.5t165.5 49.5
q67 0 113 -17t88 -42v-135h-85q-8 78 -42 114t-85 36q-80 0 -119 -70t-39 -177q0 -100 24.5 -173.5t67.5 -112.5t97 -39q56 0 98 34.5t56 104.5h52q-14 -88 -70.5 -138.5z" />
    <glyph glyph-name="Egrave" unicode="&#xc8;" horiz-adv-x="571" 
d="M539 182v-182h-516v48h78v552h-78v48h508v-182h-70l-51 134h-188v-233h104v78h60v-206h-60v78h-104v-269h197l50 134h70zM169 792l65 71l145 -166h-65z" />
    <glyph glyph-name="Eacute" unicode="&#xc9;" horiz-adv-x="571" 
d="M539 182v-182h-516v48h78v552h-78v48h508v-182h-70l-51 134h-188v-233h104v78h60v-206h-60v78h-104v-269h197l50 134h70zM394 862l65 -71l-145 -95h-65z" />
    <glyph glyph-name="Ecircumflex" unicode="&#xca;" horiz-adv-x="571" 
d="M539 182v-182h-516v48h78v552h-78v48h508v-182h-70l-51 134h-188v-233h104v78h60v-206h-60v78h-104v-269h197l50 134h70zM307 853l155 -159h-69l-87 59l-89 -59h-66z" />
    <glyph glyph-name="Edieresis" unicode="&#xcb;" horiz-adv-x="571" 
d="M539 182v-182h-516v48h78v552h-78v48h508v-182h-70l-51 134h-188v-233h104v78h60v-206h-60v78h-104v-269h197l50 134h70zM173.5 715q-17.5 18 -17.5 43q0 26 17.5 43.5t43.5 17.5q25 0 43 -17.5t18 -43.5q0 -25 -18 -43t-43 -18q-26 0 -43.5 18zM353.5 715
q-17.5 18 -17.5 43q0 26 17.5 43.5t43.5 17.5q25 0 43 -17.5t18 -43.5q0 -25 -18 -43t-43 -18q-26 0 -43.5 18z" />
    <glyph glyph-name="Igrave" unicode="&#xcc;" horiz-adv-x="361" 
d="M241 600v-552h97v-48h-315v48h97v552h-97v48h315v-48h-97zM43 792l65 71l145 -166h-65z" />
    <glyph glyph-name="Iacute" unicode="&#xcd;" horiz-adv-x="361" 
d="M241 600v-552h97v-48h-315v48h97v552h-97v48h315v-48h-97zM268 862l65 -71l-145 -95h-65z" />
    <glyph glyph-name="Icircumflex" unicode="&#xce;" horiz-adv-x="361" 
d="M241 600v-552h97v-48h-315v48h97v552h-97v48h315v-48h-97zM181 853l155 -159h-69l-87 59l-89 -59h-66z" />
    <glyph glyph-name="Idieresis" unicode="&#xcf;" horiz-adv-x="361" 
d="M241 600v-552h97v-48h-315v48h97v552h-97v48h315v-48h-97zM47.5 715q-17.5 18 -17.5 43q0 26 17.5 43.5t43.5 17.5q25 0 43 -17.5t18 -43.5q0 -25 -18 -43t-43 -18q-26 0 -43.5 18zM227.5 715q-17.5 18 -17.5 43q0 26 17.5 43.5t43.5 17.5q25 0 43 -17.5t18 -43.5
q0 -25 -18 -43t-43 -18q-26 0 -43.5 18z" />
    <glyph glyph-name="Eth" unicode="&#xd0;" horiz-adv-x="672" 
d="M505.5 606q70.5 -42 104.5 -112.5t34 -158.5q0 -83 -35 -160t-106 -126t-171 -49h-309v48h81v260h-81v51h81v241h-81v48h309q103 0 173.5 -42zM430.5 89q43.5 41 65.5 107t22 140q0 76 -23 136t-67 94t-103 34h-100v-241h119v-51h-119v-260h100q62 0 105.5 41z" />
    <glyph glyph-name="Ntilde" unicode="&#xd1;" horiz-adv-x="633" 
d="M23 48h78v552h-78v48h179l285 -446v398h-77v48h210v-48h-78v-600h-74l-312 493v-445h75v-48h-208v48zM305 719q-23 10 -35 14t-25 4q-14 0 -26.5 -9.5t-16.5 -24.5h-47q10 43 38 71t72 28q16 0 32 -5t37 -15q36 -17 55 -17q14 0 26.5 10.5t14.5 24.5h47q-8 -44 -34 -72.5
t-70 -28.5q-26 0 -68 20z" />
    <glyph glyph-name="Ograve" unicode="&#xd2;" horiz-adv-x="643" 
d="M152.5 34q-65.5 46 -95 118t-29.5 153q0 92 31.5 173t97.5 131.5t164 50.5q101 0 167.5 -46t96.5 -118.5t30 -152.5q0 -92 -31.5 -173t-97.5 -131.5t-165 -50.5q-103 0 -168.5 46zM452.5 101q38.5 69 38.5 177q0 146 -45 242t-136 96q-80 0 -119 -70t-39 -178
q0 -146 45.5 -241t136.5 -95q80 0 118.5 69zM184 792l65 71l145 -166h-65z" />
    <glyph glyph-name="Oacute" unicode="&#xd3;" horiz-adv-x="643" 
d="M152.5 34q-65.5 46 -95 118t-29.5 153q0 92 31.5 173t97.5 131.5t164 50.5q101 0 167.5 -46t96.5 -118.5t30 -152.5q0 -92 -31.5 -173t-97.5 -131.5t-165 -50.5q-103 0 -168.5 46zM452.5 101q38.5 69 38.5 177q0 146 -45 242t-136 96q-80 0 -119 -70t-39 -178
q0 -146 45.5 -241t136.5 -95q80 0 118.5 69zM409 862l65 -71l-145 -95h-65z" />
    <glyph glyph-name="Ocircumflex" unicode="&#xd4;" horiz-adv-x="643" 
d="M152.5 34q-65.5 46 -95 118t-29.5 153q0 92 31.5 173t97.5 131.5t164 50.5q101 0 167.5 -46t96.5 -118.5t30 -152.5q0 -92 -31.5 -173t-97.5 -131.5t-165 -50.5q-103 0 -168.5 46zM452.5 101q38.5 69 38.5 177q0 146 -45 242t-136 96q-80 0 -119 -70t-39 -178
q0 -146 45.5 -241t136.5 -95q80 0 118.5 69zM322 853l155 -159h-69l-87 59l-89 -59h-66z" />
    <glyph glyph-name="Otilde" unicode="&#xd5;" horiz-adv-x="643" 
d="M152.5 34q-65.5 46 -95 118t-29.5 153q0 92 31.5 173t97.5 131.5t164 50.5q101 0 167.5 -46t96.5 -118.5t30 -152.5q0 -92 -31.5 -173t-97.5 -131.5t-165 -50.5q-103 0 -168.5 46zM452.5 101q38.5 69 38.5 177q0 146 -45 242t-136 96q-80 0 -119 -70t-39 -178
q0 -146 45.5 -241t136.5 -95q80 0 118.5 69zM307 719q-23 10 -35 14t-25 4q-14 0 -26.5 -9.5t-16.5 -24.5h-47q10 43 38 71t72 28q16 0 32 -5t37 -15q36 -17 55 -17q14 0 26.5 10.5t14.5 24.5h47q-8 -44 -34 -72.5t-70 -28.5q-26 0 -68 20z" />
    <glyph glyph-name="Odieresis" unicode="&#xd6;" horiz-adv-x="643" 
d="M152.5 34q-65.5 46 -95 118t-29.5 153q0 92 31.5 173t97.5 131.5t164 50.5q101 0 167.5 -46t96.5 -118.5t30 -152.5q0 -92 -31.5 -173t-97.5 -131.5t-165 -50.5q-103 0 -168.5 46zM452.5 101q38.5 69 38.5 177q0 146 -45 242t-136 96q-80 0 -119 -70t-39 -178
q0 -146 45.5 -241t136.5 -95q80 0 118.5 69zM188.5 715q-17.5 18 -17.5 43q0 26 17.5 43.5t43.5 17.5q25 0 43 -17.5t18 -43.5q0 -25 -18 -43t-43 -18q-26 0 -43.5 18zM368.5 715q-17.5 18 -17.5 43q0 26 17.5 43.5t43.5 17.5q25 0 43 -17.5t18 -43.5q0 -25 -18 -43t-43 -18
q-26 0 -43.5 18z" />
    <glyph glyph-name="multiply" unicode="&#xd7;" horiz-adv-x="524" 
d="M303 260l153 -152l-42 -42l-153 153l-153 -153l-41 41l153 153l-153 152l42 42l153 -153l153 153l41 -41z" />
    <glyph glyph-name="Oslash" unicode="&#xd8;" horiz-adv-x="643" 
d="M594 471q21 -62 21 -128q0 -92 -31.5 -173t-97.5 -131.5t-165 -50.5q-100 0 -168 46l-37 -53h-65l61 88q-43 44 -63.5 106.5t-20.5 129.5q0 92 31.5 173t97.5 131.5t164 50.5q99 0 169 -47l38 54h65l-62 -89q42 -45 63 -107zM181 167l256 369q-46 80 -127 80
q-80 0 -119 -70t-39 -178q0 -118 29 -201zM452.5 101q38.5 69 38.5 177q0 117 -28 202l-257 -369q48 -79 128 -79t118.5 69z" />
    <glyph glyph-name="Ugrave" unicode="&#xd9;" horiz-adv-x="643" 
d="M158.5 48.5q-64.5 59.5 -64.5 179.5v372h-78v48h277v-48h-78v-406q0 -74 35.5 -112.5t99.5 -38.5q39 0 72 18t52.5 52t19.5 80v407h-78v48h211v-48h-78v-403q0 -92 -57 -150t-160 -58q-109 0 -173.5 59.5zM214 792l65 71l145 -166h-65z" />
    <glyph glyph-name="Uacute" unicode="&#xda;" horiz-adv-x="643" 
d="M158.5 48.5q-64.5 59.5 -64.5 179.5v372h-78v48h277v-48h-78v-406q0 -74 35.5 -112.5t99.5 -38.5q39 0 72 18t52.5 52t19.5 80v407h-78v48h211v-48h-78v-403q0 -92 -57 -150t-160 -58q-109 0 -173.5 59.5zM439 862l65 -71l-145 -95h-65z" />
    <glyph glyph-name="Ucircumflex" unicode="&#xdb;" horiz-adv-x="643" 
d="M158.5 48.5q-64.5 59.5 -64.5 179.5v372h-78v48h277v-48h-78v-406q0 -74 35.5 -112.5t99.5 -38.5q39 0 72 18t52.5 52t19.5 80v407h-78v48h211v-48h-78v-403q0 -92 -57 -150t-160 -58q-109 0 -173.5 59.5zM352 853l155 -159h-69l-87 59l-89 -59h-66z" />
    <glyph glyph-name="Udieresis" unicode="&#xdc;" horiz-adv-x="643" 
d="M158.5 48.5q-64.5 59.5 -64.5 179.5v372h-78v48h277v-48h-78v-406q0 -74 35.5 -112.5t99.5 -38.5q39 0 72 18t52.5 52t19.5 80v407h-78v48h211v-48h-78v-403q0 -92 -57 -150t-160 -58q-109 0 -173.5 59.5zM218.5 715q-17.5 18 -17.5 43q0 26 17.5 43.5t43.5 17.5
q25 0 43 -17.5t18 -43.5q0 -25 -18 -43t-43 -18q-26 0 -43.5 18zM398.5 715q-17.5 18 -17.5 43q0 26 17.5 43.5t43.5 17.5q25 0 43 -17.5t18 -43.5q0 -25 -18 -43t-43 -18q-26 0 -43.5 18z" />
    <glyph glyph-name="Yacute" unicode="&#xdd;" horiz-adv-x="612" 
d="M370 299v-251h86v-48h-293v48h86v227l-161 325h-78v48h278v-48h-72l121 -248l129 248h-80v48h216v-48h-78zM421 862l65 -71l-145 -95h-65z" />
    <glyph glyph-name="Thorn" unicode="&#xde;" horiz-adv-x="570" 
d="M476.5 469q56.5 -47 56.5 -127q0 -52 -26.5 -93t-74 -63.5t-108.5 -22.5h-102v-115h78v-48h-277v48h78v552h-78v48h278v-48h-79v-84h102q96 0 152.5 -47zM378 249.5q27 38.5 27 92.5q0 55 -25.5 90.5t-66.5 35.5h-91v-257h91q38 0 65 38.5z" />
    <glyph glyph-name="germandbls" unicode="&#xdf;" horiz-adv-x="516" 
d="M216 32l24 36q24 -18 47.5 -27t43.5 -9q30 0 47.5 19.5t17.5 49.5q0 39 -31 62l-77 57q-33 25 -47 46t-14 50q0 27 10 43.5t31 38.5q25 24 38 47t13 63q0 53 -20 82.5t-53 29.5q-29 0 -46.5 -21.5t-17.5 -57.5v-541h-170v43h60v454q0 74 48 118.5t129 44.5q52 0 92 -19.5
t62.5 -53t22.5 -73.5q0 -36 -18.5 -60t-53.5 -51q-24 -19 -34.5 -30.5t-10.5 -26.5q0 -10 6 -19t21 -19l86 -61q37 -27 57 -61t20 -69q0 -38 -23 -67t-59.5 -44.5t-77.5 -15.5q-63 0 -123 42z" />
    <glyph glyph-name="agrave" unicode="&#xe0;" horiz-adv-x="488" 
d="M478 29q-21 -21 -45 -30.5t-56 -9.5q-54 0 -79 38q-23 -18 -52.5 -28t-60.5 -10q-66 0 -104.5 28t-38.5 80q0 41 29.5 72.5t83.5 49.5l133 45v48q0 60 -13.5 84.5t-46.5 24.5q-37 0 -53.5 -26t-21.5 -90h-86v101q25 25 72 41t94 16q83 0 125.5 -38t42.5 -113v-240
q0 -11 7 -18t18 -7q14 0 32 14zM175.5 62.5q17.5 -18.5 43.5 -18.5q35 0 69 31v142l-72 -25q-28 -10 -43 -31.5t-15 -50.5t17.5 -47.5zM129 604l65 71l145 -166h-65z" />
    <glyph glyph-name="aacute" unicode="&#xe1;" horiz-adv-x="488" 
d="M478 29q-21 -21 -45 -30.5t-56 -9.5q-54 0 -79 38q-23 -18 -52.5 -28t-60.5 -10q-66 0 -104.5 28t-38.5 80q0 41 29.5 72.5t83.5 49.5l133 45v48q0 60 -13.5 84.5t-46.5 24.5q-37 0 -53.5 -26t-21.5 -90h-86v101q25 25 72 41t94 16q83 0 125.5 -38t42.5 -113v-240
q0 -11 7 -18t18 -7q14 0 32 14zM175.5 62.5q17.5 -18.5 43.5 -18.5q35 0 69 31v142l-72 -25q-28 -10 -43 -31.5t-15 -50.5t17.5 -47.5zM284 676l65 -71l-145 -95h-65z" />
    <glyph glyph-name="acircumflex" unicode="&#xe2;" horiz-adv-x="488" 
d="M478 29q-21 -21 -45 -30.5t-56 -9.5q-54 0 -79 38q-23 -18 -52.5 -28t-60.5 -10q-66 0 -104.5 28t-38.5 80q0 41 29.5 72.5t83.5 49.5l133 45v48q0 60 -13.5 84.5t-46.5 24.5q-37 0 -53.5 -26t-21.5 -90h-86v101q25 25 72 41t94 16q83 0 125.5 -38t42.5 -113v-240
q0 -11 7 -18t18 -7q14 0 32 14zM175.5 62.5q17.5 -18.5 43.5 -18.5q35 0 69 31v142l-72 -25q-28 -10 -43 -31.5t-15 -50.5t17.5 -47.5zM237 667l155 -159h-69l-87 59l-89 -59h-66z" />
    <glyph glyph-name="atilde" unicode="&#xe3;" horiz-adv-x="488" 
d="M478 29q-21 -21 -45 -30.5t-56 -9.5q-54 0 -79 38q-23 -18 -52.5 -28t-60.5 -10q-66 0 -104.5 28t-38.5 80q0 41 29.5 72.5t83.5 49.5l133 45v48q0 60 -13.5 84.5t-46.5 24.5q-37 0 -53.5 -26t-21.5 -90h-86v101q25 25 72 41t94 16q83 0 125.5 -38t42.5 -113v-240
q0 -11 7 -18t18 -7q14 0 32 14zM175.5 62.5q17.5 -18.5 43.5 -18.5q35 0 69 31v142l-72 -25q-28 -10 -43 -31.5t-15 -50.5t17.5 -47.5zM222 540q-23 10 -35 14t-25 4q-14 0 -26.5 -9.5t-16.5 -24.5h-47q10 43 38 71t72 28q16 0 32 -5t37 -15q36 -17 55 -17q14 0 26.5 10.5
t14.5 24.5h47q-8 -44 -34 -72.5t-70 -28.5q-26 0 -68 20z" />
    <glyph glyph-name="adieresis" unicode="&#xe4;" horiz-adv-x="488" 
d="M478 29q-21 -21 -45 -30.5t-56 -9.5q-54 0 -79 38q-23 -18 -52.5 -28t-60.5 -10q-66 0 -104.5 28t-38.5 80q0 41 29.5 72.5t83.5 49.5l133 45v48q0 60 -13.5 84.5t-46.5 24.5q-37 0 -53.5 -26t-21.5 -90h-86v101q25 25 72 41t94 16q83 0 125.5 -38t42.5 -113v-240
q0 -11 7 -18t18 -7q14 0 32 14zM175.5 62.5q17.5 -18.5 43.5 -18.5q35 0 69 31v142l-72 -25q-28 -10 -43 -31.5t-15 -50.5t17.5 -47.5zM103.5 559q-17.5 18 -17.5 43q0 26 17.5 43.5t43.5 17.5q25 0 43 -17.5t18 -43.5q0 -25 -18 -43t-43 -18q-26 0 -43.5 18zM283.5 559
q-17.5 18 -17.5 43q0 26 17.5 43.5t43.5 17.5q25 0 43 -17.5t18 -43.5q0 -25 -18 -43t-43 -18q-26 0 -43.5 18z" />
    <glyph glyph-name="aring" unicode="&#xe5;" horiz-adv-x="488" 
d="M478 29q-21 -21 -45 -30.5t-56 -9.5q-54 0 -79 38q-23 -18 -52.5 -28t-60.5 -10q-66 0 -104.5 28t-38.5 80q0 41 29.5 72.5t83.5 49.5l133 45v48q0 60 -13.5 84.5t-46.5 24.5q-37 0 -53.5 -26t-21.5 -90h-86v101q25 25 72 41t94 16q83 0 125.5 -38t42.5 -113v-240
q0 -11 7 -18t18 -7q14 0 32 14zM175.5 62.5q17.5 -18.5 43.5 -18.5q35 0 69 31v142l-72 -25q-28 -10 -43 -31.5t-15 -50.5t17.5 -47.5zM172.5 540.5q-26.5 25.5 -26.5 62.5t26.5 62.5t64.5 25.5t64.5 -25.5t26.5 -62.5t-26.5 -62.5t-64.5 -25.5t-64.5 25.5zM269.5 569
q13.5 13 13.5 34t-13.5 34t-32.5 13t-32.5 -13t-13.5 -34t13.5 -34t32.5 -13t32.5 13z" />
    <glyph glyph-name="ae" unicode="&#xe6;" horiz-adv-x="722" 
d="M635 408.5q50 -54.5 50 -148.5q0 -15 -1 -23h-289q5 -81 41 -133.5t89 -52.5q40 0 73 28.5t43 73.5h43q-13 -76 -65 -120t-127 -44q-87 0 -144 60q-44 -29 -84 -44.5t-79 -15.5q-67 0 -105 29t-38 77q0 46 32 77t81 47l133 44v49q0 58 -12.5 83.5t-47.5 25.5
q-38 0 -54 -27t-21 -89h-86v101q24 24 71 40.5t95 16.5q91 0 133 -46q55 46 134 46q85 0 135 -54.5zM424 383q-25 -37 -29 -101h176q1 66 -20 102t-61 36q-41 0 -66 -37zM268 56q29 11 53 29q-33 55 -35 131l-70 -24q-27 -10 -42.5 -32.5t-15.5 -50.5q0 -27 17 -45.5
t44 -18.5q20 0 49 11z" />
    <glyph glyph-name="ccedilla" unicode="&#xe7;" horiz-adv-x="471" 
d="M380.5 46.5q-39.5 -44.5 -103.5 -54.5l-1 -20q35 -4 57.5 -29t22.5 -60q0 -41 -31 -65.5t-71 -24.5q-34 0 -67 20l18 37q23 -13 45 -13q18 0 32 13t14 32q0 21 -16 36.5t-47 15.5l4 55q-59 1 -104.5 31t-70.5 82t-25 117q0 62 25.5 118t75 91t117.5 35q48 0 95 -16.5
t71 -40.5v-93h-80q-4 55 -28 80.5t-56 25.5q-60 0 -85 -45t-25 -117q0 -49 13.5 -95.5t41 -76.5t67.5 -30q46 0 76 26t42 72h44q-11 -62 -50.5 -106.5z" />
    <glyph glyph-name="egrave" unicode="&#xe8;" horiz-adv-x="473" 
d="M386 408.5q50 -54.5 50 -148.5q0 -15 -1 -23h-289q5 -81 41 -133.5t89 -52.5q40 0 73 28.5t43 73.5h43q-13 -76 -65 -120t-127 -44q-61 0 -107.5 29.5t-72.5 83t-26 122.5q0 71 27 125t75.5 84t111.5 30q85 0 135 -54.5zM175 383q-25 -37 -29 -101h176q1 66 -20 102
t-61 36q-41 0 -66 -37zM128 604l65 71l145 -166h-65z" />
    <glyph glyph-name="eacute" unicode="&#xe9;" horiz-adv-x="473" 
d="M386 408.5q50 -54.5 50 -148.5q0 -15 -1 -23h-289q5 -81 41 -133.5t89 -52.5q40 0 73 28.5t43 73.5h43q-13 -76 -65 -120t-127 -44q-61 0 -107.5 29.5t-72.5 83t-26 122.5q0 71 27 125t75.5 84t111.5 30q85 0 135 -54.5zM175 383q-25 -37 -29 -101h176q1 66 -20 102
t-61 36q-41 0 -66 -37zM283 676l65 -71l-145 -95h-65z" />
    <glyph glyph-name="ecircumflex" unicode="&#xea;" horiz-adv-x="473" 
d="M386 408.5q50 -54.5 50 -148.5q0 -15 -1 -23h-289q5 -81 41 -133.5t89 -52.5q40 0 73 28.5t43 73.5h43q-13 -76 -65 -120t-127 -44q-61 0 -107.5 29.5t-72.5 83t-26 122.5q0 71 27 125t75.5 84t111.5 30q85 0 135 -54.5zM175 383q-25 -37 -29 -101h176q1 66 -20 102
t-61 36q-41 0 -66 -37zM236 667l155 -159h-69l-87 59l-89 -59h-66z" />
    <glyph glyph-name="edieresis" unicode="&#xeb;" horiz-adv-x="473" 
d="M386 408.5q50 -54.5 50 -148.5q0 -15 -1 -23h-289q5 -81 41 -133.5t89 -52.5q40 0 73 28.5t43 73.5h43q-13 -76 -65 -120t-127 -44q-61 0 -107.5 29.5t-72.5 83t-26 122.5q0 71 27 125t75.5 84t111.5 30q85 0 135 -54.5zM175 383q-25 -37 -29 -101h176q1 66 -20 102
t-61 36q-41 0 -66 -37zM102.5 559q-17.5 18 -17.5 43q0 26 17.5 43.5t43.5 17.5q25 0 43 -17.5t18 -43.5q0 -25 -18 -43t-43 -18q-26 0 -43.5 18zM282.5 559q-17.5 18 -17.5 43q0 26 17.5 43.5t43.5 17.5q25 0 43 -17.5t18 -43.5q0 -25 -18 -43t-43 -18q-26 0 -43.5 18z" />
    <glyph glyph-name="igrave" unicode="&#xec;" horiz-adv-x="306" 
d="M-1 604l65 71l145 -166h-65zM23 43h77v366h-70v41l182 12v-419h78v-43h-267v43z" />
    <glyph glyph-name="iacute" unicode="&#xed;" horiz-adv-x="306" 
d="M23 43h77v366h-70v41l182 12v-419h78v-43h-267v43zM201 676l65 -71l-145 -95h-65z" />
    <glyph glyph-name="icircumflex" unicode="&#xee;" horiz-adv-x="306" 
d="M23 43h77v366h-70v41l182 12v-419h78v-43h-267v43zM154 667l155 -159h-69l-87 59l-89 -59h-66z" />
    <glyph glyph-name="idieresis" unicode="&#xef;" horiz-adv-x="306" 
d="M23 43h77v366h-70v41l182 12v-419h78v-43h-267v43zM20.5 559q-17.5 18 -17.5 43q0 26 17.5 43.5t43.5 17.5q25 0 43 -17.5t18 -43.5q0 -25 -18 -43t-43 -18q-26 0 -43.5 18zM200.5 559q-17.5 18 -17.5 43q0 26 17.5 43.5t43.5 17.5q25 0 43 -17.5t18 -43.5q0 -25 -18 -43
t-43 -18q-26 0 -43.5 18z" />
    <glyph glyph-name="eth" unicode="&#xf0;" horiz-adv-x="496" 
d="M419 453.5q37 -85.5 37 -185.5q0 -83 -26 -146t-75.5 -98t-117.5 -35q-57 0 -102 25t-71.5 74.5t-26.5 119.5q0 72 27 128.5t72.5 88.5t99.5 32q40 0 73 -18q-30 68 -75 118l-109 -55l-18 36l96 48q-53 45 -122 62l11 44q107 -12 187 -68l111 56l17 -37l-92 -46
q67 -58 104 -143.5zM316 76q23 44 23 127q0 88 -25.5 149.5t-74.5 61.5q-39 0 -62 -44t-23 -126q0 -88 25.5 -150t74.5 -62q39 0 62 44z" />
    <glyph glyph-name="ntilde" unicode="&#xf1;" horiz-adv-x="536" 
d="M524 43v-43h-235v43h62v262q0 110 -67 110q-40 0 -64 -30t-24 -79v-263h60v-43h-233v43h62v366h-62v41l171 10l2 -39q20 20 50 31t65 11q74 0 113 -40.5t39 -117.5v-262h61zM253 540q-23 10 -35 14t-25 4q-14 0 -26.5 -9.5t-16.5 -24.5h-47q10 43 38 71t72 28q16 0 32 -5
t37 -15q36 -17 55 -17q14 0 26.5 10.5t14.5 24.5h47q-8 -44 -34 -72.5t-70 -28.5q-26 0 -68 20z" />
    <glyph glyph-name="ograve" unicode="&#xf2;" horiz-adv-x="497" 
d="M137 18.5q-47 29.5 -73.5 82.5t-26.5 120q0 68 27.5 123.5t76 87t110.5 31.5q59 0 107 -29t75 -81.5t27 -118.5q0 -68 -28.5 -124t-78 -88.5t-111.5 -32.5q-58 0 -105 29.5zM318.5 78q23.5 45 23.5 129q0 91 -27 152t-75 61q-40 0 -63.5 -45t-23.5 -129q0 -91 27 -152
t75 -61q40 0 63.5 45zM138 604l65 71l145 -166h-65z" />
    <glyph glyph-name="oacute" unicode="&#xf3;" horiz-adv-x="497" 
d="M137 18.5q-47 29.5 -73.5 82.5t-26.5 120q0 68 27.5 123.5t76 87t110.5 31.5q59 0 107 -29t75 -81.5t27 -118.5q0 -68 -28.5 -124t-78 -88.5t-111.5 -32.5q-58 0 -105 29.5zM318.5 78q23.5 45 23.5 129q0 91 -27 152t-75 61q-40 0 -63.5 -45t-23.5 -129q0 -91 27 -152
t75 -61q40 0 63.5 45zM293 676l65 -71l-145 -95h-65z" />
    <glyph glyph-name="ocircumflex" unicode="&#xf4;" horiz-adv-x="497" 
d="M137 18.5q-47 29.5 -73.5 82.5t-26.5 120q0 68 27.5 123.5t76 87t110.5 31.5q59 0 107 -29t75 -81.5t27 -118.5q0 -68 -28.5 -124t-78 -88.5t-111.5 -32.5q-58 0 -105 29.5zM318.5 78q23.5 45 23.5 129q0 91 -27 152t-75 61q-40 0 -63.5 -45t-23.5 -129q0 -91 27 -152
t75 -61q40 0 63.5 45zM246 667l155 -159h-69l-87 59l-89 -59h-66z" />
    <glyph glyph-name="otilde" unicode="&#xf5;" horiz-adv-x="497" 
d="M137 18.5q-47 29.5 -73.5 82.5t-26.5 120q0 68 27.5 123.5t76 87t110.5 31.5q59 0 107 -29t75 -81.5t27 -118.5q0 -68 -28.5 -124t-78 -88.5t-111.5 -32.5q-58 0 -105 29.5zM318.5 78q23.5 45 23.5 129q0 91 -27 152t-75 61q-40 0 -63.5 -45t-23.5 -129q0 -91 27 -152
t75 -61q40 0 63.5 45zM231 540q-23 10 -35 14t-25 4q-14 0 -26.5 -9.5t-16.5 -24.5h-47q10 43 38 71t72 28q16 0 32 -5t37 -15q36 -17 55 -17q14 0 26.5 10.5t14.5 24.5h47q-8 -44 -34 -72.5t-70 -28.5q-26 0 -68 20z" />
    <glyph glyph-name="odieresis" unicode="&#xf6;" horiz-adv-x="497" 
d="M137 18.5q-47 29.5 -73.5 82.5t-26.5 120q0 68 27.5 123.5t76 87t110.5 31.5q59 0 107 -29t75 -81.5t27 -118.5q0 -68 -28.5 -124t-78 -88.5t-111.5 -32.5q-58 0 -105 29.5zM318.5 78q23.5 45 23.5 129q0 91 -27 152t-75 61q-40 0 -63.5 -45t-23.5 -129q0 -91 27 -152
t75 -61q40 0 63.5 45zM112.5 559q-17.5 18 -17.5 43q0 26 17.5 43.5t43.5 17.5q25 0 43 -17.5t18 -43.5q0 -25 -18 -43t-43 -18q-26 0 -43.5 18zM292.5 559q-17.5 18 -17.5 43q0 26 17.5 43.5t43.5 17.5q25 0 43 -17.5t18 -43.5q0 -25 -18 -43t-43 -18q-26 0 -43.5 18z" />
    <glyph glyph-name="divide" unicode="&#xf7;" horiz-adv-x="524" 
d="M211.5 377.5q-19.5 19.5 -19.5 47.5t19.5 47.5t47.5 19.5t47.5 -19.5t19.5 -47.5t-19.5 -47.5t-47.5 -19.5t-47.5 19.5zM56 289h411v-58h-411v58zM211.5 48.5q-19.5 19.5 -19.5 47.5t19.5 47.5t47.5 19.5t47.5 -19.5t19.5 -47.5t-19.5 -47.5t-47.5 -19.5t-47.5 19.5z" />
    <glyph glyph-name="oslash" unicode="&#xf8;" horiz-adv-x="497" 
d="M442.5 331.5q17.5 -44.5 17.5 -97.5q0 -68 -28.5 -124t-78 -88.5t-111.5 -32.5q-53 0 -97 25l-33 -52h-52l49 77q-34 31 -53 78t-19 104q0 68 27.5 123.5t76 87t110.5 31.5q58 0 109 -30l27 43h50l-44 -69q32 -31 49.5 -75.5zM167 130l147 231q-28 59 -74 59
q-40 0 -63.5 -45t-23.5 -129q0 -63 14 -116zM318.5 78q23.5 45 23.5 129q0 55 -11 102l-144 -228q27 -48 68 -48q40 0 63.5 45z" />
    <glyph glyph-name="ugrave" unicode="&#xf9;" horiz-adv-x="534" 
d="M514 44v-41l-172 -11l-2 36q-19 -19 -48.5 -29t-64.5 -10q-154 0 -154 157v263h-61v43h173v-306q0 -109 65 -109q38 0 64 27t26 82v263h-61v43h173v-408h62zM146 604l65 71l145 -166h-65z" />
    <glyph glyph-name="uacute" unicode="&#xfa;" horiz-adv-x="534" 
d="M514 44v-41l-172 -11l-2 36q-19 -19 -48.5 -29t-64.5 -10q-154 0 -154 157v263h-61v43h173v-306q0 -109 65 -109q38 0 64 27t26 82v263h-61v43h173v-408h62zM301 676l65 -71l-145 -95h-65z" />
    <glyph glyph-name="ucircumflex" unicode="&#xfb;" horiz-adv-x="534" 
d="M514 44v-41l-172 -11l-2 36q-19 -19 -48.5 -29t-64.5 -10q-154 0 -154 157v263h-61v43h173v-306q0 -109 65 -109q38 0 64 27t26 82v263h-61v43h173v-408h62zM254 667l155 -159h-69l-87 59l-89 -59h-66z" />
    <glyph glyph-name="udieresis" unicode="&#xfc;" horiz-adv-x="534" 
d="M514 44v-41l-172 -11l-2 36q-19 -19 -48.5 -29t-64.5 -10q-154 0 -154 157v263h-61v43h173v-306q0 -109 65 -109q38 0 64 27t26 82v263h-61v43h173v-408h62zM120.5 559q-17.5 18 -17.5 43q0 26 17.5 43.5t43.5 17.5q25 0 43 -17.5t18 -43.5q0 -25 -18 -43t-43 -18
q-26 0 -43.5 18zM300.5 559q-17.5 18 -17.5 43q0 26 17.5 43.5t43.5 17.5q25 0 43 -17.5t18 -43.5q0 -25 -18 -43t-43 -18q-26 0 -43.5 18z" />
    <glyph glyph-name="yacute" unicode="&#xfd;" horiz-adv-x="503" 
d="M508 409h-65l-194 -523q-38 -102 -124 -102q-27 0 -53 11.5t-55 37.5l34 40q17 -16 37.5 -26.5t36.5 -10.5q21 0 38 13.5t27 38.5l40 106l-176 415h-59v43h243v-43h-64l109 -271l102 271h-70v43h193v-43zM324 676l65 -71l-145 -95h-65z" />
    <glyph glyph-name="thorn" unicode="&#xfe;" horiz-adv-x="523" 
d="M388.5 434.5q45.5 -28.5 71.5 -79.5t26 -118q0 -68 -27 -124.5t-74 -90t-106 -33.5t-102 38v-189h68v-43h-250v43h70v800h-70v41l181 12v-269q42 41 111 41q56 0 101.5 -28.5zM348 80.5q23 41.5 23 125.5q0 95 -27.5 151t-76.5 56q-37 0 -63.5 -29.5t-26.5 -79.5v-162
q0 -44 28.5 -73.5t71.5 -29.5q48 0 71 41.5z" />
    <glyph glyph-name="ydieresis" unicode="&#xff;" horiz-adv-x="503" 
d="M508 409h-65l-194 -523q-38 -102 -124 -102q-27 0 -53 11.5t-55 37.5l34 40q17 -16 37.5 -26.5t36.5 -10.5q21 0 38 13.5t27 38.5l40 106l-176 415h-59v43h243v-43h-64l109 -271l102 271h-70v43h193v-43zM143.5 559q-17.5 18 -17.5 43q0 26 17.5 43.5t43.5 17.5
q25 0 43 -17.5t18 -43.5q0 -25 -18 -43t-43 -18q-26 0 -43.5 18zM323.5 559q-17.5 18 -17.5 43q0 26 17.5 43.5t43.5 17.5q25 0 43 -17.5t18 -43.5q0 -25 -18 -43t-43 -18q-26 0 -43.5 18z" />
    <glyph glyph-name="Amacron" unicode="&#x100;" horiz-adv-x="665" 
d="M657 48v-48h-277v48h78l-61 181h-189l-63 -181h74v-48h-209v48h76l214 600h71l214 -600h72zM380 279l-74 219h-5l-76 -219h155zM206 777h249v-50h-249v50z" />
    <glyph glyph-name="amacron" unicode="&#x101;" horiz-adv-x="488" 
d="M478 29q-21 -21 -45 -30.5t-56 -9.5q-54 0 -79 38q-23 -18 -52.5 -28t-60.5 -10q-66 0 -104.5 28t-38.5 80q0 41 29.5 72.5t83.5 49.5l133 45v48q0 60 -13.5 84.5t-46.5 24.5q-37 0 -53.5 -26t-21.5 -90h-86v101q25 25 72 41t94 16q83 0 125.5 -38t42.5 -113v-240
q0 -11 7 -18t18 -7q14 0 32 14zM175.5 62.5q17.5 -18.5 43.5 -18.5q35 0 69 31v142l-72 -25q-28 -10 -43 -31.5t-15 -50.5t17.5 -47.5zM112 591h249v-50h-249v50z" />
    <glyph glyph-name="Abreve" unicode="&#x102;" horiz-adv-x="665" 
d="M241.5 734q-36.5 31 -37.5 80h58q2 -30 22 -46t47 -16t47 16t22 46h58q-1 -49 -37.5 -80t-89.5 -31t-89.5 31zM657 48v-48h-277v48h78l-61 181h-189l-63 -181h74v-48h-209v48h76l214 600h71l214 -600h72zM380 279l-74 219h-5l-76 -219h155z" />
    <glyph glyph-name="abreve" unicode="&#x103;" horiz-adv-x="488" 
d="M478 29q-21 -21 -45 -30.5t-56 -9.5q-54 0 -79 38q-23 -18 -52.5 -28t-60.5 -10q-66 0 -104.5 28t-38.5 80q0 41 29.5 72.5t83.5 49.5l133 45v48q0 60 -13.5 84.5t-46.5 24.5q-37 0 -53.5 -26t-21.5 -90h-86v101q25 25 72 41t94 16q83 0 125.5 -38t42.5 -113v-240
q0 -11 7 -18t18 -7q14 0 32 14zM175.5 62.5q17.5 -18.5 43.5 -18.5q35 0 69 31v142l-72 -25q-28 -10 -43 -31.5t-15 -50.5t17.5 -47.5zM147.5 550q-36.5 31 -37.5 80h58q2 -30 22 -46t47 -16t47 16t22 46h58q-1 -49 -37.5 -80t-89.5 -31t-89.5 31z" />
    <glyph glyph-name="Aogonek" unicode="&#x104;" horiz-adv-x="665" 
d="M657 48v-48h-78q-44 0 -80.5 -14t-57.5 -39t-21 -55q0 -22 12.5 -37.5t32.5 -15.5q18 0 51 18l19 -26q-20 -20 -47 -31.5t-55 -11.5q-39 0 -62.5 23t-23.5 61q0 46 34.5 81t90.5 54l-75 222h-189l-63 -181h74v-48h-209v48h76l214 600h71l214 -600h72zM380 279l-74 219h-5
l-76 -219h155z" />
    <glyph glyph-name="aogonek" unicode="&#x105;" horiz-adv-x="488" 
d="M440 -153l19 -26q-20 -20 -47 -31.5t-55 -11.5q-39 0 -62.5 23t-23.5 61q0 35 25.5 68.5t69.5 58.5q-25 2 -42 12.5t-26 25.5q-23 -18 -52.5 -28t-60.5 -10q-66 0 -104.5 28t-38.5 80q0 41 29.5 72.5t83.5 49.5l133 45v48q0 60 -13.5 84.5t-46.5 24.5q-37 0 -53.5 -26
t-21.5 -90h-86v101q25 25 72 41t94 16q83 0 125.5 -38t42.5 -113v-240q0 -11 7 -18t18 -7q14 0 32 14l20 -32q-10 -10 -19 -16l-26 -18q-43 -30 -66 -54.5t-23 -58.5q0 -22 12.5 -37.5t32.5 -15.5q18 0 51 18zM175.5 62.5q17.5 -18.5 43.5 -18.5q35 0 69 31v142l-72 -25
q-28 -10 -43 -31.5t-15 -50.5t17.5 -47.5z" />
    <glyph glyph-name="Cacute" unicode="&#x106;" horiz-adv-x="577" 
d="M152.5 35q-65.5 47 -95 119.5t-29.5 154.5q0 92 31 172t96.5 129.5t165.5 49.5q67 0 113 -17t88 -42v-135h-85q-8 78 -42 114t-85 36q-80 0 -119 -70t-39 -177q0 -100 24.5 -173.5t67.5 -112.5t97 -39q56 0 98 34.5t56 104.5h52q-15 -93 -76.5 -144t-149.5 -51
q-103 0 -168.5 47zM394 862l65 -71l-145 -95h-65z" />
    <glyph glyph-name="cacute" unicode="&#x107;" horiz-adv-x="471" 
d="M135.5 18.5q-46.5 29.5 -72.5 82t-26 118.5q0 62 25.5 118t75 91t117.5 35q48 0 95 -16.5t71 -40.5v-93h-80q-4 55 -28 80.5t-56 25.5q-60 0 -85 -45t-25 -117q0 -49 13.5 -95.5t41 -76.5t67.5 -30q46 0 76 26t42 72h44q-13 -70 -61.5 -117t-126.5 -47q-61 0 -107.5 29.5
zM294 676l65 -71l-145 -95h-65z" />
    <glyph glyph-name="Ccircumflex" unicode="&#x108;" horiz-adv-x="577" 
d="M152.5 35q-65.5 47 -95 119.5t-29.5 154.5q0 92 31 172t96.5 129.5t165.5 49.5q67 0 113 -17t88 -42v-135h-85q-8 78 -42 114t-85 36q-80 0 -119 -70t-39 -177q0 -100 24.5 -173.5t67.5 -112.5t97 -39q56 0 98 34.5t56 104.5h52q-15 -93 -76.5 -144t-149.5 -51
q-103 0 -168.5 47zM307 853l155 -159h-69l-87 59l-89 -59h-66z" />
    <glyph glyph-name="ccircumflex" unicode="&#x109;" horiz-adv-x="471" 
d="M135.5 18.5q-46.5 29.5 -72.5 82t-26 118.5q0 62 25.5 118t75 91t117.5 35q48 0 95 -16.5t71 -40.5v-93h-80q-4 55 -28 80.5t-56 25.5q-60 0 -85 -45t-25 -117q0 -49 13.5 -95.5t41 -76.5t67.5 -30q46 0 76 26t42 72h44q-13 -70 -61.5 -117t-126.5 -47q-61 0 -107.5 29.5
zM247 667l155 -159h-69l-87 59l-89 -59h-66z" />
    <glyph glyph-name="Cdotaccent" unicode="&#x10a;" horiz-adv-x="577" 
d="M152.5 35q-65.5 47 -95 119.5t-29.5 154.5q0 92 31 172t96.5 129.5t165.5 49.5q67 0 113 -17t88 -42v-135h-85q-8 78 -42 114t-85 36q-80 0 -119 -70t-39 -177q0 -100 24.5 -173.5t67.5 -112.5t97 -39q56 0 98 34.5t56 104.5h52q-15 -93 -76.5 -144t-149.5 -51
q-103 0 -168.5 47zM257.5 816.5q20.5 20.5 49.5 20.5t49.5 -20.5t20.5 -49.5t-20.5 -49.5t-49.5 -20.5t-49.5 20.5t-20.5 49.5t20.5 49.5z" />
    <glyph glyph-name="cdotaccent" unicode="&#x10b;" horiz-adv-x="471" 
d="M135.5 18.5q-46.5 29.5 -72.5 82t-26 118.5q0 62 25.5 118t75 91t117.5 35q48 0 95 -16.5t71 -40.5v-93h-80q-4 55 -28 80.5t-56 25.5q-60 0 -85 -45t-25 -117q0 -49 13.5 -95.5t41 -76.5t67.5 -30q46 0 76 26t42 72h44q-13 -70 -61.5 -117t-126.5 -47q-61 0 -107.5 29.5
zM197.5 644.5q20.5 20.5 49.5 20.5t49.5 -20.5t20.5 -49.5t-20.5 -49.5t-49.5 -20.5t-49.5 20.5t-20.5 49.5t20.5 49.5z" />
    <glyph glyph-name="Ccaron" unicode="&#x10c;" horiz-adv-x="577" 
d="M152.5 35q-65.5 47 -95 119.5t-29.5 154.5q0 92 31 172t96.5 129.5t165.5 49.5q67 0 113 -17t88 -42v-135h-85q-8 78 -42 114t-85 36q-80 0 -119 -70t-39 -177q0 -100 24.5 -173.5t67.5 -112.5t97 -39q56 0 98 34.5t56 104.5h52q-15 -93 -76.5 -144t-149.5 -51
q-103 0 -168.5 47zM151 855h66l89 -59l87 59h69l-155 -159z" />
    <glyph glyph-name="ccaron" unicode="&#x10d;" horiz-adv-x="471" 
d="M135.5 18.5q-46.5 29.5 -72.5 82t-26 118.5q0 62 25.5 118t75 91t117.5 35q48 0 95 -16.5t71 -40.5v-93h-80q-4 55 -28 80.5t-56 25.5q-60 0 -85 -45t-25 -117q0 -49 13.5 -95.5t41 -76.5t67.5 -30q46 0 76 26t42 72h44q-13 -70 -61.5 -117t-126.5 -47q-61 0 -107.5 29.5
zM91 667h66l89 -59l87 59h69l-155 -159z" />
    <glyph glyph-name="Dcaron" unicode="&#x10e;" horiz-adv-x="672" 
d="M505.5 606q70.5 -42 104.5 -112.5t34 -158.5q0 -83 -35 -160t-106 -126t-171 -49h-309v48h81v552h-81v48h309q103 0 173.5 -42zM430.5 89q43.5 41 65.5 107t22 140q0 76 -23 136t-67 94t-103 34h-100v-552h100q62 0 105.5 41zM160 855h66l89 -59l87 59h69l-155 -159z" />
    <glyph glyph-name="dcaron" unicode="&#x10f;" horiz-adv-x="516" 
d="M275 679l181 12v-691h-112v27q-40 -38 -107 -38q-55 0 -100.5 26.5t-72.5 78t-27 123.5q0 68 24.5 124t69 89t102.5 33q37 0 63 -12t48 -30v217h-69v41zM600 680l-40 -155h-54v155h94zM321 67.5q23 28.5 23 80.5v154q0 54 -29.5 82.5t-67.5 28.5q-48 0 -70.5 -47
t-22.5 -128q0 -87 25.5 -143t80.5 -56q38 0 61 28.5z" />
    <glyph glyph-name="Dcroat" unicode="&#x110;" horiz-adv-x="672" 
d="M505.5 606q70.5 -42 104.5 -112.5t34 -158.5q0 -83 -35 -160t-106 -126t-171 -49h-309v48h81v260h-81v51h81v241h-81v48h309q103 0 173.5 -42zM430.5 89q43.5 41 65.5 107t22 140q0 76 -23 136t-67 94t-103 34h-100v-241h119v-51h-119v-260h100q62 0 105.5 41z" />
    <glyph glyph-name="dcroat" unicode="&#x111;" horiz-adv-x="516" 
d="M503 528h-47v-528h-112v27q-40 -38 -107 -38q-55 0 -100.5 26.5t-72.5 78t-27 123.5q0 68 24.5 124t69 89t102.5 33q37 0 63 -12t48 -30v107h-121v43h121v67h-69v41l181 12v-120h47v-43zM321 67.5q23 28.5 23 80.5v154q0 54 -29.5 82.5t-67.5 28.5q-48 0 -70.5 -47
t-22.5 -128q0 -87 25.5 -143t80.5 -56q38 0 61 28.5z" />
    <glyph glyph-name="Emacron" unicode="&#x112;" horiz-adv-x="571" 
d="M539 182v-182h-516v48h78v552h-78v48h508v-182h-70l-51 134h-188v-233h104v78h60v-206h-60v78h-104v-269h197l50 134h70zM182 777h249v-50h-249v50z" />
    <glyph glyph-name="emacron" unicode="&#x113;" horiz-adv-x="473" 
d="M386 408.5q50 -54.5 50 -148.5q0 -15 -1 -23h-289q5 -81 41 -133.5t89 -52.5q40 0 73 28.5t43 73.5h43q-13 -76 -65 -120t-127 -44q-61 0 -107.5 29.5t-72.5 83t-26 122.5q0 71 27 125t75.5 84t111.5 30q85 0 135 -54.5zM175 383q-25 -37 -29 -101h176q1 66 -20 102
t-61 36q-41 0 -66 -37zM111 591h249v-50h-249v50z" />
    <glyph glyph-name="Ebreve" unicode="&#x114;" horiz-adv-x="571" 
d="M217.5 734q-36.5 31 -37.5 80h58q2 -30 22 -46t47 -16t47 16t22 46h58q-1 -49 -37.5 -80t-89.5 -31t-89.5 31zM539 182v-182h-516v48h78v552h-78v48h508v-182h-70l-51 134h-188v-233h104v78h60v-206h-60v78h-104v-269h197l50 134h70z" />
    <glyph glyph-name="ebreve" unicode="&#x115;" horiz-adv-x="473" 
d="M386 408.5q50 -54.5 50 -148.5q0 -15 -1 -23h-289q5 -81 41 -133.5t89 -52.5q40 0 73 28.5t43 73.5h43q-13 -76 -65 -120t-127 -44q-61 0 -107.5 29.5t-72.5 83t-26 122.5q0 71 27 125t75.5 84t111.5 30q85 0 135 -54.5zM175 383q-25 -37 -29 -101h176q1 66 -20 102
t-61 36q-41 0 -66 -37zM146.5 550q-36.5 31 -37.5 80h58q2 -30 22 -46t47 -16t47 16t22 46h58q-1 -49 -37.5 -80t-89.5 -31t-89.5 31z" />
    <glyph glyph-name="Edotaccent" unicode="&#x116;" horiz-adv-x="571" 
d="M539 182v-182h-516v48h78v552h-78v48h508v-182h-70l-51 134h-188v-233h104v78h60v-206h-60v78h-104v-269h197l50 134h70zM257.5 816.5q20.5 20.5 49.5 20.5t49.5 -20.5t20.5 -49.5t-20.5 -49.5t-49.5 -20.5t-49.5 20.5t-20.5 49.5t20.5 49.5z" />
    <glyph glyph-name="edotaccent" unicode="&#x117;" horiz-adv-x="473" 
d="M386 408.5q50 -54.5 50 -148.5q0 -15 -1 -23h-289q5 -81 41 -133.5t89 -52.5q40 0 73 28.5t43 73.5h43q-13 -76 -65 -120t-127 -44q-61 0 -107.5 29.5t-72.5 83t-26 122.5q0 71 27 125t75.5 84t111.5 30q85 0 135 -54.5zM175 383q-25 -37 -29 -101h176q1 66 -20 102
t-61 36q-41 0 -66 -37zM186.5 644.5q20.5 20.5 49.5 20.5t49.5 -20.5t20.5 -49.5t-20.5 -49.5t-49.5 -20.5t-49.5 20.5t-20.5 49.5t20.5 49.5z" />
    <glyph glyph-name="Eogonek" unicode="&#x118;" horiz-adv-x="571" 
d="M407 -51.5q-22 -28.5 -22 -56.5q0 -22 12.5 -37.5t32.5 -15.5q18 0 51 18l19 -26q-20 -20 -47 -31.5t-55 -11.5q-39 0 -62.5 23t-23.5 61q0 35 26.5 69.5t69.5 58.5h-385v48h78v552h-78v48h508v-182h-70l-51 134h-188v-233h104v78h60v-206h-60v78h-104v-269h197l50 134
h70v-182h-73q-37 -23 -59 -51.5z" />
    <glyph glyph-name="eogonek" unicode="&#x119;" horiz-adv-x="473" 
d="M386 408.5q50 -54.5 50 -148.5q0 -15 -1 -23h-289q5 -81 41 -133.5t89 -52.5q40 0 73 28.5t43 73.5h43q-10 -57 -45 -100q-16 -19 -33 -33t-46 -34q-41 -28 -60 -49.5t-19 -54.5q0 -22 12.5 -37.5t32.5 -15.5q18 0 51 18l19 -26q-20 -20 -47 -31.5t-55 -11.5
q-39 0 -62.5 23t-23.5 61q0 35 25.5 68.5t68.5 58.5h-10q-61 0 -107.5 29.5t-72.5 83t-26 122.5q0 71 27 125t75.5 84t111.5 30q85 0 135 -54.5zM175 383q-25 -37 -29 -101h176q1 66 -20 102t-61 36q-41 0 -66 -37z" />
    <glyph glyph-name="Ecaron" unicode="&#x11a;" horiz-adv-x="571" 
d="M539 182v-182h-516v48h78v552h-78v48h508v-182h-70l-51 134h-188v-233h104v78h60v-206h-60v78h-104v-269h197l50 134h70zM151 855h66l89 -59l87 59h69l-155 -159z" />
    <glyph glyph-name="ecaron" unicode="&#x11b;" horiz-adv-x="473" 
d="M386 408.5q50 -54.5 50 -148.5q0 -15 -1 -23h-289q5 -81 41 -133.5t89 -52.5q40 0 73 28.5t43 73.5h43q-13 -76 -65 -120t-127 -44q-61 0 -107.5 29.5t-72.5 83t-26 122.5q0 71 27 125t75.5 84t111.5 30q85 0 135 -54.5zM175 383q-25 -37 -29 -101h176q1 66 -20 102
t-61 36q-41 0 -66 -37zM80 667h66l89 -59l87 59h69l-155 -159z" />
    <glyph glyph-name="Gcircumflex" unicode="&#x11c;" horiz-adv-x="643" 
d="M167.5 21.5q-63.5 33.5 -101.5 106t-38 183.5q0 90 33 169.5t100.5 129.5t167.5 50q109 0 211 -58v-136h-85q-8 77 -46.5 113.5t-90.5 36.5q-80 0 -123 -71t-43 -174q0 -154 43.5 -245.5t127.5 -91.5q49 0 80.5 38t31.5 93v68h-109v49h285v-49h-54v-233h-122v37
q-48 -49 -124 -49q-80 0 -143.5 33.5zM322 853l155 -159h-69l-87 59l-89 -59h-66z" />
    <glyph glyph-name="gcircumflex" unicode="&#x11d;" horiz-adv-x="509" 
d="M492 0h-57q14 -12 22 -31.5t8 -42.5q0 -43 -28.5 -77t-79.5 -52.5t-117 -18.5q-63 0 -112 17.5t-76.5 48.5t-27.5 72q0 34 18.5 60.5t50.5 37.5q-19 13 -31.5 33t-12.5 41q0 30 23 51.5t60 27.5q-36 22 -57 58t-21 81q0 70 51.5 113.5t133.5 43.5q38 0 74 -11h147v-43
h-75q44 -42 44 -109q0 -47 -23.5 -84t-65 -58.5t-94.5 -21.5q-28 0 -53 6h-13q-24 0 -41 -14t-17 -34t17 -35.5t39 -15.5h41v-43h-46q-37 -30 -37 -79q0 -44 30 -71.5t78 -27.5t78.5 28t30.5 72q0 24 -10 45t-27 33h-56v43h232v-43zM183.5 395q-17.5 -28 -17.5 -81
q0 -62 22 -100t58 -38q33 0 52 31.5t19 86.5q0 59 -22.5 94t-60.5 35q-33 0 -50.5 -28zM250 667l155 -159h-69l-87 59l-89 -59h-66z" />
    <glyph glyph-name="Gbreve" unicode="&#x11e;" horiz-adv-x="643" 
d="M232.5 734q-36.5 31 -37.5 80h58q2 -30 22 -46t47 -16t47 16t22 46h58q-1 -49 -37.5 -80t-89.5 -31t-89.5 31zM167.5 21.5q-63.5 33.5 -101.5 106t-38 183.5q0 90 33 169.5t100.5 129.5t167.5 50q109 0 211 -58v-136h-85q-8 77 -46.5 113.5t-90.5 36.5q-80 0 -123 -71
t-43 -174q0 -154 43.5 -245.5t127.5 -91.5q49 0 80.5 38t31.5 93v68h-109v49h285v-49h-54v-233h-122v37q-48 -49 -124 -49q-80 0 -143.5 33.5z" />
    <glyph glyph-name="gbreve" unicode="&#x11f;" horiz-adv-x="509" 
d="M492 0h-57q14 -12 22 -31.5t8 -42.5q0 -43 -28.5 -77t-79.5 -52.5t-117 -18.5q-63 0 -112 17.5t-76.5 48.5t-27.5 72q0 34 18.5 60.5t50.5 37.5q-19 13 -31.5 33t-12.5 41q0 30 23 51.5t60 27.5q-36 22 -57 58t-21 81q0 70 51.5 113.5t133.5 43.5q38 0 74 -11h147v-43
h-75q44 -42 44 -109q0 -47 -23.5 -84t-65 -58.5t-94.5 -21.5q-28 0 -53 6h-13q-24 0 -41 -14t-17 -34t17 -35.5t39 -15.5h41v-43h-46q-37 -30 -37 -79q0 -44 30 -71.5t78 -27.5t78.5 28t30.5 72q0 24 -10 45t-27 33h-56v43h232v-43zM183.5 395q-17.5 -28 -17.5 -81
q0 -62 22 -100t58 -38q33 0 52 31.5t19 86.5q0 59 -22.5 94t-60.5 35q-33 0 -50.5 -28zM160.5 550q-36.5 31 -37.5 80h58q2 -30 22 -46t47 -16t47 16t22 46h58q-1 -49 -37.5 -80t-89.5 -31t-89.5 31z" />
    <glyph glyph-name="Gdotaccent" unicode="&#x120;" horiz-adv-x="643" 
d="M167.5 21.5q-63.5 33.5 -101.5 106t-38 183.5q0 90 33 169.5t100.5 129.5t167.5 50q109 0 211 -58v-136h-85q-8 77 -46.5 113.5t-90.5 36.5q-80 0 -123 -71t-43 -174q0 -154 43.5 -245.5t127.5 -91.5q49 0 80.5 38t31.5 93v68h-109v49h285v-49h-54v-233h-122v37
q-48 -49 -124 -49q-80 0 -143.5 33.5zM272.5 816.5q20.5 20.5 49.5 20.5t49.5 -20.5t20.5 -49.5t-20.5 -49.5t-49.5 -20.5t-49.5 20.5t-20.5 49.5t20.5 49.5z" />
    <glyph glyph-name="gdotaccent" unicode="&#x121;" horiz-adv-x="509" 
d="M492 0h-57q14 -12 22 -31.5t8 -42.5q0 -43 -28.5 -77t-79.5 -52.5t-117 -18.5q-63 0 -112 17.5t-76.5 48.5t-27.5 72q0 34 18.5 60.5t50.5 37.5q-19 13 -31.5 33t-12.5 41q0 30 23 51.5t60 27.5q-36 22 -57 58t-21 81q0 70 51.5 113.5t133.5 43.5q38 0 74 -11h147v-43
h-75q44 -42 44 -109q0 -47 -23.5 -84t-65 -58.5t-94.5 -21.5q-28 0 -53 6h-13q-24 0 -41 -14t-17 -34t17 -35.5t39 -15.5h41v-43h-46q-37 -30 -37 -79q0 -44 30 -71.5t78 -27.5t78.5 28t30.5 72q0 24 -10 45t-27 33h-56v43h232v-43zM183.5 395q-17.5 -28 -17.5 -81
q0 -62 22 -100t58 -38q33 0 52 31.5t19 86.5q0 59 -22.5 94t-60.5 35q-33 0 -50.5 -28zM200.5 644.5q20.5 20.5 49.5 20.5t49.5 -20.5t20.5 -49.5t-20.5 -49.5t-49.5 -20.5t-49.5 20.5t-20.5 49.5t20.5 49.5z" />
    <glyph glyph-name="Gcommaaccent" unicode="&#x122;" horiz-adv-x="643" 
d="M167.5 21.5q-63.5 33.5 -101.5 106t-38 183.5q0 90 33 169.5t100.5 129.5t167.5 50q109 0 211 -58v-136h-85q-8 77 -46.5 113.5t-90.5 36.5q-80 0 -123 -71t-43 -174q0 -154 43.5 -245.5t127.5 -91.5q49 0 80.5 38t31.5 93v68h-109v49h285v-49h-54v-233h-122v37
q-48 -49 -124 -49q-80 0 -143.5 33.5zM280 -41h105l-65 -168h-61z" />
    <glyph glyph-name="gcommaaccent" unicode="&#x123;" horiz-adv-x="509" 
d="M492 0h-57q14 -12 22 -31.5t8 -42.5q0 -43 -28.5 -77t-79.5 -52.5t-117 -18.5q-63 0 -112 17.5t-76.5 48.5t-27.5 72q0 34 18.5 60.5t50.5 37.5q-19 13 -31.5 33t-12.5 41q0 30 23 51.5t60 27.5q-36 22 -57 58t-21 81q0 70 51.5 113.5t133.5 43.5q38 0 74 -11h147v-43
h-75q44 -42 44 -109q0 -47 -23.5 -84t-65 -58.5t-94.5 -21.5q-28 0 -53 6h-13q-24 0 -41 -14t-17 -34t17 -35.5t39 -15.5h41v-43h-46q-37 -30 -37 -79q0 -44 30 -71.5t78 -27.5t78.5 28t30.5 72q0 24 -10 45t-27 33h-56v43h232v-43zM183.5 395q-17.5 -28 -17.5 -81
q0 -62 22 -100t58 -38q33 0 52 31.5t19 86.5q0 59 -22.5 94t-60.5 35q-33 0 -50.5 -28zM299 521h-106l46 158h60v-158z" />
    <glyph glyph-name="Hcircumflex" unicode="&#x124;" horiz-adv-x="702" 
d="M601 600v-552h78v-48h-277v48h78v269h-258v-269h78v-48h-277v48h78v552h-78v48h278v-48h-79v-233h258v233h-78v48h277v-48h-78zM351 853l155 -159h-69l-87 59l-89 -59h-66z" />
    <glyph glyph-name="hcircumflex" unicode="&#x125;" horiz-adv-x="533" 
d="M521 43v-43h-235v43h62v262q0 110 -70 110q-38 0 -61.5 -29.5t-23.5 -79.5v-263h60v-43h-234v43h62v595h-70v41l182 12v-269q45 41 116 41q72 0 111.5 -40t39.5 -118v-262h61zM137 863l155 -159h-69l-87 59l-89 -59h-66z" />
    <glyph glyph-name="Hbar" unicode="&#x126;" horiz-adv-x="702" 
d="M601 600v-86h77v-48h-77v-418h78v-48h-277v48h78v269h-258v-269h78v-48h-277v48h78v418h-78v48h78v86h-78v48h278v-48h-79v-86h258v86h-78v48h277v-48h-78zM480 466h-258v-99h258v99z" />
    <glyph glyph-name="hbar" unicode="&#x127;" horiz-adv-x="533" 
d="M521 43v-43h-235v43h62v262q0 110 -70 110q-38 0 -61.5 -29.5t-23.5 -79.5v-263h60v-43h-234v43h62v485h-68v43h68v67h-70v41l182 12v-120h100v-43h-100v-106q45 41 116 41q72 0 111.5 -40t39.5 -118v-262h61z" />
    <glyph glyph-name="Itilde" unicode="&#x128;" horiz-adv-x="361" 
d="M241 600v-552h97v-48h-315v48h97v552h-97v48h315v-48h-97zM166 719q-23 10 -35 14t-25 4q-14 0 -26.5 -9.5t-16.5 -24.5h-47q10 43 38 71t72 28q16 0 32 -5t37 -15q36 -17 55 -17q14 0 26.5 10.5t14.5 24.5h47q-8 -44 -34 -72.5t-70 -28.5q-26 0 -68 20z" />
    <glyph glyph-name="itilde" unicode="&#x129;" horiz-adv-x="306" 
d="M23 43h77v366h-70v41l182 12v-419h78v-43h-267v43zM139 540q-23 10 -35 14t-25 4q-14 0 -26.5 -9.5t-16.5 -24.5h-47q10 43 38 71t72 28q16 0 32 -5t37 -15q36 -17 55 -17q14 0 26.5 10.5t14.5 24.5h47q-8 -44 -34 -72.5t-70 -28.5q-26 0 -68 20z" />
    <glyph glyph-name="Imacron" unicode="&#x12a;" horiz-adv-x="361" 
d="M241 600v-552h97v-48h-315v48h97v552h-97v48h315v-48h-97zM56 777h249v-50h-249v50z" />
    <glyph glyph-name="imacron" unicode="&#x12b;" horiz-adv-x="306" 
d="M23 43h77v366h-70v41l182 12v-419h78v-43h-267v43zM29 591h249v-50h-249v50z" />
    <glyph glyph-name="Ibreve" unicode="&#x12c;" horiz-adv-x="361" 
d="M91.5 734q-36.5 31 -37.5 80h58q2 -30 22 -46t47 -16t47 16t22 46h58q-1 -49 -37.5 -80t-89.5 -31t-89.5 31zM241 600v-552h97v-48h-315v48h97v552h-97v48h315v-48h-97z" />
    <glyph glyph-name="ibreve" unicode="&#x12d;" horiz-adv-x="306" 
d="M23 43h77v366h-70v41l182 12v-419h78v-43h-267v43zM64.5 550q-36.5 31 -37.5 80h58q2 -30 22 -46t47 -16t47 16t22 46h58q-1 -49 -37.5 -80t-89.5 -31t-89.5 31z" />
    <glyph glyph-name="Iogonek" unicode="&#x12e;" horiz-adv-x="361" 
d="M241 600v-552h97v-48h-104q-37 -23 -59 -51.5t-22 -56.5q0 -22 12.5 -37.5t32.5 -15.5q18 0 51 18l19 -26q-20 -20 -47 -31.5t-55 -11.5q-39 0 -62.5 23t-23.5 61q0 35 26.5 69.5t69.5 58.5h-153v48h97v552h-97v48h315v-48h-97z" />
    <glyph glyph-name="iogonek" unicode="&#x12f;" horiz-adv-x="306" 
d="M104.5 545.5q-20.5 20.5 -20.5 49.5t20.5 49.5t49.5 20.5t49.5 -20.5t20.5 -49.5t-20.5 -49.5t-49.5 -20.5t-49.5 20.5zM291 -178q-20 -20 -47 -31.5t-55 -11.5q-39 0 -62.5 23t-23.5 61q0 39 31.5 76.5t82.5 60.5h-194v43h77v366h-70v41l182 12v-419h78v-43h-17
q-44 -24 -70.5 -55t-26.5 -62q0 -22 12.5 -37.5t32.5 -15.5q18 0 51 18z" />
    <glyph glyph-name="Idotaccent" unicode="&#x130;" horiz-adv-x="361" 
d="M241 600v-552h97v-48h-315v48h97v552h-97v48h315v-48h-97zM131.5 816.5q20.5 20.5 49.5 20.5t49.5 -20.5t20.5 -49.5t-20.5 -49.5t-49.5 -20.5t-49.5 20.5t-20.5 49.5t20.5 49.5z" />
    <glyph glyph-name="dotlessi" unicode="&#x131;" horiz-adv-x="306" 
d="M23 43h77v366h-70v41l182 12v-419h78v-43h-267v43z" />
    <glyph glyph-name="IJ" unicode="&#x132;" horiz-adv-x="856" 
d="M241 600v-552h97v-48h-315v48h97v552h-97v48h315v-48h-97zM459.5 11.5q-45.5 22.5 -70.5 50.5v120h86q7 -58 16.5 -89t26 -44.5t45.5 -13.5q45 0 62 28t17 82v455h-86v48h285v-48h-78v-436q0 -78 -51 -126.5t-149 -48.5q-58 0 -103.5 22.5z" />
    <glyph glyph-name="ij" unicode="&#x133;" horiz-adv-x="575" 
d="M23 43h77v366h-70v41l182 12v-419h78v-43h-267v43zM104.5 644.5q20.5 20.5 49.5 20.5t49.5 -20.5t20.5 -49.5t-20.5 -49.5t-49.5 -20.5t-49.5 20.5t-20.5 49.5t20.5 49.5zM274.5 -201.5q-24.5 13.5 -54.5 41.5l35 35q41 -41 79 -41q29 0 44.5 21.5t15.5 73.5v480h-72v41
l183 12v-513q0 -82 -48 -123t-116 -41q-42 0 -66.5 13.5zM396.5 644.5q20.5 20.5 49.5 20.5t49.5 -20.5t20.5 -49.5t-20.5 -49.5t-49.5 -20.5t-49.5 20.5t-20.5 49.5t20.5 49.5z" />
    <glyph glyph-name="Jcircumflex" unicode="&#x134;" horiz-adv-x="495" 
d="M98.5 11.5q-45.5 22.5 -70.5 50.5v120h86q7 -58 16.5 -89t26 -44.5t45.5 -13.5q45 0 62 28t17 82v455h-86v48h285v-48h-78v-436q0 -78 -51 -126.5t-149 -48.5q-58 0 -103.5 22.5zM342 853l155 -159h-69l-87 59l-89 -59h-66z" />
    <glyph glyph-name="jcircumflex" unicode="&#x135;" horiz-adv-x="269" 
d="M-31.5 -201.5q-24.5 13.5 -54.5 41.5l35 35q41 -41 79 -41q29 0 44.5 21.5t15.5 73.5v480h-72v41l183 12v-513q0 -82 -48 -123t-116 -41q-42 0 -66.5 13.5zM140 667l155 -159h-69l-87 59l-89 -59h-66z" />
    <glyph glyph-name="Kcommaaccent" unicode="&#x136;" horiz-adv-x="659" 
d="M649 48v-48h-194l-203 317h-30v-269h78v-48h-277v48h78v552h-78v48h277v-48h-78v-233h53l188 233h-75v48h222v-48h-81l-177 -220l220 -332h77zM288 -41h105l-65 -168h-61z" />
    <glyph glyph-name="kcommaaccent" unicode="&#x137;" horiz-adv-x="528" 
d="M521 43v-43h-160l-151 223h-18v-180h58v-43h-231v43h62v595h-70v41l181 12v-424h38l133 140h-69v43h205v-43h-68l-127 -135l163 -229h54zM213 -41h105l-65 -168h-61z" />
    <glyph glyph-name="kgreenlandic" unicode="&#x138;" horiz-adv-x="540" 
d="M533 43v-43h-160l-151 223h-18v-180h58v-43h-231v43h62v364h-70v40l181 13v-193h38l133 140h-69v43h205v-43h-68l-127 -135l163 -229h54z" />
    <glyph glyph-name="Lacute" unicode="&#x139;" horiz-adv-x="559" 
d="M23 48h78v552h-78v48h277v-48h-78v-552h197l50 134h70v-182h-516v48zM258 862l65 -71l-145 -95h-65z" />
    <glyph glyph-name="lacute" unicode="&#x13a;" horiz-adv-x="275" 
d="M18 43h62v595h-69v41l181 12v-648h62v-43h-236v43zM227 882l65 -71l-145 -95h-65z" />
    <glyph glyph-name="Lcommaaccent" unicode="&#x13b;" horiz-adv-x="559" 
d="M23 48h78v552h-78v48h277v-48h-78v-552h197l50 134h70v-182h-516v48zM239 -41h105l-65 -168h-61z" />
    <glyph glyph-name="lcommaaccent" unicode="&#x13c;" horiz-adv-x="275" 
d="M18 43h62v595h-69v41l181 12v-648h62v-43h-236v43zM94 -41h105l-65 -168h-61z" />
    <glyph glyph-name="Lcaron" unicode="&#x13d;" horiz-adv-x="559" 
d="M350 680h94l-40 -155h-54v155zM23 48h78v552h-78v48h277v-48h-78v-552h197l50 134h70v-182h-516v48z" />
    <glyph glyph-name="lcaron" unicode="&#x13e;" horiz-adv-x="275" 
d="M18 43h62v595h-69v41l181 12v-648h62v-43h-236v43zM242 680h94l-40 -155h-54v155z" />
    <glyph glyph-name="Ldot" unicode="&#x13f;" horiz-adv-x="559" 
d="M23 48h78v552h-78v48h277v-48h-78v-552h197l50 134h70v-182h-516v48zM391.5 307.5q-19.5 19.5 -19.5 49.5q0 29 19.5 48.5t48.5 19.5t48 -19.5t19 -48.5q0 -30 -19 -49.5t-48 -19.5t-48.5 19.5z" />
    <glyph glyph-name="ldot" unicode="&#x140;" horiz-adv-x="367" 
d="M18 43h62v595h-69v41l181 12v-648h62v-43h-236v43zM271.5 296.5q-19.5 19.5 -19.5 49.5q0 29 19.5 48.5t48.5 19.5t48 -19.5t19 -48.5q0 -30 -19 -49.5t-48 -19.5t-48.5 19.5z" />
    <glyph glyph-name="Lslash" unicode="&#x141;" horiz-adv-x="559" 
d="M539 182v-182h-516v48h78v184l-63 -52v57l63 53v310h-78v48h277v-48h-78v-209l112 93v-58l-112 -93v-285h197l50 134h70z" />
    <glyph glyph-name="lslash" unicode="&#x142;" horiz-adv-x="275" 
d="M192 332v-289h62v-43h-236v43h62v195l-64 -53v58l64 54v341h-69v41l181 12v-301l71 60v-59z" />
    <glyph glyph-name="Nacute" unicode="&#x143;" horiz-adv-x="633" 
d="M23 48h78v552h-78v48h179l285 -446v398h-77v48h210v-48h-78v-600h-74l-312 493v-445h75v-48h-208v48zM407 862l65 -71l-145 -95h-65z" />
    <glyph glyph-name="nacute" unicode="&#x144;" horiz-adv-x="536" 
d="M524 43v-43h-235v43h62v262q0 110 -67 110q-40 0 -64 -30t-24 -79v-263h60v-43h-233v43h62v366h-62v41l171 10l2 -39q20 20 50 31t65 11q74 0 113 -40.5t39 -117.5v-262h61zM315 676l65 -71l-145 -95h-65z" />
    <glyph glyph-name="Ncommaaccent" unicode="&#x145;" horiz-adv-x="633" 
d="M23 48h78v552h-78v48h179l285 -446v398h-77v48h210v-48h-78v-600h-74l-312 493v-445h75v-48h-208v48zM278 -41h105l-65 -168h-61z" />
    <glyph glyph-name="ncommaaccent" unicode="&#x146;" horiz-adv-x="536" 
d="M524 43v-43h-235v43h62v262q0 110 -67 110q-40 0 -64 -30t-24 -79v-263h60v-43h-233v43h62v366h-62v41l171 10l2 -39q20 20 50 31t65 11q74 0 113 -40.5t39 -117.5v-262h61zM226 -41h105l-65 -168h-61z" />
    <glyph glyph-name="Ncaron" unicode="&#x147;" horiz-adv-x="633" 
d="M23 48h78v552h-78v48h179l285 -446v398h-77v48h210v-48h-78v-600h-74l-312 493v-445h75v-48h-208v48zM164 855h66l89 -59l87 59h69l-155 -159z" />
    <glyph glyph-name="ncaron" unicode="&#x148;" horiz-adv-x="536" 
d="M524 43v-43h-235v43h62v262q0 110 -67 110q-40 0 -64 -30t-24 -79v-263h60v-43h-233v43h62v366h-62v41l171 10l2 -39q20 20 50 31t65 11q74 0 113 -40.5t39 -117.5v-262h61zM112 667h66l89 -59l87 59h69l-155 -159z" />
    <glyph glyph-name="Eng" unicode="&#x14a;" horiz-adv-x="633" 
d="M310.5 -204.5q-33.5 13.5 -57.5 34.5l37 36q39 -36 89 -36q41 0 65 31t25 87v50l-313 495v-445h75v-48h-208v48h78v552h-78v48h179l285 -446v398h-77v48h210v-48h-78v-652q0 -56 -23 -93t-60.5 -55t-79.5 -18q-35 0 -68.5 13.5z" />
    <glyph glyph-name="eng" unicode="&#x14b;" horiz-adv-x="532" 
d="M428 419q35 -44 35 -114v-359q0 -55 -24 -91.5t-62 -53t-80 -16.5q-65 0 -117 45l37 39q21 -17 38.5 -27t35.5 -10q60 0 60 97v376q0 110 -67 110q-37 0 -62.5 -27.5t-25.5 -81.5v-263h60v-43h-233v43h62v366h-62v41l171 10l2 -39q42 42 115 42q82 0 117 -44z" />
    <glyph glyph-name="Omacron" unicode="&#x14c;" horiz-adv-x="643" 
d="M152.5 34q-65.5 46 -95 118t-29.5 153q0 92 31.5 173t97.5 131.5t164 50.5q101 0 167.5 -46t96.5 -118.5t30 -152.5q0 -92 -31.5 -173t-97.5 -131.5t-165 -50.5q-103 0 -168.5 46zM452.5 101q38.5 69 38.5 177q0 146 -45 242t-136 96q-80 0 -119 -70t-39 -178
q0 -146 45.5 -241t136.5 -95q80 0 118.5 69zM197 777h249v-50h-249v50z" />
    <glyph glyph-name="omacron" unicode="&#x14d;" horiz-adv-x="497" 
d="M137 18.5q-47 29.5 -73.5 82.5t-26.5 120q0 68 27.5 123.5t76 87t110.5 31.5q59 0 107 -29t75 -81.5t27 -118.5q0 -68 -28.5 -124t-78 -88.5t-111.5 -32.5q-58 0 -105 29.5zM318.5 78q23.5 45 23.5 129q0 91 -27 152t-75 61q-40 0 -63.5 -45t-23.5 -129q0 -91 27 -152
t75 -61q40 0 63.5 45zM121 591h249v-50h-249v50z" />
    <glyph glyph-name="Obreve" unicode="&#x14e;" horiz-adv-x="643" 
d="M232.5 734q-36.5 31 -37.5 80h58q2 -30 22 -46t47 -16t47 16t22 46h58q-1 -49 -37.5 -80t-89.5 -31t-89.5 31zM152.5 34q-65.5 46 -95 118t-29.5 153q0 92 31.5 173t97.5 131.5t164 50.5q101 0 167.5 -46t96.5 -118.5t30 -152.5q0 -92 -31.5 -173t-97.5 -131.5
t-165 -50.5q-103 0 -168.5 46zM452.5 101q38.5 69 38.5 177q0 146 -45 242t-136 96q-80 0 -119 -70t-39 -178q0 -146 45.5 -241t136.5 -95q80 0 118.5 69z" />
    <glyph glyph-name="obreve" unicode="&#x14f;" horiz-adv-x="497" 
d="M137 18.5q-47 29.5 -73.5 82.5t-26.5 120q0 68 27.5 123.5t76 87t110.5 31.5q59 0 107 -29t75 -81.5t27 -118.5q0 -68 -28.5 -124t-78 -88.5t-111.5 -32.5q-58 0 -105 29.5zM318.5 78q23.5 45 23.5 129q0 91 -27 152t-75 61q-40 0 -63.5 -45t-23.5 -129q0 -91 27 -152
t75 -61q40 0 63.5 45zM156.5 550q-36.5 31 -37.5 80h58q2 -30 22 -46t47 -16t47 16t22 46h58q-1 -49 -37.5 -80t-89.5 -31t-89.5 31z" />
    <glyph glyph-name="Ohungarumlaut" unicode="&#x150;" horiz-adv-x="643" 
d="M152.5 34q-65.5 46 -95 118t-29.5 153q0 92 31.5 173t97.5 131.5t164 50.5q101 0 167.5 -46t96.5 -118.5t30 -152.5q0 -92 -31.5 -173t-97.5 -131.5t-165 -50.5q-103 0 -168.5 46zM452.5 101q38.5 69 38.5 177q0 146 -45 242t-136 96q-80 0 -119 -70t-39 -178
q0 -146 45.5 -241t136.5 -95q80 0 118.5 69zM318 855h68l-135 -166h-65zM443 855h68l-134 -166h-66z" />
    <glyph glyph-name="ohungarumlaut" unicode="&#x151;" horiz-adv-x="497" 
d="M137 18.5q-47 29.5 -73.5 82.5t-26.5 120q0 68 27.5 123.5t76 87t110.5 31.5q59 0 107 -29t75 -81.5t27 -118.5q0 -68 -28.5 -124t-78 -88.5t-111.5 -32.5q-58 0 -105 29.5zM318.5 78q23.5 45 23.5 129q0 91 -27 152t-75 61q-40 0 -63.5 -45t-23.5 -129q0 -91 27 -152
t75 -61q40 0 63.5 45zM252 676h68l-135 -166h-65zM377 676h68l-134 -166h-66z" />
    <glyph glyph-name="OE" unicode="&#x152;" horiz-adv-x="919" 
d="M887 0h-491q-37 -12 -84 -12q-100 0 -164 47t-92 119t-28 152q0 156 71 254t223 98q40 0 85 -10h472v-182h-70l-51 134h-188v-233h104v78h60v-206h-60v78h-104v-269h197l50 134h70v-182zM169 209q17 -77 53 -126t90 -49q34 0 59 14h1q40 22 77 79v400q-63 87 -142 87
q-76 0 -115.5 -69.5t-39.5 -172.5q0 -86 17 -163z" />
    <glyph glyph-name="oe" unicode="&#x153;" horiz-adv-x="779" 
d="M692 408.5q50 -54.5 50 -148.5q0 -15 -1 -23h-289q5 -81 41 -133.5t89 -52.5q40 0 73 28.5t43 73.5h43q-13 -76 -65 -120t-127 -44q-47 0 -85.5 17.5t-66.5 50.5q-28 -33 -68 -50.5t-87 -17.5q-58 0 -105 29.5t-73.5 82.5t-26.5 120q0 68 27.5 123.5t76 87t110.5 31.5
q48 0 87.5 -16.5t65.5 -47.5q28 31 67 47.5t86 16.5q85 0 135 -54.5zM318.5 78q23.5 45 23.5 129q0 91 -27 152t-75 61q-40 0 -63.5 -45t-23.5 -129q0 -91 27 -152t75 -61q40 0 63.5 45zM481 383q-25 -37 -29 -101h176q1 66 -20 102t-61 36q-41 0 -66 -37z" />
    <glyph glyph-name="Racute" unicode="&#x154;" horiz-adv-x="644" 
d="M639 48v-48h-179l-182 294h-56v-246h78v-48h-277v48h78v552h-78v48h301q103 0 156 -50t53 -125q0 -59 -34 -104t-94 -64l165 -257h69zM222 342h91q38 0 65 38.5t27 92.5q0 56 -26 91.5t-66 35.5h-91v-258zM402 862l65 -71l-145 -95h-65z" />
    <glyph glyph-name="racute" unicode="&#x155;" horiz-adv-x="405" 
d="M358.5 458q16.5 -5 35.5 -14v-120h-74q-2 30 -16.5 45.5t-34.5 15.5q-32 0 -52 -35.5t-20 -88.5v-218h82v-43h-256v43h62v366h-62v41l171 10l3 -81q17 39 49.5 61.5t74.5 22.5q21 0 37.5 -5zM266 676l65 -71l-145 -95h-65z" />
    <glyph glyph-name="Rcommaaccent" unicode="&#x156;" horiz-adv-x="644" 
d="M639 48v-48h-179l-182 294h-56v-246h78v-48h-277v48h78v552h-78v48h301q103 0 156 -50t53 -125q0 -59 -34 -104t-94 -64l165 -257h69zM222 342h91q38 0 65 38.5t27 92.5q0 56 -26 91.5t-66 35.5h-91v-258zM273 -41h105l-65 -168h-61z" />
    <glyph glyph-name="rcommaaccent" unicode="&#x157;" horiz-adv-x="405" 
d="M358.5 458q16.5 -5 35.5 -14v-120h-74q-2 30 -16.5 45.5t-34.5 15.5q-32 0 -52 -35.5t-20 -88.5v-218h82v-43h-256v43h62v366h-62v41l171 10l3 -81q17 39 49.5 61.5t74.5 22.5q21 0 37.5 -5zM98 -41h105l-65 -168h-61z" />
    <glyph glyph-name="Rcaron" unicode="&#x158;" horiz-adv-x="644" 
d="M639 48v-48h-179l-182 294h-56v-246h78v-48h-277v48h78v552h-78v48h301q103 0 156 -50t53 -125q0 -59 -34 -104t-94 -64l165 -257h69zM222 342h91q38 0 65 38.5t27 92.5q0 56 -26 91.5t-66 35.5h-91v-258zM159 855h66l89 -59l87 59h69l-155 -159z" />
    <glyph glyph-name="rcaron" unicode="&#x159;" horiz-adv-x="405" 
d="M358.5 458q16.5 -5 35.5 -14v-120h-74q-2 30 -16.5 45.5t-34.5 15.5q-32 0 -52 -35.5t-20 -88.5v-218h82v-43h-256v43h62v366h-62v41l171 10l3 -81q17 39 49.5 61.5t74.5 22.5q21 0 37.5 -5zM63 667h66l89 -59l87 59h69l-155 -159z" />
    <glyph glyph-name="Sacute" unicode="&#x15a;" horiz-adv-x="493" 
d="M115 10.5q-53 22.5 -76 50.5v121h84q10 -79 40 -113.5t77 -34.5t75.5 29.5t28.5 76.5q0 61 -52 96l-169 112q-38 25 -62.5 63.5t-24.5 87.5q0 72 54.5 116.5t149.5 44.5q64 0 116 -20t80 -51v-123h-85q-8 83 -36 116.5t-74 33.5q-45 0 -69.5 -26.5t-24.5 -68.5
q0 -53 45 -83l177 -116q44 -29 68 -71.5t24 -90.5q0 -50 -27.5 -89t-78 -61t-117.5 -22q-70 0 -123 22.5zM334 862l65 -71l-145 -95h-65z" />
    <glyph glyph-name="sacute" unicode="&#x15b;" horiz-adv-x="427" 
d="M107.5 4.5q-47.5 15.5 -70.5 39.5v109h76q0 -58 25 -89t69 -31q34 0 53.5 17.5t19.5 46.5q0 37 -32 56l-134 79q-35 21 -53 49t-18 60q0 54 47 88t120 34q49 0 95.5 -15.5t70.5 -39.5v-108h-79q0 60 -21.5 90t-61.5 30q-32 0 -49 -16.5t-17 -44.5q0 -34 30 -51l133 -75
q36 -21 56 -51.5t20 -63.5q0 -37 -23.5 -66t-64.5 -46t-93 -17q-51 0 -98.5 15.5zM264 676l65 -71l-145 -95h-65z" />
    <glyph glyph-name="Scircumflex" unicode="&#x15c;" horiz-adv-x="493" 
d="M115 10.5q-53 22.5 -76 50.5v121h84q10 -79 40 -113.5t77 -34.5t75.5 29.5t28.5 76.5q0 61 -52 96l-169 112q-38 25 -62.5 63.5t-24.5 87.5q0 72 54.5 116.5t149.5 44.5q64 0 116 -20t80 -51v-123h-85q-8 83 -36 116.5t-74 33.5q-45 0 -69.5 -26.5t-24.5 -68.5
q0 -53 45 -83l177 -116q44 -29 68 -71.5t24 -90.5q0 -50 -27.5 -89t-78 -61t-117.5 -22q-70 0 -123 22.5zM247 853l155 -159h-69l-87 59l-89 -59h-66z" />
    <glyph glyph-name="scircumflex" unicode="&#x15d;" horiz-adv-x="427" 
d="M107.5 4.5q-47.5 15.5 -70.5 39.5v109h76q0 -58 25 -89t69 -31q34 0 53.5 17.5t19.5 46.5q0 37 -32 56l-134 79q-35 21 -53 49t-18 60q0 54 47 88t120 34q49 0 95.5 -15.5t70.5 -39.5v-108h-79q0 60 -21.5 90t-61.5 30q-32 0 -49 -16.5t-17 -44.5q0 -34 30 -51l133 -75
q36 -21 56 -51.5t20 -63.5q0 -37 -23.5 -66t-64.5 -46t-93 -17q-51 0 -98.5 15.5zM217 667l155 -159h-69l-87 59l-89 -59h-66z" />
    <glyph glyph-name="Scedilla" unicode="&#x15e;" horiz-adv-x="493" 
d="M408.5 42.5q-52.5 -46.5 -141.5 -53.5l-1 -17q35 -4 57.5 -29t22.5 -60q0 -41 -31 -65.5t-71 -24.5q-34 0 -67 20l18 37q23 -13 45 -13q18 0 32 13t14 32q0 21 -16 36.5t-47 15.5l4 54q-66 2 -116 24t-72 49v121h84q10 -79 40 -113.5t77 -34.5t75.5 29.5t28.5 76.5
q0 61 -52 96l-169 112q-38 25 -62.5 63.5t-24.5 87.5q0 72 54.5 116.5t149.5 44.5q64 0 116 -20t80 -51v-123h-85q-8 83 -36 116.5t-74 33.5q-45 0 -69.5 -26.5t-24.5 -68.5q0 -53 45 -83l177 -116q44 -29 68 -71.5t24 -90.5q0 -71 -52.5 -117.5z" />
    <glyph glyph-name="scedilla" unicode="&#x15f;" horiz-adv-x="427" 
d="M343 30.5q-44 -35.5 -114 -40.5l-1 -18q35 -4 57.5 -29t22.5 -60q0 -41 -31 -65.5t-71 -24.5q-34 0 -67 20l18 37q23 -13 45 -13q18 0 32 13t14 32q0 21 -16 36.5t-47 15.5l4 55q-47 3 -89 18t-63 37v109h76q0 -58 25 -89t69 -31q34 0 53.5 17.5t19.5 46.5q0 37 -32 56
l-134 79q-35 21 -53 49t-18 60q0 54 47 88t120 34q49 0 95.5 -15.5t70.5 -39.5v-108h-79q0 60 -21.5 90t-61.5 30q-32 0 -49 -16.5t-17 -44.5q0 -34 30 -51l133 -75q36 -21 56 -51.5t20 -63.5q0 -52 -44 -87.5z" />
    <glyph glyph-name="Scaron" unicode="&#x160;" horiz-adv-x="493" 
d="M115 10.5q-53 22.5 -76 50.5v121h84q10 -79 40 -113.5t77 -34.5t75.5 29.5t28.5 76.5q0 61 -52 96l-169 112q-38 25 -62.5 63.5t-24.5 87.5q0 72 54.5 116.5t149.5 44.5q64 0 116 -20t80 -51v-123h-85q-8 83 -36 116.5t-74 33.5q-45 0 -69.5 -26.5t-24.5 -68.5
q0 -53 45 -83l177 -116q44 -29 68 -71.5t24 -90.5q0 -50 -27.5 -89t-78 -61t-117.5 -22q-70 0 -123 22.5zM91 855h66l89 -59l87 59h69l-155 -159z" />
    <glyph glyph-name="scaron" unicode="&#x161;" horiz-adv-x="427" 
d="M107.5 4.5q-47.5 15.5 -70.5 39.5v109h76q0 -58 25 -89t69 -31q34 0 53.5 17.5t19.5 46.5q0 37 -32 56l-134 79q-35 21 -53 49t-18 60q0 54 47 88t120 34q49 0 95.5 -15.5t70.5 -39.5v-108h-79q0 60 -21.5 90t-61.5 30q-32 0 -49 -16.5t-17 -44.5q0 -34 30 -51l133 -75
q36 -21 56 -51.5t20 -63.5q0 -37 -23.5 -66t-64.5 -46t-93 -17q-51 0 -98.5 15.5zM61 667h66l89 -59l87 59h69l-155 -159z" />
    <glyph glyph-name="uni0162" unicode="&#x162;" horiz-adv-x="570" 
d="M551 648v-182h-65l-51 134h-89v-552h95v-48h-135l-1 -28q35 -4 57.5 -29t22.5 -60q0 -41 -31 -65.5t-71 -24.5q-34 0 -67 20l18 37q23 -13 45 -13q18 0 32 13t14 32q0 21 -16 36.5t-47 15.5l5 66h-137v48h95v552h-90l-50 -134h-65v182h531z" />
    <glyph glyph-name="uni0163" unicode="&#x163;" horiz-adv-x="337" 
d="M274.5 -57q22.5 -25 22.5 -60q0 -41 -31 -65.5t-71 -24.5q-34 0 -67 20l18 37q23 -13 45 -13q18 0 32 13t14 32q0 21 -16 36.5t-47 15.5l4 57q-55 8 -83.5 41t-28.5 90v287h-44v34l124 124h32v-115h143v-43h-143v-289q0 -77 60 -77q33 0 65 26l27 -33
q-30 -25 -55.5 -35.5t-56.5 -11.5l-1 -17q35 -4 57.5 -29z" />
    <glyph glyph-name="Tcaron" unicode="&#x164;" horiz-adv-x="570" 
d="M130 48h95v552h-90l-50 -134h-65v182h531v-182h-65l-51 134h-89v-552h95v-48h-311v48zM130 855h66l89 -59l87 59h69l-155 -159z" />
    <glyph glyph-name="tcaron" unicode="&#x165;" horiz-adv-x="337" 
d="M282 525h-54v155h94zM330 36q-32 -27 -59 -37t-61 -10q-70 0 -107 34t-37 99v287h-44v34l124 124h32v-115h143v-43h-143v-289q0 -77 60 -77q33 0 65 26z" />
    <glyph glyph-name="Tbar" unicode="&#x166;" horiz-adv-x="570" 
d="M551 648v-182h-65l-51 134h-89v-231h132v-51h-132v-270h95v-48h-311v48h95v270h-132v51h132v231h-90l-50 -134h-65v182h531z" />
    <glyph glyph-name="tbar" unicode="&#x167;" horiz-adv-x="337" 
d="M330 36q-32 -27 -59 -37t-61 -10q-70 0 -107 34t-37 99v140h-37v43h37v104h-44v34l124 124h32v-115h143v-43h-143v-104h131v-43h-131v-142q0 -77 60 -77q33 0 65 26z" />
    <glyph glyph-name="Utilde" unicode="&#x168;" horiz-adv-x="643" 
d="M158.5 48.5q-64.5 59.5 -64.5 179.5v372h-78v48h277v-48h-78v-406q0 -74 35.5 -112.5t99.5 -38.5q39 0 72 18t52.5 52t19.5 80v407h-78v48h211v-48h-78v-403q0 -92 -57 -150t-160 -58q-109 0 -173.5 59.5zM337 719q-23 10 -35 14t-25 4q-14 0 -26.5 -9.5t-16.5 -24.5h-47
q10 43 38 71t72 28q16 0 32 -5t37 -15q36 -17 55 -17q14 0 26.5 10.5t14.5 24.5h47q-8 -44 -34 -72.5t-70 -28.5q-26 0 -68 20z" />
    <glyph glyph-name="utilde" unicode="&#x169;" horiz-adv-x="534" 
d="M514 44v-41l-172 -11l-2 36q-19 -19 -48.5 -29t-64.5 -10q-154 0 -154 157v263h-61v43h173v-306q0 -109 65 -109q38 0 64 27t26 82v263h-61v43h173v-408h62zM239 540q-23 10 -35 14t-25 4q-14 0 -26.5 -9.5t-16.5 -24.5h-47q10 43 38 71t72 28q16 0 32 -5t37 -15
q36 -17 55 -17q14 0 26.5 10.5t14.5 24.5h47q-8 -44 -34 -72.5t-70 -28.5q-26 0 -68 20z" />
    <glyph glyph-name="Umacron" unicode="&#x16a;" horiz-adv-x="643" 
d="M158.5 48.5q-64.5 59.5 -64.5 179.5v372h-78v48h277v-48h-78v-406q0 -74 35.5 -112.5t99.5 -38.5q39 0 72 18t52.5 52t19.5 80v407h-78v48h211v-48h-78v-403q0 -92 -57 -150t-160 -58q-109 0 -173.5 59.5zM227 777h249v-50h-249v50z" />
    <glyph glyph-name="umacron" unicode="&#x16b;" horiz-adv-x="534" 
d="M514 44v-41l-172 -11l-2 36q-19 -19 -48.5 -29t-64.5 -10q-154 0 -154 157v263h-61v43h173v-306q0 -109 65 -109q38 0 64 27t26 82v263h-61v43h173v-408h62zM129 591h249v-50h-249v50z" />
    <glyph glyph-name="Ubreve" unicode="&#x16c;" horiz-adv-x="643" 
d="M262.5 734q-36.5 31 -37.5 80h58q2 -30 22 -46t47 -16t47 16t22 46h58q-1 -49 -37.5 -80t-89.5 -31t-89.5 31zM158.5 48.5q-64.5 59.5 -64.5 179.5v372h-78v48h277v-48h-78v-406q0 -74 35.5 -112.5t99.5 -38.5q39 0 72 18t52.5 52t19.5 80v407h-78v48h211v-48h-78v-403
q0 -92 -57 -150t-160 -58q-109 0 -173.5 59.5z" />
    <glyph glyph-name="ubreve" unicode="&#x16d;" horiz-adv-x="534" 
d="M514 44v-41l-172 -11l-2 36q-19 -19 -48.5 -29t-64.5 -10q-154 0 -154 157v263h-61v43h173v-306q0 -109 65 -109q38 0 64 27t26 82v263h-61v43h173v-408h62zM164.5 550q-36.5 31 -37.5 80h58q2 -30 22 -46t47 -16t47 16t22 46h58q-1 -49 -37.5 -80t-89.5 -31t-89.5 31z
" />
    <glyph glyph-name="Uring" unicode="&#x16e;" horiz-adv-x="643" 
d="M158.5 48.5q-64.5 59.5 -64.5 179.5v372h-78v48h277v-48h-78v-406q0 -74 35.5 -112.5t99.5 -38.5q39 0 72 18t52.5 52t19.5 80v407h-78v48h211v-48h-78v-403q0 -92 -57 -150t-160 -58q-109 0 -173.5 59.5zM287.5 722.5q-26.5 25.5 -26.5 62.5t26.5 62.5t64.5 25.5
t64.5 -25.5t26.5 -62.5t-26.5 -62.5t-64.5 -25.5t-64.5 25.5zM384.5 751q13.5 13 13.5 34t-13.5 34t-32.5 13t-32.5 -13t-13.5 -34t13.5 -34t32.5 -13t32.5 13z" />
    <glyph glyph-name="uring" unicode="&#x16f;" horiz-adv-x="534" 
d="M514 44v-41l-172 -11l-2 36q-19 -19 -48.5 -29t-64.5 -10q-154 0 -154 157v263h-61v43h173v-306q0 -109 65 -109q38 0 64 27t26 82v263h-61v43h173v-408h62zM189.5 540.5q-26.5 25.5 -26.5 62.5t26.5 62.5t64.5 25.5t64.5 -25.5t26.5 -62.5t-26.5 -62.5t-64.5 -25.5
t-64.5 25.5zM286.5 569q13.5 13 13.5 34t-13.5 34t-32.5 13t-32.5 -13t-13.5 -34t13.5 -34t32.5 -13t32.5 13z" />
    <glyph glyph-name="Uhungarumlaut" unicode="&#x170;" horiz-adv-x="643" 
d="M158.5 48.5q-64.5 59.5 -64.5 179.5v372h-78v48h277v-48h-78v-406q0 -74 35.5 -112.5t99.5 -38.5q39 0 72 18t52.5 52t19.5 80v407h-78v48h211v-48h-78v-403q0 -92 -57 -150t-160 -58q-109 0 -173.5 59.5zM348 855h68l-135 -166h-65zM473 855h68l-134 -166h-66z" />
    <glyph glyph-name="uhungarumlaut" unicode="&#x171;" horiz-adv-x="534" 
d="M514 44v-41l-172 -11l-2 36q-19 -19 -48.5 -29t-64.5 -10q-154 0 -154 157v263h-61v43h173v-306q0 -109 65 -109q38 0 64 27t26 82v263h-61v43h173v-408h62zM260 676h68l-135 -166h-65zM385 676h68l-134 -166h-66z" />
    <glyph glyph-name="Uogonek" unicode="&#x172;" horiz-adv-x="643" 
d="M627 648v-48h-78v-403q0 -78 -42 -133t-119 -70q-33 -22 -52.5 -49t-19.5 -53q0 -22 12.5 -37.5t32.5 -15.5q18 0 51 18l19 -26q-20 -20 -47 -31.5t-55 -11.5q-39 0 -62.5 23t-23.5 61q0 32 21 62.5t57 54.5q-105 3 -166 62.5t-61 176.5v372h-78v48h277v-48h-78v-406
q0 -74 35.5 -112.5t99.5 -38.5q39 0 72 18t52.5 52t19.5 80v407h-78v48h211z" />
    <glyph glyph-name="uogonek" unicode="&#x173;" horiz-adv-x="534" 
d="M529 -176q-20 -20 -47 -31.5t-55 -11.5q-39 0 -62.5 23t-23.5 61t29.5 74t77.5 60l-106 -7l-2 36q-19 -19 -48.5 -29t-64.5 -10q-154 0 -154 157v263h-61v43h173v-306q0 -109 65 -109q38 0 64 27t26 82v263h-61v43h173v-408h62v-41h-1q-45 -24 -72 -55.5t-27 -62.5
q0 -22 12.5 -37.5t32.5 -15.5q18 0 51 18z" />
    <glyph glyph-name="Wcircumflex" unicode="&#x174;" horiz-adv-x="968" 
d="M958 600h-78l-176 -600h-68l-155 458l-139 -458h-69l-184 600h-79v48h280v-48h-79l127 -425l140 469h64l158 -471l124 427h-78v48h212v-48zM510 853l155 -159h-69l-87 59l-89 -59h-66z" />
    <glyph glyph-name="wcircumflex" unicode="&#x175;" horiz-adv-x="735" 
d="M740 409h-68l-128 -409h-64l-112 275l-98 -275h-65l-148 409h-62v43h246v-43h-67l89 -264l109 307h43l122 -313l78 270h-72v43h197v-43zM394 667l155 -159h-69l-87 59l-89 -59h-66z" />
    <glyph glyph-name="Ycircumflex" unicode="&#x176;" horiz-adv-x="612" 
d="M370 299v-251h86v-48h-293v48h86v227l-161 325h-78v48h278v-48h-72l121 -248l129 248h-80v48h216v-48h-78zM334 853l155 -159h-69l-87 59l-89 -59h-66z" />
    <glyph glyph-name="ycircumflex" unicode="&#x177;" horiz-adv-x="503" 
d="M508 409h-65l-194 -523q-38 -102 -124 -102q-27 0 -53 11.5t-55 37.5l34 40q17 -16 37.5 -26.5t36.5 -10.5q21 0 38 13.5t27 38.5l40 106l-176 415h-59v43h243v-43h-64l109 -271l102 271h-70v43h193v-43zM277 667l155 -159h-69l-87 59l-89 -59h-66z" />
    <glyph glyph-name="Ydieresis" unicode="&#x178;" horiz-adv-x="612" 
d="M370 299v-251h86v-48h-293v48h86v227l-161 325h-78v48h278v-48h-72l121 -248l129 248h-80v48h216v-48h-78zM200.5 715q-17.5 18 -17.5 43q0 26 17.5 43.5t43.5 17.5q25 0 43 -17.5t18 -43.5q0 -25 -18 -43t-43 -18q-26 0 -43.5 18zM380.5 715q-17.5 18 -17.5 43
q0 26 17.5 43.5t43.5 17.5q25 0 43 -17.5t18 -43.5q0 -25 -18 -43t-43 -18q-26 0 -43.5 18z" />
    <glyph glyph-name="Zacute" unicode="&#x179;" horiz-adv-x="546" 
d="M526 182v-182h-506v45l361 555h-223l-54 -134h-63v182h477v-41l-361 -559h253l52 134h64zM368 862l65 -71l-145 -95h-65z" />
    <glyph glyph-name="zacute" unicode="&#x17a;" horiz-adv-x="443" 
d="M418 153v-153h-393v39l260 370h-139l-42 -107h-61v150h364v-36l-254 -372h162l43 109h60zM270 676l65 -71l-145 -95h-65z" />
    <glyph glyph-name="Zdotaccent" unicode="&#x17b;" horiz-adv-x="546" 
d="M526 182v-182h-506v45l361 555h-223l-54 -134h-63v182h477v-41l-361 -559h253l52 134h64zM231.5 816.5q20.5 20.5 49.5 20.5t49.5 -20.5t20.5 -49.5t-20.5 -49.5t-49.5 -20.5t-49.5 20.5t-20.5 49.5t20.5 49.5z" />
    <glyph glyph-name="zdotaccent" unicode="&#x17c;" horiz-adv-x="443" 
d="M418 153v-153h-393v39l260 370h-139l-42 -107h-61v150h364v-36l-254 -372h162l43 109h60zM173.5 644.5q20.5 20.5 49.5 20.5t49.5 -20.5t20.5 -49.5t-20.5 -49.5t-49.5 -20.5t-49.5 20.5t-20.5 49.5t20.5 49.5z" />
    <glyph glyph-name="Zcaron" unicode="&#x17d;" horiz-adv-x="546" 
d="M526 182v-182h-506v45l361 555h-223l-54 -134h-63v182h477v-41l-361 -559h253l52 134h64zM125 855h66l89 -59l87 59h69l-155 -159z" />
    <glyph glyph-name="zcaron" unicode="&#x17e;" horiz-adv-x="443" 
d="M418 153v-153h-393v39l260 370h-139l-42 -107h-61v150h364v-36l-254 -372h162l43 109h60zM67 667h66l89 -59l87 59h69l-155 -159z" />
    <glyph glyph-name="longs" unicode="&#x17f;" horiz-adv-x="340" 
d="M327 680q25 -15 49 -41l-35 -32q-18 19 -35.5 28t-37.5 9q-33 0 -49 -23t-16 -70v-508h93v-43h-273v43h69v366h-65v43h65v75q0 74 45.5 121t118.5 47q46 0 71 -15z" />
    <glyph glyph-name="uni018F" unicode="&#x18f;" horiz-adv-x="628" 
d="M474.5 614q65.5 -46 95.5 -118t30 -151q0 -91 -31 -172.5t-96.5 -133t-164.5 -51.5q-93 0 -155.5 39t-92.5 105t-30 149h447q0 84 -18.5 160.5t-57.5 124.5t-95 48q-44 0 -75 -35.5t-39 -112.5h-85v135q42 25 88 42t113 17q101 0 166.5 -46zM427 86.5q40 53.5 48 145.5
h-314q11 -90 48.5 -144.5t98.5 -54.5q79 0 119 53.5z" />
    <glyph glyph-name="florin" unicode="&#x192;" horiz-adv-x="344" 
d="M323.5 680.5q24.5 -14.5 50.5 -41.5l-35 -32q-16 17 -32.5 27t-40.5 10q-31 0 -48 -20.5t-17 -72.5v-99h117v-43h-117v-460q0 -82 -48 -123t-116 -41q-42 0 -66.5 13.5t-54.5 41.5l35 35q41 -41 79 -41q29 0 44.5 21.5t15.5 73.5v480h-65v43h65v75q0 56 23.5 94t61 56
t77.5 18q47 0 71.5 -14.5z" />
    <glyph glyph-name="uni01DD" unicode="&#x1dd;" horiz-adv-x="473" 
d="M337.5 433.5q46.5 -29.5 72.5 -83t26 -122.5q0 -71 -27 -125t-75.5 -84t-111.5 -30q-85 0 -135 54.5t-50 148.5q0 15 1 23h289q-5 81 -41 133.5t-89 52.5q-40 0 -73 -28.5t-43 -73.5h-43q13 76 65 120t127 44q61 0 107.5 -29.5zM298 69q25 37 29 101h-176q-1 -66 20 -102
t61 -36q41 0 66 37z" />
    <glyph glyph-name="AEacute" unicode="&#x1fc;" horiz-adv-x="884" 
d="M852 182v-182h-516v48h78v184h-175l-82 -183h77v-49h-224v49h82l255 551h-11v1h-51v47h559v-182h-70l-51 134h-188v-233h104v78h60v-206h-60v78h-104v-269h197l50 134h70zM414 285v315h-8l-143 -315h151zM583 862l65 -71l-145 -95h-65z" />
    <glyph glyph-name="aeacute" unicode="&#x1fd;" horiz-adv-x="722" 
d="M635 408.5q50 -54.5 50 -148.5q0 -15 -1 -23h-289q5 -81 41 -133.5t89 -52.5q40 0 73 28.5t43 73.5h43q-13 -76 -65 -120t-127 -44q-87 0 -144 60q-44 -29 -84 -44.5t-79 -15.5q-67 0 -105 29t-38 77q0 46 32 77t81 47l133 44v49q0 58 -12.5 83.5t-47.5 25.5
q-38 0 -54 -27t-21 -89h-86v101q24 24 71 40.5t95 16.5q91 0 133 -46q55 46 134 46q85 0 135 -54.5zM424 383q-25 -37 -29 -101h176q1 66 -20 102t-61 36q-41 0 -66 -37zM268 56q29 11 53 29q-33 55 -35 131l-70 -24q-27 -10 -42.5 -32.5t-15.5 -50.5q0 -27 17 -45.5
t44 -18.5q20 0 49 11zM408 676l65 -71l-145 -95h-65z" />
    <glyph glyph-name="Oslashacute" unicode="&#x1fe;" horiz-adv-x="643" 
d="M594 471q21 -62 21 -128q0 -92 -31.5 -173t-97.5 -131.5t-165 -50.5q-100 0 -168 46l-37 -53h-65l61 88q-43 44 -63.5 106.5t-20.5 129.5q0 92 31.5 173t97.5 131.5t164 50.5q99 0 169 -47l38 54h65l-62 -89q42 -45 63 -107zM181 167l256 369q-46 80 -127 80
q-80 0 -119 -70t-39 -178q0 -118 29 -201zM452.5 101q38.5 69 38.5 177q0 117 -28 202l-257 -369q48 -79 128 -79t118.5 69zM409 862l65 -71l-145 -95h-65z" />
    <glyph glyph-name="oslashacute" unicode="&#x1ff;" horiz-adv-x="497" 
d="M442.5 331.5q17.5 -44.5 17.5 -97.5q0 -68 -28.5 -124t-78 -88.5t-111.5 -32.5q-53 0 -97 25l-33 -52h-52l49 77q-34 31 -53 78t-19 104q0 68 27.5 123.5t76 87t110.5 31.5q58 0 109 -30l27 43h50l-44 -69q32 -31 49.5 -75.5zM167 130l147 231q-28 59 -74 59
q-40 0 -63.5 -45t-23.5 -129q0 -63 14 -116zM318.5 78q23.5 45 23.5 129q0 55 -11 102l-144 -228q27 -48 68 -48q40 0 63.5 45zM296 676l65 -71l-145 -95h-65z" />
    <glyph glyph-name="Scommaaccent" unicode="&#x218;" horiz-adv-x="493" 
d="M115 10.5q-53 22.5 -76 50.5v121h84q10 -79 40 -113.5t77 -34.5t75.5 29.5t28.5 76.5q0 61 -52 96l-169 112q-38 25 -62.5 63.5t-24.5 87.5q0 72 54.5 116.5t149.5 44.5q64 0 116 -20t80 -51v-123h-85q-8 83 -36 116.5t-74 33.5q-45 0 -69.5 -26.5t-24.5 -68.5
q0 -53 45 -83l177 -116q44 -29 68 -71.5t24 -90.5q0 -50 -27.5 -89t-78 -61t-117.5 -22q-70 0 -123 22.5zM205 -41h105l-65 -168h-61z" />
    <glyph glyph-name="scommaaccent" unicode="&#x219;" horiz-adv-x="427" 
d="M107.5 4.5q-47.5 15.5 -70.5 39.5v109h76q0 -58 25 -89t69 -31q34 0 53.5 17.5t19.5 46.5q0 37 -32 56l-134 79q-35 21 -53 49t-18 60q0 54 47 88t120 34q49 0 95.5 -15.5t70.5 -39.5v-108h-79q0 60 -21.5 90t-61.5 30q-32 0 -49 -16.5t-17 -44.5q0 -34 30 -51l133 -75
q36 -21 56 -51.5t20 -63.5q0 -37 -23.5 -66t-64.5 -46t-93 -17q-51 0 -98.5 15.5zM167 -41h105l-65 -168h-61z" />
    <glyph glyph-name="uni021A" unicode="&#x21a;" horiz-adv-x="570" 
d="M130 48h95v552h-90l-50 -134h-65v182h531v-182h-65l-51 134h-89v-552h95v-48h-311v48zM244 -41h105l-65 -168h-61z" />
    <glyph glyph-name="uni021B" unicode="&#x21b;" horiz-adv-x="337" 
d="M330 36q-32 -27 -59 -37t-61 -10q-70 0 -107 34t-37 99v287h-44v34l124 124h32v-115h143v-43h-143v-289q0 -77 60 -77q33 0 65 26zM156 -41h105l-65 -168h-61z" />
    <glyph glyph-name="uni0237" unicode="&#x237;" horiz-adv-x="269" 
d="M-31.5 -201.5q-24.5 13.5 -54.5 41.5l35 35q41 -41 79 -41q29 0 44.5 21.5t15.5 73.5v480h-72v41l183 12v-513q0 -82 -48 -123t-116 -41q-42 0 -66.5 13.5z" />
    <glyph glyph-name="circumflex" unicode="&#x2c6;" horiz-adv-x="331" 
d="M166 667l155 -159h-69l-87 59l-89 -59h-66z" />
    <glyph glyph-name="caron" unicode="&#x2c7;" horiz-adv-x="331" 
d="M10 667h66l89 -59l87 59h69l-155 -159z" />
    <glyph glyph-name="breve" unicode="&#x2d8;" horiz-adv-x="274" 
d="M47.5 550q-36.5 31 -37.5 80h58q2 -30 22 -46t47 -16t47 16t22 46h58q-1 -49 -37.5 -80t-89.5 -31t-89.5 31z" />
    <glyph glyph-name="dotaccent" unicode="&#x2d9;" horiz-adv-x="160" 
d="M30.5 644.5q20.5 20.5 49.5 20.5t49.5 -20.5t20.5 -49.5t-20.5 -49.5t-49.5 -20.5t-49.5 20.5t-20.5 49.5t20.5 49.5z" />
    <glyph glyph-name="ring" unicode="&#x2da;" horiz-adv-x="202" 
d="M36.5 540.5q-26.5 25.5 -26.5 62.5t26.5 62.5t64.5 25.5t64.5 -25.5t26.5 -62.5t-26.5 -62.5t-64.5 -25.5t-64.5 25.5zM133.5 569q13.5 13 13.5 34t-13.5 34t-32.5 13t-32.5 -13t-13.5 -34t13.5 -34t32.5 -13t32.5 13z" />
    <glyph glyph-name="ogonek" unicode="&#x2db;" horiz-adv-x="208" 
d="M33.5 -199q-23.5 23 -23.5 61q0 40 32 77.5t84 60.5h56q-45 -24 -72 -55.5t-27 -62.5q0 -22 12.5 -37.5t32.5 -15.5q18 0 51 18l19 -26q-20 -20 -47 -31.5t-55 -11.5q-39 0 -62.5 23z" />
    <glyph glyph-name="tilde" unicode="&#x2dc;" horiz-adv-x="342" 
d="M160 540q-23 10 -35 14t-25 4q-14 0 -26.5 -9.5t-16.5 -24.5h-47q10 43 38 71t72 28q16 0 32 -5t37 -15q36 -17 55 -17q14 0 26.5 10.5t14.5 24.5h47q-8 -44 -34 -72.5t-70 -28.5q-26 0 -68 20z" />
    <glyph glyph-name="hungarumlaut" unicode="&#x2dd;" horiz-adv-x="345" 
d="M142 676h68l-135 -166h-65zM267 676h68l-134 -166h-66z" />
    <glyph glyph-name="gravecomb" unicode="&#x300;" 
d="M-232 604l65 71l145 -166h-65z" />
    <glyph glyph-name="acutecomb" unicode="&#x301;" 
d="M-109 676l65 -71l-145 -95h-65z" />
    <glyph glyph-name="uni0302" unicode="&#x302;" 
d="M-188 667l155 -159h-69l-87 59l-89 -59h-66z" />
    <glyph glyph-name="tildecomb" unicode="&#x303;" 
d="M-198 540q-23 10 -35 14t-25 4q-14 0 -26.5 -9.5t-16.5 -24.5h-47q10 43 38 71t72 28q16 0 32 -5t37 -15q36 -17 55 -17q14 0 26.5 10.5t14.5 24.5h47q-8 -44 -34 -72.5t-70 -28.5q-26 0 -68 20z" />
    <glyph glyph-name="uni0304" unicode="&#x304;" 
d="M-261 591h249v-50h-249v50z" />
    <glyph glyph-name="uni0306" unicode="&#x306;" 
d="M-268.5 550q-36.5 31 -37.5 80h58q2 -30 22 -46t47 -16t47 16t22 46h58q-1 -49 -37.5 -80t-89.5 -31t-89.5 31z" />
    <glyph glyph-name="uni0307" unicode="&#x307;" 
d="M-153.5 644.5q20.5 20.5 49.5 20.5t49.5 -20.5t20.5 -49.5t-20.5 -49.5t-49.5 -20.5t-49.5 20.5t-20.5 49.5t20.5 49.5z" />
    <glyph glyph-name="uni0308" unicode="&#x308;" 
d="M-324.5 559q-17.5 18 -17.5 43q0 26 17.5 43.5t43.5 17.5q25 0 43 -17.5t18 -43.5q0 -25 -18 -43t-43 -18q-26 0 -43.5 18zM-144.5 559q-17.5 18 -17.5 43q0 26 17.5 43.5t43.5 17.5q25 0 43 -17.5t18 -43.5q0 -25 -18 -43t-43 -18q-26 0 -43.5 18z" />
    <glyph glyph-name="uni030A" unicode="&#x30a;" 
d="M-213.5 540.5q-26.5 25.5 -26.5 62.5t26.5 62.5t64.5 25.5t64.5 -25.5t26.5 -62.5t-26.5 -62.5t-64.5 -25.5t-64.5 25.5zM-116.5 569q13.5 13 13.5 34t-13.5 34t-32.5 13t-32.5 -13t-13.5 -34t13.5 -34t32.5 -13t32.5 13z" />
    <glyph glyph-name="uni030B" unicode="&#x30b;" 
d="M-231 676h68l-135 -166h-65zM-106 676h68l-134 -166h-66z" />
    <glyph glyph-name="uni030C" unicode="&#x30c;" 
d="M-344 667h66l89 -59l87 59h69l-155 -159z" />
    <glyph glyph-name="uni0312" unicode="&#x312;" 
d="M-215 521h-106l46 158h60v-158z" />
    <glyph glyph-name="uni0326" unicode="&#x326;" 
d="M-162 -41h105l-65 -168h-61z" />
    <glyph glyph-name="uni0327" unicode="&#x327;" 
d="M-146 -163q18 0 32 13t14 32q0 21 -16 36.5t-47 15.5l6 78l38 -6l-1 -34q35 -4 57.5 -29t22.5 -60q0 -41 -31 -65.5t-71 -24.5q-34 0 -67 20l18 37q23 -13 45 -13z" />
    <glyph glyph-name="uni0328" unicode="&#x328;" 
d="M-225.5 -199q-23.5 23 -23.5 61q0 40 32 77.5t84 60.5h56q-45 -24 -72 -55.5t-27 -62.5q0 -22 12.5 -37.5t32.5 -15.5q18 0 51 18l19 -26q-20 -20 -47 -31.5t-55 -11.5q-39 0 -62.5 23z" />
    <glyph glyph-name="uni0335" unicode="&#x335;" 
d="M-519 571h280v-43h-280v43z" />
    <glyph glyph-name="uni0337" unicode="&#x337;" 
d="M-250 243l247 207v-59l-247 -206v58z" />
    <glyph glyph-name="uni0338" unicode="&#x338;" 
d="M-112 476h50l-325 -514h-52z" />
    <glyph glyph-name="tonos" unicode="&#x384;" horiz-adv-x="114" 
d="M10 668h94l-40 -158h-54v158z" />
    <glyph glyph-name="dieresistonos" unicode="&#x385;" horiz-adv-x="354" 
d="M149 728h86l-40 -155h-46v155zM26.5 556q-16.5 16 -16.5 39q0 24 16.5 40t39.5 16q24 0 40 -16t16 -40q0 -23 -16 -39t-40 -16q-23 0 -39.5 16zM248 556q-16 16 -16 39q0 24 16 40t40 16q23 0 39.5 -16t16.5 -40q0 -23 -16.5 -39t-39.5 -16q-24 0 -40 16z" />
    <glyph glyph-name="Alphatonos" unicode="&#x386;" horiz-adv-x="665" 
d="M657 48v-48h-277v48h78l-61 181h-189l-63 -181h74v-48h-209v48h76l214 600h71l214 -600h72zM380 279l-74 219h-5l-76 -219h155zM95 668h94l-40 -155h-54v155z" />
    <glyph glyph-name="Epsilontonos" unicode="&#x388;" horiz-adv-x="571" 
d="M539 182v-182h-516v48h78v552h-78v48h508v-182h-70l-51 134h-188v-233h104v78h60v-206h-60v78h-104v-269h197l50 134h70zM-119 668h94l-40 -155h-54v155z" />
    <glyph glyph-name="Etatonos" unicode="&#x389;" horiz-adv-x="702" 
d="M601 600v-552h78v-48h-277v48h78v269h-258v-269h78v-48h-277v48h78v552h-78v48h278v-48h-79v-233h258v233h-78v48h277v-48h-78zM-111 668h94l-40 -155h-54v155z" />
    <glyph glyph-name="Iotatonos" unicode="&#x38a;" horiz-adv-x="361" 
d="M241 600v-552h97v-48h-315v48h97v552h-97v48h315v-48h-97zM-116 668h94l-40 -155h-54v155z" />
    <glyph glyph-name="Omicrontonos" unicode="&#x38c;" horiz-adv-x="643" 
d="M152.5 34q-65.5 46 -95 118t-29.5 153q0 92 31.5 173t97.5 131.5t164 50.5q101 0 167.5 -46t96.5 -118.5t30 -152.5q0 -92 -31.5 -173t-97.5 -131.5t-165 -50.5q-103 0 -168.5 46zM452.5 101q38.5 69 38.5 177q0 146 -45 242t-136 96q-80 0 -119 -70t-39 -178
q0 -146 45.5 -241t136.5 -95q80 0 118.5 69zM-44 668h94l-40 -155h-54v155z" />
    <glyph glyph-name="Upsilontonos" unicode="&#x38e;" horiz-adv-x="612" 
d="M370 299v-251h86v-48h-293v48h86v227l-161 325h-78v48h278v-48h-72l121 -248l129 248h-80v48h216v-48h-78zM-136 668h94l-40 -155h-54v155z" />
    <glyph glyph-name="Omegatonos" unicode="&#x38f;" horiz-adv-x="750" 
d="M28 182h65l30 -82h97q-63 64 -105.5 134t-42.5 157q0 76 39.5 137t108.5 95.5t154 34.5q84 0 153.5 -34.5t110 -95.5t40.5 -137q0 -87 -43 -157.5t-106 -133.5h98l30 82h65v-182h-277l-10 45q65 96 91.5 168t26.5 159q0 114 -44 178t-135 64q-89 0 -133 -64t-44 -178
q0 -87 26.5 -159.5t91.5 -167.5l-10 -45h-277v182zM-15 668h94l-40 -155h-54v155z" />
    <glyph glyph-name="iotadieresistonos" unicode="&#x390;" horiz-adv-x="272" 
d="M69 84v368h112v-380q0 -12 7.5 -18.5t17.5 -6.5q13 0 34 16l18 -34q-38 -40 -98 -40q-91 0 -91 95zM99 728h86l-40 -155h-46v155zM-23.5 556q-16.5 16 -16.5 39q0 24 16.5 40t39.5 16q24 0 40 -16t16 -40q0 -23 -16 -39t-40 -16q-23 0 -39.5 16zM198 556q-16 16 -16 39
q0 24 16 40t40 16q23 0 39.5 -16t16.5 -40q0 -23 -16.5 -39t-39.5 -16q-24 0 -40 16z" />
    <glyph glyph-name="Alpha" unicode="&#x391;" horiz-adv-x="665" 
d="M657 48v-48h-277v48h78l-61 181h-189l-63 -181h74v-48h-209v48h76l214 600h71l214 -600h72zM380 279l-74 219h-5l-76 -219h155z" />
    <glyph glyph-name="Beta" unicode="&#x392;" horiz-adv-x="588" 
d="M524.5 289q31.5 -43 31.5 -101q0 -54 -27 -97t-76 -67t-113 -24h-317v48h78v552h-78v48h316q52 0 93.5 -20.5t64.5 -57.5t23 -84q0 -40 -22 -75t-58 -59q53 -20 84.5 -63zM222 600v-233h90q37 0 61.5 32t24.5 85q0 54 -25.5 85t-60.5 31h-90zM376 64.5q24 16.5 39 48
t15 74.5q0 53 -30 91.5t-76 38.5h-102v-269h103q27 0 51 16.5z" />
    <glyph glyph-name="Gamma" unicode="&#x393;" horiz-adv-x="559" 
d="M539 648v-182h-70l-50 134h-197v-552h78v-48h-277v48h78v552h-78v48h516z" />
    <glyph glyph-name="uni0394" unicode="&#x394;" horiz-adv-x="614" 
d="M581 36v-36h-548v36l247 612h63zM459 48l-179 456l-182 -456h361z" />
    <glyph glyph-name="Epsilon" unicode="&#x395;" horiz-adv-x="571" 
d="M539 182v-182h-516v48h78v552h-78v48h508v-182h-70l-51 134h-188v-233h104v78h60v-206h-60v78h-104v-269h197l50 134h70z" />
    <glyph glyph-name="Zeta" unicode="&#x396;" horiz-adv-x="546" 
d="M526 182v-182h-506v45l361 555h-223l-54 -134h-63v182h477v-41l-361 -559h253l52 134h64z" />
    <glyph glyph-name="Eta" unicode="&#x397;" horiz-adv-x="702" 
d="M601 600v-552h78v-48h-277v48h78v269h-258v-269h78v-48h-277v48h78v552h-78v48h278v-48h-79v-233h258v233h-78v48h277v-48h-78z" />
    <glyph glyph-name="Theta" unicode="&#x398;" horiz-adv-x="643" 
d="M152.5 34q-65.5 46 -95 118t-29.5 153q0 92 31.5 173t97.5 131.5t164 50.5q101 0 167.5 -46t96.5 -118.5t30 -152.5q0 -92 -31.5 -173t-97.5 -131.5t-165 -50.5q-103 0 -168.5 46zM452.5 101q38.5 69 38.5 177q0 146 -45 242t-136 96q-80 0 -119 -70t-39 -178
q0 -146 45.5 -241t136.5 -95q80 0 118.5 69zM221 360h198v-60h-198v60z" />
    <glyph glyph-name="Iota" unicode="&#x399;" horiz-adv-x="361" 
d="M241 600v-552h97v-48h-315v48h97v552h-97v48h315v-48h-97z" />
    <glyph glyph-name="Kappa" unicode="&#x39a;" horiz-adv-x="659" 
d="M649 48v-48h-194l-203 317h-30v-269h78v-48h-277v48h78v552h-78v48h277v-48h-78v-233h53l188 233h-75v48h222v-48h-81l-177 -220l220 -332h77z" />
    <glyph glyph-name="Lambda" unicode="&#x39b;" horiz-adv-x="665" 
d="M657 48v-48h-277v48h78l-152 450h-5l-156 -450h74v-48h-209v48h76l214 600h71l214 -600h72z" />
    <glyph glyph-name="Mu" unicode="&#x39c;" horiz-adv-x="836" 
d="M23 48h78v552h-78v48h193l209 -457l195 457h193v-48h-78v-552h78v-48h-274v48h75v447l-191 -447h-62l-205 446v-446h74v-48h-207v48z" />
    <glyph glyph-name="Nu" unicode="&#x39d;" horiz-adv-x="633" 
d="M23 48h78v552h-78v48h179l285 -446v398h-77v48h210v-48h-78v-600h-74l-312 493v-445h75v-48h-208v48z" />
    <glyph glyph-name="Xi" unicode="&#x39e;" horiz-adv-x="571" 
d="M107 466h-65v182h487v-182h-65l-51 134h-257zM155 301v60h239v-60h-239zM539 182v-182h-507v182h65l49 -134h277l51 134h65z" />
    <glyph glyph-name="Omicron" unicode="&#x39f;" horiz-adv-x="643" 
d="M152.5 34q-65.5 46 -95 118t-29.5 153q0 92 31.5 173t97.5 131.5t164 50.5q101 0 167.5 -46t96.5 -118.5t30 -152.5q0 -92 -31.5 -173t-97.5 -131.5t-165 -50.5q-103 0 -168.5 46zM452.5 101q38.5 69 38.5 177q0 146 -45 242t-136 96q-80 0 -119 -70t-39 -178
q0 -146 45.5 -241t136.5 -95q80 0 118.5 69z" />
    <glyph glyph-name="Pi" unicode="&#x3a0;" horiz-adv-x="702" 
d="M601 600v-552h78v-48h-277v48h78v552h-258v-552h78v-48h-277v48h78v552h-78v48h656v-48h-78z" />
    <glyph glyph-name="Rho" unicode="&#x3a1;" horiz-adv-x="556" 
d="M476.5 601q56.5 -47 56.5 -127q0 -52 -26.5 -93t-74 -63.5t-108.5 -22.5h-102v-247h78v-48h-277v48h78v552h-78v48h301q96 0 152.5 -47zM378 381.5q27 38.5 27 92.5q0 55 -25.5 90.5t-66.5 35.5h-91v-257h91q38 0 65 38.5z" />
    <glyph glyph-name="Sigma" unicode="&#x3a3;" horiz-adv-x="562" 
d="M534 182v-182h-506v44l200 283l-191 279v42h477v-182h-65l-51 134h-224l155 -230l-195 -270h304l31 82h65z" />
    <glyph glyph-name="Tau" unicode="&#x3a4;" horiz-adv-x="570" 
d="M130 48h95v552h-90l-50 -134h-65v182h531v-182h-65l-51 134h-89v-552h95v-48h-311v48z" />
    <glyph glyph-name="Upsilon" unicode="&#x3a5;" horiz-adv-x="612" 
d="M370 299v-251h86v-48h-293v48h86v227l-161 325h-78v48h278v-48h-72l121 -248l129 248h-80v48h216v-48h-78z" />
    <glyph glyph-name="Phi" unicode="&#x3a6;" horiz-adv-x="718" 
d="M615 161q-72 -60 -195 -70v-43h97v-48h-315v48h97v43q-123 9 -195.5 69.5t-72.5 168.5q0 109 72.5 168.5t195.5 68.5v34h-97v48h315v-48h-97v-34q123 -9 195 -69t72 -168t-72 -168zM299 130v399q-144 -21 -144 -200q0 -180 144 -199zM420 529v-399q143 21 143 199
t-143 200z" />
    <glyph glyph-name="Chi" unicode="&#x3a7;" horiz-adv-x="646" 
d="M631 48v-48h-188l-148 259l-133 -211h74v-48h-221v48h77l172 266l-163 286h-78v48h189l129 -228l118 180h-80v48h222v-48h-76l-152 -235l180 -317h78z" />
    <glyph glyph-name="Psi" unicode="&#x3a8;" horiz-adv-x="734" 
d="M718 648v-48h-73v-148q0 -53 -29 -93.5t-79 -63.5t-112 -25v-222h97v-48h-314v48h97v222q-61 2 -110 25t-77.5 63.5t-28.5 93.5v148h-73v48h187v-196q0 -69 24.5 -106t77.5 -41v343h120v-343q106 6 106 147v196h187z" />
    <glyph glyph-name="uni03A9" unicode="&#x3a9;" horiz-adv-x="750" 
d="M28 182h65l30 -82h97q-63 64 -105.5 134t-42.5 157q0 76 39.5 137t108.5 95.5t154 34.5q84 0 153.5 -34.5t110 -95.5t40.5 -137q0 -87 -43 -157.5t-106 -133.5h98l30 82h65v-182h-277l-10 45q65 96 91.5 168t26.5 159q0 114 -44 178t-135 64q-89 0 -133 -64t-44 -178
q0 -87 26.5 -159.5t91.5 -167.5l-10 -45h-277v182z" />
    <glyph glyph-name="Iotadieresis" unicode="&#x3aa;" horiz-adv-x="361" 
d="M241 600v-552h97v-48h-315v48h97v552h-97v48h315v-48h-97zM47.5 715q-17.5 18 -17.5 43q0 26 17.5 43.5t43.5 17.5q25 0 43 -17.5t18 -43.5q0 -25 -18 -43t-43 -18q-26 0 -43.5 18zM227.5 715q-17.5 18 -17.5 43q0 26 17.5 43.5t43.5 17.5q25 0 43 -17.5t18 -43.5
q0 -25 -18 -43t-43 -18q-26 0 -43.5 18z" />
    <glyph glyph-name="Upsilondieresis" unicode="&#x3ab;" horiz-adv-x="612" 
d="M370 299v-251h86v-48h-293v48h86v227l-161 325h-78v48h278v-48h-72l121 -248l129 248h-80v48h216v-48h-78zM198.5 715q-17.5 18 -17.5 43q0 26 17.5 43.5t43.5 17.5q25 0 43 -17.5t18 -43.5q0 -25 -18 -43t-43 -18q-26 0 -43.5 18zM378.5 715q-17.5 18 -17.5 43
q0 26 17.5 43.5t43.5 17.5q25 0 43 -17.5t18 -43.5q0 -25 -18 -43t-43 -18q-26 0 -43.5 18z" />
    <glyph glyph-name="alphatonos" unicode="&#x3ac;" horiz-adv-x="554" 
d="M534 29q-19 -19 -42.5 -29.5t-58.5 -10.5q-61 0 -81 47q-47 -47 -124 -47q-61 0 -104 31t-65 81t-22 106q0 65 23 123.5t70.5 95.5t116.5 37q28 0 53 -10.5t44 -29.5v17l113 23v-391q0 -12 7.5 -18.5t16.5 -6.5q11 0 35 16zM318 65.5q26 26.5 26 76.5v160q0 55 -28 83
t-67 28q-50 0 -72.5 -46.5t-22.5 -134.5q0 -85 29 -139t75 -54q34 0 60 26.5zM225 668h94l-40 -158h-54v158z" />
    <glyph glyph-name="epsilontonos" unicode="&#x3ad;" horiz-adv-x="454" 
d="M426 152q-15 -72 -66 -117.5t-137 -45.5q-78 0 -131.5 35.5t-53.5 93.5q0 42 29.5 72t78.5 41q-43 12 -68.5 41t-25.5 68q0 58 54 90.5t126 32.5q52 0 98.5 -17t69.5 -40v-93h-80q-4 56 -28.5 81t-58.5 25t-55 -22t-21 -57q0 -41 27.5 -63.5t64.5 -22.5v-42h-10
q-40 0 -62 -20.5t-22 -56.5q0 -40 25.5 -61t68.5 -21q51 0 86 27t47 72h44zM191 668h94l-40 -158h-54v158z" />
    <glyph glyph-name="etatonos" unicode="&#x3ae;" horiz-adv-x="515" 
d="M416 422.5q39 -40.5 39 -117.5v-479h-112v479q0 110 -67 110q-40 0 -64 -30t-24 -79v-306h-111v409h-62v43h171l2 -31q20 20 50 31t65 11q74 0 113 -40.5zM243 668h94l-40 -158h-54v158z" />
    <glyph glyph-name="iotatonos" unicode="&#x3af;" horiz-adv-x="272" 
d="M69 84v368h112v-380q0 -12 7.5 -18.5t17.5 -6.5q13 0 34 16l18 -34q-38 -40 -98 -40q-91 0 -91 95zM89 668h94l-40 -158h-54v158z" />
    <glyph glyph-name="upsilondieresistonos" unicode="&#x3b0;" horiz-adv-x="500" 
d="M119.5 31.5q-43.5 42.5 -43.5 104.5v273h-61v43h173v-316q0 -49 18 -76t50 -27q49 0 69.5 62t20.5 147q0 83 -21 129.5t-69 50.5l2 41q89 -10 147 -69t58 -158q0 -73 -26.5 -129t-76 -87t-115.5 -31q-82 0 -125.5 42.5zM215 728h86l-40 -155h-46v155zM92.5 556
q-16.5 16 -16.5 39q0 24 16.5 40t39.5 16q24 0 40 -16t16 -40q0 -23 -16 -39t-40 -16q-23 0 -39.5 16zM314 556q-16 16 -16 39q0 24 16 40t40 16q23 0 39.5 -16t16.5 -40q0 -23 -16.5 -39t-39.5 -16q-24 0 -40 16z" />
    <glyph glyph-name="alpha" unicode="&#x3b1;" horiz-adv-x="554" 
d="M534 29q-19 -19 -42.5 -29.5t-58.5 -10.5q-61 0 -81 47q-47 -47 -124 -47q-61 0 -104 31t-65 81t-22 106q0 65 23 123.5t70.5 95.5t116.5 37q28 0 53 -10.5t44 -29.5v17l113 23v-391q0 -12 7.5 -18.5t16.5 -6.5q11 0 35 16zM318 65.5q26 26.5 26 76.5v160q0 55 -28 83
t-67 28q-50 0 -72.5 -46.5t-22.5 -134.5q0 -85 29 -139t75 -54q34 0 60 26.5z" />
    <glyph glyph-name="beta" unicode="&#x3b2;" horiz-adv-x="496" 
d="M421 287q38 -45 38 -111q0 -55 -28.5 -97.5t-82 -66t-126.5 -23.5l-2 43q32 0 61 18t46.5 51t17.5 76q0 58 -32 97.5t-92 37.5l-2 40q46 4 70 48t24 103q0 48 -17.5 80.5t-54.5 32.5q-30 0 -47.5 -22t-17.5 -61v-709h-110v665q0 76 47 122.5t133 46.5q61 0 100.5 -23.5
t57.5 -59t18 -72.5q0 -48 -29 -90.5t-68 -62.5q58 -18 96 -63z" />
    <glyph glyph-name="gamma" unicode="&#x3b3;" horiz-adv-x="485" 
d="M444 364l-125 -303v-235h-112v219l-151 364h-59v43h162l128 -324l105 252q8 19 10.5 31t2.5 26q0 16 -4 26h55q5 -12 5 -28q0 -30 -17 -71z" />
    <glyph glyph-name="delta" unicode="&#x3b4;" horiz-adv-x="493" 
d="M385.5 445q70.5 -98 70.5 -210q0 -64 -24 -120.5t-72.5 -91t-117.5 -34.5q-68 0 -114 33t-68.5 85t-22.5 110q0 60 23.5 117t68.5 93t106 36q45 0 77 -25q-40 55 -105.5 103.5t-110.5 66.5v40h283v-44h-178q114 -61 184.5 -159zM320.5 81q21.5 48 21.5 126
q0 88 -26 150.5t-76 62.5q-44 0 -65.5 -48t-21.5 -126q0 -88 26 -150.5t76 -62.5q44 0 65.5 48z" />
    <glyph glyph-name="epsilon" unicode="&#x3b5;" horiz-adv-x="454" 
d="M426 152q-15 -72 -66 -117.5t-137 -45.5q-78 0 -131.5 35.5t-53.5 93.5q0 42 29.5 72t78.5 41q-43 12 -68.5 41t-25.5 68q0 58 54 90.5t126 32.5q52 0 98.5 -17t69.5 -40v-93h-80q-4 56 -28.5 81t-58.5 25t-55 -22t-21 -57q0 -41 27.5 -63.5t64.5 -22.5v-42h-10
q-40 0 -62 -20.5t-22 -56.5q0 -40 25.5 -61t68.5 -21q51 0 86 27t47 72h44z" />
    <glyph glyph-name="zeta" unicode="&#x3b6;" horiz-adv-x="376" 
d="M174 139q18 -40 43 -59.5t64 -39.5q29 -14 45.5 -25.5t27.5 -30.5t11 -49q0 -36 -13.5 -60t-36.5 -51l-37 30q16 17 23 31t7 31q0 32 -23 48t-73 33q-53 19 -88 39t-60 63.5t-25 116.5q0 120 67.5 221t177.5 167h-207v44h284v-47q-93 -45 -149 -142t-56 -214
q0 -66 18 -106z" />
    <glyph glyph-name="eta" unicode="&#x3b7;" horiz-adv-x="515" 
d="M416 422.5q39 -40.5 39 -117.5v-479h-112v479q0 110 -67 110q-40 0 -64 -30t-24 -79v-306h-111v409h-62v43h171l2 -31q20 20 50 31t65 11q74 0 113 -40.5z" />
    <glyph glyph-name="theta" unicode="&#x3b8;" horiz-adv-x="540" 
d="M390.5 613.5q52.5 -44.5 82.5 -120t30 -165.5q0 -88 -28.5 -166t-82 -125.5t-124.5 -47.5t-123.5 47.5t-80 125t-27.5 164.5q0 93 31 169t85 119.5t119 43.5q66 0 118.5 -44.5zM184.5 548q-31.5 -67 -35.5 -191h242q-4 124 -35.5 191t-85.5 67t-85.5 -67zM357.5 106.5
q31.5 72.5 33.5 204.5h-242q1 -132 32.5 -204.5t87.5 -72.5q57 0 88.5 72.5z" />
    <glyph glyph-name="iota" unicode="&#x3b9;" horiz-adv-x="272" 
d="M69 84v368h112v-380q0 -12 7.5 -18.5t17.5 -6.5q13 0 34 16l18 -34q-38 -40 -98 -40q-91 0 -91 95z" />
    <glyph glyph-name="kappa" unicode="&#x3ba;" horiz-adv-x="546" 
d="M539 43v-43h-152l-164 227h-24v-184h56v-43h-226v43h59v366h-65v43h176v-180h54l80 122q44 69 103 69q26 0 46 -10.5t41 -29.5l-32 -36q-14 14 -24.5 20.5t-27.5 6.5q-36 0 -62 -41l-65 -100l170 -230h57z" />
    <glyph glyph-name="lambda" unicode="&#x3bb;" horiz-adv-x="494" 
d="M498 43v-43h-162l-119 314l-127 -314h-60l160 387l-82 217h-65v44h161l230 -605h64z" />
    <glyph glyph-name="uni03BC" unicode="&#x3bc;" horiz-adv-x="526" 
d="M522 29q-38 -40 -98 -40q-61 0 -81 42q-17 -20 -43 -31t-52 -11q-44 0 -70 20v-183h-112v626h112v-307q0 -54 16.5 -81t50.5 -27q36 0 62 27t26 81v307h112v-380q0 -12 7.5 -18.5t17.5 -6.5q13 0 34 16z" />
    <glyph glyph-name="nu" unicode="&#x3bd;" horiz-adv-x="484" 
d="M460 435q0 -28 -17 -71l-149 -364h-67l-173 409h-58v43h165l126 -325l104 253q8 19 10.5 31t2.5 26q0 16 -4 26h55q5 -12 5 -28z" />
    <glyph glyph-name="xi" unicode="&#x3be;" horiz-adv-x="374" 
d="M169 120q15 -24 36 -38.5t57 -31.5q34 -16 54 -29.5t33.5 -35t13.5 -52.5q0 -34 -13.5 -58.5t-36.5 -50.5l-37 30q30 32 30 62q0 31 -26 48t-82 38q-51 18 -82.5 35t-54 47.5t-22.5 77.5q0 65 42.5 112t112.5 62q-55 19 -87 55.5t-32 83.5q0 45 32.5 79.5t99.5 49.5h-132
v44h284v-44h-38q-42 0 -72 -17t-45.5 -44.5t-15.5 -58.5q0 -49 37.5 -86t91.5 -44v-40h-22q-61 0 -101 -36.5t-40 -97.5q0 -36 15 -60z" />
    <glyph glyph-name="omicron" unicode="&#x3bf;" horiz-adv-x="497" 
d="M137 18.5q-47 29.5 -73.5 82.5t-26.5 120q0 68 27.5 123.5t76 87t110.5 31.5q59 0 107 -29t75 -81.5t27 -118.5q0 -68 -28.5 -124t-78 -88.5t-111.5 -32.5q-58 0 -105 29.5zM318.5 78q23.5 45 23.5 129q0 91 -27 152t-75 61q-40 0 -63.5 -45t-23.5 -129q0 -91 27 -152
t75 -61q40 0 63.5 45z" />
    <glyph glyph-name="pi" unicode="&#x3c0;" horiz-adv-x="570" 
d="M456 385v-313q0 -12 7.5 -18.5t17.5 -6.5q13 0 34 16l18 -34q-38 -40 -98 -40q-91 0 -91 95v301h-186v-385h-55v385h-80v67h514v-67h-81z" />
    <glyph glyph-name="rho" unicode="&#x3c1;" horiz-adv-x="507" 
d="M370 431q49 -32 74.5 -84.5t25.5 -113.5q0 -59 -23 -115t-67.5 -92.5t-106.5 -36.5q-58 0 -104 36v-199h-112v395q0 64 20.5 119t65 89t112.5 34q66 0 115 -32zM353 198q0 92 -25 156t-76 64q-35 0 -59 -30.5t-24 -86.5v-146q0 -48 28.5 -82t70.5 -34q85 0 85 159z" />
    <glyph glyph-name="uni03C2" unicode="&#x3c2;" horiz-adv-x="439" 
d="M280 -146q30 32 30 61q0 26 -21 40t-69 32q-56 22 -92.5 43.5t-63.5 65.5t-27 115q0 67 24.5 124.5t72.5 92.5t114 35q47 0 94 -16.5t71 -40.5v-93h-80q-4 54 -26.5 80t-60.5 26q-53 0 -76 -46t-23 -115q0 -66 18.5 -107t44.5 -61.5t68 -43.5q31 -17 48.5 -30t29 -33.5
t11.5 -50.5q0 -35 -13 -57.5t-37 -50.5z" />
    <glyph glyph-name="sigma" unicode="&#x3c3;" horiz-adv-x="497" 
d="M460 385h-68q31 -29 48.5 -73.5t17.5 -89.5q0 -53 -24.5 -107t-74 -90t-118.5 -36q-66 0 -112 33t-69 86.5t-23 113.5t23 111.5t71 84.5t119 34h210v-67zM320.5 80q21.5 47 21.5 123q0 86 -26 146t-77 60q-43 0 -64.5 -45.5t-21.5 -121.5q0 -86 26 -147.5t76 -61.5
q44 0 65.5 47z" />
    <glyph glyph-name="tau" unicode="&#x3c4;" horiz-adv-x="438" 
d="M273 385v-313q0 -12 7.5 -18.5t17.5 -6.5q13 0 34 16l18 -34q-38 -40 -98 -40q-91 0 -91 95v301h-130v67h375v-67h-133z" />
    <glyph glyph-name="upsilon" unicode="&#x3c5;" horiz-adv-x="500" 
d="M119.5 31.5q-43.5 42.5 -43.5 104.5v273h-61v43h173v-316q0 -49 18 -76t50 -27q49 0 69.5 62t20.5 147q0 83 -21 129.5t-69 50.5l2 41q89 -10 147 -69t58 -158q0 -73 -26.5 -129t-76 -87t-115.5 -31q-82 0 -125.5 42.5z" />
    <glyph glyph-name="phi" unicode="&#x3c6;" horiz-adv-x="587" 
d="M499.5 84q-50.5 -67 -133.5 -88v-170h-112v164q-62 9 -111.5 42.5t-77.5 85.5t-28 113q0 56 23.5 107t66.5 85t99 40l3 -41q-45 -3 -63 -46t-18 -111q0 -92 27.5 -150t78.5 -77v305q0 57 32.5 88.5t84.5 31.5q50 0 91 -29.5t64.5 -80t23.5 -112.5q0 -90 -50.5 -157z
M459 117.5q36 54.5 36 127.5q0 48 -15 85t-37.5 57t-43.5 20q-17 0 -25 -18.5t-8 -69.5v-278q57 22 93 76.5z" />
    <glyph glyph-name="chi" unicode="&#x3c7;" horiz-adv-x="451" 
d="M324 -174l-106 245l-128 -245h-63l160 304l-123 279h-56v43h159l99 -227l81 154q16 32 16 58q0 16 -4 26h55q4 -10 4 -28q0 -31 -21 -72l-101 -196l153 -341h-125z" />
    <glyph glyph-name="psi" unicode="&#x3c8;" horiz-adv-x="599" 
d="M539 452v-290q0 -76 -59.5 -121.5t-144.5 -51.5v-163h-55v163q-86 7 -145 52t-59 121v247h-61v43h173v-301q0 -50 26 -81t66 -40v422h55v-422q40 9 66 40t26 81v301h112z" />
    <glyph glyph-name="omega" unicode="&#x3c9;" horiz-adv-x="666" 
d="M573.5 390q55.5 -62 55.5 -165q0 -66 -23.5 -120t-65 -85t-93.5 -31q-37 0 -68 16.5t-46 42.5q-16 -26 -46.5 -42.5t-67.5 -16.5q-52 0 -93.5 31t-65 85t-23.5 120q0 103 55.5 165t143.5 73l3 -41q-46 -5 -68.5 -51t-22.5 -143q0 -94 20.5 -145t58.5 -51q50 0 50 90v186
l112 20v-206q0 -90 50 -90q38 0 58.5 51t20.5 145q0 97 -22.5 143t-68.5 51l3 41q88 -11 143.5 -73z" />
    <glyph glyph-name="iotadieresis" unicode="&#x3ca;" horiz-adv-x="272" 
d="M69 84v368h112v-380q0 -12 7.5 -18.5t17.5 -6.5q13 0 34 16l18 -34q-38 -40 -98 -40q-91 0 -91 95zM-8.5 559q-17.5 18 -17.5 43q0 26 17.5 43.5t43.5 17.5q25 0 43 -17.5t18 -43.5q0 -25 -18 -43t-43 -18q-26 0 -43.5 18zM171.5 559q-17.5 18 -17.5 43q0 26 17.5 43.5
t43.5 17.5q25 0 43 -17.5t18 -43.5q0 -25 -18 -43t-43 -18q-26 0 -43.5 18z" />
    <glyph glyph-name="upsilondieresis" unicode="&#x3cb;" horiz-adv-x="500" 
d="M119.5 31.5q-43.5 42.5 -43.5 104.5v273h-61v43h173v-316q0 -49 18 -76t50 -27q49 0 69.5 62t20.5 147q0 83 -21 129.5t-69 50.5l2 41q89 -10 147 -69t58 -158q0 -73 -26.5 -129t-76 -87t-115.5 -31q-82 0 -125.5 42.5zM107.5 559q-17.5 18 -17.5 43q0 26 17.5 43.5
t43.5 17.5q25 0 43 -17.5t18 -43.5q0 -25 -18 -43t-43 -18q-26 0 -43.5 18zM287.5 559q-17.5 18 -17.5 43q0 26 17.5 43.5t43.5 17.5q25 0 43 -17.5t18 -43.5q0 -25 -18 -43t-43 -18q-26 0 -43.5 18z" />
    <glyph glyph-name="omicrontonos" unicode="&#x3cc;" horiz-adv-x="497" 
d="M137 18.5q-47 29.5 -73.5 82.5t-26.5 120q0 68 27.5 123.5t76 87t110.5 31.5q59 0 107 -29t75 -81.5t27 -118.5q0 -68 -28.5 -124t-78 -88.5t-111.5 -32.5q-58 0 -105 29.5zM318.5 78q23.5 45 23.5 129q0 91 -27 152t-75 61q-40 0 -63.5 -45t-23.5 -129q0 -91 27 -152
t75 -61q40 0 63.5 45zM213 668h94l-40 -158h-54v158z" />
    <glyph glyph-name="upsilontonos" unicode="&#x3cd;" horiz-adv-x="500" 
d="M119.5 31.5q-43.5 42.5 -43.5 104.5v273h-61v43h173v-316q0 -49 18 -76t50 -27q49 0 69.5 62t20.5 147q0 83 -21 129.5t-69 50.5l2 41q89 -10 147 -69t58 -158q0 -73 -26.5 -129t-76 -87t-115.5 -31q-82 0 -125.5 42.5zM205 668h94l-40 -158h-54v158z" />
    <glyph glyph-name="omegatonos" unicode="&#x3ce;" horiz-adv-x="666" 
d="M573.5 390q55.5 -62 55.5 -165q0 -66 -23.5 -120t-65 -85t-93.5 -31q-37 0 -68 16.5t-46 42.5q-16 -26 -46.5 -42.5t-67.5 -16.5q-52 0 -93.5 31t-65 85t-23.5 120q0 103 55.5 165t143.5 73l3 -41q-46 -5 -68.5 -51t-22.5 -143q0 -94 20.5 -145t58.5 -51q50 0 50 90v186
l112 20v-206q0 -90 50 -90q38 0 58.5 51t20.5 145q0 97 -22.5 143t-68.5 51l3 41q88 -11 143.5 -73zM297 668h94l-40 -158h-54v158z" />
    <glyph glyph-name="uni03D0" unicode="&#x3d0;" horiz-adv-x="489" 
d="M410.5 295q41.5 -48 41.5 -116q0 -53 -27.5 -96.5t-76.5 -68.5t-113 -25q-92 0 -134.5 54t-42.5 146v299q0 76 46.5 124t128.5 48q56 0 97.5 -22.5t63.5 -58.5t22 -75q0 -48 -32 -88.5t-75 -55.5q60 -17 101.5 -65zM284 50.5q24 18.5 38.5 51.5t14.5 75q0 62 -32.5 104.5
t-91.5 40.5l-2 40q46 4 70 45t24 96q0 49 -18 82t-55 33q-30 0 -48 -23t-18 -63v-382q0 -118 69 -118q25 0 49 18.5z" />
    <glyph glyph-name="uni0401" unicode="&#x401;" horiz-adv-x="571" 
d="M539 182v-182h-516v48h78v552h-78v48h508v-182h-70l-51 134h-188v-233h104v78h60v-206h-60v78h-104v-269h197l50 134h70zM170.5 715q-17.5 18 -17.5 43q0 26 17.5 43.5t43.5 17.5q25 0 43 -17.5t18 -43.5q0 -25 -18 -43t-43 -18q-26 0 -43.5 18zM350.5 715
q-17.5 18 -17.5 43q0 26 17.5 43.5t43.5 17.5q25 0 43 -17.5t18 -43.5q0 -25 -18 -43t-43 -18q-26 0 -43.5 18z" />
    <glyph glyph-name="uni0402" unicode="&#x402;" horiz-adv-x="697" 
d="M582 377q38 -44 38 -114v-314q0 -55 -25 -92t-64 -54.5t-83 -17.5q-42 0 -66.5 13.5t-54.5 41.5l36 34q40 -40 78 -40q29 0 44 21t15 74v334q0 110 -67 110q-34 0 -61 -23t-27 -66v-236h85v-48h-290v48h85v552h-90l-50 -134h-65v182h530v-182h-65l-51 134h-89v-221
q42 42 109 42q90 0 128 -44z" />
    <glyph glyph-name="uni0403" unicode="&#x403;" horiz-adv-x="559" 
d="M539 648v-182h-70l-50 134h-197v-552h78v-48h-277v48h78v552h-78v48h516zM368 862l65 -71l-145 -95h-65z" />
    <glyph glyph-name="uni0404" unicode="&#x404;" horiz-adv-x="577" 
d="M547 183q-15 -93 -76.5 -144t-149.5 -51q-103 0 -168.5 47t-95 119.5t-29.5 154.5q0 92 31 172t96.5 129.5t165.5 49.5q67 0 113 -17t88 -42v-135h-85q-8 78 -42 114t-85 36q-80 0 -119 -70t-39 -177h251v-52h-249q6 -84 32 -146t66 -94.5t89 -32.5q56 0 98 34.5
t56 104.5h52z" />
    <glyph glyph-name="uni0405" unicode="&#x405;" horiz-adv-x="493" 
d="M115 10.5q-53 22.5 -76 50.5v121h84q10 -79 40 -113.5t77 -34.5t75.5 29.5t28.5 76.5q0 61 -52 96l-169 112q-38 25 -62.5 63.5t-24.5 87.5q0 72 54.5 116.5t149.5 44.5q64 0 116 -20t80 -51v-123h-85q-8 83 -36 116.5t-74 33.5q-45 0 -69.5 -26.5t-24.5 -68.5
q0 -53 45 -83l177 -116q44 -29 68 -71.5t24 -90.5q0 -50 -27.5 -89t-78 -61t-117.5 -22q-70 0 -123 22.5z" />
    <glyph glyph-name="uni0406" unicode="&#x406;" horiz-adv-x="361" 
d="M241 600v-552h97v-48h-315v48h97v552h-97v48h315v-48h-97z" />
    <glyph glyph-name="uni0407" unicode="&#x407;" horiz-adv-x="361" 
d="M241 600v-552h97v-48h-315v48h97v552h-97v48h315v-48h-97zM47.5 715q-17.5 18 -17.5 43q0 26 17.5 43.5t43.5 17.5q25 0 43 -17.5t18 -43.5q0 -25 -18 -43t-43 -18q-26 0 -43.5 18zM227.5 715q-17.5 18 -17.5 43q0 26 17.5 43.5t43.5 17.5q25 0 43 -17.5t18 -43.5
q0 -25 -18 -43t-43 -18q-26 0 -43.5 18z" />
    <glyph glyph-name="uni0408" unicode="&#x408;" horiz-adv-x="495" 
d="M98.5 11.5q-45.5 22.5 -70.5 50.5v120h86q7 -58 16.5 -89t26 -44.5t45.5 -13.5q45 0 62 28t17 82v455h-86v48h285v-48h-78v-436q0 -78 -51 -126.5t-149 -48.5q-58 0 -103.5 22.5z" />
    <glyph glyph-name="uni0409" unicode="&#x409;" horiz-adv-x="869" 
d="M743.5 346.5q48.5 -22.5 75.5 -63t27 -94.5t-27 -97t-76 -67.5t-113 -24.5h-315v48h78v552h-227v-478q0 -59 -31.5 -90.5t-87.5 -31.5h-27v52h20q36 0 52 16t16 54v478h-78v48h562v-48h-78v-231h117q64 0 112.5 -22.5zM666 65q24 17 39 48.5t15 74.5q0 38 -14.5 67.5
t-38.5 46t-51 16.5h-102v-270h101q27 0 51 17z" />
    <glyph glyph-name="uni040A" unicode="&#x40a;" horiz-adv-x="956" 
d="M830.5 346.5q48.5 -22.5 75.5 -63t27 -94.5t-27 -97t-76 -67.5t-113 -24.5h-315v48h78v269h-258v-269h78v-48h-277v48h78v552h-78v48h277v-48h-78v-233h258v233h-78v48h277v-48h-78v-231h117q64 0 112.5 -22.5zM753 65q24 17 39 48.5t15 74.5q0 38 -14.5 67.5t-38.5 46
t-51 16.5h-102v-270h101q27 0 51 17z" />
    <glyph glyph-name="uni040B" unicode="&#x40b;" horiz-adv-x="704" 
d="M692 48v-48h-192v263q0 110 -68 110q-35 0 -60.5 -26.5t-26.5 -77.5v-221h85v-48h-290v48h85v552h-90l-50 -134h-65v182h530v-182h-65l-51 134h-89v-221q39 42 115 42q84 0 122.5 -44.5t38.5 -113.5v-215h71z" />
    <glyph glyph-name="uni040C" unicode="&#x40c;" horiz-adv-x="659" 
d="M649 48v-48h-194l-210 317h-23v-269h78v-48h-277v48h78v552h-78v48h277v-48h-78v-233h60l110 185q30 51 62 78t78 27q58 0 104 -49l-37 -38q-15 18 -29.5 27.5t-36.5 9.5q-24 0 -41.5 -14t-37.5 -47l-103 -172l221 -326h77zM405 862l65 -71l-145 -95h-65z" />
    <glyph glyph-name="uni040E" unicode="&#x40e;" horiz-adv-x="587" 
d="M579 600h-76l-209 -511q-22 -53 -51 -78.5t-75 -25.5q-63 0 -109 49l36 41q14 -16 34.5 -27t39.5 -11q23 0 39 14t27 42l39 96l-186 411h-80v48h278v-48h-73l118 -273l111 273h-79v48h216v-48zM239.5 734q-36.5 31 -37.5 80h58q2 -30 22 -46t47 -16t47 16t22 46h58
q-1 -49 -37.5 -80t-89.5 -31t-89.5 31z" />
    <glyph glyph-name="uni040F" unicode="&#x40f;" horiz-adv-x="702" 
d="M601 600v-552h78v-48h-257l-46 -158h-49l-46 158h-258v48h78v552h-78v48h277v-48h-78v-552h258v552h-78v48h277v-48h-78z" />
    <glyph glyph-name="uni0410" unicode="&#x410;" horiz-adv-x="665" 
d="M657 48v-48h-277v48h78l-61 181h-189l-63 -181h74v-48h-209v48h76l214 600h71l214 -600h72zM380 279l-74 219h-5l-76 -219h155z" />
    <glyph glyph-name="uni0411" unicode="&#x411;" horiz-adv-x="593" 
d="M458 348q49 -23 76 -64t27 -95t-27 -97t-76 -67.5t-113 -24.5h-322v48h78v552h-78v48h508v-182h-70l-50 134h-189v-229h124q63 0 112 -23zM381 65q24 17 39 48.5t15 74.5q0 38 -14.5 67.5t-38.5 46t-51 16.5h-109v-270h108q27 0 51 17z" />
    <glyph glyph-name="uni0412" unicode="&#x412;" horiz-adv-x="588" 
d="M524.5 289q31.5 -43 31.5 -101q0 -54 -27 -97t-76 -67t-113 -24h-317v48h78v552h-78v48h316q52 0 93.5 -20.5t64.5 -57.5t23 -84q0 -40 -22 -75t-58 -59q53 -20 84.5 -63zM222 600v-233h90q37 0 61.5 32t24.5 85q0 54 -25.5 85t-60.5 31h-90zM376 64.5q24 16.5 39 48
t15 74.5q0 53 -30 91.5t-76 38.5h-102v-269h103q27 0 51 16.5z" />
    <glyph glyph-name="uni0413" unicode="&#x413;" horiz-adv-x="559" 
d="M539 648v-182h-70l-50 134h-197v-552h78v-48h-277v48h78v552h-78v48h516z" />
    <glyph glyph-name="uni0414" unicode="&#x414;" horiz-adv-x="673" 
d="M582 600v-552h68v-206h-55l-59 158h-417l-59 -158h-55v206h52q29 0 44.5 12t19.5 41l83 499h-99v48h545v-48h-68zM461 600h-200l-83 -499q-6 -35 -20 -53h303v552z" />
    <glyph glyph-name="uni0415" unicode="&#x415;" horiz-adv-x="571" 
d="M539 182v-182h-516v48h78v552h-78v48h508v-182h-70l-51 134h-188v-233h104v78h60v-206h-60v78h-104v-269h197l50 134h70z" />
    <glyph glyph-name="uni0416" unicode="&#x416;" horiz-adv-x="995" 
d="M985 48v-48h-194l-210 317h-23v-269h78v-48h-277v48h78v269h-23l-210 -317h-194v48h77l221 326l-103 172q-20 33 -37.5 47t-41.5 14q-22 0 -36.5 -9.5t-29.5 -27.5l-37 38q46 49 105 49q45 0 77 -27t62 -78l110 -185h60v233h-78v48h277v-48h-78v-233h60l110 185
q30 51 62 78t77 27q59 0 105 -49l-37 -38q-15 18 -29.5 27.5t-36.5 9.5q-24 0 -41.5 -14t-37.5 -47l-103 -172l221 -326h77z" />
    <glyph glyph-name="uni0417" unicode="&#x417;" horiz-adv-x="497" 
d="M403 325q27 -24 44.5 -58.5t17.5 -74.5q0 -61 -34 -106.5t-88 -70t-112 -24.5q-88 0 -149.5 51t-76.5 144h52q14 -70 58 -104.5t108 -34.5q53 0 88 35t35 103q0 61 -34 94.5t-95 33.5h-22v47q32 0 63.5 16.5t51.5 46.5t20 70q0 53 -25.5 86.5t-68.5 33.5q-45 0 -71 -33
t-34 -114h-87v122q30 32 80 50.5t115 18.5q51 0 98.5 -17t78 -53t30.5 -90q0 -45 -28 -84t-68 -56q26 -8 53 -32z" />
    <glyph glyph-name="uni0418" unicode="&#x418;" horiz-adv-x="702" 
d="M601 600v-552h78v-48h-277v48h78v408l-258 -336v-72h78v-48h-277v48h78v552h-78v48h277v-48h-78v-394l258 335v59h-78v48h277v-48h-78z" />
    <glyph glyph-name="uni0419" unicode="&#x419;" horiz-adv-x="702" 
d="M601 600v-552h78v-48h-277v48h78v408l-258 -336v-72h78v-48h-277v48h78v552h-78v48h277v-48h-78v-394l258 335v59h-78v48h277v-48h-78zM261.5 734q-36.5 31 -37.5 80h58q2 -30 22 -46t47 -16t47 16t22 46h58q-1 -49 -37.5 -80t-89.5 -31t-89.5 31z" />
    <glyph glyph-name="uni041A" unicode="&#x41a;" horiz-adv-x="659" 
d="M649 48v-48h-194l-210 317h-23v-269h78v-48h-277v48h78v552h-78v48h277v-48h-78v-233h60l110 185q30 51 62 78t78 27q58 0 104 -49l-37 -38q-15 18 -29.5 27.5t-36.5 9.5q-24 0 -41.5 -14t-37.5 -47l-103 -172l221 -326h77z" />
    <glyph glyph-name="uni041B" unicode="&#x41b;" horiz-adv-x="615" 
d="M514 600v-552h78v-48h-277v48h78v552h-227v-478q0 -59 -31.5 -90.5t-87.5 -31.5h-27v52h20q35 0 51.5 16.5t16.5 54.5v477h-78v48h562v-48h-78z" />
    <glyph glyph-name="uni041C" unicode="&#x41c;" horiz-adv-x="836" 
d="M23 48h78v552h-78v48h193l209 -457l195 457h193v-48h-78v-552h78v-48h-274v48h75v447l-191 -447h-62l-205 446v-446h74v-48h-207v48z" />
    <glyph glyph-name="uni041D" unicode="&#x41d;" horiz-adv-x="702" 
d="M601 600v-552h78v-48h-277v48h78v269h-258v-269h78v-48h-277v48h78v552h-78v48h278v-48h-79v-233h258v233h-78v48h277v-48h-78z" />
    <glyph glyph-name="uni041E" unicode="&#x41e;" horiz-adv-x="643" 
d="M152.5 34q-65.5 46 -95 118t-29.5 153q0 92 31.5 173t97.5 131.5t164 50.5q101 0 167.5 -46t96.5 -118.5t30 -152.5q0 -92 -31.5 -173t-97.5 -131.5t-165 -50.5q-103 0 -168.5 46zM452.5 101q38.5 69 38.5 177q0 146 -45 242t-136 96q-80 0 -119 -70t-39 -178
q0 -146 45.5 -241t136.5 -95q80 0 118.5 69z" />
    <glyph glyph-name="uni041F" unicode="&#x41f;" horiz-adv-x="702" 
d="M601 600v-552h78v-48h-277v48h78v552h-258v-552h78v-48h-277v48h78v552h-78v48h656v-48h-78z" />
    <glyph glyph-name="uni0420" unicode="&#x420;" horiz-adv-x="556" 
d="M476.5 601q56.5 -47 56.5 -127q0 -52 -26.5 -93t-74 -63.5t-108.5 -22.5h-102v-247h78v-48h-277v48h78v552h-78v48h301q96 0 152.5 -47zM378 381.5q27 38.5 27 92.5q0 55 -25.5 90.5t-66.5 35.5h-91v-257h91q38 0 65 38.5z" />
    <glyph glyph-name="uni0421" unicode="&#x421;" horiz-adv-x="577" 
d="M152.5 35q-65.5 47 -95 119.5t-29.5 154.5q0 92 31 172t96.5 129.5t165.5 49.5q67 0 113 -17t88 -42v-135h-85q-8 78 -42 114t-85 36q-80 0 -119 -70t-39 -177q0 -100 24.5 -173.5t67.5 -112.5t97 -39q56 0 98 34.5t56 104.5h52q-15 -93 -76.5 -144t-149.5 -51
q-103 0 -168.5 47z" />
    <glyph glyph-name="uni0422" unicode="&#x422;" horiz-adv-x="570" 
d="M130 48h95v552h-90l-50 -134h-65v182h531v-182h-65l-51 134h-89v-552h95v-48h-311v48z" />
    <glyph glyph-name="uni0423" unicode="&#x423;" horiz-adv-x="587" 
d="M579 600h-76l-209 -511q-22 -53 -51 -78.5t-75 -25.5q-63 0 -109 49l36 41q14 -16 34.5 -27t39.5 -11q23 0 39 14t27 42l39 96l-186 411h-80v48h278v-48h-73l118 -273l111 273h-79v48h216v-48z" />
    <glyph glyph-name="uni0424" unicode="&#x424;" horiz-adv-x="718" 
d="M615 161q-72 -60 -195 -70v-43h97v-48h-315v48h97v43q-123 9 -195.5 69.5t-72.5 168.5q0 109 72.5 168.5t195.5 68.5v34h-97v48h315v-48h-97v-34q123 -9 195 -69t72 -168t-72 -168zM299 130v399q-144 -21 -144 -200q0 -180 144 -199zM420 529v-399q143 21 143 199
t-143 200z" />
    <glyph glyph-name="uni0425" unicode="&#x425;" horiz-adv-x="646" 
d="M631 48v-48h-188l-148 259l-133 -211h74v-48h-221v48h77l172 266l-163 286h-78v48h189l129 -228l118 180h-80v48h222v-48h-76l-152 -235l180 -317h78z" />
    <glyph glyph-name="uni0426" unicode="&#x426;" horiz-adv-x="702" 
d="M601 600v-552h78v-206h-68l-59 158h-529v48h78v552h-78v48h277v-48h-78v-552h258v552h-78v48h277v-48h-78z" />
    <glyph glyph-name="uni0427" unicode="&#x427;" horiz-adv-x="659" 
d="M558 600v-552h78v-48h-277v48h78v224h-100q-65 0 -118.5 22t-85.5 63t-32 95v148h-78v48h277v-48h-78v-148q0 -69 26 -100.5t85 -31.5h104v280h-78v48h277v-48h-78z" />
    <glyph glyph-name="uni0428" unicode="&#x428;" horiz-adv-x="925" 
d="M824 600v-552h78v-48h-879v48h78v552h-78v48h266v-48h-67v-552h180v552h-67v48h255v-48h-67v-552h180v552h-67v48h266v-48h-78z" />
    <glyph glyph-name="uni0429" unicode="&#x429;" horiz-adv-x="925" 
d="M824 600v-552h78v-206h-68l-59 158h-752v48h78v552h-78v48h266v-48h-67v-552h180v552h-67v48h255v-48h-67v-552h180v552h-67v48h266v-48h-78z" />
    <glyph glyph-name="uni042A" unicode="&#x42a;" horiz-adv-x="736" 
d="M610.5 346.5q48.5 -22.5 75.5 -63t27 -94.5t-27 -97t-76 -67.5t-113 -24.5h-317v48h78v552h-115l-50 -134h-70v182h434v-48h-78v-231h119q64 0 112.5 -22.5zM533 65q24 17 39 48.5t15 74.5q0 38 -14.5 67.5t-38.5 46t-51 16.5h-104v-270h103q27 0 51 17z" />
    <glyph glyph-name="uni042B" unicode="&#x42b;" horiz-adv-x="910" 
d="M451.5 346.5q48.5 -22.5 75.5 -63t27 -94.5t-27 -97t-76 -67.5t-113 -24.5h-315v48h78v552h-78v48h277v-48h-78v-231h117q64 0 112.5 -22.5zM374 65q24 17 39 48.5t15 74.5q0 38 -14.5 67.5t-38.5 46t-51 16.5h-102v-270h101q27 0 51 17zM790 600v-552h97v-48h-315v48h97
v552h-97v48h315v-48h-97z" />
    <glyph glyph-name="uni042C" unicode="&#x42c;" horiz-adv-x="577" 
d="M451.5 346.5q48.5 -22.5 75.5 -63t27 -94.5t-27 -97t-76 -67.5t-113 -24.5h-315v48h78v552h-78v48h277v-48h-78v-231h117q64 0 112.5 -22.5zM374 65q24 17 39 48.5t15 74.5q0 38 -14.5 67.5t-38.5 46t-51 16.5h-102v-270h101q27 0 51 17z" />
    <glyph glyph-name="uni042D" unicode="&#x42d;" horiz-adv-x="576" 
d="M422.5 613.5q65.5 -46.5 95.5 -119t30 -151.5q0 -91 -31 -171.5t-96.5 -131.5t-164.5 -51q-88 0 -149.5 51t-76.5 144h52q14 -71 57.5 -105t107.5 -34q91 0 134.5 64t43.5 172q0 24 -1 36h-257v52h254q-13 114 -54.5 179.5t-103.5 65.5q-108 0 -123 -148h-85v135
q42 25 88 42t113 17q101 0 166.5 -46.5z" />
    <glyph glyph-name="uni042E" unicode="&#x42e;" horiz-adv-x="952" 
d="M797.5 614q66.5 -46 96.5 -118.5t30 -152.5q0 -92 -31.5 -173t-97.5 -131.5t-165 -50.5q-103 0 -168.5 46t-95 118t-29.5 153v12h-115v-269h78v-48h-277v48h78v552h-78v48h277v-48h-78v-233h119q9 80 43.5 146.5t96.5 106.5t149 40q101 0 167.5 -46zM761.5 101
q38.5 69 38.5 177q0 146 -45 242t-136 96q-80 0 -119 -70t-39 -178q0 -146 45.5 -241t136.5 -95q80 0 118.5 69z" />
    <glyph glyph-name="uni042F" unicode="&#x42f;" horiz-adv-x="644" 
d="M543 600v-552h78v-48h-277v48h78v246h-56l-182 -294h-179v48h69l165 257q-60 19 -94 64t-34 104q0 75 53 125t156 50h301v-48h-78zM422 342v258h-91q-40 0 -66 -35.5t-26 -91.5q0 -54 27 -92.5t65 -38.5h91z" />
    <glyph glyph-name="uni0430" unicode="&#x430;" horiz-adv-x="488" 
d="M478 29q-21 -21 -45 -30.5t-56 -9.5q-54 0 -79 38q-23 -18 -52.5 -28t-60.5 -10q-66 0 -104.5 28t-38.5 80q0 41 29.5 72.5t83.5 49.5l133 45v48q0 60 -13.5 84.5t-46.5 24.5q-37 0 -53.5 -26t-21.5 -90h-86v101q25 25 72 41t94 16q83 0 125.5 -38t42.5 -113v-240
q0 -11 7 -18t18 -7q14 0 32 14zM175.5 62.5q17.5 -18.5 43.5 -18.5q35 0 69 31v142l-72 -25q-28 -10 -43 -31.5t-15 -50.5t17.5 -47.5z" />
    <glyph glyph-name="uni0431" unicode="&#x431;" horiz-adv-x="516" 
d="M390.5 427.5q46.5 -33.5 67.5 -85t21 -106.5q0 -61 -24 -118t-71 -93t-114 -36q-113 0 -173 78.5t-60 231.5q0 93 29.5 175.5t84.5 133t129 50.5h151l-14 -85h-180q-45 0 -77.5 -39.5t-49 -98t-15.5 -115.5q25 64 65 102.5t112 38.5t118.5 -33.5zM362 195
q0 56 -12.5 107.5t-36 83.5t-54.5 32q-48 0 -71 -45.5t-23 -114.5q0 -226 107 -226q90 0 90 163z" />
    <glyph glyph-name="uni0432" unicode="&#x432;" horiz-adv-x="514" 
d="M451 205q25 -28 25 -69q0 -38 -22 -69t-63 -49t-96 -18h-272v43h60v366h-60v43h271q46 0 80.5 -15.5t53.5 -42t19 -58.5q0 -53 -64 -89q43 -14 68 -42zM194 409v-147h73q30 0 49 18.5t19 53.5q0 37 -20 56t-48 19h-73zM336 67q25 24 25 68q0 36 -23.5 59t-61.5 23h-82
v-174h83q34 0 59 24z" />
    <glyph glyph-name="uni0433" unicode="&#x433;" horiz-adv-x="458" 
d="M440 452v-150h-61l-42 107h-142v-366h60v-43h-232v43h61v366h-61v43h417z" />
    <glyph glyph-name="uni0434" unicode="&#x434;" horiz-adv-x="554" 
d="M468 409v-366h60v-160h-49l-50 117h-312l-51 -117h-50v160h42q22 0 35.5 11.5t16.5 31.5l48 323h-62v43h432v-43h-60zM356 409h-144l-48 -326q-4 -33 -16 -40h208v366z" />
    <glyph glyph-name="uni0435" unicode="&#x435;" horiz-adv-x="473" 
d="M386 408.5q50 -54.5 50 -148.5q0 -15 -1 -23h-289q5 -81 41 -133.5t89 -52.5q40 0 73 28.5t43 73.5h43q-13 -76 -65 -120t-127 -44q-61 0 -107.5 29.5t-72.5 83t-26 122.5q0 71 27 125t75.5 84t111.5 30q85 0 135 -54.5zM175 383q-25 -37 -29 -101h176q1 66 -20 102
t-61 36q-41 0 -66 -37z" />
    <glyph glyph-name="uni0436" unicode="&#x436;" horiz-adv-x="801" 
d="M796 43v-43h-152l-164 224h-24v-181h59v-43h-229v43h59v181h-24l-164 -224h-152v43h57l171 225l-68 105q-26 41 -62 41q-17 0 -27.5 -6.5t-24.5 -20.5l-32 36q21 19 41 29.5t46 10.5q61 0 105 -69l82 -125h52v140h-58v43h227v-43h-58v-140h52l82 125q44 69 105 69
q26 0 46 -10.5t41 -29.5l-32 -36q-14 14 -24.5 20.5t-27.5 6.5q-36 0 -62 -41l-67 -104l170 -226h57z" />
    <glyph glyph-name="uni0437" unicode="&#x437;" horiz-adv-x="451" 
d="M384.5 192q28.5 -29 28.5 -70q0 -37 -25 -67.5t-67.5 -48t-94.5 -17.5q-85 0 -136 46t-65 117h44q12 -45 47 -72t86 -27q43 0 68.5 21t25.5 61q0 36 -22 56.5t-62 20.5h-10v42q37 0 64.5 22.5t27.5 63.5q0 35 -21 57t-55 22t-58.5 -25t-28.5 -81h-80v93q23 23 69.5 40
t98.5 17q72 0 126 -32.5t54 -90.5q0 -38 -25 -67.5t-66 -41.5q48 -10 76.5 -39z" />
    <glyph glyph-name="uni0438" unicode="&#x438;" horiz-adv-x="563" 
d="M480 409v-366h60v-43h-226v43h55v252l-175 -197v-55h56v-43h-227v43h60v366h-60v43h227v-43h-56v-245l175 196v49h-55v43h226v-43h-60z" />
    <glyph glyph-name="uni0439" unicode="&#x439;" horiz-adv-x="563" 
d="M480 409v-366h60v-43h-226v43h55v252l-175 -197v-55h56v-43h-227v43h60v366h-60v43h227v-43h-56v-245l175 196v49h-55v43h226v-43h-60zM192.5 550q-36.5 31 -37.5 80h58q2 -30 22 -46t47 -16t47 16t22 46h58q-1 -49 -37.5 -80t-89.5 -31t-89.5 31z" />
    <glyph glyph-name="uni043A" unicode="&#x43a;" horiz-adv-x="543" 
d="M538 43v-43h-152l-164 224h-24v-181h61v-43h-236v43h64v366h-63v43h235v-43h-61v-140h52l82 125q45 69 106 69q26 0 45.5 -10.5t40.5 -29.5l-32 -36q-14 14 -24.5 20.5t-27.5 6.5q-36 0 -62 -41l-67 -103l170 -227h57z" />
    <glyph glyph-name="uni043B" unicode="&#x43b;" horiz-adv-x="497" 
d="M414 409v-366h60v-43h-231v43h60v366h-155v-324q0 -41 -28.5 -63t-74.5 -22h-25v45h20q28 0 41 11.5t13 37.5v315h-67v43h447v-43h-60z" />
    <glyph glyph-name="uni043C" unicode="&#x43c;" horiz-adv-x="660" 
d="M577 409v-366h60v-43h-230v43h59v294l-134 -294h-56l-143 289v-289h59v-43h-169v43h61v366h-61v43h168l141 -289l133 289h172v-43h-60z" />
    <glyph glyph-name="uni043D" unicode="&#x43d;" horiz-adv-x="566" 
d="M480 409v-366h63v-43h-229v43h55v173h-175v-173h56v-43h-227v43h60v366h-60v43h227v-43h-56v-149h175v149h-55v43h229v-43h-63z" />
    <glyph glyph-name="uni043E" unicode="&#x43e;" horiz-adv-x="497" 
d="M137 18.5q-47 29.5 -73.5 82.5t-26.5 120q0 68 27.5 123.5t76 87t110.5 31.5q59 0 107 -29t75 -81.5t27 -118.5q0 -68 -28.5 -124t-78 -88.5t-111.5 -32.5q-58 0 -105 29.5zM318.5 78q23.5 45 23.5 129q0 91 -27 152t-75 61q-40 0 -63.5 -45t-23.5 -129q0 -91 27 -152
t75 -61q40 0 63.5 45z" />
    <glyph glyph-name="uni043F" unicode="&#x43f;" horiz-adv-x="564" 
d="M481 409v-366h60v-43h-228v43h57v366h-175v-366h58v-43h-230v43h61v366h-61v43h518v-43h-60z" />
    <glyph glyph-name="uni0440" unicode="&#x440;" horiz-adv-x="523" 
d="M388.5 434.5q45.5 -28.5 71.5 -79.5t26 -118q0 -68 -27 -124.5t-74 -90t-106 -33.5t-102 38v-189h68v-43h-250v43h70v612h112v-27q41 40 110 40q56 0 101.5 -28.5zM348 80.5q23 41.5 23 125.5q0 95 -27.5 151t-76.5 56q-37 0 -63.5 -29.5t-26.5 -79.5v-162
q0 -44 28.5 -73.5t71.5 -29.5q48 0 71 41.5z" />
    <glyph glyph-name="uni0441" unicode="&#x441;" horiz-adv-x="471" 
d="M135.5 18.5q-46.5 29.5 -72.5 82t-26 118.5q0 62 25.5 118t75 91t117.5 35q48 0 95 -16.5t71 -40.5v-93h-80q-4 55 -28 80.5t-56 25.5q-60 0 -85 -45t-25 -117q0 -49 13.5 -95.5t41 -76.5t67.5 -30q46 0 76 26t42 72h44q-13 -70 -61.5 -117t-126.5 -47q-61 0 -107.5 29.5
z" />
    <glyph glyph-name="uni0442" unicode="&#x442;" horiz-adv-x="476" 
d="M458 452v-152h-61l-42 107h-62v-364h68v-43h-247v43h68v364h-61l-42 -107h-61v152h440z" />
    <glyph glyph-name="uni0443" unicode="&#x443;" horiz-adv-x="503" 
d="M508 409h-65l-194 -523q-38 -102 -124 -102q-27 0 -53 11.5t-55 37.5l34 40q17 -16 37.5 -26.5t36.5 -10.5q21 0 38 13.5t27 38.5l40 106l-176 415h-59v43h243v-43h-64l109 -271l102 271h-70v43h193v-43z" />
    <glyph glyph-name="uni0444" unicode="&#x444;" horiz-adv-x="782" 
d="M656 432q43 -31 66 -81.5t23 -107.5q0 -64 -22 -122t-67.5 -95t-112.5 -37q-51 0 -97 38v-189h68v-43h-250v43h70v189q-41 -38 -99 -38q-71 0 -115 32t-63.5 81.5t-19.5 105.5q0 66 21 124t63.5 94.5t102.5 36.5q36 0 62 -11.5t48 -29.5v213h-69v41l181 13v-266
q18 19 46 29.5t63 10.5q58 0 101 -31zM308 64q25 25 26 75v163q0 54 -27 82.5t-64 28.5q-45 0 -67 -47.5t-22 -117.5q0 -90 22.5 -149.5t68.5 -59.5q38 0 63 25zM609 82.5q21 43.5 21 113.5q0 97 -23 157t-70 60q-38 0 -64.5 -26t-26.5 -78v-169q0 -46 27.5 -73.5
t68.5 -27.5q46 0 67 43.5z" />
    <glyph glyph-name="uni0445" unicode="&#x445;" horiz-adv-x="512" 
d="M502 44v-44h-159l-108 167l-89 -123h56v-44h-187v44h62l128 170l-126 195h-59v43h156l98 -151l77 108h-57v43h180v-43h-58l-112 -155l137 -210h61z" />
    <glyph glyph-name="uni0446" unicode="&#x446;" horiz-adv-x="564" 
d="M481 409v-366h60v-160h-49l-50 117h-419v43h60v366h-60v43h227v-43h-56v-366h175v366h-50v43h222v-43h-60z" />
    <glyph glyph-name="uni0447" unicode="&#x447;" horiz-adv-x="528" 
d="M445 409v-366h60v-43h-232v43h60v142h-81q-51 0 -93 16t-66 45t-24 67v96h-64v43h176v-139q0 -48 18 -68t65 -20h69v184h-60v43h232v-43h-60z" />
    <glyph glyph-name="uni0448" unicode="&#x448;" horiz-adv-x="764" 
d="M682 409v-366h59v-43h-718v43h60v366h-60v43h222v-43h-51v-366h133v366h-48v43h209v-43h-50v-366h133v366h-48v43h218v-43h-59z" />
    <glyph glyph-name="uni0449" unicode="&#x449;" horiz-adv-x="765" 
d="M682 409v-366h60v-160h-49l-50 117h-620v43h60v366h-60v43h222v-43h-51v-366h133v366h-48v43h209v-43h-50v-366h133v366h-48v43h219v-43h-60z" />
    <glyph glyph-name="uni044A" unicode="&#x44a;" horiz-adv-x="599" 
d="M534.5 224.5q48.5 -35.5 48.5 -90.5q0 -38 -22 -68.5t-63 -48t-96 -17.5h-279v43h67v366h-71l-40 -107h-61v150h343v-43h-60v-149h105q80 0 128.5 -35.5zM443 67q25 24 25 67q0 36 -23.5 58.5t-61.5 22.5h-82v-172h83q34 0 59 24z" />
    <glyph glyph-name="uni044B" unicode="&#x44b;" horiz-adv-x="771" 
d="M431.5 224.5q48.5 -35.5 48.5 -90.5q0 -38 -22 -68.5t-63 -48t-96 -17.5h-276v43h60v366h-60v43h231v-43h-60v-149h109q80 0 128.5 -35.5zM688 409v-366h60v-43h-231v43h60v366h-60v43h231v-43h-60zM340 67q25 24 25 67q0 36 -23.5 58.5t-61.5 22.5h-86v-172h87
q34 0 59 24z" />
    <glyph glyph-name="uni044C" unicode="&#x44c;" horiz-adv-x="496" 
d="M431.5 224.5q48.5 -35.5 48.5 -90.5q0 -38 -22 -68.5t-63 -48t-96 -17.5h-276v43h60v366h-60v43h231v-43h-60v-149h109q80 0 128.5 -35.5zM340 67q25 24 25 67q0 36 -23.5 58.5t-61.5 22.5h-86v-172h87q34 0 59 24z" />
    <glyph glyph-name="uni044D" unicode="&#x44d;" horiz-adv-x="460" 
d="M331 428.5q47 -34.5 69 -86.5t22 -107q0 -60 -24 -117t-71 -93.5t-111 -36.5q-78 0 -126.5 47.5t-61.5 117.5h44q12 -47 42.5 -77.5t75.5 -30.5q58 0 86.5 40.5t28.5 108.5v21h-156v46h152q-7 67 -30 112.5t-59 45.5q-34 0 -58 -25.5t-28 -81.5h-80v91q24 24 71 42t95 18
q72 0 119 -34.5z" />
    <glyph glyph-name="uni044E" unicode="&#x44e;" horiz-adv-x="762" 
d="M632.5 429q47.5 -34 70 -86t22.5 -106q0 -61 -25 -118t-73.5 -93.5t-115.5 -36.5q-66 0 -113 31t-71 82t-26 110h-107v-169h60v-43h-231v43h60v366h-60v43h231v-43h-60v-152h109q7 55 34 102t72.5 75.5t105.5 28.5q70 0 117.5 -34zM584.5 80q22.5 47 22.5 116
q0 96 -25 160t-75 64q-44 0 -66.5 -47t-22.5 -116q0 -96 25 -160t75 -64q44 0 66.5 47z" />
    <glyph glyph-name="uni044F" unicode="&#x44f;" horiz-adv-x="533" 
d="M449 409v-366h61v-43h-233v43h61v159h-43l-138 -202h-152v43h55l118 167q-46 13 -75 45t-29 77q0 51 44.5 85.5t128.5 34.5h263v-43h-61zM338 409h-74q-32 0 -52 -20.5t-20 -58.5q0 -37 21 -60.5t50 -23.5h75v163z" />
    <glyph glyph-name="uni0451" unicode="&#x451;" horiz-adv-x="473" 
d="M386 408.5q50 -54.5 50 -148.5q0 -15 -1 -23h-289q5 -81 41 -133.5t89 -52.5q40 0 73 28.5t43 73.5h43q-13 -76 -65 -120t-127 -44q-61 0 -107.5 29.5t-72.5 83t-26 122.5q0 71 27 125t75.5 84t111.5 30q85 0 135 -54.5zM175 383q-25 -37 -29 -101h176q1 66 -20 102
t-61 36q-41 0 -66 -37zM102.5 559q-17.5 18 -17.5 43q0 26 17.5 43.5t43.5 17.5q25 0 43 -17.5t18 -43.5q0 -25 -18 -43t-43 -18q-26 0 -43.5 18zM282.5 559q-17.5 18 -17.5 43q0 26 17.5 43.5t43.5 17.5q25 0 43 -17.5t18 -43.5q0 -25 -18 -43t-43 -18q-26 0 -43.5 18z" />
    <glyph glyph-name="uni0452" unicode="&#x452;" horiz-adv-x="514" 
d="M425 418q34 -45 34 -114v-355q0 -82 -48 -123t-116 -41q-35 0 -62.5 12.5t-58.5 42.5l36 34q40 -40 79 -40q28 0 43 21.5t15 73.5v375q0 111 -68 111q-36 0 -61.5 -28t-25.5 -82v-262h60v-43h-233v43h62v485h-69v43h69v65h-70v40l181 13v-118h107v-43h-107v-108
q41 43 115 43q84 0 118 -45z" />
    <glyph glyph-name="uni0453" unicode="&#x453;" horiz-adv-x="458" 
d="M440 452v-150h-61l-42 107h-142v-366h60v-43h-232v43h61v366h-61v43h417zM266 676l65 -71l-145 -95h-65z" />
    <glyph glyph-name="uni0454" unicode="&#x454;" horiz-adv-x="460" 
d="M432 153q-13 -70 -61.5 -117t-126.5 -47q-61 0 -107.5 29t-72.5 81t-26 118q0 63 24.5 119.5t72.5 91.5t113 35q48 0 95 -16.5t71 -40.5v-93h-80q-4 55 -30 80.5t-61 25.5q-47 0 -71.5 -45.5t-24.5 -111.5v-1h169v-46h-166q10 -67 41.5 -113.5t78.5 -46.5q46 0 76 26
t42 72h44z" />
    <glyph glyph-name="uni0455" unicode="&#x455;" horiz-adv-x="427" 
d="M107.5 4.5q-47.5 15.5 -70.5 39.5v109h76q0 -58 25 -89t69 -31q34 0 53.5 17.5t19.5 46.5q0 37 -32 56l-134 79q-35 21 -53 49t-18 60q0 54 47 88t120 34q49 0 95.5 -15.5t70.5 -39.5v-108h-79q0 60 -21.5 90t-61.5 30q-32 0 -49 -16.5t-17 -44.5q0 -34 30 -51l133 -75
q36 -21 56 -51.5t20 -63.5q0 -37 -23.5 -66t-64.5 -46t-93 -17q-51 0 -98.5 15.5z" />
    <glyph glyph-name="uni0456" unicode="&#x456;" horiz-adv-x="306" 
d="M23 43h77v366h-70v41l182 12v-419h78v-43h-267v43zM104.5 644.5q20.5 20.5 49.5 20.5t49.5 -20.5t20.5 -49.5t-20.5 -49.5t-49.5 -20.5t-49.5 20.5t-20.5 49.5t20.5 49.5z" />
    <glyph glyph-name="uni0457" unicode="&#x457;" horiz-adv-x="306" 
d="M23 43h77v366h-70v41l182 12v-419h78v-43h-267v43zM20.5 559q-17.5 18 -17.5 43q0 26 17.5 43.5t43.5 17.5q25 0 43 -17.5t18 -43.5q0 -25 -18 -43t-43 -18q-26 0 -43.5 18zM200.5 559q-17.5 18 -17.5 43q0 26 17.5 43.5t43.5 17.5q25 0 43 -17.5t18 -43.5q0 -25 -18 -43
t-43 -18q-26 0 -43.5 18z" />
    <glyph glyph-name="uni0458" unicode="&#x458;" horiz-adv-x="269" 
d="M-31.5 -201.5q-24.5 13.5 -54.5 41.5l35 35q41 -41 79 -41q29 0 44.5 21.5t15.5 73.5v480h-72v41l183 12v-513q0 -82 -48 -123t-116 -41q-42 0 -66.5 13.5zM90.5 644.5q20.5 20.5 49.5 20.5t49.5 -20.5t20.5 -49.5t-20.5 -49.5t-49.5 -20.5t-49.5 20.5t-20.5 49.5
t20.5 49.5z" />
    <glyph glyph-name="uni0459" unicode="&#x459;" horiz-adv-x="716" 
d="M651.5 224.5q48.5 -35.5 48.5 -90.5q0 -38 -22 -68.5t-63 -48t-96 -17.5h-276v43h60v366h-155v-324q0 -41 -28.5 -63t-74.5 -22h-25v45h20q28 0 41 11.5t13 37.5v315h-67v43h447v-43h-60v-149h109q80 0 128.5 -35.5zM560 67q25 24 25 67q0 36 -23.5 58.5t-61.5 22.5h-86
v-172h87q34 0 59 24z" />
    <glyph glyph-name="uni045A" unicode="&#x45a;" horiz-adv-x="782" 
d="M717.5 224.5q48.5 -35.5 48.5 -90.5q0 -38 -22 -68.5t-63 -48t-96 -17.5h-271v43h55v172h-175v-172h56v-43h-227v43h60v366h-60v43h227v-43h-56v-150h175v150h-55v43h229v-43h-63v-149h109q80 0 128.5 -35.5zM626 67q25 24 25 67q0 36 -23.5 58.5t-61.5 22.5h-86v-172h87
q34 0 59 24z" />
    <glyph glyph-name="uni045B" unicode="&#x45b;" horiz-adv-x="533" 
d="M521 43v-43h-235v43h62v262q0 110 -70 110q-38 0 -61.5 -29.5t-23.5 -79.5v-263h60v-43h-234v43h62v485h-68v43h68v67h-70v41l182 12v-120h100v-43h-100v-106q45 41 116 41q72 0 111.5 -40t39.5 -118v-262h61z" />
    <glyph glyph-name="uni045C" unicode="&#x45c;" horiz-adv-x="543" 
d="M538 43v-43h-152l-164 224h-24v-181h61v-43h-236v43h64v366h-63v43h235v-43h-61v-140h52l82 125q45 69 106 69q26 0 45.5 -10.5t40.5 -29.5l-32 -36q-14 14 -24.5 20.5t-27.5 6.5q-36 0 -62 -41l-67 -103l170 -227h57zM320 676l65 -71l-145 -95h-65z" />
    <glyph glyph-name="uni045E" unicode="&#x45e;" horiz-adv-x="503" 
d="M508 409h-65l-194 -523q-38 -102 -124 -102q-27 0 -53 11.5t-55 37.5l34 40q17 -16 37.5 -26.5t36.5 -10.5q21 0 38 13.5t27 38.5l40 106l-176 415h-59v43h243v-43h-64l109 -271l102 271h-70v43h193v-43zM175.5 550q-36.5 31 -37.5 80h58q2 -30 22 -46t47 -16t47 16
t22 46h58q-1 -49 -37.5 -80t-89.5 -31t-89.5 31z" />
    <glyph glyph-name="uni045F" unicode="&#x45f;" horiz-adv-x="566" 
d="M480 409v-366h63v-43h-201l-36 -117h-49l-36 117h-198v43h60v366h-60v43h227v-43h-56v-366h175v366h-55v43h229v-43h-63z" />
    <glyph glyph-name="uni0490" unicode="&#x490;" horiz-adv-x="562" 
d="M222 600v-552h78v-48h-277v48h78v552h-78v48h400l51 135h65v-183h-317z" />
    <glyph glyph-name="uni0491" unicode="&#x491;" horiz-adv-x="460" 
d="M202 409v-366h68v-43h-247v43h68v366h-67v43h315l42 107h61v-150h-240z" />
    <glyph glyph-name="uni04D8" unicode="&#x4d8;" horiz-adv-x="628" 
d="M474.5 614q65.5 -46 95.5 -118t30 -151q0 -91 -31 -172.5t-96.5 -133t-164.5 -51.5q-93 0 -155.5 39t-92.5 105t-30 149h447q0 84 -18.5 160.5t-57.5 124.5t-95 48q-44 0 -75 -35.5t-39 -112.5h-85v135q42 25 88 42t113 17q101 0 166.5 -46zM427 86.5q40 53.5 48 145.5
h-314q11 -90 48.5 -144.5t98.5 -54.5q79 0 119 53.5z" />
    <glyph glyph-name="uni04D9" unicode="&#x4d9;" horiz-adv-x="473" 
d="M337.5 433.5q46.5 -29.5 72.5 -83t26 -122.5q0 -71 -27 -125t-75.5 -84t-111.5 -30q-85 0 -135 54.5t-50 148.5q0 15 1 23h289q-5 81 -41 133.5t-89 52.5q-40 0 -73 -28.5t-43 -73.5h-43q13 76 65 120t127 44q61 0 107.5 -29.5zM298 69q25 37 29 101h-176q-1 -66 20 -102
t61 -36q41 0 66 37z" />
    <glyph glyph-name="Wgrave" unicode="&#x1e80;" horiz-adv-x="968" 
d="M958 600h-78l-176 -600h-68l-155 458l-139 -458h-69l-184 600h-79v48h280v-48h-79l127 -425l140 469h64l158 -471l124 427h-78v48h212v-48zM372 792l65 71l145 -166h-65z" />
    <glyph glyph-name="wgrave" unicode="&#x1e81;" horiz-adv-x="735" 
d="M740 409h-68l-128 -409h-64l-112 275l-98 -275h-65l-148 409h-62v43h246v-43h-67l89 -264l109 307h43l122 -313l78 270h-72v43h197v-43zM286 604l65 71l145 -166h-65z" />
    <glyph glyph-name="Wacute" unicode="&#x1e82;" horiz-adv-x="968" 
d="M958 600h-78l-176 -600h-68l-155 458l-139 -458h-69l-184 600h-79v48h280v-48h-79l127 -425l140 469h64l158 -471l124 427h-78v48h212v-48zM597 862l65 -71l-145 -95h-65z" />
    <glyph glyph-name="wacute" unicode="&#x1e83;" horiz-adv-x="735" 
d="M740 409h-68l-128 -409h-64l-112 275l-98 -275h-65l-148 409h-62v43h246v-43h-67l89 -264l109 307h43l122 -313l78 270h-72v43h197v-43zM441 676l65 -71l-145 -95h-65z" />
    <glyph glyph-name="Wdieresis" unicode="&#x1e84;" horiz-adv-x="968" 
d="M958 600h-78l-176 -600h-68l-155 458l-139 -458h-69l-184 600h-79v48h280v-48h-79l127 -425l140 469h64l158 -471l124 427h-78v48h212v-48zM376.5 715q-17.5 18 -17.5 43q0 26 17.5 43.5t43.5 17.5q25 0 43 -17.5t18 -43.5q0 -25 -18 -43t-43 -18q-26 0 -43.5 18z
M556.5 715q-17.5 18 -17.5 43q0 26 17.5 43.5t43.5 17.5q25 0 43 -17.5t18 -43.5q0 -25 -18 -43t-43 -18q-26 0 -43.5 18z" />
    <glyph glyph-name="wdieresis" unicode="&#x1e85;" horiz-adv-x="735" 
d="M740 409h-68l-128 -409h-64l-112 275l-98 -275h-65l-148 409h-62v43h246v-43h-67l89 -264l109 307h43l122 -313l78 270h-72v43h197v-43zM260.5 559q-17.5 18 -17.5 43q0 26 17.5 43.5t43.5 17.5q25 0 43 -17.5t18 -43.5q0 -25 -18 -43t-43 -18q-26 0 -43.5 18zM440.5 559
q-17.5 18 -17.5 43q0 26 17.5 43.5t43.5 17.5q25 0 43 -17.5t18 -43.5q0 -25 -18 -43t-43 -18q-26 0 -43.5 18z" />
    <glyph glyph-name="Ygrave" unicode="&#x1ef2;" horiz-adv-x="612" 
d="M370 299v-251h86v-48h-293v48h86v227l-161 325h-78v48h278v-48h-72l121 -248l129 248h-80v48h216v-48h-78zM196 792l65 71l145 -166h-65z" />
    <glyph glyph-name="ygrave" unicode="&#x1ef3;" horiz-adv-x="503" 
d="M508 409h-65l-194 -523q-38 -102 -124 -102q-27 0 -53 11.5t-55 37.5l34 40q17 -16 37.5 -26.5t36.5 -10.5q21 0 38 13.5t27 38.5l40 106l-176 415h-59v43h243v-43h-64l109 -271l102 271h-70v43h193v-43zM169 604l65 71l145 -166h-65z" />
    <glyph glyph-name="endash" unicode="&#x2013;" horiz-adv-x="413" 
d="M1 289h411v-58h-411v58z" />
    <glyph glyph-name="emdash" unicode="&#x2014;" horiz-adv-x="840" 
d="M32 289h776v-58h-776v58z" />
    <glyph glyph-name="quoteleft" unicode="&#x2018;" horiz-adv-x="226" 
d="M163.5 557.5q17.5 -18.5 17.5 -43.5q0 -26 -19.5 -44t-45.5 -18q-29 0 -50.5 21t-21.5 62q0 51 25 86t54.5 53.5t35.5 18.5l23 -37q-21 -9 -44 -30t-26 -51q3 1 10 1q24 0 41.5 -18.5z" />
    <glyph glyph-name="quoteright" unicode="&#x2019;" horiz-adv-x="226" 
d="M160.5 672q21.5 -21 21.5 -62q0 -51 -25 -86t-54.5 -53.5t-35.5 -18.5l-23 37q21 9 44 30t26 51q-3 -1 -10 -1q-24 0 -41.5 18.5t-17.5 43.5q0 26 19.5 44t45.5 18q29 0 50.5 -21z" />
    <glyph glyph-name="quotesinglbase" unicode="&#x201a;" horiz-adv-x="226" 
d="M160.5 95q21.5 -21 21.5 -62q0 -51 -25 -86t-54.5 -53.5t-35.5 -18.5l-23 37q21 9 44 30t26 51q-3 -1 -10 -1q-24 0 -41.5 18.5t-17.5 43.5q0 26 19.5 44t45.5 18q29 0 50.5 -21z" />
    <glyph glyph-name="quotedblleft" unicode="&#x201c;" horiz-adv-x="393" 
d="M138 626q-23 -21 -26 -51q3 1 10 1q24 0 41.5 -18.5t17.5 -43.5q0 -26 -19.5 -44t-45.5 -18q-29 0 -50.5 21t-21.5 62q0 51 25 86t54.5 53.5t35.5 18.5l23 -37q-21 -9 -44 -30zM330.5 557.5q17.5 -18.5 17.5 -43.5q0 -26 -19.5 -44t-45.5 -18q-29 0 -50.5 21t-21.5 62
q0 51 25 86t54.5 53.5t35.5 18.5l23 -37q-21 -9 -44 -30t-26 -51q3 1 10 1q24 0 41.5 -18.5z" />
    <glyph glyph-name="quotedblright" unicode="&#x201d;" horiz-adv-x="393" 
d="M327.5 672q21.5 -21 21.5 -62q0 -51 -25 -86t-54.5 -53.5t-35.5 -18.5l-23 37q21 9 44 30t26 51q-3 -1 -10 -1q-24 0 -41.5 18.5t-17.5 43.5q0 26 19.5 44t45.5 18q29 0 50.5 -21zM160.5 672q21.5 -21 21.5 -62q0 -51 -25 -86t-54.5 -53.5t-35.5 -18.5l-23 37q21 9 44 30
t26 51q-3 -1 -10 -1q-24 0 -41.5 18.5t-17.5 43.5q0 26 19.5 44t45.5 18q29 0 50.5 -21z" />
    <glyph glyph-name="quotedblbase" unicode="&#x201e;" horiz-adv-x="393" 
d="M327.5 95q21.5 -21 21.5 -62q0 -51 -25 -86t-54.5 -53.5t-35.5 -18.5l-23 37q21 9 44 30t26 51q-3 -1 -10 -1q-24 0 -41.5 18.5t-17.5 43.5q0 26 19.5 44t45.5 18q29 0 50.5 -21zM160.5 95q21.5 -21 21.5 -62q0 -51 -25 -86t-54.5 -53.5t-35.5 -18.5l-23 37q21 9 44 30
t26 51q-3 -1 -10 -1q-24 0 -41.5 18.5t-17.5 43.5q0 26 19.5 44t45.5 18q29 0 50.5 -21z" />
    <glyph glyph-name="dagger" unicode="&#x2020;" horiz-adv-x="470" 
d="M189 356l18 68l-179 -21v88l181 -22l-24 179h88l-22 -179l179 22v-88l-178 21l20 -68l-21 -286h-41z" />
    <glyph glyph-name="daggerdbl" unicode="&#x2021;" horiz-adv-x="473" 
d="M208 239l-180 -23v88l179 -21l-21 71l18 70l-179 -21v88l181 -22l-24 179h88l-22 -179l180 22v-88l-178 21l19 -70l-18 -71l179 21v-88l-180 23l22 -179h-87z" />
    <glyph glyph-name="bullet" unicode="&#x2022;" horiz-adv-x="251" 
d="M70 234q-24 24 -24 61q0 36 24.5 60t60.5 24q35 0 59 -24.5t24 -59.5q0 -37 -23.5 -61t-59.5 -24q-37 0 -61 24z" />
    <glyph glyph-name="ellipsis" unicode="&#x2026;" horiz-adv-x="668" 
d="M60.5 103.5q19.5 19.5 47.5 19.5t47.5 -19.5t19.5 -47.5t-19.5 -47.5t-47.5 -19.5t-47.5 19.5t-19.5 47.5t19.5 47.5zM283.5 103.5q19.5 19.5 47.5 19.5t47.5 -19.5t19.5 -47.5t-19.5 -47.5t-47.5 -19.5t-47.5 19.5t-19.5 47.5t19.5 47.5zM507.5 103.5
q19.5 19.5 47.5 19.5t47.5 -19.5t19.5 -47.5t-19.5 -47.5t-47.5 -19.5t-47.5 19.5t-19.5 47.5t19.5 47.5z" />
    <glyph glyph-name="perthousand" unicode="&#x2030;" horiz-adv-x="1094" 
d="M482 673h53l-251 -699h-54zM103 344.5q-41 44.5 -41 130.5q0 55 19.5 94t52 58.5t70.5 19.5q62 0 103.5 -43t41.5 -129q0 -57 -20 -96.5t-53 -59t-72 -19.5q-60 0 -101 44.5zM244 378q12 40 12 97q0 59 -11.5 97t-39.5 38q-27 0 -39 -39t-12 -96q0 -137 50 -137
q28 0 40 40zM464 44.5q-41 44.5 -41 130.5q0 55 19.5 94t52 58.5t70.5 19.5q62 0 103.5 -43t41.5 -129q0 -57 -20 -96.5t-52.5 -59t-71.5 -19.5q-61 0 -102 44.5zM786 44.5q-41 44.5 -41 130.5q0 55 19.5 94t52 58.5t70.5 19.5q62 0 103.5 -43t41.5 -129q0 -57 -20 -96.5
t-53 -59t-72 -19.5q-60 0 -101 44.5zM605 78q12 40 12 97q0 59 -11.5 97t-39.5 38q-27 0 -39 -39t-12 -96q0 -137 51 -137q27 0 39 40zM927 78q12 40 12 97q0 59 -11.5 97t-39.5 38q-27 0 -39 -39t-12 -96q0 -137 50 -137q28 0 40 40z" />
    <glyph glyph-name="guilsinglleft" unicode="&#x2039;" horiz-adv-x="299" 
d="M24 231l216 203l37 -35l-128 -168l128 -168l-37 -35z" />
    <glyph glyph-name="guilsinglright" unicode="&#x203a;" horiz-adv-x="299" 
d="M275 235l-216 -203l-37 35l128 168l-128 168l37 35z" />
    <glyph glyph-name="fraction" unicode="&#x2044;" horiz-adv-x="79" 
d="M139 673h53l-251 -699h-54z" />
    <glyph glyph-name="Euro" unicode="&#x20ac;" horiz-adv-x="647" 
d="M617 183q-15 -93 -76.5 -144t-149.5 -51q-128 0 -198.5 70.5t-88.5 178.5h-86v52h80v20q0 27 3 52h-83v51h90q23 110 93.5 179t189.5 69q67 0 113 -17t88 -42v-135h-85q-8 78 -42 114t-85 36q-71 0 -110 -56.5t-46 -147.5h204v-51h-206q0 -34 5 -72h201v-52h-193
q21 -91 68 -142t108 -51q56 0 98 34.5t56 104.5h52z" />
    <glyph glyph-name="uni2116" unicode="&#x2116;" horiz-adv-x="970" 
d="M699.5 356q-40.5 44 -40.5 131q0 82 41 127t102 45t101.5 -43t40.5 -129q0 -84 -41 -129.5t-101 -45.5q-62 0 -102.5 44zM23 48h78v552h-78v48h179l285 -446v398h-77v48h210v-48h-78v-600h-74l-312 493v-445h75v-48h-208v48zM843 388q11 38 11 99q0 64 -10.5 99.5
t-41.5 35.5t-42.5 -36.5t-11.5 -98.5t11.5 -99.5t42.5 -37.5q30 0 41 38z" />
    <glyph glyph-name="trademark" unicode="&#x2122;" horiz-adv-x="568" 
d="M64 414h31v201h-21l-20 -51h-35v79h210v-79h-34l-20 51h-24v-201h34v-27h-121v27zM246 414h30v201h-30v28h84l70 -174l65 174h83v-28h-28v-201h28v-27h-112v27h30v122l-54 -149h-40l-57 149v-122h27v-27h-96v27z" />
    <glyph glyph-name="uni2126" unicode="&#x2126;" horiz-adv-x="750" 
d="M28 182h65l30 -82h97q-63 64 -105.5 134t-42.5 157q0 76 39.5 137t108.5 95.5t154 34.5q84 0 153.5 -34.5t110 -95.5t40.5 -137q0 -87 -43 -157.5t-106 -133.5h98l30 82h65v-182h-277l-10 45q65 96 91.5 168t26.5 159q0 114 -44 178t-135 64q-89 0 -133 -64t-44 -178
q0 -87 26.5 -159.5t91.5 -167.5l-10 -45h-277v182z" />
    <glyph glyph-name="arrowleft" unicode="&#x2190;" horiz-adv-x="749" 
d="M121 302l271 -273l-29 -29l-324 325l323 324l30 -29l-272 -273h565v-45h-564z" />
    <glyph glyph-name="arrowup" unicode="&#x2191;" horiz-adv-x="749" 
d="M353 0v575l-273 -273l-30 31l324 323l325 -324l-29 -29l-273 271v-574h-44z" />
    <glyph glyph-name="arrowright" unicode="&#x2192;" horiz-adv-x="749" 
d="M54 347h565l-272 273l30 29l323 -324l-324 -325l-29 29l271 273h-564v45z" />
    <glyph glyph-name="arrowdown" unicode="&#x2193;" horiz-adv-x="749" 
d="M395 74l273 271l29 -29l-325 -324l-324 323l30 31l273 -273v575h44v-574z" />
    <glyph glyph-name="uni2196" unicode="&#x2196;" horiz-adv-x="749" 
d="M172 479v-385h-43v459h457v-43h-384l405 -404l-31 -31z" />
    <glyph glyph-name="uni2197" unicode="&#x2197;" horiz-adv-x="749" 
d="M129 106l405 404h-384v43h457v-459h-43v385l-404 -404z" />
    <glyph glyph-name="uni2198" unicode="&#x2198;" horiz-adv-x="749" 
d="M564 168v385h43v-459h-457v43h384l-405 404l31 31z" />
    <glyph glyph-name="uni2199" unicode="&#x2199;" horiz-adv-x="749" 
d="M607 541l-405 -404h384v-43h-457v459h43v-385l404 404z" />
    <glyph glyph-name="partialdiff" unicode="&#x2202;" horiz-adv-x="496" 
d="M71 35q-42 46 -42 118q0 71 31.5 141.5t89 116.5t131.5 46q32 0 58 -13.5t42 -38.5q0 97 -55 160.5t-181 63.5l7 42q11 1 33 1q135 0 210.5 -82.5t75.5 -227.5q0 -81 -30 -168t-90 -146t-146 -59q-92 0 -134 46zM309.5 110q32.5 78 32.5 179q0 56 -15.5 90.5t-47.5 34.5
q-44 0 -73 -39t-42.5 -98t-13.5 -118q0 -56 15 -91.5t47 -35.5q65 0 97.5 78z" />
    <glyph glyph-name="uni2206" unicode="&#x2206;" horiz-adv-x="602" 
d="M575 36v-36h-548v36l247 612h63zM453 48l-179 456l-182 -456h361z" />
    <glyph glyph-name="product" unicode="&#x220f;" horiz-adv-x="652" 
d="M19 -95h67v695h-67v47h609v-47h-69v-695h69v-49h-255v49h66v690h-233v-690h66v-49h-253v49z" />
    <glyph glyph-name="summation" unicode="&#x2211;" horiz-adv-x="590" 
d="M23 -98l236 346l-240 353v46h514v-182h-60l-53 133h-270l205 -306l-228 -336h316l33 82h61v-182h-514v46z" />
    <glyph glyph-name="minus" unicode="&#x2212;" horiz-adv-x="524" 
d="M56 289h411v-58h-411v58z" />
    <glyph glyph-name="radical" unicode="&#x221a;" horiz-adv-x="501" 
d="M491 735l-202 -756l-187 450l-74 -38l-18 35l131 68l149 -347l158 588h43z" />
    <glyph glyph-name="infinity" unicode="&#x221e;" horiz-adv-x="589" 
d="M509 336q31 -32 31 -79q0 -50 -33.5 -80.5t-82.5 -30.5q-38 0 -69 19t-62 52q-33 -33 -64 -52t-67 -19q-48 0 -80.5 32.5t-32.5 78.5q0 47 33.5 79t79.5 32q35 0 67 -19t67 -52q35 33 67 52t68 19q47 0 78 -32zM208 214.5q21 14.5 49 42.5q-25 28 -47 43t-45 15
q-26 0 -42.5 -18t-16.5 -41q0 -24 19 -40t42 -16q20 0 41 14.5zM465.5 215.5q17.5 15.5 17.5 42.5q0 25 -16.5 41t-40.5 16q-23 0 -44.5 -14.5t-47.5 -41.5q29 -29 50.5 -44t41.5 -15q22 0 39.5 15.5z" />
    <glyph glyph-name="integral" unicode="&#x222b;" horiz-adv-x="344" 
d="M-85 -170l38 39q45 -37 74 -37q30 0 45.5 22t15.5 75v598q0 56 24.5 92t62 53t78.5 17q63 0 118 -47l-37 -37q-20 16 -38.5 26t-37.5 10q-60 0 -60 -96v-599q0 -81 -49.5 -121t-116.5 -40q-63 0 -117 45z" />
    <glyph glyph-name="approxequal" unicode="&#x2248;" horiz-adv-x="524" 
d="M59 324q19 24 45 36.5t56 12.5q25 0 47 -6t54 -18q5 -2 24 -8t35.5 -9.5t30.5 -3.5q19 0 36 11.5t38 35.5l38 -40q-23 -30 -52.5 -46.5t-64.5 -16.5q-23 0 -45.5 6t-52.5 18q-26 10 -45 15.5t-37 5.5q-46 0 -73 -34zM59 185q23 30 52.5 46.5t64.5 16.5q23 0 45.5 -6
t52.5 -18q26 -10 45 -15.5t37 -5.5q46 0 73 34l34 -41q-19 -24 -45 -36.5t-56 -12.5q-25 0 -47 6t-54 18q-5 2 -24 8t-35.5 9.5t-30.5 3.5q-19 0 -36 -11.5t-38 -35.5z" />
    <glyph glyph-name="notequal" unicode="&#x2260;" horiz-adv-x="524" 
d="M306 293l-22 -63h183v-58h-203l-60 -172h-65l60 172h-143v58h164l22 63h-186v58h206l56 158h64l-55 -158h140v-58h-161z" />
    <glyph glyph-name="lessequal" unicode="&#x2264;" horiz-adv-x="524" 
d="M54 231v57l411 160v-66l-319 -123l319 -126v-64zM54 57h411v-57h-411v57z" />
    <glyph glyph-name="greaterequal" unicode="&#x2265;" horiz-adv-x="524" 
d="M59 133l319 126l-319 123v66l411 -160v-57l-411 -162v64zM59 57h411v-57h-411v57z" />
    <glyph glyph-name="filledbox" unicode="&#x25a0;" horiz-adv-x="749" 
d="M120 0v535h509v-535h-509z" />
    <glyph glyph-name="uni25A1" unicode="&#x25a1;" horiz-adv-x="749" 
d="M120 0v535h509v-535h-509zM585 492h-421v-448h421v448z" />
    <glyph glyph-name="lozenge" unicode="&#x25ca;" horiz-adv-x="460" 
d="M404 332l-158 -309h-44l-157 309l155 311h47zM224 97l117 235l-118 233l-114 -233z" />
    <glyph glyph-name="circle" unicode="&#x25cb;" horiz-adv-x="749" 
d="M124 424q39 66 105 105t145 39t145.5 -39t105.5 -105t39 -145t-39 -145.5t-105.5 -105.5t-145.5 -39t-145 39t-105 105.5t-39 145.5t39 145zM163.5 155.5q32.5 -56.5 88.5 -89.5t122 -33t122 33t89 90t33 123t-33 122.5t-89 89.5t-122 33t-122 -33t-88.5 -89.5
t-32.5 -122.5q0 -67 32.5 -123.5z" />
    <glyph glyph-name="uni25CF" unicode="&#x25cf;" horiz-adv-x="749" 
d="M124 424q39 66 105 105t145 39t145.5 -39t105.5 -105t39 -145t-39 -145.5t-105.5 -105.5t-145.5 -39t-145 39t-105 105.5t-39 145.5t39 145z" />
    <glyph glyph-name="Jacute" horiz-adv-x="495" 
d="M98.5 11.5q-45.5 22.5 -70.5 50.5v120h86q7 -58 16.5 -89t26 -44.5t45.5 -13.5q45 0 62 28t17 82v455h-86v48h285v-48h-78v-436q0 -78 -51 -126.5t-149 -48.5q-58 0 -103.5 22.5zM429 862l65 -71l-145 -95h-65z" />
    <glyph glyph-name="jacute" horiz-adv-x="269" 
d="M-31.5 -201.5q-24.5 13.5 -54.5 41.5l35 35q41 -41 79 -41q29 0 44.5 21.5t15.5 73.5v480h-72v41l183 12v-513q0 -82 -48 -123t-116 -41q-42 0 -66.5 13.5zM187 676l65 -71l-145 -95h-65z" />
    <glyph glyph-name="Jacute.ss01" horiz-adv-x="363" 
d="M34.5 -204.5q-33.5 13.5 -56.5 34.5l33 37q42 -37 82 -37q26 0 38.5 18.5t12.5 51.5v701h-86v47h285v-47h-78v-653q0 -56 -23 -93t-60 -55t-79 -18q-35 0 -68.5 13.5zM292 862l65 -71l-145 -95h-65z" />
    <glyph glyph-name="Cacute.loclPLK" horiz-adv-x="577" 
d="M279 854h94l-40 -155h-54v155zM152.5 35q-65.5 47 -95 119.5t-29.5 154.5q0 92 31 172t96.5 129.5t165.5 49.5q67 0 113 -17t88 -42v-135h-85q-8 78 -42 114t-85 36q-80 0 -119 -70t-39 -177q0 -100 24.5 -173.5t67.5 -112.5t97 -39q56 0 98 34.5t56 104.5h52
q-15 -93 -76.5 -144t-149.5 -51q-103 0 -168.5 47z" />
    <glyph glyph-name="IJ.ss01" horiz-adv-x="724" 
d="M241 600v-552h97v-48h-315v48h97v552h-97v48h315v-48h-97zM395.5 -204.5q-33.5 13.5 -56.5 34.5l33 37q42 -37 82 -37q26 0 38.5 18.5t12.5 51.5v701h-86v47h285v-47h-78v-653q0 -56 -23 -93t-60 -55t-79 -18q-35 0 -68.5 13.5z" />
    <glyph glyph-name="J.ss01" horiz-adv-x="363" 
d="M34.5 -204.5q-33.5 13.5 -56.5 34.5l33 37q42 -37 82 -37q26 0 38.5 18.5t12.5 51.5v701h-86v47h285v-47h-78v-653q0 -56 -23 -93t-60 -55t-79 -18q-35 0 -68.5 13.5z" />
    <glyph glyph-name="Jcircumflex.ss01" horiz-adv-x="363" 
d="M34.5 -204.5q-33.5 13.5 -56.5 34.5l33 37q42 -37 82 -37q26 0 38.5 18.5t12.5 51.5v701h-86v47h285v-47h-78v-653q0 -56 -23 -93t-60 -55t-79 -18q-35 0 -68.5 13.5zM205 853l155 -159h-69l-87 59l-89 -59h-66z" />
    <glyph glyph-name="Nacute.loclPLK" horiz-adv-x="633" 
d="M292 854h94l-40 -155h-54v155zM23 48h78v552h-78v48h179l285 -446v398h-77v48h210v-48h-78v-600h-74l-312 493v-445h75v-48h-208v48z" />
    <glyph glyph-name="Oacute.loclPLK" horiz-adv-x="643" 
d="M294 854h94l-40 -155h-54v155zM152.5 34q-65.5 46 -95 118t-29.5 153q0 92 31.5 173t97.5 131.5t164 50.5q101 0 167.5 -46t96.5 -118.5t30 -152.5q0 -92 -31.5 -173t-97.5 -131.5t-165 -50.5q-103 0 -168.5 46zM452.5 101q38.5 69 38.5 177q0 146 -45 242t-136 96
q-80 0 -119 -70t-39 -178q0 -146 45.5 -241t136.5 -95q80 0 118.5 69z" />
    <glyph glyph-name="Q.ss01" horiz-adv-x="643" 
d="M625 0h-217q-39 -12 -87 -12q-103 0 -168.5 46t-95 118t-29.5 153q0 92 31.5 173t97.5 131.5t164 50.5q101 0 167.5 -46t96.5 -118.5t30 -152.5q0 -89 -29 -167.5t-88 -127.5h127v-48zM197.5 127q45.5 -95 136.5 -95q80 0 118.5 69t38.5 177q0 146 -45 242t-136 96
q-80 0 -119 -70t-39 -178q0 -146 45.5 -241z" />
    <glyph glyph-name="Sacute.loclPLK" horiz-adv-x="493" 
d="M219 854h94l-40 -155h-54v155zM115 10.5q-53 22.5 -76 50.5v121h84q10 -79 40 -113.5t77 -34.5t75.5 29.5t28.5 76.5q0 61 -52 96l-169 112q-38 25 -62.5 63.5t-24.5 87.5q0 72 54.5 116.5t149.5 44.5q64 0 116 -20t80 -51v-123h-85q-8 83 -36 116.5t-74 33.5
q-45 0 -69.5 -26.5t-24.5 -68.5q0 -53 45 -83l177 -116q44 -29 68 -71.5t24 -90.5q0 -50 -27.5 -89t-78 -61t-117.5 -22q-70 0 -123 22.5z" />
    <glyph glyph-name="X.ss01" horiz-adv-x="676" 
d="M661 48v-48h-293v48h74l-130 215l-148 -215h76v-48h-225v48h80l185 268l-171 284h-78v48h294v-48h-73l111 -185l125 185h-79v48h222v-48h-78l-158 -238l188 -314h78z" />
    <glyph glyph-name="Zacute.loclPLK" horiz-adv-x="546" 
d="M307 699h-54v155h94zM526 182v-182h-506v45l361 555h-223l-54 -134h-63v182h477v-41l-361 -559h253l52 134h64z" />
    <glyph glyph-name="cacute.loclPLK" horiz-adv-x="471" 
d="M215 668h94l-40 -155h-54v155zM135.5 18.5q-46.5 29.5 -72.5 82t-26 118.5q0 62 25.5 118t75 91t117.5 35q48 0 95 -16.5t71 -40.5v-93h-80q-4 55 -28 80.5t-56 25.5q-60 0 -85 -45t-25 -117q0 -49 13.5 -95.5t41 -76.5t67.5 -30q46 0 76 26t42 72h44q-13 -70 -61.5 -117
t-126.5 -47q-61 0 -107.5 29.5z" />
    <glyph glyph-name="nacute.loclPLK" horiz-adv-x="536" 
d="M290 513h-54v155h94zM524 43v-43h-235v43h62v262q0 110 -67 110q-40 0 -64 -30t-24 -79v-263h60v-43h-233v43h62v366h-62v41l171 10l2 -39q20 20 50 31t65 11q74 0 113 -40.5t39 -117.5v-262h61z" />
    <glyph glyph-name="oacute.loclPLK" horiz-adv-x="497" 
d="M214 668h94l-40 -155h-54v155zM137 18.5q-47 29.5 -73.5 82.5t-26.5 120q0 68 27.5 123.5t76 87t110.5 31.5q59 0 107 -29t75 -81.5t27 -118.5q0 -68 -28.5 -124t-78 -88.5t-111.5 -32.5q-58 0 -105 29.5zM318.5 78q23.5 45 23.5 129q0 91 -27 152t-75 61
q-40 0 -63.5 -45t-23.5 -129q0 -91 27 -152t75 -61q40 0 63.5 45z" />
    <glyph glyph-name="sacute.loclPLK" horiz-adv-x="427" 
d="M185 668h94l-40 -155h-54v155zM107.5 4.5q-47.5 15.5 -70.5 39.5v109h76q0 -58 25 -89t69 -31q34 0 53.5 17.5t19.5 46.5q0 37 -32 56l-134 79q-35 21 -53 49t-18 60q0 54 47 88t120 34q49 0 95.5 -15.5t70.5 -39.5v-108h-79q0 60 -21.5 90t-61.5 30q-32 0 -49 -16.5
t-17 -44.5q0 -34 30 -51l133 -75q36 -21 56 -51.5t20 -63.5q0 -37 -23.5 -66t-64.5 -46t-93 -17q-51 0 -98.5 15.5z" />
    <glyph glyph-name="x.ss01" horiz-adv-x="522" 
d="M512 44v-44h-247v44h59l-85 124l-94 -124h54v-44h-184v44h62l131 171l-133 194h-54v43h225v-43h-46l79 -116l87 116h-51v43h174v-43h-58l-121 -161l141 -204h61z" />
    <glyph glyph-name="zacute.loclPLK" horiz-adv-x="443" 
d="M245 513h-54v155h94zM418 153v-153h-393v39l260 370h-139l-42 -107h-61v150h364v-36l-254 -372h162l43 109h60z" />
    <glyph glyph-name="uni0414.loclBGR" horiz-adv-x="663" 
d="M655 48v-206h-55l-59 158h-419l-59 -158h-55v206h76l214 600h71l214 -600h72zM143 48h313l-152 450h-5z" />
    <glyph glyph-name="uni041B.loclBGR" horiz-adv-x="665" 
d="M657 48v-48h-277v48h78l-152 450h-5l-156 -450h74v-48h-209v48h76l214 600h71l214 -600h72z" />
    <glyph glyph-name="uni0432.loclBGR" horiz-adv-x="489" 
d="M410.5 295q41.5 -48 41.5 -116q0 -53 -27.5 -96.5t-76.5 -68.5t-113 -25q-92 0 -134.5 54t-42.5 146v299q0 76 46.5 124t128.5 48q56 0 97.5 -22.5t63.5 -58.5t22 -75q0 -48 -32 -88.5t-75 -55.5q60 -17 101.5 -65zM284 50.5q24 18.5 38.5 51.5t14.5 75q0 62 -32.5 104.5
t-91.5 40.5l-2 40q46 4 70 45t24 96q0 49 -18 82t-55 33q-30 0 -48 -23t-18 -63v-382q0 -118 69 -118q25 0 49 18.5z" />
    <glyph glyph-name="uni0432.loclBGR.headline" horiz-adv-x="588" 
d="M524.5 289q31.5 -43 31.5 -101q0 -54 -27 -97t-76 -67t-113 -24h-317v48h78v552h-78v48h316q52 0 93.5 -20.5t64.5 -57.5t23 -84q0 -40 -22 -75t-58 -59q53 -20 84.5 -63zM222 600v-233h90q37 0 61.5 32t24.5 85q0 54 -25.5 85t-60.5 31h-90zM376 64.5q24 16.5 39 48
t15 74.5q0 53 -30 91.5t-76 38.5h-102v-269h103q27 0 51 16.5z" />
    <glyph glyph-name="uni0433.loclBGR" horiz-adv-x="427" 
d="M87 25q-49 36 -49 92q0 34 19.5 64.5t56.5 51.5l126 71q37 21 37 52q0 28 -15.5 46t-49.5 18q-83 0 -83 -120h-79v108q24 24 70.5 39.5t96.5 15.5q74 0 119.5 -35t45.5 -88q0 -35 -19.5 -63t-51.5 -46l-135 -79q-31 -18 -31 -48q0 -26 21 -40.5t56 -14.5q50 0 87 28.5
t50 75.5h44q-15 -73 -62.5 -118.5t-130.5 -45.5q-74 0 -123 36z" />
    <glyph glyph-name="uni0434.loclBGR" horiz-adv-x="522" 
d="M457 463v-463q0 -91 -49.5 -149.5t-146.5 -58.5q-81 0 -135 46t-67 113h44q11 -44 48 -71.5t84 -27.5q46 0 77.5 34.5t31.5 96.5v45q-45 -39 -116 -39q-58 0 -101.5 31t-66.5 81t-23 106q0 65 23 123.5t70.5 95.5t116.5 37q28 0 53 -10.5t44 -29.5v17zM318 66
q26 27 26 76v160q0 55 -28 83t-67 28q-49 0 -72 -46.5t-23 -122.5q0 -83 24 -144t80 -61q34 0 60 27z" />
    <glyph glyph-name="uni0436.loclBGR" horiz-adv-x="802" 
d="M797 43v-43h-152l-164 224h-24v-181h62v-43h-236v43h62v181h-24l-164 -224h-152v43h57l170 227l-67 103q-26 41 -62 41q-14 0 -26 -6t-26 -21l-32 36q21 19 40.5 29.5t45.5 10.5q61 0 106 -69l82 -125h52v369h-69v40l181 12v-421h52l82 125q22 34 47 51.5t58 17.5
q26 0 46 -10.5t41 -29.5l-32 -36q-14 15 -26 21t-26 6q-36 0 -62 -41l-67 -103l170 -227h57z" />
    <glyph glyph-name="uni0437.loclBGR" horiz-adv-x="446" 
d="M381 101.5q43 -49.5 43 -116.5q0 -53 -28.5 -96.5t-77.5 -68.5t-108 -25q-82 0 -128 46t-60 117h44q14 -50 47.5 -79.5t78.5 -29.5q50 0 82.5 37t32.5 97q0 59 -31.5 100t-85.5 41h-15v39q47 4 75.5 49t28.5 102q0 45 -19.5 75.5t-58.5 30.5q-33 0 -56.5 -27t-23.5 -93
h-79v108q24 24 70.5 39.5t94.5 15.5q57 0 99 -22t64.5 -57t22.5 -73q0 -49 -34.5 -89t-78.5 -55q58 -16 101 -65.5z" />
    <glyph glyph-name="uni0438.loclBGR" horiz-adv-x="534" 
d="M514 44v-41l-172 -11l-2 36q-19 -19 -48.5 -29t-64.5 -10q-154 0 -154 157v263h-61v43h173v-306q0 -109 65 -109q38 0 64 27t26 82v263h-61v43h173v-408h62z" />
    <glyph glyph-name="uni0439.loclBGR" horiz-adv-x="534" 
d="M514 44v-41l-172 -11l-2 36q-19 -19 -48.5 -29t-64.5 -10q-154 0 -154 157v263h-61v43h173v-306q0 -109 65 -109q38 0 64 27t26 82v263h-61v43h173v-408h62zM177.5 550q-36.5 31 -37.5 80h58q2 -30 22 -46t47 -16t47 16t22 46h58q-1 -49 -37.5 -80t-89.5 -31t-89.5 31z
" />
    <glyph glyph-name="uni043A.loclBGR" horiz-adv-x="536" 
d="M531 43v-43h-152l-164 224h-24v-181h62v-43h-236v43h62v595h-69v40l181 12v-421h52l82 125q46 69 105 69q26 0 46 -10.5t41 -29.5l-32 -36q-14 14 -24.5 20.5t-27.5 6.5q-36 0 -62 -41l-67 -103l170 -227h57z" />
    <glyph glyph-name="uni043B.loclBGR" horiz-adv-x="482" 
d="M498 43v-43h-244v43h63l-106 281l-102 -281h69v-43h-194v43h67l153 417h67l167 -417h60z" />
    <glyph glyph-name="uni043C.loclBGR" horiz-adv-x="660" 
d="M577 409v-366h60v-43h-230v43h59v294l-134 -294h-56l-143 289v-289h59v-43h-169v43h61v366h-61v43h168l141 -289l133 289h172v-43h-60z" />
    <glyph glyph-name="uni043F.loclBGR" horiz-adv-x="536" 
d="M524 43v-43h-235v43h62v262q0 110 -67 110q-40 0 -64 -30t-24 -79v-263h60v-43h-233v43h62v366h-62v41l171 10l2 -39q20 20 50 31t65 11q74 0 113 -40.5t39 -117.5v-262h61z" />
    <glyph glyph-name="uni0442.loclBGR" horiz-adv-x="770" 
d="M758 43v-43h-221v43h48v262q0 54 -16 82t-44 28q-31 0 -55 -24.5t-24 -78.5v-269h55v-43h-218v43h53v262q0 55 -15.5 82.5t-45.5 27.5q-32 0 -55.5 -26t-23.5 -83v-263h51v-43h-224v43h61v366h-61v41l171 10l1 -38q17 18 44.5 29.5t58.5 11.5q42 0 76.5 -16.5t51.5 -39.5
q48 56 128 56q65 0 104 -39.5t39 -118.5v-262h61z" />
    <glyph glyph-name="uni0446.loclBGR" horiz-adv-x="534" 
d="M513 43v-160h-49l-49 113l-73 -5l-2 37q-19 -19 -48.5 -29t-64.5 -10q-154 0 -154 157v263h-61v43h173v-306q0 -109 65 -109q38 0 64 27t26 82v263h-61v43h172v-409h62z" />
    <glyph glyph-name="uni0448.loclBGR" horiz-adv-x="770" 
d="M747 43v-41l-171 -10l-1 38q-17 -18 -44.5 -29.5t-58.5 -11.5q-42 0 -76.5 16.5t-51.5 39.5q-48 -56 -128 -56q-65 0 -104 39.5t-39 118.5v262h-61v43h173v-305q0 -54 16 -82t44 -28q31 0 55 24.5t24 78.5v269h-61v43h171v-305q0 -55 15.5 -82.5t45.5 -27.5q32 0 55.5 26
t23.5 83v263h-57v43h169v-409h61z" />
    <glyph glyph-name="uni0449.loclBGR" horiz-adv-x="770" 
d="M747 43v-160h-49l-49 114l-73 -5l-1 38q-17 -18 -44.5 -29.5t-58.5 -11.5q-42 0 -76.5 16.5t-51.5 39.5q-48 -56 -128 -56q-65 0 -104 39.5t-39 118.5v262h-61v43h173v-305q0 -54 16 -82t44 -28q31 0 55 24.5t24 78.5v269h-61v43h171v-305q0 -55 15.5 -82.5t45.5 -27.5
q32 0 55.5 26t23.5 83v263h-57v43h169v-409h61z" />
    <glyph glyph-name="uni044C.loclBGR" horiz-adv-x="522" 
d="M405.5 335.5q39.5 -22.5 62 -64t22.5 -96.5q0 -45 -21 -87.5t-66.5 -70t-114.5 -27.5q-90 0 -144 41t-54 132v246h-68v43h179v-145q17 23 47.5 37t67.5 14q50 0 89.5 -22.5zM339.5 48q18.5 17 23.5 46t5 77q0 83 -19.5 113t-58.5 30q-17 0 -37.5 -10.5t-36 -35
t-15.5 -62.5v-70q0 -43 22.5 -74t60.5 -31q37 0 55.5 17z" />
    <glyph glyph-name="uni044A.loclBGR" horiz-adv-x="621" 
d="M243 31.5q-54 41.5 -54 131.5v246h-70l-40 -107h-61v150h282v-145q17 23 47.5 37t69.5 14q49 0 88 -23t61.5 -64t22.5 -92q0 -48 -20.5 -91t-67 -70.5t-119.5 -27.5q-85 0 -139 41.5zM452.5 66.5q14.5 35.5 14.5 94.5q0 71 -14.5 112t-57.5 41q-35 0 -65 -26.5t-30 -81.5
v-70q0 -44 22.5 -74.5t66.5 -30.5q49 0 63.5 35.5z" />
    <glyph glyph-name="uni044E.loclBGR" horiz-adv-x="744" 
d="M614.5 429q47.5 -34 70 -86t22.5 -106q0 -61 -25 -118t-73.5 -93.5t-115.5 -36.5q-66 0 -113 31t-71 82t-26 110h-92v-169h62v-43h-236v43h62v593h-69v40l181 12v-431h94q7 55 34 102t72.5 75.5t105.5 28.5q70 0 117.5 -34zM566.5 80q22.5 47 22.5 116q0 96 -25 160
t-75 64q-44 0 -66.5 -47t-22.5 -116q0 -96 25 -160t75 -64q44 0 66.5 47z" />
    <glyph glyph-name="uni044A0300.loclBGR.rlig" horiz-adv-x="621" 
d="M243 31.5q-54 41.5 -54 131.5v246h-70l-40 -107h-61v150h282v-145q17 23 47.5 37t69.5 14q49 0 88 -23t61.5 -64t22.5 -92q0 -48 -20.5 -91t-67 -70.5t-119.5 -27.5q-85 0 -139 41.5zM452.5 66.5q14.5 35.5 14.5 94.5q0 71 -14.5 112t-57.5 41q-35 0 -65 -26.5t-30 -81.5
v-70q0 -44 22.5 -74.5t66.5 -30.5q49 0 63.5 35.5zM245 616l65 71l145 -166h-65z" />
    <glyph glyph-name="uni044E0300.loclBGR.rlig" horiz-adv-x="744" 
d="M614.5 429q47.5 -34 70 -86t22.5 -106q0 -61 -25 -118t-73.5 -93.5t-115.5 -36.5q-66 0 -113 31t-71 82t-26 110h-92v-169h62v-43h-236v43h62v593h-69v40l181 12v-431h94q7 55 34 102t72.5 75.5t105.5 28.5q70 0 117.5 -34zM566.5 80q22.5 47 22.5 116q0 96 -25 160
t-75 64q-44 0 -66.5 -47t-22.5 -116q0 -96 25 -160t75 -64q44 0 66.5 47zM383 604l65 71l145 -166h-65z" />
    <glyph glyph-name="zero.lf" horiz-adv-x="584" 
d="M159 31q-58 42 -90 117.5t-32 171.5q0 98 33 175t91 120t131 43t131 -43t91 -120t33 -175q0 -96 -32 -171.5t-90 -117.5t-133 -42t-133 42zM393 107.5q35 74.5 35 216.5t-34.5 216.5t-101.5 74.5t-101.5 -74.5t-34.5 -216.5t35 -216.5t101 -74.5t101 74.5z" />
    <glyph glyph-name="one.lf" horiz-adv-x="426" 
d="M373 48v-48h-311v48h99v494l-81 -53l-27 41l174 118h46v-600h100z" />
    <glyph glyph-name="two.lf" horiz-adv-x="501" 
d="M448 108v-108h-409v38q122 122 182.5 194.5t83 123t22.5 106.5q0 70 -26.5 111t-78.5 41q-46 0 -74 -34.5t-34 -115.5h-79v120q32 32 80 53t108 21q56 0 106.5 -21t83 -64t32.5 -106q0 -48 -24.5 -92t-83.5 -103.5t-178 -163.5h289z" />
    <glyph glyph-name="three.lf" horiz-adv-x="520" 
d="M438.5 295q35.5 -45 35.5 -111q0 -65 -36.5 -109t-91 -65t-106.5 -21q-66 0 -122.5 34t-89.5 94l39 24q27 -48 68.5 -72t89.5 -24q56 0 93 33t37 103q0 62 -30.5 97.5t-85.5 35.5h-38v47q34 0 65 15.5t50.5 45.5t19.5 73q0 50 -26 84.5t-73 34.5q-93 0 -105 -150h-79v121
q33 36 82 54.5t106 18.5q61 0 109 -21t75 -59t27 -87t-26 -83.5t-67 -53.5q44 -14 79.5 -59z" />
    <glyph glyph-name="four.lf" horiz-adv-x="570" 
d="M531 147h-91v-147h-112v147h-282v57l245 444h149v-424h91v-77zM328 224v368h-14l-198 -368h212z" />
    <glyph glyph-name="five.lf" horiz-adv-x="530" 
d="M360.5 395q48.5 -25 77.5 -72.5t29 -113.5q0 -73 -37 -122.5t-92 -73.5t-108 -24q-65 0 -120.5 33t-85.5 91l37 23q24 -45 64.5 -68t84.5 -23q34 0 66 16t52.5 51t20.5 88q0 80 -37.5 119.5t-92.5 39.5q-31 0 -57 -12t-42 -33h-52l26 334h343v-106h-301l-13 -167
q21 20 55 32.5t76 12.5q58 0 106.5 -25z" />
    <glyph glyph-name="six.lf" horiz-adv-x="555" 
d="M404 389.5q47 -24.5 76.5 -71.5t29.5 -111q0 -66 -31.5 -115.5t-83 -76t-108.5 -26.5q-63 0 -118.5 33t-90.5 103t-35 177q0 108 37 189t97.5 124t129.5 43q53 0 98 -25t75 -72l-36 -31q-25 38 -57.5 57t-66.5 19q-65 0 -105.5 -65.5t-48.5 -181.5q28 26 64.5 40.5
t75.5 14.5q51 0 98 -24.5zM368 75.5q23 43.5 23 113.5q0 85 -31.5 129t-79.5 44q-34 0 -65.5 -22t-48.5 -59q3 -78 21 -134t47.5 -85.5t65.5 -29.5q45 0 68 43.5z" />
    <glyph glyph-name="seven.lf" horiz-adv-x="460" 
d="M456 648v-48l-274 -600h-60l251 543h-267l-29 -77h-55v182h434z" />
    <glyph glyph-name="eight.lf" horiz-adv-x="568" 
d="M482.5 282q32.5 -44 32.5 -104q0 -62 -32.5 -104.5t-85.5 -63.5t-113 -21q-59 0 -112 21t-86 63.5t-33 104.5q0 60 32.5 104t86.5 62q-40 22 -67.5 61.5t-27.5 90.5q0 53 29 89.5t76 54.5t102 18t102 -18t76 -54.5t29 -89.5q0 -51 -27.5 -90.5t-67.5 -61.5
q54 -18 86.5 -62zM216 581.5q-27 -34.5 -27 -89.5t28 -92t67 -37t67 37t28 92t-27 89.5t-68 34.5t-68 -34.5zM363 72q30 39 30 105t-29.5 105t-79.5 39t-79.5 -39t-29.5 -105t30 -105t79 -39t79 39z" />
    <glyph glyph-name="nine.lf" horiz-adv-x="555" 
d="M388.5 624.5q55.5 -33.5 90.5 -105t35 -177.5q0 -108 -36 -188t-96 -122.5t-129 -42.5q-56 0 -105.5 29.5t-80.5 81.5l39 26q26 -46 60.5 -67t71.5 -21q64 0 105 65t48 185q-27 -27 -61.5 -41t-72.5 -14q-53 0 -101 24t-78.5 71t-30.5 112q0 66 31.5 115.5t83.5 76
t110 26.5q61 0 116.5 -33.5zM343.5 304.5q30.5 22.5 48.5 59.5q-4 123 -41 186.5t-92 63.5q-47 0 -70 -43t-23 -114q0 -85 32.5 -130t82.5 -45q32 0 62.5 22.5z" />
    <glyph glyph-name="zero.sinf" horiz-adv-x="364" 
d="M74.5 -71.5q-40.5 46.5 -40.5 121.5q0 50 19 90t53 62t76 22t76 -22.5t53 -62t19 -90.5q0 -75 -40.5 -121t-107.5 -46t-107.5 46.5zM253 53q0 143 -71 143t-71 -143q0 -142 71 -142t71 142z" />
    <glyph glyph-name="one.sinf" horiz-adv-x="271" 
d="M229 -81v-31h-186v31h54v235l-38 -24l-17 26l99 64h31v-301h57z" />
    <glyph glyph-name="two.sinf" horiz-adv-x="305" 
d="M234 51.5q-33 -39.5 -110 -92.5h138v-71h-223v21q62 56 94 91t45 61t13 55q0 38 -15 59t-41 21q-45 0 -49 -76h-52v62q47 41 105 41q59 0 93.5 -25t34.5 -69q0 -38 -33 -77.5z" />
    <glyph glyph-name="three.sinf" horiz-adv-x="314" 
d="M265.5 37.5q17.5 -23.5 17.5 -55.5q0 -27 -17.5 -50t-48 -36.5t-65.5 -13.5q-41 0 -73.5 19.5t-52.5 55.5l24 14q31 -53 89 -53q66 0 66 65q0 61 -54 61h-26v32q30 0 50 18.5t20 46.5q0 24 -14.5 39.5t-36.5 15.5q-46 0 -53 -76h-53v63q19 20 47.5 30.5t61.5 10.5
q54 0 89 -25t35 -64q0 -23 -14 -40.5t-37 -25.5q28 -8 45.5 -31.5z" />
    <glyph glyph-name="four.sinf" horiz-adv-x="331" 
d="M305 -36h-43v-76h-75v76h-156v38l130 218h101v-213h43v-43zM187 7v183h-8l-106 -183h114z" />
    <glyph glyph-name="five.sinf" horiz-adv-x="317" 
d="M248.5 72q35.5 -30 35.5 -80q0 -37 -22 -62t-54 -36.5t-62 -11.5q-36 0 -67.5 18t-48.5 52l22 13q13 -24 35 -35.5t44 -11.5q29 0 52 15.5t23 53.5q0 39 -19 57.5t-47 18.5q-39 0 -53 -19h-34l16 176h199v-68h-172l-7 -72q26 22 72 22q52 0 87.5 -30z" />
    <glyph glyph-name="six.sinf" horiz-adv-x="328" 
d="M240 88q26 -13 42.5 -38t16.5 -57q0 -52 -38 -81.5t-87 -29.5q-55 0 -97.5 35.5t-42.5 125.5q0 55 20.5 96.5t54.5 63t74 21.5q61 0 97 -51l-22 -18q-28 35 -66 35q-32 0 -52.5 -28t-24.5 -82q28 21 71 21q28 0 54 -13zM210 -69.5q10 20.5 10 53.5q0 40 -14.5 61.5
t-37.5 21.5q-14 0 -29 -7.5t-25 -21.5q2 -58 20.5 -93t45.5 -35q20 0 30 20.5z" />
    <glyph glyph-name="seven.sinf" horiz-adv-x="288" 
d="M274 220v-32l-149 -300h-39l132 264h-142l-12 -29h-38v97h248z" />
    <glyph glyph-name="eight.sinf" horiz-adv-x="358" 
d="M299.5 31q17.5 -24 17.5 -51q0 -47 -40.5 -72.5t-97.5 -25.5t-97 25t-40 73q0 27 18.5 51t47.5 33q-24 14 -38.5 34t-14.5 43q0 40 36.5 61.5t88.5 21.5q51 0 87 -22t36 -61q0 -22 -14 -42t-36 -35q29 -9 46.5 -33zM147 181.5q-13 -16.5 -13 -42.5t13.5 -44.5t32.5 -18.5
t33 19t14 44t-13.5 42t-33.5 17t-33 -16.5zM219.5 -70.5q16.5 18.5 16.5 49.5q0 30 -14.5 50.5t-41.5 20.5t-40.5 -20t-13.5 -51t15 -49.5t39 -18.5q23 0 39.5 18.5z" />
    <glyph glyph-name="nine.sinf" horiz-adv-x="341" 
d="M264.5 186.5q42.5 -37.5 42.5 -125.5q0 -56 -20.5 -96.5t-54.5 -61.5t-74 -21q-65 0 -102 56l24 17q14 -25 30.5 -34t35.5 -9q32 0 53 27.5t26 84.5q-25 -19 -64 -19q-46 0 -82.5 29t-36.5 80t38.5 80.5t88.5 29.5q53 0 95.5 -37.5zM202 43.5q14 7.5 24 22.5
q-1 66 -20 97.5t-45 31.5q-21 0 -30.5 -20t-9.5 -54q0 -40 15 -62.5t40 -22.5q12 0 26 7.5z" />
    <glyph glyph-name="zero.dnom" horiz-adv-x="364" 
d="M74.5 40.5q-40.5 46.5 -40.5 121.5q0 50 19 90t53 62t76 22t76 -22.5t53 -62t19 -90.5q0 -75 -40.5 -121t-107.5 -46t-107.5 46.5zM253 165q0 143 -71 143t-71 -143q0 -142 71 -142t71 142z" />
    <glyph glyph-name="one.dnom" horiz-adv-x="271" 
d="M229 31v-31h-186v31h54v235l-38 -24l-17 26l99 64h31v-301h57z" />
    <glyph glyph-name="two.dnom" horiz-adv-x="305" 
d="M234 163.5q-33 -39.5 -110 -92.5h138v-71h-223v21q62 56 94 91t45 61t13 55q0 38 -15 59t-41 21q-45 0 -49 -76h-52v62q47 41 105 41q59 0 93.5 -25t34.5 -69q0 -38 -33 -77.5z" />
    <glyph glyph-name="three.dnom" horiz-adv-x="314" 
d="M265.5 149.5q17.5 -23.5 17.5 -55.5q0 -27 -17.5 -50t-48 -36.5t-65.5 -13.5q-41 0 -73.5 19.5t-52.5 55.5l24 14q31 -53 89 -53q66 0 66 65q0 61 -54 61h-26v32q30 0 50 18.5t20 46.5q0 24 -14.5 39.5t-36.5 15.5q-46 0 -53 -76h-53v63q19 20 47.5 30.5t61.5 10.5
q54 0 89 -25t35 -64q0 -23 -14 -40.5t-37 -25.5q28 -8 45.5 -31.5z" />
    <glyph glyph-name="four.dnom" horiz-adv-x="331" 
d="M305 76h-43v-76h-75v76h-156v38l130 218h101v-213h43v-43zM187 119v183h-8l-106 -183h114z" />
    <glyph glyph-name="five.dnom" horiz-adv-x="317" 
d="M248.5 184q35.5 -30 35.5 -80q0 -37 -22 -62t-54 -36.5t-62 -11.5q-36 0 -67.5 18t-48.5 52l22 13q13 -24 35 -35.5t44 -11.5q29 0 52 15.5t23 53.5q0 39 -19 57.5t-47 18.5q-39 0 -53 -19h-34l16 176h199v-68h-172l-7 -72q26 22 72 22q52 0 87.5 -30z" />
    <glyph glyph-name="six.dnom" horiz-adv-x="328" 
d="M240 200q26 -13 42.5 -38t16.5 -57q0 -52 -38 -81.5t-87 -29.5q-55 0 -97.5 35.5t-42.5 125.5q0 55 20.5 96.5t54.5 63t74 21.5q61 0 97 -51l-22 -18q-28 35 -66 35q-32 0 -52.5 -28t-24.5 -82q28 21 71 21q28 0 54 -13zM210 42.5q10 20.5 10 53.5q0 40 -14.5 61.5
t-37.5 21.5q-14 0 -29 -7.5t-25 -21.5q2 -58 20.5 -93t45.5 -35q20 0 30 20.5z" />
    <glyph glyph-name="seven.dnom" horiz-adv-x="288" 
d="M274 332v-32l-149 -300h-39l132 264h-142l-12 -29h-38v97h248z" />
    <glyph glyph-name="eight.dnom" horiz-adv-x="358" 
d="M299.5 143q17.5 -24 17.5 -51q0 -47 -40.5 -72.5t-97.5 -25.5t-97 25t-40 73q0 27 18.5 51t47.5 33q-24 14 -38.5 34t-14.5 43q0 40 36.5 61.5t88.5 21.5q51 0 87 -22t36 -61q0 -22 -14 -42t-36 -35q29 -9 46.5 -33zM147 293.5q-13 -16.5 -13 -42.5t13.5 -44.5
t32.5 -18.5t33 19t14 44t-13.5 42t-33.5 17t-33 -16.5zM219.5 41.5q16.5 18.5 16.5 49.5q0 30 -14.5 50.5t-41.5 20.5t-40.5 -20t-13.5 -51t15 -49.5t39 -18.5q23 0 39.5 18.5z" />
    <glyph glyph-name="nine.dnom" horiz-adv-x="341" 
d="M264.5 298.5q42.5 -37.5 42.5 -125.5q0 -56 -20.5 -96.5t-54.5 -61.5t-74 -21q-65 0 -102 56l24 17q14 -25 30.5 -34t35.5 -9q32 0 53 27.5t26 84.5q-25 -19 -64 -19q-46 0 -82.5 29t-36.5 80t38.5 80.5t88.5 29.5q53 0 95.5 -37.5zM202 155.5q14 7.5 24 22.5
q-1 66 -20 97.5t-45 31.5q-21 0 -30.5 -20t-9.5 -54q0 -40 15 -62.5t40 -22.5q12 0 26 7.5z" />
    <glyph glyph-name="zero.numr" horiz-adv-x="364" 
d="M74.5 365.5q-40.5 46.5 -40.5 121.5q0 50 19 90t53 62t76 22t76 -22.5t53 -62t19 -90.5q0 -75 -40.5 -121t-107.5 -46t-107.5 46.5zM253 490q0 143 -71 143t-71 -143q0 -142 71 -142t71 142z" />
    <glyph glyph-name="one.numr" horiz-adv-x="271" 
d="M229 356v-31h-186v31h54v235l-38 -24l-17 26l99 64h31v-301h57z" />
    </font>
</defs>
</svg>
